<svg width="636" height="636" viewBox="0 0 636 636" fill="none" xmlns="http://www.w3.org/2000/svg">
<g clip-path="url(#clip0_6169_42050)">
<circle cx="318" cy="318" r="318" fill="white"/>
</g>
<path d="M636 496.843H0V497.161H636V496.843Z" fill="#1F1B2D"/>
<path d="M515.809 510.678H489.682V510.996H515.809V510.678Z" fill="#1F1B2D"/>
<path d="M541.274 510.513H525.132V510.831H541.274V510.513Z" fill="#1F1B2D"/>
<path d="M401.57 510.513H352.204V510.831H401.57V510.513Z" fill="#1F1B2D"/>
<path d="M256.524 516.095H196.155V516.413H256.524V516.095Z" fill="#1F1B2D"/>
<path d="M130.393 506.037H121.4V506.355H130.393V506.037Z" fill="#1F1B2D"/>
<path d="M206.776 506.037H137.465V506.355H206.776V506.037Z" fill="#1F1B2D"/>
<path d="M125.903 513.717H89.4854V514.035H125.903V513.717Z" fill="#1F1B2D"/>
<path d="M109.265 496.843H126.144C126.144 496.843 136.727 478.188 146.661 455.26C155.934 433.884 140.136 424.957 130.215 445.964C117.596 472.694 109.265 496.843 109.265 496.843Z" fill="#9691A4"/>
<path d="M113.882 496.843H140.022C140.022 496.843 166.34 484.393 164.877 460.83C164.482 454.662 157.436 450.657 151.19 453.047C123.13 463.805 113.882 496.843 113.882 496.843Z" fill="#9691A4"/>
<path d="M98.2362 496.843H72.0966C72.0966 496.843 55.9676 482.549 50.7652 463.373C48.3356 454.535 60.2288 448.444 67.4156 454.751C84.2315 469.528 98.2362 496.843 98.2362 496.843Z" fill="#BBB7C5"/>
<path d="M109.24 496.843H83.1C83.1 496.843 68.154 466.145 73.9289 443.802C74.3766 442.051 75.2911 440.454 76.575 439.181C77.8588 437.908 79.4639 437.007 81.2194 436.573C82.9749 436.14 84.8151 436.191 86.544 436.721C88.2729 437.25 89.8258 438.238 91.0373 439.58C110.804 461.326 109.24 496.843 109.24 496.843Z" fill="#BBB7C5"/>
<path d="M99.2157 496.843H125.343C125.343 496.843 133.242 453.251 123.88 425.796C121.081 417.594 111.16 416.157 106.555 423.253C89.523 449.804 99.2157 496.843 99.2157 496.843Z" fill="#BBB7C5"/>
<path d="M272.348 264.895L345.984 206.438L560.634 275.488H272.348V264.895Z" fill="#D5D2DC"/>
<path d="M551.098 286.362V496.734H427.626V286.362H551.098Z" fill="#F5F4F8" stroke="#454056"/>
<path d="M520.032 496.843H496.436C496.436 496.843 481.897 485.398 477.165 469.935C474.99 462.826 485.713 457.918 492.2 462.992C507.388 474.881 520.032 496.843 520.032 496.843Z" fill="#D5D2DC"/>
<path d="M529.979 496.843H506.37C506.37 496.843 492.874 472.16 498.089 454.192C499.896 447.961 508.673 446.041 513.532 450.797C531.39 468.282 529.979 496.843 529.979 496.843Z" fill="#D5D2DC"/>
<path d="M530.004 496.843H545.268C552.012 486.02 558.202 474.862 563.814 463.411C572.184 446.218 557.912 439.034 548.957 455.934C541.924 469.228 535.598 482.883 530.004 496.843Z" fill="#D5D2DC"/>
<path d="M534.164 496.843H557.772C557.772 496.843 581.546 486.835 580.21 467.888C579.867 462.928 573.494 459.711 567.859 461.631C542.521 470.278 534.164 496.843 534.164 496.843Z" fill="#D5D2DC"/>
<path d="M520.922 496.843H544.517C544.517 496.843 551.653 461.797 543.245 439.708C542.654 438.21 541.671 436.898 540.399 435.909C539.128 434.919 537.614 434.289 536.016 434.084C534.418 433.879 532.794 434.106 531.314 434.742C529.833 435.378 528.551 436.399 527.6 437.699C512.17 459.012 520.922 496.843 520.922 496.843Z" fill="#D5D2DC"/>
<path d="M428.944 286.093H551.628L560.634 275.488H428.944V286.093Z" fill="#666276"/>
<path d="M489.428 303.629H382.973C378.554 303.629 374.973 307.211 374.973 311.629V398.073C374.973 402.491 378.554 406.073 382.973 406.073H489.428C493.846 406.073 497.428 402.491 497.428 398.073V311.629C497.428 307.211 493.846 303.629 489.428 303.629Z" fill="#9691A4"/>
<path d="M491.679 399.6V310.089H380.735V399.6H491.679Z" fill="white"/>
<path d="M495.062 350.502H377.364V359.174H495.062V350.502Z" fill="#9691A4"/>
<path d="M116.252 496.33V249.944H428.444V496.33H116.252Z" fill="#F9F8FA" stroke="#454056"/>
<path d="M278.53 288.418H148.021C143.603 288.418 140.021 292 140.021 296.418V402.979C140.021 407.398 143.603 410.979 148.021 410.979H278.53C282.949 410.979 286.53 407.398 286.53 402.979V296.418C286.53 292 282.949 288.418 278.53 288.418Z" fill="#9691A4"/>
<path d="M279.636 403.248V296.15H146.903V403.248H279.636Z" fill="white"/>
<path d="M279.649 381.122V296.138H146.916V381.122H279.649Z" fill="white"/>
<path d="M283.898 376.168H143.228V383.839H283.898V376.168Z" fill="#9691A4"/>
<path d="M326.086 466.551H397.796C401.11 466.551 403.796 463.864 403.796 460.551V294.61C403.796 291.296 401.11 288.61 397.796 288.61H326.086C322.772 288.61 320.086 291.296 320.086 294.61V460.551C320.086 463.864 322.772 466.551 326.086 466.551Z" fill="#9691A4"/>
<path d="M399.383 463.514V295.617C399.383 293.96 398.04 292.617 396.383 292.617H327.488C325.831 292.617 324.488 293.96 324.488 295.617V463.514C324.488 465.171 325.831 466.514 327.488 466.514H396.383C398.04 466.514 399.383 465.171 399.383 463.514Z" fill="#EFECF3"/>
<path d="M392.755 367.911V299.585H331.089V367.911H392.755Z" fill="#BBB7C5"/>
<path d="M392.768 446.689V378.364H331.101V446.689H392.768Z" fill="#BBB7C5"/>
<path d="M111.332 266.188V244.661L272.515 160.714L433.699 244.661V266.188H111.332Z" fill="#EFECF3" stroke="#454056"/>
<path d="M448.329 256.108L272.348 164.461L96.3667 256.108L92.8433 249.343L272.348 155.852L451.853 249.343L448.329 256.108Z" fill="#666276"/>
<path d="M272.399 244.951C266.75 244.953 261.227 243.28 256.529 240.144C251.831 237.008 248.169 232.549 246.006 227.332C243.842 222.115 243.275 216.374 244.376 210.835C245.477 205.295 248.196 200.207 252.19 196.213C256.184 192.219 261.273 189.498 266.813 188.396C272.354 187.293 278.097 187.858 283.316 190.019C288.535 192.179 292.997 195.839 296.135 200.535C299.274 205.23 300.949 210.751 300.949 216.399C300.941 223.967 297.931 231.223 292.579 236.575C287.227 241.928 279.97 244.94 272.399 244.951ZM272.399 194.114C267.988 194.111 263.674 195.418 260.005 197.867C256.336 200.316 253.476 203.798 251.787 207.872C250.098 211.946 249.655 216.43 250.515 220.756C251.375 225.082 253.5 229.055 256.619 232.174C259.739 235.293 263.714 237.417 268.041 238.276C272.368 239.136 276.853 238.694 280.928 237.005C285.004 235.316 288.487 232.457 290.936 228.789C293.386 225.121 294.693 220.809 294.691 216.399C294.677 210.494 292.323 204.836 288.145 200.663C283.967 196.49 278.305 194.143 272.399 194.134V194.114Z" fill="#9691A4"/>
<path d="M294.482 216.399C294.482 228.596 284.591 238.485 272.389 238.485C260.188 238.485 250.297 228.596 250.297 216.399C250.297 204.201 260.188 194.312 272.389 194.312C284.591 194.312 294.482 204.201 294.482 216.399Z" fill="white" stroke="#454056"/>
<path d="M414.532 463.551H309.338V469.007H414.532V463.551Z" fill="#9691A4"/>
<path d="M312.242 479.697V469.519H411.628V479.697H312.242Z" fill="#EFECF3" stroke="#454056"/>
<path d="M422.52 480.197H301.35V485.652H422.52V480.197Z" fill="#9691A4"/>
<path d="M304.623 496.33V486.152H419.247V496.33H304.623Z" fill="#EFECF3" stroke="#454056"/>
<path d="M395.274 368.928C395.274 369.841 395.003 370.734 394.496 371.493C393.988 372.252 393.267 372.843 392.423 373.193C391.58 373.542 390.651 373.634 389.756 373.455C388.86 373.277 388.037 372.838 387.391 372.192C386.746 371.547 386.306 370.724 386.128 369.829C385.95 368.933 386.041 368.005 386.391 367.162C386.74 366.318 387.332 365.597 388.091 365.09C388.85 364.583 389.743 364.312 390.656 364.312C391.881 364.312 393.055 364.798 393.921 365.664C394.787 366.53 395.274 367.704 395.274 368.928Z" fill="#666276"/>
<path d="M113.645 125.523C106.267 109.589 112.131 98.2334 130.181 98.2334C141.489 98.2334 155.507 102.71 169.168 109.971C170.707 105.825 175.057 103.345 182.053 103.345C194.353 103.345 211.309 110.975 224.614 121.848C227.833 119.444 232.488 117.957 238.479 117.728C250.232 117.232 264.504 121.644 276.944 128.829C278.419 127.447 280.381 126.706 282.401 126.769C289.194 126.489 298.378 130.94 302.931 136.701C303.224 137.069 303.478 137.413 303.72 137.769H104.487C98.1903 132.097 105.148 125.803 113.645 125.523Z" fill="#F5F4F8"/>
<path d="M374.074 152.52C374.64 152.458 375.209 152.428 375.779 152.431C375.257 146.518 378.323 142.741 384.861 142.741C389.593 142.741 395.38 144.712 401.282 148.044C399.603 136.599 405.009 129.109 417.259 129.109C427.142 129.109 439.659 133.967 452.022 141.825C453.104 137.324 456.754 134.628 462.873 134.628C473.621 134.628 488.898 142.957 501.147 154.72C503.793 152.1 507.761 150.485 512.989 150.218C523.229 149.697 535.885 154.478 547.206 162.286C547.741 161.562 548.444 160.979 549.256 160.589C550.067 160.199 550.962 160.013 551.862 160.048C557.458 159.755 565.167 164.066 569.67 169.827H365.068C360.26 161.142 364.089 153.499 374.074 152.52Z" fill="#F5F4F8"/>
<path d="M317.999 555.975C454.208 555.975 564.627 549.53 564.627 541.58C564.627 533.629 454.208 527.185 317.999 527.185C181.79 527.185 71.3711 533.629 71.3711 541.58C71.3711 549.53 181.79 555.975 317.999 555.975Z" fill="#EFECF3"/>
<path d="M277.92 337.335H261.384V538.979H277.92V337.335Z" fill="#454056"/>
<path d="M277.92 337.335C277.92 337.755 274.218 338.111 269.652 338.111C265.085 338.111 261.384 337.755 261.384 337.335C261.384 336.915 265.085 336.559 269.652 336.559C274.218 336.559 277.92 336.902 277.92 337.335Z" fill="#1F1B2D"/>
<path opacity="0.4" d="M277.92 464.004L261.384 462.808V450.372H277.92V464.004Z" fill="black"/>
<path d="M364.938 352.708L184.155 336.864L174.333 448.873L355.116 464.717L364.938 352.708Z" fill="#FD5631"/>
<path opacity="0.4" d="M364.938 352.708L184.155 336.864L174.333 448.873L355.116 464.717L364.938 352.708Z" fill="black"/>
<path d="M168.661 341.522L168.041 348.553L169.308 348.664L169.928 341.634L168.661 341.522Z" fill="#FD5631"/>
<path d="M167.354 356.418L165.832 373.67L167.099 373.782L168.621 356.529L167.354 356.418Z" fill="#FD5631"/>
<path d="M356.853 351.991L176.07 336.147L166.248 448.157L347.031 464L356.853 351.991Z" fill="#FD5631"/>
<path opacity="0.4" d="M357.725 369.419L323.814 367.867L357.496 372.089L357.725 369.419Z" fill="#FD5631"/>
<path opacity="0.4" d="M356.288 373.234L335.363 373.526L355.932 377.24L356.288 373.234Z" fill="#FD5631"/>
<path opacity="0.4" d="M168.731 419.725L187.022 419.916L168.973 417.055L168.731 419.725Z" fill="#FD5631"/>
<path opacity="0.4" d="M170.588 398.616L186.323 397.865L170.931 394.61L170.588 398.616Z" fill="#FD5631"/>
<path opacity="0.4" d="M349.558 452.101L333.811 452.851L349.202 456.119L349.558 452.101Z" fill="#FD5631"/>
<path opacity="0.2" d="M357.725 369.419L323.813 367.867L357.496 372.089L357.725 369.419Z" fill="black"/>
<path opacity="0.2" d="M356.288 373.233L335.363 373.526L355.931 377.239L356.288 373.233Z" fill="black"/>
<path opacity="0.2" d="M168.731 419.725L187.022 419.915L168.973 417.054L168.731 419.725Z" fill="black"/>
<path opacity="0.2" d="M170.588 398.616L186.323 397.865L170.932 394.61L170.588 398.616Z" fill="black"/>
<path opacity="0.2" d="M349.558 452.101L333.811 452.851L349.202 456.119L349.558 452.101Z" fill="black"/>
<path d="M235.527 402.32L231.121 401.934L232.061 391.216L223.249 390.444L219.445 400.911L211.662 400.229L226.26 372.14L213.336 371.007L194.393 407.296L194.18 409.719L217.605 411.772L216.839 420.508L229.396 421.608L230.162 412.872L234.568 413.259L235.527 402.32Z" fill="white"/>
<path d="M259.676 425.594C272.674 426.733 281.927 417.409 283.292 401.846C284.663 386.209 277.24 375.498 264.17 374.353C251.172 373.213 241.925 382.464 240.554 398.1C239.189 413.664 246.752 424.461 259.676 425.594ZM260.693 413.995C255.553 413.544 253.207 408.234 253.992 399.278C254.784 390.248 258.012 385.501 263.152 385.952C268.293 386.402 270.712 391.718 269.927 400.675C269.135 409.704 265.834 414.445 260.693 413.995Z" fill="white"/>
<path d="M327.03 410.34L322.624 409.953L323.564 399.235L314.752 398.463L310.949 408.93L303.165 408.248L317.763 380.159L304.839 379.026L285.896 415.316L285.683 417.738L309.108 419.791L308.342 428.527L320.899 429.628L321.665 420.892L326.071 421.278L327.03 410.34Z" fill="white"/>
<defs>
<clipPath id="clip0_6169_42050">
<rect width="636" height="497" fill="white"/>
</clipPath>
</defs>
</svg>
