<svg width="80" height="80" viewBox="0 0 80 80" fill="none" xmlns="http://www.w3.org/2000/svg">
<g clip-path="url(#clip0_6169_42045)">
<path d="M47.5284 78.3727C48.4876 71.7227 49.21 65.019 50.1691 58.3692C50.3532 57.1171 48.6512 56.2834 47.9095 57.3596C46.3276 59.2903 44.8983 61.2058 43.3164 63.1365C43.1425 60.609 44.1825 58.6549 45.5813 56.434C46.1012 55.457 46.5221 54.2584 45.8051 53.2502C44.722 51.6612 41.9578 51.7814 40.2475 51.6428C35.8954 51.3038 31.5199 51.507 27.1911 50.6258C22.221 49.4999 24.2005 46.9128 27.2257 44.7616C30.3885 42.4426 34.139 40.6051 37.7821 39.2409C44.1825 36.9089 51.1402 34.753 56.2288 30.0834C59.0558 27.4893 61.1901 21.8022 57.3589 18.9437C52.6885 15.3975 44.7327 14.4908 39.0434 15.4412C35.9889 15.7445 16.1023 20.4951 21.094 12.5194C24.7556 6.68066 34.4168 3.79356 40.5956 1.56067C41.4128 1.24818 41.0549 -0.0272281 40.2225 0.132534C33.6475 1.47938 26.8496 4.46777 21.4788 8.62543C18.6214 10.9141 15.3492 16.7913 20.2727 19.0015C26.0052 21.594 33.4443 18.8504 39.3551 17.8008C43.0589 17.0475 47.3725 17.776 50.9913 18.4963C58.7023 20.0441 57.6976 26.2359 52.3653 30.0042C45.8031 34.5887 37.5327 35.9494 30.4899 39.5792C27.9998 40.906 19.4755 45.1453 21.3736 49.5068C23.5691 54.5326 32.5263 53.8745 36.9319 53.977C36.6953 53.9234 44.1018 53.9591 43.7345 54.9211C43.3673 55.8829 42.6109 56.8062 42.0911 57.7833C41.1199 59.6532 40.7598 61.4629 41.0258 63.3642C39.4996 61.9735 37.8359 60.7506 36.0347 59.6956C35.0577 59.1757 33.942 60.366 34.2697 61.336C36.8535 67.9427 41.6757 73.0162 45.3518 78.9746C45.8321 79.9293 47.4129 79.541 47.5284 78.3727ZM41.9702 66.6634C42.4738 67.0761 42.9856 66.7939 43.1768 66.3894C43.5662 66.4278 43.9404 66.3135 44.2155 65.9778C45.1097 64.8865 46.0726 63.7113 46.9667 62.62C46.4446 66.6818 45.9912 70.6598 45.4691 74.7216C43.0358 71.1846 40.3123 67.8306 38.3223 64.0953C39.4822 64.9054 40.7262 65.7844 41.9702 66.6634Z" fill="white"/>
</g>
<defs>
<clipPath id="clip0_6169_42045">
<rect width="80" height="80" fill="white"/>
</clipPath>
</defs>
</svg>
