<svg width="526" height="326" viewBox="0 0 526 326" fill="none" xmlns="http://www.w3.org/2000/svg">
<path d="M476.843 302.507H252.903V171.699L251.874 171.041L288.224 135.798C306.598 117.921 331.217 107.828 356.909 107.64L423.731 107.032L423.827 107.145L476.999 170.113L476.842 171.856L476.843 302.507Z" fill="#F5F4F8"/>
<path d="M429.013 131.714H295.081V132.975H429.013V131.714Z" fill="white"/>
<path d="M415.713 144.954H281.78V146.215H415.713V144.954Z" fill="white"/>
<path d="M493.566 231.633H469.22V253.053H493.566V231.633Z" fill="white"/>
<path d="M493.566 194.557H469.22V215.638H493.566V194.557Z" fill="white"/>
<path d="M462.257 109.153H440.426V184.365H462.257V109.153Z" fill="#EFECF3"/>
<path d="M476.845 302.507H357.002V215.822C357.009 195.777 364.187 176.389 377.25 161.134L423.641 106.994L476.845 170.042V302.507Z" fill="#D5D2DC" fill-opacity="0.5"/>
<path d="M437.611 237.317H413.266V258.737H437.611V237.317Z" fill="white"/>
<path d="M437.611 200.241H413.266V221.321H437.611V200.241Z" fill="white"/>
<path d="M321.322 231.633H296.977V253.053H321.322V231.633Z" fill="white"/>
<path d="M321.322 194.557H296.977V215.638H321.322V194.557Z" fill="white"/>
<path d="M287.653 67.8901H261.161V159.178H287.653V67.8901Z" fill="#EFECF3"/>
<path d="M305.291 302.506H33.6203V143.774L32.4119 142.999L32.697 142.723L82.3182 94.6108C100.858 76.5707 125.701 66.3857 151.627 66.1957L240.86 65.3843L240.956 65.4979L305.475 141.902L305.29 143.99L305.291 302.506Z" fill="#F5F4F8"/>
<path d="M305.291 302.506H159.967V185.951C159.973 169.001 166.043 152.606 177.089 139.707L240.782 65.3745L305.291 141.817V302.506Z" fill="#D5D2DC" fill-opacity="0.5"/>
<path d="M257.321 223.45H233.821V244.126H257.321V223.45Z" fill="white"/>
<path d="M257.321 187.515H233.821V208.191H257.321V187.515Z" fill="white"/>
<path d="M116.596 216.55H87.0469V242.549H116.596V216.55Z" fill="white"/>
<path d="M116.596 171.549H87.0469V197.136H116.596V171.549Z" fill="white"/>
<path d="M522.643 301.529H3.30859V302.79H522.643V301.529Z" fill="#666276"/>
<path d="M91.5091 275.056C103.14 275.056 112.569 255.906 112.569 232.282C112.569 208.658 103.14 189.508 91.5091 189.508C79.8782 189.508 70.4495 208.658 70.4495 232.282C70.4495 255.906 79.8782 275.056 91.5091 275.056Z" fill="#D5D2DC"/>
<path d="M93.4554 302.297C85.0207 251.924 93.3706 201.729 93.4554 201.228L95.0964 201.505C95.0116 202.003 86.7098 251.933 95.0964 302.025L93.4554 302.297Z" fill="#666276"/>
<path d="M110.048 223.082L91.0044 233.222L91.7894 234.683L110.833 224.543L110.048 223.082Z" fill="#666276"/>
<path d="M71.6936 228.162L70.9082 229.623L89.9495 239.768L90.7349 238.307L71.6936 228.162Z" fill="#666276"/>
<path d="M40.5145 263.908C57.2998 263.908 70.9069 236.271 70.9069 202.178C70.9069 168.086 57.2998 140.449 40.5145 140.449C23.7292 140.449 10.1221 168.086 10.1221 202.178C10.1221 236.271 23.7292 263.908 40.5145 263.908Z" fill="#FD5631"/>
<path d="M43.8994 303.125C31.7432 230.522 43.7765 158.183 43.8994 157.461L45.1097 157.665C44.9868 158.386 32.989 230.53 45.1097 302.925L43.8994 303.125Z" fill="#666276"/>
<path d="M67.5488 189.418L40.0652 204.052L40.6444 205.13L68.128 190.496L67.5488 189.418Z" fill="#666276"/>
<path d="M11.6401 196.752L11.0605 197.83L38.5401 212.471L39.1196 211.393L11.6401 196.752Z" fill="#666276"/>
<path d="M422.463 77.9318L429.125 72.6273C423.95 72.0599 421.823 74.8685 420.955 77.0927C416.912 75.4214 412.51 77.6116 412.51 77.6116L425.84 82.4287C425.167 80.6407 423.997 79.0805 422.465 77.9312L422.463 77.9318Z" fill="#454056"/>
<path d="M302.07 37.0788L308.732 31.7743C303.557 31.2069 301.43 34.0155 300.562 36.2397C296.519 34.5684 292.117 36.7585 292.117 36.7585L305.447 41.5757C304.774 39.7877 303.602 38.2277 302.07 37.0788Z" fill="#454056"/>
<path d="M469.752 46.9553L476.414 41.6507C471.238 41.0833 469.111 43.8919 468.244 46.1161C464.201 44.4448 459.798 46.635 459.798 46.635L473.128 51.4522C472.456 49.6641 471.285 48.104 469.754 46.9546L469.752 46.9553Z" fill="#FD5631"/>
<path d="M186.547 293.214C184.775 293.214 183.035 293.679 181.502 294.562C179.945 293.161 178.013 292.24 175.94 291.911C173.867 291.581 171.743 291.858 169.825 292.707C167.908 293.556 166.279 294.941 165.136 296.693C163.993 298.446 163.386 300.491 163.388 302.58H196.643C196.462 300.038 195.319 297.658 193.446 295.92C191.573 294.183 189.108 293.216 186.548 293.215L186.547 293.214Z" fill="#666276"/>
<path d="M476.135 293.214C474.364 293.214 472.623 293.679 471.09 294.562C469.533 293.161 467.601 292.24 465.528 291.911C463.456 291.581 461.331 291.858 459.414 292.707C457.496 293.556 455.867 294.941 454.724 296.693C453.582 298.446 452.974 300.491 452.977 302.58H486.231C486.05 300.037 484.908 297.658 483.034 295.92C481.161 294.182 478.696 293.215 476.135 293.214Z" fill="#666276"/>
<path d="M274.314 285.988H227.076V287.505H234.443V301.915H235.966V287.505H264.66V301.915H266.184V287.505H274.313L274.314 285.988Z" fill="#666276"/>
<path d="M274.407 281.45H227.169V282.967H274.407V281.45Z" fill="#666276"/>
<path d="M274.407 277.658H227.169V279.175H274.407V277.658Z" fill="#666276"/>
<path d="M499.917 279.329C510.102 279.329 518.358 262.56 518.358 241.873C518.358 221.186 510.102 204.417 499.917 204.417C489.732 204.417 481.476 221.186 481.476 241.873C481.476 262.56 489.732 279.329 499.917 279.329Z" fill="#D5D2DC"/>
<path d="M497.863 303.125C505.239 259.071 497.937 215.178 497.863 214.737L497.128 214.863C497.203 215.3 504.483 259.076 497.128 303.004L497.863 303.125Z" fill="#666276"/>
<path d="M483.511 234.123L483.159 234.778L499.839 243.664L500.191 243.009L483.511 234.123Z" fill="#666276"/>
<path d="M517.445 238.578L500.764 247.464L501.116 248.118L517.796 239.233L517.445 238.578Z" fill="#666276"/>
<path d="M447.282 285.988H400.044V287.505H407.411V301.915H408.935V287.505H437.629V301.915H439.153V287.505H447.281L447.282 285.988Z" fill="#666276"/>
<path d="M447.375 281.45H400.137V282.967H447.375V281.45Z" fill="#666276"/>
<path d="M447.375 277.658H400.137V279.175H447.375V277.658Z" fill="#666276"/>
<path d="M257.569 116.019L251.89 102.902L240.489 103.104L233.573 116.181L233.712 116.355H233.662V143.555H257.554V116.355L257.569 116.019Z" fill="#F5F4F8"/>
<path d="M435.134 148.85L430.544 139.263L421.331 139.411L415.742 148.969L415.854 149.096H415.814V168.978H435.121V149.096L435.134 148.85Z" fill="#F5F4F8"/>
<path d="M213.411 97.1738H79.479V98.4347H213.411V97.1738Z" fill="white"/>
<path d="M200.111 110.413H66.1785V111.674H200.111V110.413Z" fill="white"/>
<path d="M462.257 112.803H440.426V114.064H462.257V112.803Z" fill="white"/>
<path d="M462.257 126.042H440.426V127.303H462.257V126.042Z" fill="white"/>
<path d="M287.653 72.4546H261.161V73.7155H287.653V72.4546Z" fill="white"/>
<path d="M287.653 85.6938H261.161V86.9547H287.653V85.6938Z" fill="white"/>
</svg>
