<svg width="50" height="32" viewBox="0 0 50 32" fill="none" xmlns="http://www.w3.org/2000/svg">
<g clip-path="url(#clip0_5894_30106)">
<path d="M36.7666 22.5488C35.9625 25.2683 34.2394 27.4212 32.9757 28.5543C32.2865 29.2341 32.1716 30.3672 32.8609 31.1604L33.0906 31.387C33.665 31.9536 34.584 32.1802 35.2733 31.8403C50.322 24.0219 50.0922 13.5973 49.9773 11.8976C49.9773 11.671 49.9773 11.5577 49.9773 11.3311C49.9773 5.09898 44.8079 0 38.4898 0C32.1716 0 27.0022 5.09898 27.0022 11.3311C26.8873 16.9966 31.2526 21.7556 36.7666 22.5488Z" fill="#FD5631"/>
<path d="M9.7666 22.5713C9.07735 25.2935 7.35423 27.3351 6.0906 28.5828C5.40135 29.2633 5.28647 30.3976 5.97573 31.1915L6.20548 31.4184C6.77985 31.9855 7.69886 32.2123 8.38811 31.7586C23.3219 24.0458 23.0921 13.6108 22.9772 11.9095C22.9772 11.6826 22.9772 11.5692 22.9772 11.3424C22.9772 5.10407 17.8079 0 11.4897 0C5.1716 0 0.00221634 5.10407 0.00221634 11.3424C-0.112659 17.0136 4.2526 21.7774 9.7666 22.5713Z" fill="#FD5631"/>
</g>
<defs>
<clipPath id="clip0_5894_30106">
<rect width="50" height="32" fill="white" transform="translate(50 32) rotate(-180)"/>
</clipPath>
</defs>
</svg>
