<?xml version="1.0" standalone="no"?>
<!DOCTYPE svg PUBLIC "-//W3C//DTD SVG 1.1//EN" "http://www.w3.org/Graphics/SVG/1.1/DTD/svg11.dtd" >
<svg xmlns="http://www.w3.org/2000/svg">
<metadata>Generated by IcoMoon</metadata>
<defs>
<font id="icomoon" horiz-adv-x="1024">
<font-face units-per-em="1024" ascent="960" descent="-64" />
<missing-glyph horiz-adv-x="1024" />
<glyph unicode="&#x20;" horiz-adv-x="512" d="" />
<glyph unicode="&#xe900;" glyph-name="accounting" d="M968.35 614.956h-912.698c-30.686 0-55.652-24.966-55.652-55.652v-500.872c0-30.686 24.966-55.65 55.652-55.65h912.698c30.686 0 55.65 24.964 55.65 55.65v500.872c0 30.686-24.964 55.652-55.65 55.652zM957.218 69.568h-890.436v478.606h890.432l0.004-478.606zM155.826 614.956c-18.444 0-33.392-14.948-33.392-33.392v-33.392c0-24.968-19.556-44.522-44.522-44.522h-44.52c-18.444 0-33.392-14.946-33.392-33.391s14.948-33.391 33.392-33.391h44.522c61.374 0 111.304 49.933 111.304 111.304v33.392c0 18.444-14.948 33.392-33.392 33.392zM990.609 503.654h-33.391c-24.969 0-44.523 19.554-44.523 44.521v33.392c0 18.444-14.946 33.392-33.391 33.392s-33.395-14.948-33.395-33.392v-33.392c0-61.374 49.933-111.303 111.305-111.303h33.395c18.441 0 33.391 14.946 33.391 33.391s-14.946 33.391-33.391 33.391zM77.914 180.868h-44.522c-18.444 0-33.392-14.946-33.392-33.391s14.948-33.391 33.392-33.391h44.522c24.966 0 44.522-19.558 44.522-44.523v-33.391c0-18.445 14.948-33.395 33.392-33.395s33.392 14.95 33.392 33.395v33.391c-0.002 61.372-49.934 111.305-111.306 111.305zM990.609 180.868h-44.523c-61.376 0-111.305-49.933-111.305-111.305v-33.391c0-18.445 14.946-33.391 33.391-33.391s33.395 14.946 33.395 33.391v33.391c0 24.969 19.554 44.523 44.518 44.523h44.523c18.445 0 33.391 14.95 33.391 33.391 0 18.445-14.946 33.391-33.391 33.391zM901.568 759.656h-779.134c-18.444 0-33.392-14.948-33.392-33.392s14.948-33.392 33.392-33.392h779.13c18.445 0 33.391 14.948 33.391 33.392s-14.946 33.392-33.387 33.392zM801.391 893.224h-578.784c-18.444 0-33.392-14.948-33.392-33.392s14.948-33.392 33.392-33.392h578.78c18.445 0 33.395 14.948 33.395 33.392s-14.95 33.392-33.391 33.392zM512.004 493.641c-101.266 0-183.654-82.377-183.654-183.654 0-101.265 82.388-183.65 183.654-183.65 101.261 0 183.65 82.385 183.65 183.65 0 101.269-82.389 183.654-183.65 183.654zM512.004 193.118c-64.448 0-116.872 52.425-116.872 116.873 0 64.444 52.424 116.881 116.872 116.881 64.444 0 116.868-52.437 116.868-116.881 0-64.448-52.425-116.873-116.868-116.873z" />
<glyph unicode="&#xe901;" glyph-name="airbnb" d="M512 79.872c-57.6-64.427-132.181-128.725-218.752-139.179l-0.085 0.384c-4.224-1.792-8.704-2.816-13.397-2.475-129.621-15.573-236.203 88.448-236.203 215.893 0 106.24 136.405 341.504 280.789 645.077 38.016 78.848 77.397 160.427 187.221 160.427 110.635 0 148.309-77.952 194.645-174.037 274.219-546.688 274.219-576.853 274.219-631.509 0-64.469-27.435-125.227-75.221-166.656-88.576-76.8-236.928-82.773-393.216 92.075zM916.48 154.453c0 83.883-128.171 309.931-267.691 603.392-37.803 74.752-58.411 138.155-136.363 138.155-67.413 0-91.051-42.624-130.475-124.245-140.587-295.552-274.432-529.493-274.432-617.301 0-83.285 62.677-164.181 178.091-150.229 71.040 8.576 136.533 70.443 183.979 124.288-471.979 609.451 558.763 611.883 84.779 0 192.768-218.539 362.112-112.043 362.112 25.941zM405.333 409.173c0-58.667 36.821-138.283 106.667-230.741 69.845 92.459 106.667 172.075 106.667 230.741 0 152.363-213.333 152.363-213.333 0z" />
<glyph unicode="&#xe902;" glyph-name="alarm" d="M512.004 661.332c-141.386 0-256.001-114.615-256.001-255.999s114.615-256 256.001-256c141.385 0 256 114.615 256 256 0 141.383-114.615 255.999-256 255.999zM170.67 405.333c0 188.512 152.82 341.332 341.335 341.332 188.51 0 341.333-152.82 341.333-341.332 0-188.514-152.823-341.333-341.333-341.333-188.515 0-341.335 152.819-341.335 341.333zM512.004 575.997c23.565 0 42.667-19.103 42.667-42.668v-85.333h42.667c23.565 0 42.667-19.102 42.667-42.667s-19.102-42.667-42.667-42.667h-85.333c-23.565 0-42.667 19.102-42.667 42.667v128c0 23.565 19.102 42.668 42.667 42.668zM333.176 814.426c13.86-19.057 9.646-45.742-9.411-59.601l-117.333-85.333c-19.057-13.86-45.742-9.646-59.601 9.411s-9.646 45.742 9.411 59.601l117.333 85.333c19.057 13.859 45.742 9.646 59.601-9.411zM690.829 814.426c13.862 19.057 40.546 23.27 59.601 9.411l117.333-85.333c19.059-13.86 23.27-40.544 9.412-59.601s-40.546-23.271-59.601-9.411l-117.333 85.333c-19.059 13.86-23.27 40.544-9.412 59.601z" />
<glyph unicode="&#xe903;" glyph-name="align-left" d="M128 704c0 23.564 19.103 42.667 42.667 42.667h682.667c23.565 0 42.667-19.103 42.667-42.667s-19.102-42.667-42.667-42.667h-682.667c-23.564 0-42.667 19.103-42.667 42.667zM128 448c0 23.565 19.103 42.667 42.667 42.667h426.667c23.565 0 42.667-19.102 42.667-42.667s-19.102-42.667-42.667-42.667h-426.667c-23.564 0-42.667 19.102-42.667 42.667zM128 192c0 23.565 19.103 42.667 42.667 42.667h597.333c23.565 0 42.667-19.102 42.667-42.667s-19.102-42.667-42.667-42.667h-597.333c-23.564 0-42.667 19.102-42.667 42.667z" />
<glyph unicode="&#xe904;" glyph-name="align-right" d="M128 704c0 23.564 19.103 42.667 42.667 42.667h682.667c23.565 0 42.667-19.103 42.667-42.667s-19.102-42.667-42.667-42.667h-682.667c-23.564 0-42.667 19.103-42.667 42.667zM384 448c0 23.565 19.103 42.667 42.667 42.667h426.667c23.565 0 42.667-19.102 42.667-42.667s-19.102-42.667-42.667-42.667h-426.667c-23.564 0-42.667 19.102-42.667 42.667zM213.334 192c0 23.565 19.102 42.667 42.667 42.667h597.332c23.565 0 42.667-19.102 42.667-42.667s-19.102-42.667-42.667-42.667h-597.332c-23.564 0-42.667 19.102-42.667 42.667z" />
<glyph unicode="&#xe905;" glyph-name="ancor" d="M512 618.667c23.565 0 42.667-19.103 42.667-42.667v-466.27c63.437 9.152 122.667 38.558 168.521 84.416 45.884 45.879 75.294 105.152 84.433 168.627-22.144 1.562-39.62 20.019-39.62 42.56 0 23.565 19.102 42.667 42.667 42.667h85.333c23.565 0 42.667-19.102 42.667-42.667s-19.102-42.667-42.667-42.667h-2.377c-9.63-86.144-48.209-166.976-110.093-228.864-72.017-72.013-169.69-112.469-271.531-112.469-101.843 0-199.515 40.457-271.529 112.469-61.885 61.888-100.466 142.72-110.095 228.864h-2.377c-23.564 0-42.667 19.102-42.667 42.667s19.103 42.667 42.667 42.667h85.333c23.564 0 42.667-19.102 42.667-42.667 0-22.541-17.478-40.998-39.62-42.56 9.137-63.475 38.549-122.748 84.431-168.627 45.856-45.858 105.086-75.264 168.523-84.416v466.27c0 23.564 19.102 42.667 42.667 42.667zM512 789.333c-47.13 0-85.333-38.205-85.333-85.333s38.204-85.333 85.333-85.333c47.13 0 85.333 38.205 85.333 85.333s-38.204 85.333-85.333 85.333zM341.333 704c0 94.257 76.41 170.667 170.667 170.667 94.255 0 170.667-76.41 170.667-170.667s-76.412-170.667-170.667-170.667c-94.257 0-170.667 76.41-170.667 170.667z" />
<glyph unicode="&#xe906;" glyph-name="apartment" d="M344.292 684.578h60v-60h-60v60zM344.292 546.86h60v-59.999h-60v59.999zM619.708 546.86h60.002v-59.999h-60.002v59.999zM757.436 546.86h60.002v-59.999h-60.002v59.999zM619.708 409.139h60.002v-59.998h-60.002v59.998zM757.436 409.139h60.002v-59.998h-60.002v59.998zM619.708 271.433h60.002v-60.002h-60.002v60.002zM757.436 271.433h60.002v-60.002h-60.002v60.002zM619.708 133.717h60.002v-59.998h-60.002v59.998zM757.436 133.717h60.002v-59.998h-60.002v59.998zM206.563 546.86h60v-59.999h-60v59.999zM344.292 409.139h60v-59.998h-60v59.998zM206.563 409.139h60v-59.998h-60v59.998zM344.292 271.433h60v-60.002h-60v60.002zM206.563 271.433h60v-60.002h-60v60.002zM955.14-4.002v688.574h-413.141v143.128l-68.855-11.476v143.776h-335.43v-199.682l-68.856-11.476v-752.844h-68.858v-59.998h1024v59.998h-68.86zM895.142 624.572v-628.574h-353.143v628.574h353.143zM197.714 900h215.428v-93.776l-215.428-35.906v129.682zM128.858 698.014l353.143 58.858v-760.874h-77.715v137.715h-197.714v-137.715h-77.714v702.016zM344.286-4.002h-77.714v77.717h77.714v-77.717z" />
<glyph unicode="&#xe907;" glyph-name="archive" d="M213.333 746.667c-23.564 0-42.667-19.103-42.667-42.667s19.103-42.667 42.667-42.667h597.333c23.565 0 42.667 19.103 42.667 42.667s-19.102 42.667-42.667 42.667h-597.333zM85.333 704c0 70.692 57.308 128 128 128h597.333c70.694 0 128-57.308 128-128s-57.306-128-128-128h-597.333c-70.692 0-128 57.308-128 128zM213.333 661.333c23.564 0 42.666-19.099 42.666-42.664v-426.665c0-11.315 4.495-22.17 12.497-30.17 8.002-8.004 18.854-12.497 30.17-12.497h426.667c11.315 0 22.17 4.493 30.17 12.497 8 8 12.497 18.854 12.497 30.17v426.665c0 23.564 19.102 42.664 42.667 42.664s42.667-19.099 42.667-42.664v-426.665c0-33.95-13.487-66.505-37.491-90.509-24.004-24.009-56.563-37.491-90.509-37.491h-426.667c-33.948 0-66.505 13.483-90.51 37.491-24.005 24.004-37.49 56.559-37.49 90.509v426.665c0 23.564 19.103 42.664 42.667 42.664zM384 448c0 23.565 19.102 42.667 42.666 42.667h170.667c23.565 0 42.667-19.102 42.667-42.667 0-23.561-19.102-42.667-42.667-42.667h-170.667c-23.564 0-42.666 19.106-42.666 42.667z" />
<glyph unicode="&#xe908;" glyph-name="arrow-back" d="M597.333 661.333c0 23.564 19.102 42.667 42.667 42.667h42.667c56.58 0 110.844-22.476 150.848-62.484 40.009-40.008 62.485-94.27 62.485-150.849s-22.477-110.844-62.485-150.848c-40.004-40.009-94.268-62.485-150.848-62.485h-366.327l97.83-97.83c16.661-16.661 16.661-43.678 0-60.339-16.663-16.661-43.677-16.661-60.34 0l-170.667 170.667c-8.001 8-12.497 18.854-12.497 30.17s4.495 22.17 12.497 30.17l170.667 170.667c16.663 16.663 43.677 16.663 60.34 0 16.661-16.661 16.661-43.678 0-60.339l-97.83-97.83h366.327c33.95 0 66.505 13.487 90.509 37.491s37.491 56.563 37.491 90.509c0 33.946-13.487 66.505-37.491 90.51s-56.559 37.49-90.509 37.49h-42.667c-23.565 0-42.667 19.103-42.667 42.667z" />
<glyph unicode="&#xe909;" glyph-name="arrow-back-up" d="M414.17 776.837c16.661-16.663 16.661-43.677 0-60.34l-97.83-97.83h366.327c56.58 0 110.844-22.476 150.848-62.484 40.009-40.006 62.485-94.269 62.485-150.849s-22.477-110.844-62.485-150.848c-40.004-40.009-94.268-62.485-150.848-62.485h-42.667c-23.565 0-42.667 19.102-42.667 42.667s19.102 42.667 42.667 42.667h42.667c33.95 0 66.505 13.487 90.509 37.491s37.491 56.563 37.491 90.509c0 33.946-13.487 66.505-37.491 90.509s-56.559 37.491-90.509 37.491h-366.327l97.83-97.83c16.661-16.661 16.661-43.678 0-60.339-16.663-16.661-43.677-16.661-60.34 0l-170.667 170.666c-16.662 16.663-16.662 43.677 0 60.34l170.667 170.667c16.663 16.662 43.677 16.662 60.34 0z" />
<glyph unicode="&#xe90a;" glyph-name="arrow-forward" d="M341.333 618.667c-33.948 0-66.505-13.486-90.51-37.49s-37.49-56.564-37.49-90.51c0-33.95 13.486-66.505 37.49-90.509s56.562-37.491 90.51-37.491h366.327l-97.83 97.83c-16.661 16.661-16.661 43.678 0 60.339 16.661 16.663 43.678 16.663 60.339 0l170.667-170.667c16.661-16.661 16.661-43.678 0-60.339l-170.667-170.667c-16.661-16.661-43.678-16.661-60.339 0s-16.661 43.678 0 60.339l97.83 97.83h-366.327c-56.579 0-110.842 22.477-150.849 62.485-40.008 40.004-62.484 94.268-62.484 150.848s22.476 110.842 62.484 150.849c40.008 40.008 94.27 62.484 150.849 62.484h42.667c23.564 0 42.667-19.103 42.667-42.667s-19.102-42.667-42.667-42.667h-42.667z" />
<glyph unicode="&#xe90b;" glyph-name="arrow-forward-up" d="M609.83 776.837c16.661 16.662 43.678 16.662 60.339 0l170.667-170.667c16.661-16.663 16.661-43.677 0-60.34l-170.667-170.666c-16.661-16.661-43.678-16.661-60.339 0s-16.661 43.678 0 60.339l97.83 97.83h-366.327c-33.948 0-66.505-13.487-90.51-37.491s-37.49-56.563-37.49-90.509c0-33.95 13.486-66.505 37.49-90.509s56.562-37.491 90.51-37.491h42.667c23.564 0 42.667-19.102 42.667-42.667s-19.102-42.667-42.667-42.667h-42.667c-56.579 0-110.842 22.477-150.849 62.485-40.008 40.004-62.484 94.268-62.484 150.848s22.476 110.844 62.484 150.849c40.008 40.008 94.27 62.484 150.849 62.484h366.327l-97.83 97.83c-16.661 16.663-16.661 43.677 0 60.34z" />
<glyph unicode="&#xe90c;" glyph-name="arrows-sort" d="M298.667 789.333c11.316 0 22.168-4.495 30.17-12.497l170.666-170.667c16.661-16.663 16.661-43.677 0-60.34-16.661-16.661-43.678-16.661-60.339 0l-97.83 97.83v-494.327c0-23.565-19.103-42.667-42.667-42.667s-42.667 19.102-42.667 42.667v494.327l-97.83-97.83c-16.663-16.661-43.677-16.661-60.34 0-16.662 16.663-16.662 43.677 0 60.34l170.667 170.667c8.002 8.001 18.854 12.497 30.17 12.497zM725.333 789.333c23.565 0 42.667-19.103 42.667-42.667v-494.327l97.83 97.83c16.661 16.661 43.678 16.661 60.339 0s16.661-43.678 0-60.339l-170.667-170.667c-8-8-18.854-12.497-30.17-12.497s-22.17 4.497-30.17 12.497l-170.667 170.667c-16.661 16.661-16.661 43.678 0 60.339s43.678 16.661 60.339 0l97.83-97.83v494.327c0 23.564 19.102 42.667 42.667 42.667z" />
<glyph unicode="&#xe90d;" glyph-name="award" d="M511.996 789.333c-117.82 0-213.332-95.513-213.332-213.333s95.512-213.333 213.332-213.333c117.824 0 213.333 95.514 213.333 213.333s-95.509 213.333-213.333 213.333zM213.33 576c0 164.949 133.717 298.667 298.665 298.667s298.667-133.718 298.667-298.667-133.717-298.667-298.667-298.667c-164.948 0-298.665 133.717-298.665 298.667zM490.743 356.809c20.407 11.78 46.502 4.791 58.287-15.616l105.203-182.221 32.849 66.436c7.633 15.437 23.804 24.777 40.994 23.667l73.958-4.77-105.203 182.221c-11.785 20.407-4.791 46.498 15.616 58.283 20.407 11.78 46.502 4.791 58.283-15.616l145.067-251.264c7.868-13.628 7.599-30.477-0.704-43.844s-23.287-21.082-38.993-20.066l-125.133 8.068-55.573-112.401c-6.976-14.106-21.15-23.228-36.877-23.735s-30.455 7.684-38.323 21.312l-145.067 251.264c-11.78 20.407-4.787 46.498 15.616 58.283zM311.546 484.809c20.407-11.785 27.399-37.875 15.617-58.283l-105.205-182.221 73.96 4.77c17.189 1.109 33.359-8.23 40.993-23.667l32.849-66.436 105.206 182.221c11.78 20.407 37.875 27.396 58.283 15.616 20.407-11.785 27.401-37.875 15.616-58.283l-145.065-251.264c-7.867-13.628-22.597-21.82-38.324-21.312s-29.899 9.63-36.873 23.735l-55.577 112.401-125.133-8.068c-15.703-1.015-30.688 6.699-38.99 20.066s-8.574 30.217-0.706 43.844l145.067 251.264c11.782 20.407 37.876 27.396 58.284 15.616z" />
<glyph unicode="&#xe90e;" glyph-name="bath" d="M762.667 629.994c0 67.916-53.82 123.145-120 123.145s-120-55.229-120-123.145c0-14.411 2.56-28.181 7.002-41.049h-407.002v246.291h80v-123.145h80v205.242h-240v-656.777c0-66.645 38.965-124.006 94.658-149.722l-70.117-107.964 66.563-45.538 90.293 139.029h597.206l90.313-139.008 66.564 45.538-70.118 107.964c55.676 25.694 94.639 83.055 94.639 149.7v328.388h-247.002c4.442 12.868 7.002 26.638 7.002 41.049zM602.667 629.994c0 22.639 17.941 41.048 40 41.048s40-18.409 40-41.048c0-22.639-17.941-41.049-40-41.049s-40 18.41-40 41.049zM922.667 260.557c0-45.278-35.878-82.095-80-82.095h-640c-44.121 0-80 36.817-80 82.095v82.099h800v-82.099zM922.667 424.751h-800v82.099h800v-82.099zM882.667 917.333c-66.18 0-120-55.229-120-123.145s53.82-123.146 120-123.146c66.18 0 120 55.229 120 123.146s-53.82 123.145-120 123.145zM882.667 753.139c-22.059 0-40 18.41-40 41.049s17.941 41.048 40 41.048c22.059 0 40-18.41 40-41.048s-17.941-41.049-40-41.049z" />
<glyph unicode="&#xe90f;" glyph-name="bed" d="M941.999 447.799v286.2c0 66.168-53.833 120-120 120h-621.999c-66.168 0-120-53.832-120-120v-286.879c-46.556-16.516-80-60.975-80-113.122v-219.998h80v-72h80v72h704v-72h80v72h80v219.998c0 52.89-34.406 97.865-82.001 113.801zM160 734c0 22.056 17.944 40 40 40h621.999c22.059 0 40-17.944 40-40v-280.001h-41.997v40c0 66.169-53.833 120.001-120.004 120.001h-107.998c-30.711 0-58.752-11.61-80-30.654-21.248 19.044-49.289 30.654-80 30.654h-112c-66.168 0-120-53.832-120-120.001v-40h-40v280.001zM740.002 493.999v-40h-188.002v40c0 22.059 17.946 40.001 40 40.001h107.998c22.059 0 40.004-17.942 40.004-40.001zM472 493.999v-40h-192v40c0 22.059 17.944 40.001 40 40.001h112c22.054 0 40-17.942 40-40.001zM944 194.001h-864v139.998c0 22.059 17.944 40 40 40h784c22.054 0 40-17.941 40-40v-139.998z" />
<glyph unicode="&#xe910;" glyph-name="behance" d="M527.488 322.261c0 78.848-37.504 137.131-114.987 158.976 56.533 26.923 86.016 67.712 86.016 131.157 0 125.099-93.525 155.605-201.429 155.605h-297.088v-628.096h305.408c114.517 0 222.080 54.741 222.080 182.357zM138.496 660.779h129.963c49.963 0 94.933-13.995 94.933-71.765 0-53.333-34.987-74.795-84.48-74.795h-140.416v146.56zM138.453 246.571v172.971h150.955c60.971 0 99.541-25.344 99.541-89.685 0-63.445-46.037-83.285-102.4-83.285h-148.096zM801.963 128.004c108.971 0 179.541 48.939 213.504 152.96h-110.592c-11.904-38.827-60.971-59.349-99.029-59.349-73.429 0-112 42.88-112 115.755h329.088c10.411 145.835-70.827 270.122-221.013 270.122-139.051 0-233.429-104.192-233.429-240.682 0-141.653 89.429-238.805 233.472-238.805zM798.037 513.114c62.933 0 94.592-36.864 99.883-97.152h-203.904c4.139 59.776 43.947 97.152 104.021 97.152zM668.463 735.021h255.488v-61.867h-255.488v61.867z" />
<glyph unicode="&#xe911;" glyph-name="bell-default" d="M512.004 789.333c-11.315 0-22.17-4.495-30.17-12.497-7.846-7.844-12.318-18.428-12.493-29.502 0.128-8.332-2.206-16.512-6.618-23.498-3.209-5.073-7.514-9.517-12.774-12.932-1.852-1.207-3.802-2.275-5.837-3.188-41.654-19.872-77.169-50.64-102.776-89.051-25.592-38.388-40.331-82.973-42.667-129.041v-126.959c0-1.715-0.103-3.426-0.309-5.129-3.424-28.288-12.474-55.552-26.562-80.205h480.41c-14.089 24.653-23.138 51.917-26.564 80.205-0.205 1.702-0.307 3.413-0.307 5.129v126.959c-2.338 46.067-17.075 90.653-42.667 129.041-25.771 38.655-61.572 69.569-103.573 89.428-14.916 7.053-24.427 22.073-24.427 38.572 0 11.316-4.497 22.168-12.497 30.17s-18.854 12.497-30.17 12.497zM386.99 774.156c5.209 23.686 17.088 45.604 34.504 63.020 24.006 24.005 56.56 37.49 90.51 37.49 33.946 0 66.505-13.486 90.509-37.49 17.417-17.417 29.295-39.335 34.505-63.020 46.763-26.305 86.767-63.325 116.655-108.155 34.359-51.54 54.046-111.459 56.951-173.333 0.030-0.666 0.047-1.335 0.047-2.001v-125.239c2.667-19.038 9.587-37.244 20.262-53.252 11.115-16.674 25.988-30.507 43.426-40.38 16.862-9.549 25.173-29.261 20.237-48s-21.884-31.795-41.259-31.795h-682.667c-19.377 0-36.321 13.056-41.259 31.795s3.373 38.451 20.235 48c17.438 9.873 32.314 23.706 43.43 40.38 10.674 16.009 17.595 34.214 20.261 53.252v125.239c0 0.666 0.016 1.335 0.047 2.001 2.904 61.875 22.592 121.793 56.951 173.333 29.886 44.829 69.894 81.85 116.655 108.155zM384.004 277.333c23.564 0 42.667-19.102 42.667-42.667v-42.667c0-22.635 8.99-44.339 24.994-60.339 16-16.004 37.709-24.994 60.339-24.994s44.335 8.99 60.339 24.994c16.004 16 24.994 37.705 24.994 60.339v42.667c0 23.565 19.102 42.667 42.667 42.667s42.667-19.102 42.667-42.667v-42.667c0-45.265-17.98-88.674-49.988-120.678-32.004-32.009-75.413-49.988-120.678-49.988s-88.674 17.98-120.68 49.988c-32.006 32.004-49.987 75.413-49.987 120.678v42.667c0 23.565 19.102 42.667 42.667 42.667z" />
<glyph unicode="&#xe912;" glyph-name="bell-off" d="M97.83 862.17c16.663 16.662 43.677 16.662 60.34 0l768-768c16.661-16.661 16.661-43.678 0-60.339s-43.678-16.661-60.339 0l-768 768c-16.662 16.663-16.662 43.677 0 60.34zM512 789.333c-11.315 0-22.17-4.495-30.17-12.497s-12.497-18.854-12.497-30.17c0-16.495-9.506-31.511-24.418-38.566-8.166-3.865-16.081-8.148-23.782-12.829-20.138-12.237-46.383-5.832-58.619 14.306s-5.832 46.383 14.306 58.619c3.345 2.033 6.733 4.016 10.164 5.947 5.207 23.691 17.088 45.614 34.507 63.034 24.005 24.005 56.564 37.49 90.51 37.49 33.95 0 66.505-13.486 90.509-37.49 17.417-17.417 29.295-39.335 34.505-63.020 46.763-26.305 86.767-63.325 116.655-108.155 34.359-51.54 54.046-111.459 56.951-173.333 0.030-0.666 0.047-1.335 0.047-2.001v-128c0-23.565-19.102-42.667-42.667-42.667s-42.667 19.102-42.667 42.667v126.959c-2.334 46.067-17.075 90.653-42.667 129.041-25.771 38.655-61.572 69.569-103.573 89.428-14.916 7.053-24.427 22.073-24.427 38.572 0 11.316-4.497 22.168-12.497 30.17s-18.854 12.497-30.17 12.497zM306.956 691.729c12.526 1.065 24.885-3.449 33.777-12.336l414.761-414.549c12.207-12.203 15.863-30.554 9.259-46.502-6.601-15.945-22.161-26.342-39.42-26.342h-554.667c-19.377 0-36.321 13.056-41.259 31.795s3.373 38.451 20.235 48c17.438 9.873 32.314 23.706 43.43 40.38 10.674 16.009 17.595 34.214 20.261 53.252v125.239c0 0.67 0.016 1.335 0.047 2.001 3.060 65.117 24.702 127.996 62.367 181.201 7.264 10.261 18.683 16.796 31.209 17.861zM319.925 579.542c-12.425-28.307-19.677-58.761-21.259-89.916v-126.959c0-1.715-0.103-3.426-0.309-5.129-3.424-28.288-12.474-55.552-26.562-80.205h350.493l-302.364 302.208zM384 277.333c23.564 0 42.667-19.102 42.667-42.667v-42.667c0-22.635 8.99-44.339 24.994-60.339 16.004-16.004 37.709-24.994 60.339-24.994s44.335 8.99 60.339 24.994c16.004 16 24.994 37.705 24.994 60.339v42.667c0 23.565 19.102 42.667 42.667 42.667s42.667-19.102 42.667-42.667v-42.667c0-45.265-17.98-88.674-49.988-120.678-32.004-32.009-75.413-49.988-120.678-49.988s-88.673 17.98-120.68 49.988c-32.006 32.004-49.987 75.413-49.987 120.678v42.667c0 23.565 19.103 42.667 42.667 42.667z" />
<glyph unicode="&#xe913;" glyph-name="bell-on" d="M512.009 789.332c-11.315 0-22.165-4.495-30.17-12.497-7.842-7.844-12.318-18.427-12.489-29.501 0.124-8.332-2.206-16.512-6.622-23.498-3.204-5.073-7.509-9.517-12.77-12.932-1.852-1.207-3.802-2.275-5.837-3.188-41.656-19.872-77.17-50.64-102.778-89.051-25.592-38.388-40.331-82.973-42.667-129.040v-126.959c0-1.715-0.103-3.426-0.309-5.129-3.424-28.288-12.474-55.552-26.562-80.205h480.407c-14.089 24.653-23.138 51.917-26.56 80.205-0.205 1.702-0.311 3.413-0.311 5.129v126.959c-2.334 46.067-17.071 90.652-42.667 129.040-25.766 38.655-61.572 69.569-103.569 89.428-14.916 7.053-24.431 22.073-24.431 38.572 0 11.316-4.493 22.169-12.497 30.17-8 8.002-18.85 12.497-30.17 12.497zM386.996 774.156c5.209 23.685 17.088 45.604 34.504 63.020 24.003 24.004 56.562 37.49 90.508 37.49 33.95 0 66.509-13.486 90.513-37.49 17.417-17.417 29.295-39.335 34.505-63.020 46.758-26.305 86.767-63.325 116.651-108.155 34.364-51.54 54.050-111.459 56.951-173.333 0.034-0.666 0.047-1.335 0.047-2.001v-125.244c2.667-19.034 9.587-37.239 20.262-53.248 11.115-16.674 25.993-30.507 43.43-40.38 16.862-9.549 25.173-29.261 20.233-48-4.937-18.739-21.879-31.795-41.259-31.795h-682.665c-19.377 0-36.321 13.056-41.258 31.795s3.373 38.451 20.234 48c17.438 9.873 32.314 23.706 43.43 40.38 10.674 16.009 17.595 34.214 20.261 53.248v125.244c0 0.666 0.016 1.335 0.047 2.001 2.904 61.874 22.592 121.793 56.951 173.333 29.886 44.829 69.894 81.85 116.655 108.155zM384.010 277.333c23.564 0 42.665-19.102 42.665-42.667v-42.667c0-22.635 8.994-44.339 24.994-60.339 16.004-16.004 37.709-24.994 60.339-24.994 22.635 0 44.339 8.99 60.343 24.994 16 16 24.99 37.705 24.99 60.339v42.667c0 23.565 19.106 42.667 42.667 42.667 23.565 0 42.667-19.102 42.667-42.667v-42.667c0-45.265-17.98-88.674-49.984-120.683-32.009-32.004-75.418-49.984-120.683-49.984-45.261 0-88.672 17.98-120.678 49.984-32.006 32.009-49.987 75.418-49.987 120.683v42.667c0 23.565 19.103 42.667 42.667 42.667zM744.585 859.977c15.454 17.791 42.402 19.687 60.194 4.236 55.159-47.91 99.477-107.026 129.997-173.409 9.843-21.41 0.465-46.746-20.941-56.588-21.41-9.843-46.746-0.466-56.589 20.943-25.455 55.366-62.417 104.67-108.425 144.628-17.792 15.452-19.686 42.4-4.237 60.191zM279.338 859.99c15.459-17.785 13.573-44.734-4.212-60.193-45.978-39.965-82.914-89.269-108.345-144.628-9.837-21.413-35.17-30.797-56.582-20.96s-30.797 35.17-20.96 56.582c30.492 66.375 74.777 125.491 129.906 173.41 17.785 15.459 44.734 13.573 60.193-4.211z" />
<glyph unicode="&#xe914;" glyph-name="billboard-house" d="M1024 960h-1024v-610.859h137.714v-137.715h275.428v-275.426h197.712v275.426h275.43v137.715h137.715v610.859zM197.714 271.428v77.713h215.428v-77.713h-215.428zM473.143-4.002v353.143h77.713v-353.143h-77.713zM826.287 271.428h-215.428v77.713h215.428v-77.713zM964.002 409.143h-904.002v490.857h904.002v-490.857zM619.708 822.281h128.858v-60h-128.858v60zM619.708 684.578h197.713v-60h-197.713v60zM619.708 546.86h266.569v-59.999h-266.569v59.999zM137.727 656.671v-169.814h335.429v169.814l13.274-7.966 30.874 51.45-211.862 127.116-211.858-127.116 30.87-51.45 13.274 7.966zM413.155 692.671v-145.814h-77.714v73.286h-60v-73.286h-77.714v145.814l107.714 64.628 107.714-64.628z" />
<glyph unicode="&#xe915;" glyph-name="bookmark-default" d="M358.4 789.333c-16.699 0-32.204-6.245-43.226-16.578-10.929-10.246-16.507-23.532-16.507-36.755v-599.049l192.414 108.237c12.992 7.305 28.847 7.305 41.839 0l192.414-108.237v599.049c0 13.224-5.577 26.509-16.508 36.755-11.021 10.333-26.526 16.578-43.226 16.578h-307.2zM256.811 835.009c27.385 25.673 63.972 39.657 101.589 39.657h307.2c37.619 0 74.206-13.984 101.589-39.657 27.477-25.761 43.477-61.312 43.477-99.009v-672c0-15.159-8.043-29.18-21.129-36.83-13.082-7.654-29.244-7.787-42.458-0.358l-235.081 132.237-235.082-132.237c-13.211-7.428-29.373-7.296-42.458 0.358-13.084 7.65-21.126 21.67-21.126 36.83v672c0 37.698 15.999 73.248 43.477 99.009z" />
<glyph unicode="&#xe916;" glyph-name="bookmark-filled" d="M256.811 835.009c27.385 25.673 63.972 39.657 101.589 39.657h307.2c37.619 0 74.206-13.984 101.589-39.657 27.477-25.761 43.477-61.312 43.477-99.009v-672c0-15.159-8.043-29.18-21.129-36.83-13.082-7.654-29.244-7.787-42.458-0.358l-235.081 132.237-235.082-132.237c-13.211-7.428-29.373-7.296-42.458 0.358-13.084 7.65-21.126 21.67-21.126 36.83v672c0 37.698 15.999 73.248 43.477 99.009z" />
<glyph unicode="&#xe917;" glyph-name="bottombar" d="M256 746.667c-23.564 0-42.667-19.103-42.667-42.667v-512c0-23.565 19.103-42.667 42.667-42.667h512c23.565 0 42.667 19.102 42.667 42.667v512c0 23.564-19.102 42.667-42.667 42.667h-512zM128 704c0 70.692 57.308 128 128 128h512c70.694 0 128-57.308 128-128v-512c0-70.694-57.306-128-128-128h-512c-70.692 0-128 57.306-128 128v512zM128 320c0 23.565 19.103 42.667 42.667 42.667h682.667c23.565 0 42.667-19.102 42.667-42.667s-19.102-42.667-42.667-42.667h-682.667c-23.564 0-42.667 19.102-42.667 42.667z" />
<glyph unicode="&#xe918;" glyph-name="briefcase" d="M213.343 618.666c-23.564 0-42.667-19.102-42.667-42.667v-384c0-23.565 19.102-42.667 42.667-42.667h597.332c23.565 0 42.667 19.102 42.667 42.667v384c0 23.564-19.102 42.667-42.667 42.667h-597.332zM85.343 576c0 70.692 57.307 128 128 128h597.332c70.694 0 128-57.308 128-128v-384c0-70.694-57.306-128-128-128h-597.332c-70.693 0-128 57.306-128 128v384zM426.675 789.333c-11.315 0-22.167-4.495-30.169-12.497s-12.497-18.854-12.497-30.17v-85.333c0-23.564-19.103-42.667-42.667-42.667s-42.667 19.102-42.667 42.667v85.333c0 33.948 13.486 66.505 37.49 90.51s56.562 37.49 90.509 37.49h170.667c33.95 0 66.505-13.486 90.509-37.49s37.491-56.562 37.491-90.51v-85.333c0-23.564-19.102-42.667-42.667-42.667s-42.667 19.102-42.667 42.667v85.333c0 11.316-4.493 22.168-12.497 30.17-8 8.001-18.854 12.497-30.17 12.497h-170.667zM512.009 490.667c23.565 0 42.667-19.102 42.667-42.667v-0.427c0-23.565-19.102-42.667-42.667-42.667s-42.667 19.102-42.667 42.667v0.427c0 23.565 19.102 42.667 42.667 42.667zM89.907 424.533c10.604 21.043 36.259 29.504 57.303 18.901 113.152-57.015 238.094-86.716 364.799-86.716 126.707 0 251.648 29.7 364.8 86.716 21.043 10.603 46.699 2.142 57.301-18.901 10.607-21.043 2.142-46.699-18.901-57.301-125.060-63.023-263.155-95.846-403.2-95.846-140.043 0-278.136 32.823-403.199 95.846-21.044 10.603-29.507 36.258-18.903 57.301z" />
<glyph unicode="&#xe919;" glyph-name="building" d="M913.067 849.067c-17.067 17.067-38.4 25.6-59.733 25.6h-426.667c-21.333 0-42.667-8.533-59.733-25.6s-25.6-38.4-25.6-59.733v-170.667c-12.8 0-21.333-4.267-29.867-12.8l-213.333-213.333c-8.533-8.533-12.8-17.067-12.8-29.867v-298.667c0-21.333 21.333-42.667 42.667-42.667h768c21.333 0 42.667 21.333 42.667 42.667v725.333c0 21.333-8.533 42.667-25.6 59.733zM512 106.667h-128v128c0 21.333-21.333 42.667-42.667 42.667s-42.667-21.333-42.667-42.667v-128h-128v238.933l170.667 170.667 170.667-170.667v-238.933zM853.333 106.667h-256v256c0 12.8-4.267 21.333-12.8 29.867l-157.867 157.867v238.933h426.667v-682.667zM597.333 661.333c0-25.6-21.333-42.667-42.667-42.667s-42.667 21.333-42.667 42.667c0 21.333 21.333 42.667 42.667 42.667s42.667-21.333 42.667-42.667zM768 661.333c0-25.6-21.333-42.667-42.667-42.667s-42.667 21.333-42.667 42.667c0 21.333 21.333 42.667 42.667 42.667s42.667-21.333 42.667-42.667zM768 490.667c0-25.6-21.333-42.667-42.667-42.667s-42.667 21.333-42.667 42.667c0 21.333 21.333 42.667 42.667 42.667s42.667-21.333 42.667-42.667zM768 320c0-25.6-21.333-42.667-42.667-42.667s-42.667 21.333-42.667 42.667c0 21.333 21.333 42.667 42.667 42.667s42.667-21.333 42.667-42.667z" />
<glyph unicode="&#xe91a;" glyph-name="burger" d="M128 704c0 23.564 19.103 42.667 42.667 42.667h682.667c23.565 0 42.667-19.103 42.667-42.667s-19.102-42.667-42.667-42.667h-682.667c-23.564 0-42.667 19.103-42.667 42.667zM128 448c0 23.565 19.103 42.667 42.667 42.667h682.667c23.565 0 42.667-19.102 42.667-42.667s-19.102-42.667-42.667-42.667h-682.667c-23.564 0-42.667 19.102-42.667 42.667zM128 192c0 23.565 19.103 42.667 42.667 42.667h682.667c23.565 0 42.667-19.102 42.667-42.667s-19.102-42.667-42.667-42.667h-682.667c-23.564 0-42.667 19.102-42.667 42.667z" />
<glyph unicode="&#xe91b;" glyph-name="cafe" d="M672.265 408.589l-60.318-60.318-75.046 75.046 55.684 55.684c29.705-20.305 64.772-31.253 101.534-31.253 48.205 0 93.521 18.773 127.607 52.86l202.274 202.274-47.68 47.678-157.342-157.344-21.504 21.502 157.346 157.344-47.68 47.678-157.342-157.344-21.5 21.502 157.342 157.344-47.676 47.678-157.346-157.344-21.5 21.502 157.342 157.344-47.671 47.672-202.274-202.278c-55.74-55.738-67.277-139.152-34.705-206.402l-192.1 192.1c-74.13 74.13-180.296 109.212-284.004 93.844-24.524-3.636-44.594-20.518-52.372-44.060-7.778-23.54-1.72-49.058 15.812-66.586l361.9-361.9-15.434-15.433-60.32 60.318-266.614-266.611c-46.402-46.404-46.402-121.907 0-168.311 22.48-22.481 52.368-34.859 84.156-34.859 31.79 0 61.678 12.378 84.154 34.859l266.612 266.615-60.316 60.318 75.936 75.934 75.046-75.046-60.318-60.318 266.615-266.615c22.481-22.477 52.369-34.859 84.156-34.859s61.679 12.382 84.156 34.859c46.4 46.404 46.4 121.907 0 168.316l-266.611 266.611zM611.516 705.328l159.723-159.722c-21.001-19.637-48.226-30.432-77.12-30.432-30.191 0-58.577 11.759-79.927 33.108-43.153 43.154-44.023 112.786-2.675 157.046zM159.314 20.446c-9.744-9.741-22.698-15.108-36.476-15.108s-26.734 5.367-36.478 15.108h-0.002c-20.114 20.117-20.114 52.847 0 72.96l218.938 218.94 72.96-72.96-218.942-218.94zM428.723 410.492l-358.778 358.776c81.294 10.648 164.022-17.364 222.086-75.432l210.018-210.017-73.327-73.327zM891.2 21.338c-9.745-9.745-22.699-15.108-36.48-15.108-13.777 0-26.735 5.363-36.476 15.108l-218.935 218.94 72.96 72.956 218.935-218.935c20.113-20.117 20.113-52.843-0.004-72.96z" />
<glyph unicode="&#xe91c;" glyph-name="calculator-1" d="M805.171 960h-586.324c-54.71 0-99.097-44.387-99.097-99.097v-825.806c0-54.711 44.387-99.098 99.097-99.098h586.324c54.707 0 99.093 44.386 99.093 99.098v825.806c0 54.71-44.386 99.097-99.093 99.097zM838.199 35.098c0-18.167-14.861-33.033-33.028-33.033h-586.324c-18.168 0-33.032 14.865-33.032 33.033v825.806c0 18.168 14.864 33.032 33.032 33.032h586.324c18.167 0 33.028-14.864 33.028-33.032v-825.806zM693.687 840.258h-363.357c-45.626 0-82.58-36.955-82.58-82.581v-103.226c0-45.626 36.955-82.58 82.58-82.58h363.357c45.623 0 82.577 36.954 82.577 82.58v103.226c0 45.626-36.954 82.581-82.577 82.581zM710.199 654.452c0-9.084-7.428-16.516-16.512-16.516h-363.357c-9.084 0-16.516 7.433-16.516 16.516v103.226c0 9.084 7.432 16.516 16.516 16.516h363.357c9.084 0 16.512-7.432 16.512-16.516v-103.226zM417.040 417.033c0-18.167-14.864-33.033-33.032-33.033h-103.226c-18.167 0-33.032 14.865-33.032 33.033s14.865 33.033 33.032 33.033h103.226c18.168 0 33.032-14.865 33.032-33.033zM417.040 272.516c0-18.167-14.864-33.033-33.032-33.033h-103.226c-18.167 0-33.032 14.865-33.032 33.033s14.865 33.033 33.032 33.033h103.226c18.168 0 33.032-14.865 33.032-33.033zM417.040 128c0-18.167-14.864-33.033-33.032-33.033h-103.226c-18.167 0-33.032 14.865-33.032 33.033s14.865 33.033 33.032 33.033h103.226c18.168 0 33.032-14.865 33.032-33.033zM648.265 417.033c0-18.167-14.865-33.033-33.033-33.033h-103.223c-18.167 0-33.033 14.865-33.033 33.033s14.865 33.033 33.033 33.033h103.223c18.167 0 33.033-14.865 33.033-33.033zM648.265 272.516c0-18.167-14.865-33.033-33.033-33.033h-103.223c-18.167 0-33.033 14.865-33.033 33.033s14.865 33.033 33.033 33.033h103.223c18.167 0 33.033-14.865 33.033-33.033zM648.265 128c0-18.167-14.865-33.033-33.033-33.033h-103.223c-18.167 0-33.033 14.865-33.033 33.033s14.865 33.033 33.033 33.033h103.223c18.167 0 33.033-14.865 33.033-33.033zM776.265 417.033v-289.033c0-18.167-14.861-33.033-33.033-33.033h-4.126c-18.167 0-33.033 14.865-33.033 33.033v289.033c0 18.167 14.865 33.033 33.033 33.033h4.126c18.172 0 33.033-14.865 33.033-33.033z" />
<glyph unicode="&#xe91d;" glyph-name="calculator-2" d="M256 789.333c-23.564 0-42.667-19.103-42.667-42.667v-597.333c0-23.565 19.103-42.667 42.667-42.667h512c23.565 0 42.667 19.102 42.667 42.667v597.333c0 23.564-19.102 42.667-42.667 42.667h-512zM128 746.667c0 70.692 57.308 128 128 128h512c70.694 0 128-57.308 128-128v-597.333c0-70.694-57.306-128-128-128h-512c-70.692 0-128 57.306-128 128v597.333zM298.666 618.665c0 47.128 38.205 85.333 85.333 85.333h256.001c47.13 0 85.333-38.205 85.333-85.333v-42.667c0-47.128-38.204-85.332-85.333-85.332h-256.001c-47.128 0-85.333 38.204-85.333 85.332v42.667zM640 618.665h-256.001v-42.667h256.001v42.667zM341.332 405.333c23.564 0 42.667-19.102 42.667-42.667v-0.427c0-23.561-19.102-42.667-42.667-42.667s-42.667 19.106-42.667 42.667v0.427c0 23.565 19.103 42.667 42.667 42.667zM512 405.333c23.565 0 42.667-19.102 42.667-42.667v-0.427c0-23.561-19.102-42.667-42.667-42.667s-42.667 19.106-42.667 42.667v0.427c0 23.565 19.102 42.667 42.667 42.667zM682.667 405.333c23.565 0 42.667-19.102 42.667-42.667v-0.427c0-23.561-19.102-42.667-42.667-42.667s-42.667 19.106-42.667 42.667v0.427c0 23.565 19.102 42.667 42.667 42.667zM341.332 277.333c23.564 0 42.667-19.102 42.667-42.667v-0.427c0-23.561-19.102-42.667-42.667-42.667s-42.667 19.106-42.667 42.667v0.427c0 23.565 19.103 42.667 42.667 42.667zM512 277.333c23.565 0 42.667-19.102 42.667-42.667v-0.427c0-23.561-19.102-42.667-42.667-42.667s-42.667 19.106-42.667 42.667v0.427c0 23.565 19.102 42.667 42.667 42.667zM682.667 277.333c23.565 0 42.667-19.102 42.667-42.667v-0.427c0-23.561-19.102-42.667-42.667-42.667s-42.667 19.106-42.667 42.667v0.427c0 23.565 19.102 42.667 42.667 42.667z" />
<glyph unicode="&#xe91e;" glyph-name="camera-plus" d="M512 490.667c-47.13 0-85.333-38.208-85.333-85.333 0-47.13 38.204-85.333 85.333-85.333s85.333 38.204 85.333 85.333c0 47.125-38.204 85.333-85.333 85.333zM341.333 405.333c0 94.255 76.41 170.665 170.667 170.665 94.255 0 170.667-76.41 170.667-170.665 0-94.259-76.412-170.667-170.667-170.667-94.257 0-170.667 76.407-170.667 170.667zM366.327 807.005c16.003 16.003 37.708 24.993 60.34 24.993h85.333c23.565 0 42.667-19.102 42.667-42.667s-19.102-42.667-42.667-42.667h-85.333c0-33.948-13.486-66.505-37.49-90.51s-56.562-37.49-90.51-37.49h-85.333c-11.316 0-22.168-4.495-30.17-12.497s-12.497-18.854-12.497-30.17v-383.998c0-11.319 4.495-22.17 12.497-30.17 8.002-8.004 18.854-12.497 30.17-12.497h597.333c11.315 0 22.17 4.493 30.17 12.497 8 8 12.497 18.85 12.497 30.17v298.667c0 23.561 19.102 42.667 42.667 42.667s42.667-19.106 42.667-42.667v-298.667c0-33.95-13.487-66.505-37.491-90.513-24.004-24.004-56.559-37.487-90.509-37.487h-597.333c-33.948 0-66.505 13.483-90.51 37.487-24.005 24.009-37.49 56.563-37.49 90.513v383.998c0 33.948 13.486 66.505 37.49 90.51s56.562 37.49 90.51 37.49h85.333c11.316 0 22.168 4.495 30.17 12.497s12.497 18.854 12.497 30.17c0 22.632 8.99 44.337 24.994 60.34zM597.333 704c0 23.564 19.102 42.667 42.667 42.667h256c23.565 0 42.667-19.103 42.667-42.667s-19.102-42.667-42.667-42.667h-256c-23.565 0-42.667 19.102-42.667 42.667zM768 874.667c23.565 0 42.667-19.103 42.667-42.667v-256c0-23.564-19.102-42.667-42.667-42.667s-42.667 19.102-42.667 42.667v256c0 23.564 19.102 42.667 42.667 42.667z" />
<glyph unicode="&#xe91f;" glyph-name="car" d="M140.333 762.003c6.343 16.467 22.169 27.331 39.815 27.331h426.666c13.235 0 25.724-6.143 33.801-16.628l176.819-229.526h26.419c36.992 0 72.128-15.278 97.775-41.91 25.596-26.581 39.706-62.298 39.706-99.217v-196.924c0-11.315-4.497-22.17-12.497-30.17-8-8.004-18.854-12.497-30.17-12.497h-58.586c-17.459-56.371-68.599-98.462-131.042-98.462-62.447 0-113.587 42.091-131.046 98.462h-211.987c-17.456-56.371-68.597-98.462-131.043-98.462s-113.587 42.091-131.043 98.462h-58.586c-11.316 0-22.168 4.493-30.17 12.497-8.001 8-12.497 18.854-12.497 30.17v295.386c0 5.244 0.967 10.441 2.851 15.334l94.815 246.154zM143.919 247.795c17.456 56.371 68.597 98.462 131.043 98.462s113.587-42.091 131.043-98.462h211.987c17.459 56.371 68.599 98.462 131.046 98.462 62.443 0 113.583-42.091 131.042-98.462h15.919v154.257c0 15.305-5.871 29.675-15.838 40.026-9.916 10.295-23.010 15.77-36.309 15.77h-715.853v-210.052h15.919zM147.49 543.18h321.843v160.82h-259.897l-61.946-160.82zM554.667 704v-160.82h155.051l-123.891 160.82h-31.159zM274.962 260.924c-27.297 0-52.148-23.45-52.148-55.795s24.851-55.795 52.148-55.795c27.297 0 52.148 23.45 52.148 55.795s-24.851 55.795-52.148 55.795zM749.039 260.924c-27.298 0-52.151-23.45-52.151-55.795s24.853-55.795 52.151-55.795c27.294 0 52.147 23.45 52.147 55.795s-24.853 55.795-52.147 55.795z" />
<glyph unicode="&#xe920;" glyph-name="cart" d="M384 192c-23.564 0-42.667-19.102-42.667-42.667s19.103-42.667 42.667-42.667c23.564 0 42.667 19.102 42.667 42.667s-19.102 42.667-42.667 42.667zM256 149.333c0 70.69 57.308 128 128 128 70.694 0 128-57.31 128-128 0-70.694-57.306-128-128-128-70.692 0-128 57.306-128 128zM725.333 192c-23.565 0-42.667-19.102-42.667-42.667s19.102-42.667 42.667-42.667c23.565 0 42.667 19.102 42.667 42.667s-19.102 42.667-42.667 42.667zM597.333 149.333c0 70.69 57.306 128 128 128s128-57.31 128-128c0-70.694-57.306-128-128-128s-128 57.306-128 128zM85.333 874.667c0 23.564 19.103 42.667 42.667 42.667h85.333c20.857 0 38.657-15.079 42.086-35.652l29.614-177.681h610.967c12.369 0 24.128-5.367 32.235-14.711 8.102-9.344 11.75-21.745 10.005-33.989l-42.667-298.666c-0.397-2.765-1.062-5.487-1.988-8.119-12.275-34.901-35.554-64.87-66.334-85.389-30.421-20.284-66.543-30.251-103.040-28.459h-296.422c-36.496-1.792-72.617 8.175-103.039 28.459-30.781 20.518-54.061 50.487-66.333 85.389-0.817 2.321-1.431 4.71-1.836 7.138l-48.026 288.153c-2.412 5.347-3.755 11.281-3.755 17.528 0 1.325 0.061 2.636 0.179 3.93l-27.79 166.736h-49.189c-23.564 0-42.667 19.103-42.667 42.667zM299.255 618.667l40.828-244.966c6.383-16.115 17.536-29.931 32.001-39.573 15.391-10.261 33.699-15.245 52.166-14.195 0.805 0.047 1.61 0.068 2.416 0.068h298.667c0.806 0 1.613-0.021 2.415-0.068 18.47-1.050 36.779 3.934 52.169 14.195 14.34 9.562 25.425 23.219 31.834 39.155l35.055 245.385h-547.55z" />
<glyph unicode="&#xe921;" glyph-name="cash" d="M353.524 533.333c-31.848 0-54.857-24.444-54.857-51.2v-281.6c0-26.756 23.009-51.2 54.857-51.2h487.62c31.846 0 54.857 24.444 54.857 51.2v281.6c0 26.756-23.010 51.2-54.857 51.2h-487.62zM213.333 482.133c0 76.928 64.317 136.533 140.19 136.533h487.62c75.874 0 140.19-59.606 140.19-136.533v-281.6c0-76.928-64.316-136.533-140.19-136.533h-487.62c-75.873 0-140.19 59.605-140.19 136.533v281.6zM618.667 405.333c-35.345 0-64-28.655-64-64s28.655-64 64-64c35.345 0 64 28.655 64 64s-28.655 64-64 64zM469.333 341.333c0 82.475 66.859 149.333 149.333 149.333s149.333-66.859 149.333-149.333c0-82.475-66.859-149.333-149.333-149.333s-149.333 66.859-149.333 149.333zM84.309 792.581c26.405 25.415 61.882 39.419 98.548 39.419h487.62c36.663 0 72.141-14.004 98.547-39.419 26.462-25.468 41.643-60.366 41.643-97.114v-93.867c0-23.564-19.102-42.667-42.667-42.667s-42.667 19.103-42.667 42.667v93.867c0 13.041-5.367 25.894-15.484 35.633-10.176 9.792-24.311 15.567-39.373 15.567h-487.62c-15.064 0-29.198-5.775-39.372-15.567-10.118-9.739-15.485-22.592-15.485-35.633v-281.6c0-13.043 5.367-25.894 15.485-35.631 10.173-9.792 24.308-15.569 39.372-15.569h54.857c23.564 0 42.667-19.102 42.667-42.667s-19.103-42.667-42.667-42.667h-54.857c-36.666 0-72.143 14.003-98.548 39.42-26.461 25.468-41.643 60.365-41.643 97.114v281.6c0 36.748 15.182 71.646 41.643 97.114z" />
<glyph unicode="&#xe922;" glyph-name="cctv" d="M929.954 877.875h-45.167v11.133c0 39.141-31.842 70.992-70.989 70.992h-741.556c-39.141 0-70.992-31.852-70.992-70.992v-375.032c0-39.138 31.852-70.993 70.992-70.993h291.242v-184.38h-148.352v7.351c0 59.311-48.258 107.563-107.57 107.563-59.305 0-107.563-48.252-107.563-107.563v-222.383c0-59.315 48.258-107.571 107.563-107.571 59.312 0 107.57 48.256 107.57 107.563v7.351h149.125c123.281 0 223.569 100.297 223.569 223.569v168.499h225.963c39.147 0 70.997 31.855 70.997 70.993v18.82h45.167c51.849 0 94.037 42.189 94.037 94.048v156.977c0.009 51.867-42.18 94.055-94.037 94.055zM61.25 513.975v375.032c0 6.063 4.93 10.992 10.992 10.992h291.242v-397.015h-291.242c-6.063 0-10.992 4.937-10.992 10.991zM155.133 43.563c0-26.227-21.336-47.565-47.57-47.565-26.227 0-47.563 21.338-47.563 47.565v222.391c0 26.227 21.336 47.561 47.563 47.561 26.234 0 47.57-21.333 47.57-47.561v-222.391zM527.829 274.483c0-90.193-73.378-163.571-163.564-163.571h-149.133v87.689h151.297c31.461 0 57.055 25.596 57.055 57.054v187.328h104.345v-168.499zM824.789 513.975c0-6.054-4.928-10.991-10.991-10.991h-390.314v397.015h390.314c6.063 0 10.991-4.93 10.991-10.992v-375.032zM964.002 626.844c0-18.773-15.275-34.039-34.048-34.039h-45.167v225.071h45.167c18.773 0 34.048-15.274 34.048-34.047v-156.984z" />
<glyph unicode="&#xe923;" glyph-name="check" d="M883.503 691.503c16.661-16.663 16.661-43.677 0-60.34l-426.667-426.666c-16.661-16.661-43.677-16.661-60.34 0l-213.333 213.333c-16.662 16.661-16.662 43.678 0 60.339s43.677 16.661 60.34 0l183.163-183.164 396.497 396.497c16.661 16.662 43.678 16.662 60.339 0z" />
<glyph unicode="&#xe924;" glyph-name="checkbox" d="M256 746.667c-23.564 0-42.667-19.103-42.667-42.667v-512c0-23.565 19.103-42.667 42.667-42.667h512c23.565 0 42.667 19.102 42.667 42.667v512c0 23.564-19.102 42.667-42.667 42.667h-512zM128 704c0 70.692 57.308 128 128 128h512c70.694 0 128-57.308 128-128v-512c0-70.694-57.306-128-128-128h-512c-70.692 0-128 57.306-128 128v512z" />
<glyph unicode="&#xe925;" glyph-name="circle" d="M512 789.333c-188.513 0-341.333-152.82-341.333-341.333s152.82-341.333 341.333-341.333c188.514 0 341.333 152.819 341.333 341.333s-152.819 341.333-341.333 341.333zM85.333 448c0 235.642 191.025 426.667 426.667 426.667 235.639 0 426.667-191.025 426.667-426.667 0-235.639-191.027-426.667-426.667-426.667-235.642 0-426.667 191.027-426.667 426.667zM670.17 563.504c16.661-16.662 16.661-43.679 0-60.34l-170.667-170.667c-8-8-18.854-12.497-30.17-12.497s-22.17 4.497-30.17 12.497l-85.334 85.333c-16.662 16.661-16.662 43.678 0 60.339s43.677 16.661 60.34 0l55.163-55.164 140.497 140.498c16.661 16.663 43.678 16.663 60.339 0z" />
<glyph unicode="&#xe926;" glyph-name="clean" d="M597.333 874.667c23.565 0 42.667-19.103 42.667-42.667v-170.667h170.667c23.565 0 42.667-19.103 42.667-42.667s-19.102-42.667-42.667-42.667h-170.667c-22.63 0-44.335 8.99-60.339 24.994s-24.994 37.708-24.994 60.34v170.667c0 23.564 19.102 42.667 42.667 42.667zM298.667 789.333c-11.316 0-22.168-4.495-30.17-12.497s-12.497-18.854-12.497-30.17v-597.333c0-11.315 4.495-22.17 12.497-30.17s18.854-12.497 30.17-12.497h426.667c11.315 0 22.17 4.497 30.17 12.497s12.497 18.854 12.497 30.17v451.66l-188.339 188.34h-280.994zM208.157 837.176c24.005 24.005 56.562 37.49 90.51 37.49h298.667c11.315 0 22.17-4.495 30.17-12.497l213.333-213.333c8-8.002 12.497-18.854 12.497-30.17v-469.333c0-33.95-13.487-66.505-37.491-90.509s-56.559-37.491-90.509-37.491h-426.667c-33.948 0-66.505 13.487-90.51 37.491s-37.49 56.559-37.49 90.509v597.333c0 33.948 13.486 66.505 37.49 90.51z" />
<glyph unicode="&#xe927;" glyph-name="clock" d="M512 789.333c-188.513 0-341.333-152.82-341.333-341.333s152.82-341.333 341.333-341.333c188.514 0 341.333 152.819 341.333 341.333s-152.819 341.333-341.333 341.333zM85.333 448c0 235.642 191.025 426.667 426.667 426.667 235.639 0 426.667-191.025 426.667-426.667 0-235.639-191.027-426.667-426.667-426.667-235.642 0-426.667 191.027-426.667 426.667zM512 703.994c23.565 0 42.667-19.102 42.667-42.667v-195.659l115.503-115.503c16.661-16.666 16.661-43.678 0-60.343-16.661-16.661-43.678-16.661-60.339 0l-128 128c-8 8.004-12.497 18.854-12.497 30.174v213.331c0 23.564 19.102 42.667 42.667 42.667z" />
<glyph unicode="&#xe928;" glyph-name="cocktail" d="M865.523 762.655c-5.602 14.476-19.243 23.828-34.765 23.828h-196.19l9.681 49.133 157.001 68.937c15.172 6.664 22.071 24.36 15.407 39.532s-24.358 22.070-39.531 15.406l-171.337-75.242c-9.485-4.156-15.735-12.633-17.463-22.101l-14.912-75.664h-376.11c-15.32 0-28.906-9.187-34.602-23.407-5.539-13.82-2.406-29.352 7.953-39.922l305.564-330.655v-394.47h-158.321c-16.57 0-30-13.431-30-29.999 0-16.572 13.43-30.003 30-30.003h376.643c16.567 0 29.999 13.431 29.999 30.003 0 16.567-13.431 29.999-29.999 29.999h-158.323v394.057l320.55 330.429c10.748 10.445 14.195 26.063 8.755 40.141zM249.265 726.49h312.322l-12.847-65.149h-239.272l-60.204 65.149zM506.743 447.872l-141.83 153.47h290.719l-148.89-153.47zM713.835 661.342h-103.936l12.843 65.149h154.291l-63.198-65.149z" />
<glyph unicode="&#xe929;" glyph-name="computer" d="M943.898 923.281h-863.793c-44.912 0-80.104-35.192-80.104-80.104v-616.805c0-44.911 35.192-80.102 80.104-80.102h863.793c44.911 0 80.102 35.191 80.102 80.102v616.805c0 44.912-35.191 80.104-80.102 80.104zM943.898 226.372h-863.793l-0.614 616.751c0 0 0.188 0.054 0.614 0.054h863.793v-616.805zM551.386 186.321h-80.102v-173.559h80.102v173.559zM656.862 52.817h-291.048c-22.122 0-40.052-17.929-40.052-40.051s17.93-40.051 40.052-40.051h291.048c22.118 0 40.051 17.929 40.051 40.051s-17.933 40.051-40.051 40.051zM982.613 430.639h-942.561v-80.102h942.561v80.102z" />
<glyph unicode="&#xe92a;" glyph-name="corner-down-left" d="M768 746.667c23.565 0 42.667-19.103 42.667-42.667v-256c0-45.265-17.98-88.674-49.988-120.678-32.004-32.009-75.413-49.988-120.678-49.988h-323.66l97.83-97.83c16.661-16.661 16.661-43.678 0-60.339-16.663-16.661-43.677-16.661-60.34 0l-170.667 170.667c-8.001 8-12.497 18.854-12.497 30.17s4.495 22.17 12.497 30.17l170.667 170.667c16.663 16.663 43.677 16.663 60.34 0 16.661-16.661 16.661-43.678 0-60.339l-97.83-97.83h323.66c22.63 0 44.335 8.99 60.339 24.994s24.994 37.709 24.994 60.339v256c0 23.564 19.102 42.667 42.667 42.667z" />
<glyph unicode="&#xe92b;" glyph-name="corner-down-right" d="M256 746.667c23.564 0 42.667-19.103 42.667-42.667v-256c0-22.63 8.99-44.335 24.994-60.339s37.708-24.994 60.34-24.994h323.661l-97.83 97.83c-16.661 16.661-16.661 43.678 0 60.339 16.661 16.663 43.678 16.663 60.339 0l170.667-170.667c8-8 12.497-18.854 12.497-30.17s-4.497-22.17-12.497-30.17l-170.667-170.667c-16.661-16.661-43.678-16.661-60.339 0s-16.661 43.678 0 60.339l97.83 97.83h-323.661c-45.264 0-88.673 17.98-120.68 49.988-32.006 32.004-49.987 75.413-49.987 120.678v256c0 23.564 19.103 42.667 42.667 42.667z" />
<glyph unicode="&#xe92c;" glyph-name="corner-left-down" d="M391.32 696.68c32.006 32.006 75.415 49.987 120.68 49.987h256c23.565 0 42.667-19.103 42.667-42.667s-19.102-42.667-42.667-42.667h-256c-22.63 0-44.335-8.99-60.339-24.994s-24.994-37.708-24.994-60.34v-323.661l97.83 97.83c16.661 16.661 43.678 16.661 60.339 0s16.661-43.678 0-60.339l-170.666-170.667c-16.663-16.661-43.677-16.661-60.34 0l-170.667 170.667c-16.662 16.661-16.662 43.678 0 60.339s43.677 16.661 60.34 0l97.83-97.83v323.661c0 45.264 17.981 88.673 49.987 120.68z" />
<glyph unicode="&#xe92d;" glyph-name="corner-left-up" d="M384 789.333c11.316 0 22.168-4.495 30.17-12.497l170.666-170.667c16.661-16.663 16.661-43.677 0-60.34-16.661-16.661-43.678-16.661-60.339 0l-97.83 97.83v-323.66c0-22.63 8.99-44.335 24.994-60.339s37.709-24.994 60.339-24.994h256c23.565 0 42.667-19.102 42.667-42.667s-19.102-42.667-42.667-42.667h-256c-45.265 0-88.673 17.98-120.68 49.988-32.006 32.004-49.987 75.413-49.987 120.678v323.66l-97.83-97.83c-16.663-16.661-43.677-16.661-60.34 0-16.662 16.663-16.662 43.677 0 60.34l170.667 170.667c8.002 8.001 18.854 12.497 30.17 12.497z" />
<glyph unicode="&#xe92e;" glyph-name="corner-right-down" d="M213.333 704c0 23.564 19.103 42.667 42.667 42.667h256c45.265 0 88.674-17.981 120.678-49.987 32.009-32.006 49.988-75.416 49.988-120.68v-323.661l97.83 97.83c16.661 16.661 43.678 16.661 60.339 0s16.661-43.678 0-60.339l-170.667-170.667c-8-8-18.854-12.497-30.17-12.497s-22.17 4.497-30.17 12.497l-170.667 170.667c-16.663 16.661-16.663 43.678 0 60.339 16.661 16.661 43.678 16.661 60.339 0l97.83-97.83v323.661c0 22.632-8.99 44.337-24.994 60.34s-37.709 24.994-60.339 24.994h-256c-23.564 0-42.667 19.103-42.667 42.667z" />
<glyph unicode="&#xe92f;" glyph-name="corner-right-up" d="M640 789.333c11.315 0 22.17-4.495 30.17-12.497l170.667-170.667c16.661-16.663 16.661-43.677 0-60.34-16.661-16.661-43.678-16.661-60.339 0l-97.83 97.83v-323.66c0-45.265-17.98-88.674-49.988-120.678-32.004-32.009-75.413-49.988-120.678-49.988h-256c-23.564 0-42.667 19.102-42.667 42.667s19.103 42.667 42.667 42.667h256c22.63 0 44.335 8.99 60.339 24.994s24.994 37.709 24.994 60.339v323.66l-97.83-97.83c-16.661-16.661-43.678-16.661-60.339 0-16.663 16.663-16.663 43.677 0 60.34l170.667 170.667c8 8.001 18.854 12.497 30.17 12.497z" />
<glyph unicode="&#xe930;" glyph-name="corner-up-left" d="M414.17 776.837c16.661-16.663 16.661-43.677 0-60.34l-97.83-97.83h323.66c45.265 0 88.674-17.981 120.678-49.987 32.009-32.006 49.988-75.415 49.988-120.68v-256c0-23.565-19.102-42.667-42.667-42.667s-42.667 19.102-42.667 42.667v256c0 22.63-8.99 44.335-24.994 60.339s-37.709 24.994-60.339 24.994h-323.66l97.83-97.83c16.661-16.661 16.661-43.678 0-60.339-16.663-16.661-43.677-16.661-60.34 0l-170.667 170.666c-16.662 16.663-16.662 43.677 0 60.34l170.667 170.667c16.663 16.662 43.677 16.662 60.34 0z" />
<glyph unicode="&#xe931;" glyph-name="corner-up-right" d="M609.83 776.837c16.661 16.662 43.678 16.662 60.339 0l170.667-170.667c16.661-16.663 16.661-43.677 0-60.34l-170.667-170.666c-16.661-16.661-43.678-16.661-60.339 0s-16.661 43.678 0 60.339l97.83 97.83h-323.661c-22.632 0-44.337-8.99-60.34-24.994s-24.994-37.709-24.994-60.339v-256c0-23.565-19.103-42.667-42.667-42.667s-42.667 19.102-42.667 42.667v256c0 45.265 17.981 88.673 49.987 120.68s75.416 49.987 120.68 49.987h323.661l-97.83 97.83c-16.661 16.663-16.661 43.677 0 60.34z" />
<glyph unicode="&#xe932;" glyph-name="credit-card" d="M768 789.333h-512c-93.867 0-170.667-76.8-170.667-170.667v-341.333c0-93.867 76.8-170.667 170.667-170.667h512c93.867 0 170.667 76.8 170.667 170.667v341.333c0 93.867-76.8 170.667-170.667 170.667zM170.667 618.667c0 46.933 38.4 85.333 85.333 85.333h512c46.933 0 85.333-38.4 85.333-85.333v-42.667h-682.667v42.667zM853.333 277.333c0-46.933-38.4-85.333-85.333-85.333h-512c-46.933 0-85.333 38.4-85.333 85.333v213.333h682.667v-213.333zM256 320c0 25.6 17.067 42.667 42.667 42.667s42.667-17.067 42.667-42.667c0-25.6-17.067-42.667-42.667-42.667s-42.667 17.067-42.667 42.667zM426.667 320c0 25.6 17.067 42.667 42.667 42.667h85.333c25.6 0 42.667-17.067 42.667-42.667s-17.067-42.667-42.667-42.667h-85.333c-25.6 0-42.667 17.067-42.667 42.667z" />
<glyph unicode="&#xe933;" glyph-name="cross" d="M798.17 734.17c16.661-16.663 16.661-43.677 0-60.34l-512-512c-16.663-16.661-43.677-16.661-60.34 0s-16.662 43.678 0 60.339l512 512c16.661 16.662 43.678 16.662 60.339 0zM225.83 734.17c16.663 16.662 43.677 16.662 60.34 0l512-512c16.661-16.661 16.661-43.678 0-60.339s-43.678-16.661-60.339 0l-512 512c-16.662 16.663-16.662 43.677 0 60.34z" />
<glyph unicode="&#xe934;" glyph-name="cup" d="M152.994 721.673c16.003 16.003 37.708 24.994 60.34 24.994h426.667c22.63 0 44.335-8.99 60.339-24.994s24.994-37.708 24.994-60.34v-341.333c0-56.58-22.477-110.844-62.485-150.848-40.004-40.009-94.268-62.485-150.848-62.485h-170.667c-56.579 0-110.842 22.477-150.849 62.485-40.008 40.004-62.484 94.268-62.484 150.848v341.333c0 22.632 8.99 44.337 24.994 60.34zM640 661.333h-426.667v-341.333c0-33.946 13.486-66.505 37.49-90.509s56.562-37.491 90.51-37.491h170.667c33.95 0 66.505 13.487 90.509 37.491s37.491 56.563 37.491 90.509v341.333zM640 576c0 23.564 19.102 42.667 42.667 42.667h85.333c33.946 0 66.505-13.486 90.509-37.49s37.491-56.56 37.491-90.51v-85.333c0-33.95-13.487-66.505-37.491-90.509s-56.563-37.491-90.509-37.491h-85.333c-23.565 0-42.667 19.102-42.667 42.667s19.102 42.667 42.667 42.667h85.333c11.315 0 22.17 4.497 30.17 12.497s12.497 18.854 12.497 30.17v85.333c0 11.315-4.497 22.17-12.497 30.17s-18.854 12.497-30.17 12.497h-85.333c-23.565 0-42.667 19.103-42.667 42.667z" />
<glyph unicode="&#xe935;" glyph-name="dashboard" d="M512 448c-23.565 0-42.667-19.102-42.667-42.667s19.102-42.667 42.667-42.667c23.565 0 42.667 19.102 42.667 42.667s-19.102 42.667-42.667 42.667zM383.999 405.333c0 70.694 57.306 128.001 128.001 128.001 70.69 0 128-57.306 128-128.001 0-70.69-57.31-128-128-128-70.694 0-128.001 57.31-128.001 128zM691.503 584.838c16.661-16.663 16.661-43.677 0-60.34l-87.467-87.467c-16.661-16.661-43.678-16.661-60.339 0s-16.661 43.678 0 60.339l87.467 87.468c16.661 16.662 43.678 16.662 60.339 0zM512 748.609c-70.822 0-139.89-22.029-197.632-63.035s-101.301-98.957-124.637-165.826c-23.337-66.863-25.297-139.332-5.608-207.364 18.342-63.377 54.627-119.979 104.331-163.051h447.095c49.702 43.072 85.986 99.674 104.329 163.051 19.691 68.032 17.732 140.501-5.606 207.364-23.339 66.868-66.893 124.82-124.638 165.826-57.741 41.006-126.81 63.035-197.632 63.035zM264.959 755.149c72.179 51.257 158.514 78.794 247.041 78.794 88.529 0 174.861-27.537 247.040-78.794s126.626-123.697 155.797-207.28c29.171-83.583 31.62-174.169 7.010-259.208s-75.063-160.316-144.367-215.398c-7.548-5.999-16.905-9.263-26.547-9.263h-477.867c-9.642 0-19 3.264-26.548 9.263-69.303 55.083-119.756 130.359-144.366 215.398s-22.161 175.625 7.010 259.208c29.171 83.583 83.619 156.022 155.797 207.28z" />
<glyph unicode="&#xe936;" glyph-name="date" d="M341.333 874.667c23.564 0 42.667-19.103 42.667-42.667v-42.667h256v42.667c0 23.564 19.102 42.667 42.667 42.667s42.667-19.103 42.667-42.667v-42.667h42.667c70.694 0 128-57.308 128-128v-512c0-70.694-57.306-128-128-128h-512c-70.692 0-128 57.306-128 128v512c0 70.692 57.308 128 128 128h42.667v42.667c0 23.564 19.103 42.667 42.667 42.667zM298.667 704h-42.667c-23.564 0-42.667-19.103-42.667-42.667v-128h597.333v128c0 23.564-19.102 42.667-42.667 42.667h-42.667v-42.667c0-23.564-19.102-42.667-42.667-42.667s-42.667 19.102-42.667 42.667v42.667h-256v-42.667c0-23.564-19.103-42.667-42.667-42.667s-42.667 19.102-42.667 42.667v42.667zM810.667 448h-597.333v-298.667c0-23.565 19.103-42.667 42.667-42.667h512c23.565 0 42.667 19.102 42.667 42.667v298.667zM298.667 320c0 23.565 19.103 42.667 42.667 42.667h85.333c23.565 0 42.667-19.102 42.667-42.667v-85.333c0-23.565-19.102-42.667-42.667-42.667h-85.333c-23.564 0-42.667 19.102-42.667 42.667v85.333z" />
<glyph unicode="&#xe937;" glyph-name="device-desktop" d="M85.333 746.667c0 47.128 38.205 85.333 85.333 85.333h682.667c47.13 0 85.333-38.205 85.333-85.333v-426.667c0-47.13-38.204-85.333-85.333-85.333h-682.667c-47.128 0-85.333 38.204-85.333 85.333v426.667zM853.333 746.667h-682.667v-426.667h682.667v426.667zM255.999 106.671c0 23.565 19.103 42.667 42.667 42.667h426.668c23.565 0 42.667-19.102 42.667-42.667s-19.102-42.667-42.667-42.667h-426.668c-23.564 0-42.667 19.102-42.667 42.667zM384 320c23.564 0 42.667-19.102 42.667-42.667v-170.667c0-23.565-19.102-42.667-42.667-42.667s-42.667 19.102-42.667 42.667v170.667c0 23.565 19.103 42.667 42.667 42.667zM640 320c23.565 0 42.667-19.102 42.667-42.667v-170.667c0-23.565-19.102-42.667-42.667-42.667s-42.667 19.102-42.667 42.667v170.667c0 23.565 19.102 42.667 42.667 42.667z" />
<glyph unicode="&#xe938;" glyph-name="device-laptop" d="M85.333 149.333c0 23.561 19.103 42.667 42.667 42.667h768c23.565 0 42.667-19.106 42.667-42.667 0-23.565-19.102-42.667-42.667-42.667h-768c-23.564 0-42.667 19.102-42.667 42.667zM170.668 661.333c0 47.128 38.205 85.333 85.333 85.333h511.999c47.13 0 85.333-38.205 85.333-85.333v-341.333c0-47.13-38.204-85.333-85.333-85.333h-511.999c-47.128 0-85.333 38.204-85.333 85.333v341.333zM768 661.333h-511.999v-341.333h511.999v341.333z" />
<glyph unicode="&#xe939;" glyph-name="device-tablet" d="M170.667 789.333c0 47.128 38.205 85.333 85.333 85.333h512c47.13 0 85.333-38.205 85.333-85.333v-682.667c0-47.13-38.204-85.333-85.333-85.333h-512c-47.128 0-85.333 38.204-85.333 85.333v682.667zM768 789.333h-512v-682.667h512v682.667zM426.667 234.667c0 47.125 38.204 85.333 85.333 85.333s85.333-38.208 85.333-85.333c0-47.13-38.204-85.333-85.333-85.333s-85.333 38.204-85.333 85.333z" />
<glyph unicode="&#xe93a;" glyph-name="disco-ball" d="M641.929 756.197v17.49c0 61.25-42.611 112.703-99.738 126.357v59.956h-60.403v-59.953c-57.127-13.655-99.739-65.108-99.739-126.359v-17.49c-418.385-151.476-320.599-766.028 129.947-774.685 450.611 8.695 548.262 623.289 129.933 774.685zM761.271 306.526c-11.034-4.301-22.703-8.265-34.91-11.908 4.288 54.942 4.288 115.328 0 170.266 52.343-14.229 124.668-51.042 123.465-85.133 0-23.889-33.933-51.951-88.555-73.225zM592.657 51.674c-16.388-4.032-33.242-6.861-50.466-8.393v163.379c39.437 1.207 77.73 4.774 113.822 10.522-7.787-53.73-34.726-141.449-63.356-165.508zM380.597 158.711c-4.87 18.202-9.082 37.833-12.628 58.47 36.093-5.747 74.386-9.314 113.823-10.522v-163.379c-17.225 1.532-34.078 4.361-50.466 8.393-18.509 17.195-37.161 56.341-50.729 107.038zM174.155 379.75c-1.15 34.163 71.127 70.886 123.464 85.129-4.288-54.938-4.288-115.324 0-170.261-52.476 14.327-124.515 50.876-123.464 85.133zM354.794 379.75c0 34.005 1.657 67.657 4.81 99.895 37.994 7.040 79.253 11.375 122.184 12.762v-225.318c-42.931 1.391-84.19 5.726-122.184 12.762-3.151 32.239-4.81 65.894-4.81 99.9zM431.322 707.826c16.388 4.031 33.246 6.86 50.466 8.394v-163.383c-39.433-1.206-77.727-4.772-113.821-10.518 7.788 53.728 34.724 141.446 63.354 165.507zM592.657 707.826c28.646-24.102 55.552-111.743 63.356-165.507-36.092 5.746-74.385 9.312-113.822 10.518v163.383c17.225-1.534 34.078-4.363 50.466-8.394zM542.191 267.089v225.318c42.931-1.387 84.19-5.722 122.185-12.762 6.387-64.303 6.387-135.492 0-199.795-37.995-7.040-79.253-11.371-122.185-12.762zM832.802 485.662c-33.869 19.678-73.242 33.536-113.532 43.767-7.846 51.572-16.755 93.062-35.11 140.882 69.414-41.29 122.85-106.726 148.642-184.65zM442.449 773.687c0 38.344 31.198 69.539 69.542 69.539 38.997 0.058 70.524-32.375 69.538-71.329-44.937 8.087-94.14 8.087-139.081 0v1.79zM339.823 670.31c-18.353-47.813-27.269-89.318-35.113-140.88-40.267-10.227-79.68-24.098-113.53-43.767 25.791 77.924 79.227 143.36 148.643 184.648zM191.177 273.839c33.871-19.678 73.243-33.536 113.53-43.767 7.846-51.575 16.757-93.065 35.113-140.881-69.414 41.289-122.851 106.722-148.643 184.649zM684.156 89.186c18.355 47.812 27.268 89.318 35.115 140.885 40.265 10.223 79.68 24.094 113.532 43.767-25.792-77.926-79.228-143.36-148.646-184.653zM866.718 46.967l42.705 42.701 110.938-110.938-42.705-42.701-110.938 110.938zM3.413 910.436l42.703 42.703 110.938-110.939-42.703-42.703-110.938 110.938zM866.812 842.124l110.938 110.937 42.705-42.703-110.938-110.937-42.705 42.703zM3.312-21.175l110.938 110.938 42.703-42.701-110.938-110.942-42.703 42.705z" />
<glyph unicode="&#xe93b;" glyph-name="dish" d="M1020.813 312.623c5.888 11.776 3.447 26.155-6.336 35.307 6.238 32.457 9.502 66.543 9.502 100.1 0 281.934-230.093 511.986-511.983 511.986-281.932 0.002-511.986-230.088-511.986-511.981 0-33.557 3.264-67.648 9.5-100.105-9.78-9.152-12.222-23.531-6.334-35.307 14.682-29.363 34.994-55.326 59.644-76.582h-32.81c-22.248 0-36.802-23.471-26.832-43.413 36.018-72.043 105.678-123.2 187.774-134.327 44.29-75.674 125.406-122.249 213.21-122.249h215.665c87.684 0 168.858 46.473 213.21 122.249 79.484 10.773 150.579 59.934 187.776 134.327 4.651 9.301 4.151 20.343-1.314 29.188s-15.121 14.229-25.519 14.229h-32.811c24.649 21.248 44.962 47.215 59.644 76.578zM619.827-3.951h-215.665c-53.322 0-102.614 22.558-137.428 60.395h490.519c-34.812-37.837-84.105-60.395-137.425-60.395zM799.821 116.045h-575.653c-53.326 0-102.622 22.554-137.438 60.395 34.158 0 811.066 0 850.529 0-34.812-37.841-84.113-60.395-137.438-60.395zM799.821 236.041h-575.653c-53.326 0-102.622 22.554-137.438 60.399 11 0 826.303 0 850.529 0-34.812-37.845-84.113-60.399-137.438-60.399zM302.001 448.034c0 116.893 94.204 211.994 209.994 211.994 115.789 0 209.993-95.098 209.993-211.994 0-31.838-7.177-63.906-20.378-91.998h-379.231c-13.198 28.092-20.378 60.16-20.378 91.998zM954.931 356.036h-188.642c10.227 29.295 15.697 60.77 15.697 91.998 0 148.955-120.845 271.994-269.99 271.994-148.938 0-269.992-122.848-269.992-271.994 0-31.228 5.472-62.703 15.698-91.998h-188.642c-5.938 29.679-9.050 61.060-9.050 91.998 0 249.228 202.76 451.988 451.986 451.988 249.225 0 451.985-202.762 451.985-451.988 0-30.938-3.11-62.319-9.050-91.998z" />
<glyph unicode="&#xe93c;" glyph-name="dislike" d="M723.767 831.998h-297.101c-37.14 0-73.032-12.106-102.4-34.132-2.409 3.212-5.055 6.267-7.927 9.139-16.003 16.003-37.708 24.993-60.34 24.993h-85.333c-22.632 0-44.337-8.99-60.34-24.993s-24.994-37.708-24.994-60.34v-298.665c0-22.635 8.99-44.339 24.994-60.339 16.003-16.004 37.708-24.994 60.34-24.994h128c33.948 0 66.505-13.487 90.51-37.491s37.49-56.563 37.49-90.509v-42.667c0-33.95 13.487-66.505 37.491-90.513 24.004-24.004 56.559-37.487 90.509-37.487s66.505 13.483 90.509 37.487c24.004 24.009 37.491 56.563 37.491 90.513v170.667h85.333c33.95 0 66.505 13.483 90.509 37.487 24.004 24.009 37.491 56.563 37.491 90.513 0 2.807-0.277 5.611-0.828 8.367l-42.667 213.332c-0.094 0.458-0.192 0.915-0.299 1.37-7.522 32.095-22.34 62.276-44.535 84.473-22.101 22.1-51.482 35.887-83.904 33.789zM256 746.665v-298.665h-85.333v298.665h85.333zM341.333 443.691v217.641c0 22.632 8.99 44.337 24.994 60.34s37.708 24.993 60.34 24.993h298.667c1.207 0 2.415 0.051 3.618 0.154 3.699 0.315 10.163-0.732 18.377-8.949 8.495-8.495 16.875-23.046 21.649-42.975l41.545-207.735c-0.823-10.031-5.18-19.494-12.352-26.662-8-8.004-18.854-12.497-30.17-12.497h-128c-23.565 0-42.667-19.106-42.667-42.667v-213.333c0-11.319-4.497-22.17-12.497-30.17-8-8.004-18.854-12.497-30.17-12.497s-22.17 4.493-30.17 12.497c-8 8-12.497 18.85-12.497 30.17v42.667c0 56.576-22.477 110.839-62.485 150.848-29.796 29.798-67.501 49.869-108.181 58.176z" />
<glyph unicode="&#xe93d;" glyph-name="double-bed" d="M971.998 487.518v294.352c0 56.297-45.803 102.109-102.11 102.109h-715.771c-56.312 0-102.117-45.812-102.117-102.109v-294.352c-30.406-11.938-52-41.553-52-76.139v-89.882c0-34.586 21.594-64.205 52-76.143v-60.279c0-45.094 36.687-81.775 81.781-81.775h14.656l0.18-60.233c0.047-16.542 13.469-29.905 29.992-29.905h0.094c16.57 0.043 29.961 13.513 29.914 30.084l-0.18 60.053h607.030l0.179-58.756c0.047-16.538 13.47-29.914 29.995-29.914h0.094c16.567 0.055 29.961 13.521 29.914 30.093l-0.179 58.577h14.754c45.086 0 81.775 36.681 81.775 81.775v60.279c30.409 11.938 52.002 41.557 52.002 76.143v89.882c0 34.586-21.594 64.201-52.002 76.139zM112 781.87c0 23.219 18.891 42.109 42.117 42.109h715.771c23.219 0 42.112-18.89 42.112-42.109v-288.712h-112.525l18.436 18.432c27.593 27.593 27.593 72.491 0 100.077l-77.559 77.562c-27.588 27.586-72.486 27.593-100.079 0l-77.555-77.562c-27.657-27.656-27.665-72.414 0-100.077l18.428-18.432h-138.287l18.428 18.432c27.597 27.593 27.597 72.491 0 100.077l-77.553 77.562c-27.594 27.586-72.492 27.593-100.086 0-75.547-75.563-98.281-88.508-98.281-127.601 0-81.193 121.797-68.47-73.367-68.47v288.712zM775.484 554.011l-60.86-60.861h-48.631l-60.851 60.861c-2.752 2.742-3.157 5.953-3.157 7.617s0.405 4.867 3.157 7.617l77.551 77.554c4.203 4.195 11.034 4.195 15.228 0l77.555-77.554c4.203-4.203 4.203-11.031 0.009-15.235zM418.859 554.011l-60.859-60.861h-48.625l-60.859 60.861c-2.742 2.742-3.156 5.953-3.156 7.617s0.414 4.867 3.156 7.617l77.555 77.554c4.203 4.195 11.031 4.195 15.226 0l77.562-77.554c4.195-4.203 4.195-11.031 0-15.235zM912 185.075c0-12.011-9.775-21.781-21.781-21.781h-756.438c-12.008 0-21.781 9.771-21.781 21.781v54.639h800v-54.639zM963.998 321.498c0-12.011-9.775-21.781-21.781-21.781h-860.436c-12.008 0-21.781 9.771-21.781 21.781v89.882c0 12.006 9.773 21.773 21.781 21.773h860.444c12.006 0 21.773-9.766 21.773-21.773v-89.882z" />
<glyph unicode="&#xe93e;" glyph-name="double-left" d="M499.503 691.503c16.661-16.663 16.661-43.677 0-60.34l-183.163-183.163 183.163-183.164c16.661-16.661 16.661-43.678 0-60.339s-43.678-16.661-60.339 0l-213.334 213.333c-16.662 16.661-16.662 43.678 0 60.339l213.334 213.334c16.661 16.662 43.678 16.662 60.339 0zM755.503 691.503c16.661-16.663 16.661-43.677 0-60.34l-183.164-183.163 183.164-183.164c16.661-16.661 16.661-43.678 0-60.339s-43.678-16.661-60.339 0l-213.333 213.333c-8 8-12.497 18.854-12.497 30.17s4.497 22.17 12.497 30.17l213.333 213.334c16.661 16.662 43.678 16.662 60.339 0z" />
<glyph unicode="&#xe93f;" glyph-name="double-right" d="M268.497 691.503c16.663 16.662 43.677 16.662 60.34 0l213.333-213.334c8-8 12.497-18.854 12.497-30.17s-4.497-22.17-12.497-30.17l-213.333-213.333c-16.663-16.661-43.677-16.661-60.34 0s-16.662 43.678 0 60.339l183.164 183.164-183.164 183.163c-16.662 16.663-16.662 43.677 0 60.34zM524.497 691.503c16.661 16.662 43.678 16.662 60.339 0l213.333-213.334c8-8 12.497-18.854 12.497-30.17s-4.497-22.17-12.497-30.17l-213.333-213.333c-16.661-16.661-43.678-16.661-60.339 0s-16.661 43.678 0 60.339l183.164 183.164-183.164 183.163c-16.661 16.663-16.661 43.677 0 60.34z" />
<glyph unicode="&#xe940;" glyph-name="download" d="M479.923 786.801c35.827 6.314 72.661 6.215 108.45-0.292s69.999-19.327 100.655-37.882c30.66-18.558 57.263-42.552 78.097-70.799 20.847-28.261 35.486-60.196 42.846-94.024 3.627-16.681 5.44-33.608 5.436-50.531 49.203-1.216 96.137-21.291 131.025-56.179 36.006-36.006 56.235-84.843 56.235-135.765 0-50.918-20.228-99.755-56.235-135.765-36.006-36.006-84.843-56.235-135.765-56.235-23.565 0-42.667 19.102-42.667 42.667s19.102 42.667 42.667 42.667c28.288 0 55.42 11.238 75.426 31.245 20.002 20.002 31.241 47.134 31.241 75.422 0 28.292-11.238 55.424-31.241 75.426-20.006 20.002-47.138 31.241-75.426 31.241h-42.667c-12.958 0-25.212 5.888-33.31 16.004s-11.157 23.364-8.32 36.006c4.864 21.679 4.937 43.96 0.218 65.657-4.723 21.708-14.204 42.624-28.134 61.51-13.939 18.9-32.094 35.428-53.611 48.451-21.521 13.026-45.888 22.228-71.735 26.927-25.843 4.699-52.493 4.771-78.374 0.21-25.877-4.561-50.313-13.634-71.928-26.548-43.677-26.096-72.7-65.868-82.508-109.562-4.513-20.105-22.749-34.112-43.339-33.288-36.096 1.446-71.394-9.179-99.836-29.736-28.406-20.531-48.082-49.574-56.16-81.886-8.070-32.282-4.192-66.274 11.129-96.29 15.346-30.059 41.372-54.511 74.024-68.745 21.601-9.417 31.479-34.56 22.063-56.162-9.416-21.598-34.56-31.479-56.161-22.063-50.199 21.884-91.324 59.972-115.928 108.173-24.629 48.243-31.017 103.36-17.912 155.78 13.097 52.39 44.722 98.377 88.957 130.351 35.118 25.383 76.528 40.758 119.586 44.902 20.521 54.402 60.242 100.666 112.317 131.779 30.771 18.385 65.059 31.019 100.886 37.332zM512 447.996c23.565 0 42.667-19.102 42.667-42.667v-384c0-23.565-19.102-42.667-42.667-42.667s-42.667 19.102-42.667 42.667v384c0 23.565 19.102 42.667 42.667 42.667zM353.83 179.499c16.663 16.661 43.677 16.661 60.34 0l97.831-97.83 97.83 97.83c16.661 16.661 43.678 16.661 60.339 0s16.661-43.678 0-60.339l-128-128c-16.661-16.661-43.678-16.661-60.339 0l-128.001 128c-16.662 16.661-16.662 43.678 0 60.339z" />
<glyph unicode="&#xe941;" glyph-name="dribbble" d="M876.493 775.108l-6.882 7.494c-89.476 95.566-216.678 155.395-357.611 155.395-56.077 0-109.969-9.496-160.191-26.917l-5.103-1.8c-164.026-58.957-287.784-203.049-317.716-378.729-0.036-0.171-0.088-0.329-0.121-0.495-0.108-0.559-0.15-1.114-0.238-1.673-4.338-26.167-6.631-53.013-6.631-80.388 0-116.813 41.114-224.196 109.6-308.484 0.033-0.051 5.704-6.891 5.704-6.891 89.958-106.701 224.535-174.622 374.697-174.622 56.747 0 111.258 9.728 161.988 27.55 1.335 0.41 2.65 0.87 3.934 1.387 160.943 58.099 282.995 198.199 315.486 369.617 0.081 0.418 0.166 0.832 0.239 1.25 5.461 29.248 8.354 59.388 8.354 90.193 0 125.605-47.522 240.304-125.508 327.113zM512 839.997c100.779 0 192.785-38.236 262.302-100.95-48.683-66.696-116.749-110.554-191.305-138.843-12.429 29.021-24.841 55.325-36.745 78.769-34.496 67.953-68.365 120.021-94.78 156.349 19.738 3.071 39.945 4.675 60.527 4.675zM351.071 805.423c29.227-36.528 84.671-114.092 137.031-232.848-137.479-29.492-278.452-19.715-351.325-11.064 32.967 108.751 111.991 197.669 214.293 243.912zM120 447.996c0 5.572 0.147 11.106 0.376 16.619 39.053-4.881 96.961-10.185 164.48-10.185 32.693 0 67.646 1.246 103.769 4.382 48.145 4.181 93.539 11.405 136.103 21.491 9.357-26.347 18.359-54.161 26.786-83.499-44.156-12.843-89.758-28.89-136.765-48.166-101.348-41.553-183.985-88.064-230.117-116.006-40.827 61.854-64.631 135.876-64.631 215.364zM512 55.996c-100.852 0-192.922 38.293-262.46 101.090 65.392 38.426 188.156 103.919 325.957 144.422 15.364-70.699 26.999-148.561 32.883-233.51-30.839-7.825-63.13-12.002-96.38-12.002zM703.68 106.172c-6.882 79.002-18.509 151.842-33.079 218.342 72.149 13.449 145.698 17.451 215.164 5.252-30.272-95.492-96.201-175.249-182.084-223.595zM903.381 426.21c-77.781 13.833-163.558 11.703-256.708-6.281-8.939 31.467-18.436 61.124-28.224 89.020 91.972 35.189 166.4 87.015 221.013 154.263 40.772-61.818 64.538-135.788 64.538-215.216 0-7.309-0.213-14.571-0.619-21.786z" />
<glyph unicode="&#xe942;" glyph-name="dropbox" d="M511.953 768.728l303.744-181.163 208.299 161.067-301.269 190.037-210.773-169.941zM512 768.643l-210.773 170.027-301.227-189.995 208.341-161.152 303.659 181.12zM512 406.357l210.731-169.941 301.269 189.995-208.303 161.155-303.697-181.208-303.744 181.207-208.256-161.154 301.227-189.995 210.773 169.941zM832.047 141.355v90.667l-94.037-59.307c-5.333-3.413-11.477-5.077-17.536-5.077-7.339 0-14.635 2.475-20.608 7.211l-187.819 151.505-187.862-151.505c-10.795-8.704-26.368-9.557-38.187-2.133l-93.952 59.264v-90.624l320.64-184.021 319.36 184.021z" />
<glyph unicode="&#xe943;" glyph-name="dumbell" d="M964.433 663.489l35.614 35.61c31.936 31.938 31.936 83.909 0 115.849l-121.045 121.047c-31.945 31.936-83.913 31.938-115.849-0.002l-35.614-35.61-32.708 32.71c-31.936 31.936-83.908 31.938-115.849-0.002l-72.243-72.244c-32.013-32.009-32.021-83.835 0-115.851l72.213-72.211-291.787-291.785-72.211 72.213c-32.006 32.009-83.835 32.021-115.849 0l-72.248-72.243c-31.936-31.94-31.936-83.913 0.002-115.853l32.706-32.708-35.61-35.61c-31.94-31.936-31.94-83.908 0-115.849l121.045-121.045c31.948-31.94 83.911-31.94 115.849 0l35.61 35.61 32.708-32.708c31.938-31.932 83.909-31.936 115.851 0l72.243 72.247c32.013 32.009 32.021 83.836 0 115.853l-72.213 72.209 291.785 291.785 72.213-72.209c32.004-32.013 83.836-32.026 115.849 0l72.243 72.243c31.936 31.939 31.94 83.91 0 115.848l-32.704 32.706zM809.489 889.658c6.387 6.388 16.781 6.388 23.168 0l121.045-121.044c6.387-6.388 6.387-16.783 0-23.171l-35.61-35.61-144.213 144.218 35.61 35.608zM214.512 6.246c-6.388-6.387-16.783-6.387-23.171 0l-121.043 121.045c-6.388 6.387-6.39 16.781-0.002 23.168l35.61 35.61 144.215-144.218-35.61-35.605zM470.925 81.395l-72.246-72.243c-6.388-6.387-16.783-6.387-23.171-0.004-65.592 65.591-235.6 235.601-302.308 302.31-6.388 6.387-6.388 16.781-0.002 23.168 78.418 78.417 74.601 77.043 83.833 77.043 10.262 0-11.925 18.714 313.893-307.102 6.387-6.391 6.404-16.768 0-23.172zM398.712 269.457l-65.207 65.207 291.784 291.783 65.207-65.207-291.784-291.784zM950.801 561.274c-78.417-78.415-74.603-77.041-83.831-77.041-9.353 0-4.322-2.47-106.965 100.177-222.942 222.939-211.725 208.815-211.725 218.512 0 9.146-1.634 5.152 77.043 83.831 3.191 3.195 7.386 4.792 11.584 4.792 9.587 0-17.037 23.83 313.894-307.098 6.387-6.39 6.387-16.785 0-23.173z" />
<glyph unicode="&#xe944;" glyph-name="edit" d="M165.49 666.511c24.005 24.005 56.562 37.49 90.51 37.49h128c23.564 0 42.667-19.102 42.667-42.667s-19.102-42.667-42.667-42.667h-128c-11.316 0-22.168-4.495-30.17-12.497s-12.497-18.854-12.497-30.17v-384.001c0-11.315 4.495-22.165 12.497-30.17 8.002-8 18.854-12.497 30.17-12.497h384c11.315 0 22.17 4.497 30.17 12.497 8 8.004 12.497 18.854 12.497 30.17v128c0 23.565 19.102 42.667 42.667 42.667s42.667-19.102 42.667-42.667v-128c0-33.946-13.487-66.505-37.491-90.509s-56.559-37.491-90.509-37.491h-384c-33.948 0-66.505 13.487-90.51 37.491s-37.49 56.563-37.49 90.509v384.001c0 33.948 13.486 66.505 37.49 90.51zM716.497 840.837c24.977 24.976 58.85 39.007 94.17 39.007s69.197-14.031 94.17-39.007c24.977-24.975 39.006-58.849 39.006-94.17s-14.029-69.195-39.006-94.17l-362.667-362.667c-8-8-18.854-12.497-30.17-12.497h-128c-23.564 0-42.667 19.102-42.667 42.667v128c0 11.315 4.495 22.17 12.497 30.17l362.667 362.668zM810.667 794.511c-12.689 0-24.858-5.041-33.83-14.013l-350.17-350.17v-67.661h67.661l350.17 350.17c8.973 8.972 14.012 21.142 14.012 33.83s-5.039 24.858-14.012 33.83c-8.973 8.972-21.141 14.013-33.83 14.013zM652.497 776.836c16.661 16.663 43.678 16.663 60.339 0l128-128c16.661-16.662 16.661-43.677 0-60.34s-43.678-16.663-60.339 0l-128 128c-16.661 16.662-16.661 43.677 0 60.34z" />
<glyph unicode="&#xe945;" glyph-name="entertainment" d="M1002.074 595.248l-343.296 343.293c-28.561 28.562-73.284 28.536-101.82 0l-535.529-535.529c-14.052-14.050-21.868-33.348-21.432-52.924 0.41-18.97 8.178-36.476 21.892-49.365l73.117-73.118c12.664-12.689 32.698-14.161 47.089-3.52 41.987 31.010 100.423 26.965 135.944-9.446 36.389-37.282 40.817-95.851 10.288-136.247-10.892-14.413-9.492-34.628 3.28-47.398l73.575-73.574c13.69-13.679 32.337-21.461 51.393-21.461 0.506 0 1.026 0.013 1.532 0.026 18.971 0.41 36.473 8.166 49.367 21.892l535.057 535.095c14.050 14.037 21.858 33.323 21.431 52.911-0.41 18.972-8.162 36.473-21.888 49.367zM608.606 887.75c-0.171-0.096-0.448-0.144-0.678-0.192l-25.374 25.376 26.052-25.184zM416.104 8.845l-53.203 53.205c32.457 65.792 20.384 148.356-33.072 203.136-53.275 54.545-136.246 66.893-203.669 33.604l-53.299 53.291 535.019 535.005 343.232-343.231-535.008-535.011zM480.414 815.358l-51.486-50.828 92.86-94.063 51.486 50.828-92.86 94.063zM786.534 508.126l-50.842-51.503 94.093-92.877 50.837 51.507-94.089 92.873zM633.446 662.349l-51.166-51.162 94.071-94.071 51.162 51.164-94.067 94.070z" />
<glyph unicode="&#xe946;" glyph-name="expand" d="M512 789.333c11.315 0 22.17-4.495 30.17-12.497l170.667-170.667c16.661-16.663 16.661-43.677 0-60.34-16.661-16.661-43.678-16.661-60.339 0l-140.497 140.497-140.497-140.497c-16.663-16.661-43.677-16.661-60.34 0-16.662 16.663-16.662 43.677 0 60.34l170.667 170.667c8 8.001 18.854 12.497 30.17 12.497zM311.163 350.17c16.663 16.661 43.677 16.661 60.34 0l140.497-140.497 140.497 140.497c16.661 16.661 43.678 16.661 60.339 0s16.661-43.678 0-60.339l-170.667-170.667c-16.661-16.661-43.678-16.661-60.339 0l-170.667 170.667c-16.662 16.661-16.662 43.678 0 60.339z" />
<glyph unicode="&#xe947;" glyph-name="external-link" d="M165.49 666.51c24.005 24.005 56.562 37.49 90.51 37.49h213.333c23.565 0 42.667-19.103 42.667-42.667s-19.102-42.667-42.667-42.667h-213.333c-11.316 0-22.168-4.495-30.17-12.497s-12.497-18.854-12.497-30.17v-384c0-11.315 4.495-22.17 12.497-30.17s18.854-12.497 30.17-12.497h384c11.315 0 22.17 4.497 30.17 12.497s12.497 18.854 12.497 30.17v213.333c0 23.565 19.102 42.667 42.667 42.667s42.667-19.102 42.667-42.667v-213.333c0-33.946-13.487-66.505-37.491-90.509s-56.559-37.491-90.509-37.491h-384c-33.948 0-66.505 13.487-90.51 37.491s-37.49 56.563-37.49 90.509v384c0 33.948 13.486 66.505 37.49 90.51zM883.503 819.503c16.661-16.663 16.661-43.677 0-60.34l-426.667-426.666c-16.661-16.661-43.677-16.661-60.34 0s-16.662 43.678 0 60.339l426.667 426.667c16.661 16.662 43.678 16.662 60.339 0zM597.333 789.333c0 23.564 19.102 42.667 42.667 42.667h213.333c23.565 0 42.667-19.103 42.667-42.667v-213.333c0-23.564-19.102-42.667-42.667-42.667s-42.667 19.102-42.667 42.667v170.667h-170.667c-23.565 0-42.667 19.103-42.667 42.667z" />
<glyph unicode="&#xe948;" glyph-name="Facebook-black-bg" d="M128-64h384v352h-128v160h128v128c0 106.069 85.931 192 192 192h128v-160h-64c-35.328 0-64 3.328-64-32v-128h160l-64-160h-96v-352h192c70.571 0 128 57.429 128 128v768c0 70.613-57.429 128-128 128h-768c-70.613 0-128-57.387-128-128v-768c0-70.571 57.387-128 128-128z" />
<glyph unicode="&#xe949;" glyph-name="Facebook-white-bg" d="M682.539 789.973h93.483v162.816c-16.128 2.219-71.595 7.211-136.192 7.211-134.784 0-227.114-84.779-227.114-240.597v-143.403h-148.736v-182.016h148.736v-457.984h182.357v457.941h142.72l22.656 182.016h-165.419v125.397c0.043 52.608 14.208 88.619 87.509 88.619z" />
<glyph unicode="&#xe94a;" glyph-name="file" d="M597.333 874.667c23.565 0 42.667-19.103 42.667-42.667v-170.667h170.667c23.565 0 42.667-19.103 42.667-42.667s-19.102-42.667-42.667-42.667h-170.667c-22.63 0-44.335 8.99-60.339 24.994s-24.994 37.708-24.994 60.34v170.667c0 23.564 19.102 42.667 42.667 42.667zM298.667 789.333c-11.316 0-22.168-4.495-30.17-12.497s-12.497-18.854-12.497-30.17v-597.333c0-11.315 4.495-22.17 12.497-30.17s18.854-12.497 30.17-12.497h426.667c11.315 0 22.17 4.497 30.17 12.497s12.497 18.854 12.497 30.17v451.66l-188.339 188.34h-280.994zM208.157 837.176c24.005 24.005 56.562 37.49 90.51 37.49h298.667c11.315 0 22.17-4.495 30.17-12.497l213.333-213.333c8-8.002 12.497-18.854 12.497-30.17v-469.333c0-33.95-13.487-66.505-37.491-90.509s-56.559-37.491-90.509-37.491h-426.667c-33.948 0-66.505 13.487-90.51 37.491s-37.49 56.559-37.49 90.509v597.333c0 33.948 13.486 66.505 37.49 90.51zM512 533.333c23.565 0 42.667-19.102 42.667-42.667v-256c0-23.565-19.102-42.667-42.667-42.667s-42.667 19.102-42.667 42.667v256c0 23.565 19.102 42.667 42.667 42.667zM353.83 392.836c16.662 16.661 43.677 16.661 60.34 0l97.83-97.83 97.83 97.83c16.661 16.661 43.678 16.661 60.339 0s16.661-43.678 0-60.339l-128-128c-16.661-16.661-43.678-16.661-60.339 0l-128 128c-16.663 16.661-16.663 43.678 0 60.339z" />
<glyph unicode="&#xe94b;" glyph-name="filter" d="M220.551 786.929c4.538 1.591 9.312 2.404 14.121 2.404h554.666c4.809 0 9.583-0.813 14.123-2.404 12.288-4.31 23.428-11.376 32.563-20.656 9.139-9.28 16.030-20.529 20.147-32.884s5.355-25.489 3.614-38.395c-1.741-12.907-6.413-25.243-13.658-36.065-1.173-1.748-2.47-3.407-3.887-4.963l-202.236-222.461v-282.172c0-16.162-9.131-30.933-23.586-38.161s-31.753-5.67-44.681 4.028l-170.666 128c-10.744 8.060-17.067 20.702-17.067 34.133v154.172l-202.237 222.461c-1.415 1.556-2.713 3.215-3.883 4.963-7.246 10.822-11.918 23.158-13.659 36.065s-0.506 26.040 3.613 38.395c4.118 12.355 11.010 23.604 20.147 32.884s20.277 16.346 32.567 20.656zM251.606 704l206.634-227.298c7.142-7.855 11.098-18.086 11.098-28.702v-149.333l85.333-64v213.333c0 10.615 3.955 20.847 11.098 28.702l206.635 227.298h-520.797z" />
<glyph unicode="&#xe94c;" glyph-name="filter-alt-horizontal" d="M597.333 746.667c-23.565 0-42.667-19.103-42.667-42.667s19.102-42.667 42.667-42.667c23.565 0 42.667 19.103 42.667 42.667s-19.102 42.667-42.667 42.667zM469.333 704c0 70.692 57.31 128 128 128 70.694 0 128-57.308 128-128s-57.306-128-128-128c-70.69 0-128 57.308-128 128zM128 704.002c0 23.564 19.103 42.667 42.667 42.667h341.333c23.565 0 42.667-19.104 42.667-42.668s-19.102-42.665-42.667-42.665h-341.333c-23.564 0-42.667 19.102-42.667 42.667zM640 704c0 23.564 19.102 42.668 42.667 42.668h170.667c23.565 0 42.667-19.103 42.667-42.667s-19.102-42.667-42.667-42.667h-170.667c-23.565 0-42.667 19.101-42.667 42.665zM341.334 490.667c-23.564 0-42.667-19.102-42.667-42.667s19.102-42.667 42.667-42.667c23.564 0 42.667 19.102 42.667 42.667s-19.102 42.667-42.667 42.667zM213.334 448c0 70.694 57.307 128 128 128s127.999-57.306 127.999-128c0-70.694-57.307-128-127.999-128s-128 57.306-128 128zM128 448c0 23.565 19.103 42.667 42.667 42.667h85.333c23.564 0 42.668-19.102 42.668-42.667s-19.104-42.667-42.668-42.667h-85.333c-23.564 0-42.667 19.106-42.667 42.667zM384.001 448c0 23.565 19.102 42.667 42.666 42.667h426.667c23.565 0 42.667-19.102 42.667-42.667 0-23.561-19.102-42.667-42.667-42.667h-426.667c-23.564 0-42.666 19.102-42.666 42.667zM725.333 234.667c-23.565 0-42.667-19.102-42.667-42.667s19.102-42.667 42.667-42.667c23.565 0 42.667 19.102 42.667 42.667s-19.102 42.667-42.667 42.667zM597.333 192c0 70.694 57.31 128 128 128 70.694 0 128-57.306 128-128s-57.306-128-128-128c-70.69 0-128 57.306-128 128zM128 192c0 23.565 19.103 42.667 42.667 42.667h469.333c23.565 0 42.667-19.102 42.667-42.667s-19.102-42.667-42.667-42.667h-469.333c-23.564 0-42.667 19.106-42.667 42.667zM768 192c0 23.565 19.102 42.667 42.667 42.667h42.667c23.565 0 42.667-19.102 42.667-42.667 0-23.561-19.102-42.667-42.667-42.667h-42.667c-23.565 0-42.667 19.102-42.667 42.667z" />
<glyph unicode="&#xe94d;" glyph-name="filter-alt-vertical" d="M256 576.003c-23.564 0-42.667-19.102-42.667-42.667s19.102-42.665 42.667-42.665c23.564 0 42.667 19.102 42.667 42.665s-19.103 42.667-42.667 42.667zM128 533.336c0 70.693 57.308 128 128 128s128-57.307 128-128c0-70.693-57.308-127.999-128-127.999s-128 57.306-128 127.999zM256.001 832c23.564 0 42.667-19.103 42.667-42.667v-170.667c0-23.564-19.104-42.664-42.668-42.664s-42.666 19.1-42.666 42.664v170.667c0 23.564 19.102 42.667 42.667 42.667zM256 490.671c23.564 0 42.668-19.106 42.668-42.671v-341.333c0-23.565-19.103-42.667-42.667-42.667s-42.667 19.102-42.667 42.667v341.333c0 23.565 19.102 42.671 42.666 42.671zM512 320.004c-23.565 0-42.667-19.102-42.667-42.667s19.102-42.667 42.667-42.667c23.565 0 42.667 19.102 42.667 42.667s-19.102 42.667-42.667 42.667zM384 277.338c0 70.69 57.306 128 128 128s128-57.31 128-128c0-70.694-57.306-128-128-128s-128 57.306-128 128zM512 832c23.565 0 42.667-19.103 42.667-42.667v-426.667c0-23.565-19.102-42.662-42.667-42.662s-42.667 19.098-42.667 42.662v426.667c0 23.564 19.102 42.667 42.667 42.667zM512 234.671c23.565 0 42.667-19.106 42.667-42.671v-85.333c0-23.561-19.102-42.667-42.667-42.667s-42.667 19.106-42.667 42.667v85.333c0 23.565 19.102 42.671 42.667 42.671zM768 704.003c-23.565 0-42.667-19.102-42.667-42.667s19.102-42.667 42.667-42.667c23.565 0 42.667 19.103 42.667 42.667s-19.102 42.667-42.667 42.667zM640 661.336c0 70.693 57.306 128 128 128s128-57.307 128-128c0-70.692-57.306-128-128-128s-128 57.308-128 128zM768 832c23.565 0 42.667-19.103 42.667-42.667v-42.667c0-23.564-19.102-42.664-42.667-42.664s-42.667 19.099-42.667 42.664v42.667c0 23.564 19.102 42.667 42.667 42.667zM768 618.67c23.565 0 42.667-19.104 42.667-42.668v-469.335c0-23.561-19.102-42.667-42.667-42.667s-42.667 19.106-42.667 42.667v469.335c0 23.564 19.102 42.668 42.667 42.668z" />
<glyph unicode="&#xe94e;" glyph-name="filter-off" d="M97.83 862.17c16.663 16.662 43.677 16.662 60.34 0l768-768c16.661-16.661 16.661-43.678 0-60.339s-43.678-16.661-60.339 0l-768 768c-16.662 16.663-16.662 43.677 0 60.34zM341.333 746.668c0 23.564 19.103 42.667 42.667 42.667h405.333c4.809 0 9.583-0.813 14.118-2.404 12.292-4.31 23.433-11.376 32.567-20.656 9.139-9.28 16.030-20.529 20.147-32.884s5.355-25.489 3.614-38.395c-1.741-12.906-6.413-25.243-13.662-36.064-1.169-1.748-2.466-3.407-3.883-4.963l-172.757-190.036c-15.851-17.438-42.833-18.722-60.271-2.871-17.434 15.851-18.718 42.833-2.867 60.271l166.059 182.671h-388.399c-23.564 0-42.667 19.102-42.667 42.667zM249.127 706.723c17.569 15.383 19.517 42.083 4.283 59.858-15.334 17.893-42.269 19.967-60.161 4.633-15.862-13.594-26.187-32.533-29.018-53.231s2.029-41.714 13.658-59.068c1.168-1.743 2.462-3.397 3.873-4.949l202.237-222.462v-154.172c0-13.427 6.323-26.074 17.067-34.133l170.667-128c12.928-9.694 30.225-11.255 44.681-4.028s23.586 22.003 23.586 38.161v213.333c0 23.565-19.102 42.667-42.667 42.667s-42.667-19.102-42.667-42.667v-128l-85.333 64v149.333c0 10.615-3.955 20.847-11.098 28.702l-209.108 230.022z" />
<glyph unicode="&#xe94f;" glyph-name="flag" d="M213.333 789.335c23.564 0 42.667-19.103 42.667-42.667v-682.668c0-23.561-19.102-42.667-42.667-42.667s-42.667 19.106-42.667 42.667v682.668c0 23.564 19.103 42.667 42.667 42.667zM810.667 789.335c23.561 0 42.667-19.103 42.667-42.667v-384.002c0-23.561-19.106-42.667-42.667-42.667-23.565 0-42.667 19.106-42.667 42.667v384.002c0 23.564 19.102 42.667 42.667 42.667zM362.667 764.984c-44.672 0-87.564-17.516-119.467-48.786-16.828-16.495-43.842-16.224-60.337 0.604s-16.225 43.842 0.603 60.337c47.854 46.906 112.191 73.179 179.2 73.179s131.345-26.273 179.2-73.179c31.902-31.271 74.795-48.786 119.467-48.786s87.565 17.516 119.467 48.786c16.828 16.495 43.84 16.225 60.335-0.603s16.226-43.842-0.602-60.337c-47.855-46.906-112.192-73.179-179.2-73.179s-131.345 26.273-179.2 73.179c-31.902 31.271-74.794 48.786-119.467 48.786zM362.667 380.983c-44.672 0-87.564-17.515-119.467-48.785-16.828-16.495-43.842-16.226-60.337 0.602s-16.225 43.844 0.603 60.339c47.854 46.903 112.191 73.178 179.2 73.178s131.345-26.274 179.2-73.178c31.902-31.27 74.795-48.789 119.467-48.789s87.565 17.519 119.467 48.789c16.828 16.495 43.84 16.222 60.335-0.606s16.226-43.84-0.602-60.335c-47.855-46.908-112.192-73.182-179.2-73.182s-131.345 26.274-179.2 73.182c-31.902 31.27-74.794 48.785-119.467 48.785z" />
<glyph unicode="&#xe950;" glyph-name="flame" d="M755.2 571.732c-8.533 8.533-21.333 17.067-34.133 12.8-12.8 0-25.6-8.533-34.133-21.333-42.667-72.532-76.8-93.866-93.867-102.399-8.533-4.267-12.8-4.267-25.6 0 34.133 76.799 29.867 157.866 12.8 221.866-17.067 81.067-55.467 149.333-89.6 179.2-12.8 12.8-29.867 17.067-46.933 8.533-12.8-4.267-25.6-21.333-25.6-38.4 0-110.933-55.467-162.133-115.2-217.6-4.267-8.533-12.8-17.067-21.333-21.333-64-68.266-110.933-140.799-110.933-238.932 0-89.6 34.133-170.667 102.4-234.667 64-64 149.333-98.133 238.933-98.133s174.933 34.133 238.933 98.133c64 64 102.4 145.067 102.4 234.667s-46.933 162.133-98.133 217.599zM695.467 179.2c-51.2-46.933-115.2-72.533-183.467-72.533s-132.267 25.6-183.467 72.533c-46.933 46.933-72.533 106.667-72.533 170.667 0 68.267 29.867 123.733 85.333 179.2 8.533 8.532 12.8 12.799 21.333 21.332 42.667 38.4 93.867 89.6 119.467 162.133 8.533-17.067 12.8-34.133 17.067-51.2 17.067-64 17.067-136.532-25.6-191.999-12.8-17.067-8.533-42.667 8.533-59.733 34.133-29.867 81.067-51.2 136.533-29.867 38.4 12.8 72.533 42.667 106.667 89.6 25.6-38.4 38.4-76.8 38.4-119.467 4.267-64-21.333-123.733-68.267-170.667z" />
<glyph unicode="&#xe951;" glyph-name="folder-default" d="M213.333 746.667c-11.316 0-22.168-4.495-30.17-12.497s-12.497-18.854-12.497-30.17v-469.333c0-11.315 4.495-22.17 12.497-30.17s18.854-12.497 30.17-12.497h597.333c11.315 0 22.17 4.497 30.17 12.497s12.497 18.854 12.497 30.17v341.333c0 11.316-4.497 22.168-12.497 30.17s-18.854 12.497-30.17 12.497h-298.667c-11.315 0-22.17 4.495-30.17 12.497l-115.503 115.503h-152.994zM122.824 794.51c24.005 24.005 56.562 37.49 90.51 37.49h170.667c11.316 0 22.168-4.495 30.17-12.497l115.503-115.503h280.994c33.95 0 66.505-13.486 90.509-37.49s37.491-56.562 37.491-90.51v-341.333c0-33.95-13.487-66.505-37.491-90.509s-56.559-37.491-90.509-37.491h-597.333c-33.948 0-66.505 13.487-90.51 37.491s-37.49 56.559-37.49 90.509v469.333c0 33.948 13.486 66.505 37.49 90.51z" />
<glyph unicode="&#xe952;" glyph-name="folder-double" d="M383.999 746.667c-11.316 0-22.168-4.495-30.17-12.497s-12.497-18.854-12.497-30.17v-384c0-11.315 4.495-22.17 12.497-30.17s18.854-12.497 30.17-12.497h426.668c11.315 0 22.17 4.497 30.17 12.497s12.497 18.854 12.497 30.17v298.667c0 11.316-4.497 22.168-12.497 30.17s-18.854 12.497-30.17 12.497h-213.333c-11.315 0-22.17 4.495-30.17 12.497l-72.836 72.837h-110.328zM293.489 794.51c24.005 24.005 56.562 37.49 90.51 37.49h128.001c11.315 0 22.17-4.495 30.17-12.497l72.836-72.837h195.661c33.946 0 66.505-13.486 90.509-37.49s37.491-56.562 37.491-90.51v-298.667c0-33.946-13.487-66.505-37.491-90.509s-56.563-37.491-90.509-37.491h-426.668c-33.948 0-66.505 13.487-90.51 37.491s-37.49 56.563-37.49 90.509v384c0 33.948 13.486 66.505 37.49 90.51zM213.333 576.003c-11.316 0-22.168-4.495-30.17-12.497s-12.497-18.854-12.497-30.17v-383.999c0-11.315 4.495-22.17 12.497-30.17 8.002-8.004 18.854-12.497 30.17-12.497h426.667c11.315 0 22.17 4.493 30.17 12.497 8 8 12.497 18.854 12.497 30.17v85.333c0 23.565 19.102 42.667 42.667 42.667s42.667-19.102 42.667-42.667v-85.333c0-33.95-13.487-66.505-37.491-90.509-24.004-24.009-56.559-37.491-90.509-37.491h-426.667c-33.948 0-66.505 13.483-90.51 37.491-24.005 24.004-37.49 56.559-37.49 90.509v383.999c0 33.948 13.486 66.505 37.49 90.51s56.562 37.49 90.51 37.49h85.333c23.564 0 42.667-19.102 42.667-42.667s-19.103-42.667-42.667-42.667h-85.333z" />
<glyph unicode="&#xe953;" glyph-name="folder-minus" d="M213.333 746.667c-11.316 0-22.168-4.495-30.17-12.497s-12.497-18.854-12.497-30.17v-469.333c0-11.315 4.495-22.17 12.497-30.17s18.854-12.497 30.17-12.497h597.333c11.315 0 22.17 4.497 30.17 12.497s12.497 18.854 12.497 30.17v341.333c0 11.316-4.497 22.168-12.497 30.17s-18.854 12.497-30.17 12.497h-298.667c-11.315 0-22.17 4.495-30.17 12.497l-115.503 115.503h-152.994zM122.824 794.51c24.005 24.005 56.562 37.49 90.51 37.49h170.667c11.316 0 22.168-4.495 30.17-12.497l115.503-115.503h280.994c33.95 0 66.505-13.486 90.509-37.49s37.491-56.562 37.491-90.51v-341.333c0-33.95-13.487-66.505-37.491-90.509s-56.559-37.491-90.509-37.491h-597.333c-33.948 0-66.505 13.487-90.51 37.491s-37.49 56.559-37.49 90.509v469.333c0 33.948 13.486 66.505 37.49 90.51zM341.333 405.333c0 23.565 19.103 42.667 42.667 42.667h256c23.565 0 42.667-19.102 42.667-42.667s-19.102-42.667-42.667-42.667h-256c-23.564 0-42.667 19.102-42.667 42.667z" />
<glyph unicode="&#xe954;" glyph-name="folder-off" d="M97.83 862.17c16.663 16.662 43.677 16.662 60.34 0l768-768c16.661-16.661 16.661-43.678 0-60.339s-43.678-16.661-60.339 0l-768 768c-16.662 16.663-16.662 43.677 0 60.34zM298.667 789.332c0 23.564 19.103 42.667 42.667 42.667h42.667c11.316 0 22.168-4.495 30.17-12.497l115.503-115.503h280.994c33.95 0 66.505-13.486 90.509-37.49s37.491-56.562 37.491-90.51v-341.332c0-23.565-19.102-42.667-42.667-42.667s-42.667 19.102-42.667 42.667v341.332c0 11.316-4.497 22.168-12.497 30.17s-18.854 12.497-30.17 12.497h-298.667c-11.315 0-22.17 4.495-30.17 12.497l-115.503 115.503h-24.994c-23.564 0-42.667 19.103-42.667 42.667zM160.341 820.533c16.189 7.363 35.248 3.912 47.827-8.661l632.66-632.364c12.207-12.198 15.863-30.554 9.259-46.498-6.601-15.945-22.161-26.342-39.42-26.342h-597.333c-33.948 0-66.505 13.483-90.51 37.487s-37.49 56.563-37.49 90.513v469.322c-0.004 24.573 7.066 48.638 20.366 69.302 13.301 20.666 32.271 37.067 54.642 47.242zM175.545 723.828c-3.197-6.098-4.88-12.898-4.878-19.82v-469.341c0-11.319 4.495-22.17 12.497-30.17 8.002-8.004 18.854-12.497 30.17-12.497h494.293l-532.082 531.828z" />
<glyph unicode="&#xe955;" glyph-name="folder-plus" d="M213.333 746.667c-11.316 0-22.168-4.495-30.17-12.497s-12.497-18.854-12.497-30.17v-469.333c0-11.315 4.495-22.17 12.497-30.17s18.854-12.497 30.17-12.497h597.333c11.315 0 22.17 4.497 30.17 12.497s12.497 18.854 12.497 30.17v341.333c0 11.316-4.497 22.168-12.497 30.17s-18.854 12.497-30.17 12.497h-298.667c-11.315 0-22.17 4.495-30.17 12.497l-115.503 115.503h-152.994zM122.824 794.51c24.005 24.005 56.562 37.49 90.51 37.49h170.667c11.316 0 22.168-4.495 30.17-12.497l115.503-115.503h280.994c33.95 0 66.505-13.486 90.509-37.49s37.491-56.562 37.491-90.51v-341.333c0-33.95-13.487-66.505-37.491-90.509s-56.559-37.491-90.509-37.491h-597.333c-33.948 0-66.505 13.487-90.51 37.491s-37.49 56.559-37.49 90.509v469.333c0 33.948 13.486 66.505 37.49 90.51zM512 576c23.565 0 42.667-19.103 42.667-42.667v-256c0-23.565-19.102-42.667-42.667-42.667s-42.667 19.102-42.667 42.667v256c0 23.564 19.102 42.667 42.667 42.667zM341.333 405.333c0 23.565 19.103 42.667 42.667 42.667h256c23.565 0 42.667-19.102 42.667-42.667s-19.102-42.667-42.667-42.667h-256c-23.564 0-42.667 19.102-42.667 42.667z" />
<glyph unicode="&#xe956;" glyph-name="folder-x" d="M213.333 746.667c-11.316 0-22.168-4.495-30.17-12.497s-12.497-18.854-12.497-30.17v-469.333c0-11.315 4.495-22.17 12.497-30.17s18.854-12.497 30.17-12.497h597.333c11.315 0 22.17 4.497 30.17 12.497s12.497 18.854 12.497 30.17v341.333c0 11.316-4.497 22.168-12.497 30.17s-18.854 12.497-30.17 12.497h-298.667c-11.315 0-22.17 4.495-30.17 12.497l-115.503 115.503h-152.994zM122.824 794.51c24.005 24.005 56.562 37.49 90.51 37.49h170.667c11.316 0 22.168-4.495 30.17-12.497l115.503-115.503h280.994c33.95 0 66.505-13.486 90.509-37.49s37.491-56.562 37.491-90.51v-341.333c0-33.95-13.487-66.505-37.491-90.509s-56.559-37.491-90.509-37.491h-597.333c-33.948 0-66.505 13.487-90.51 37.491s-37.49 56.559-37.49 90.509v469.333c0 33.948 13.486 66.505 37.49 90.51zM396.496 520.841c16.662 16.661 43.679 16.661 60.34 0l55.164-55.164 55.164 55.164c16.661 16.661 43.678 16.661 60.339 0s16.661-43.678 0-60.339l-55.164-55.164 55.164-55.164c16.661-16.661 16.661-43.678 0-60.339-16.661-16.666-43.678-16.666-60.339 0l-55.164 55.164-55.164-55.164c-16.661-16.666-43.678-16.666-60.34 0-16.663 16.661-16.663 43.678 0 60.339l55.165 55.164-55.165 55.164c-16.663 16.661-16.663 43.678 0 60.339z" />
<glyph unicode="&#xe957;" glyph-name="foursquare" d="M149.333 867.797v-867.669c0-40.619 23.851-55.381 35.883-60.203 12.245-4.992 44.928-9.216 64.853 14.208 254.037 298.837 258.389 303.829 258.389 303.829 6.101 6.784 6.699 6.187 13.397 6.187h164.352c69.163 0 80 50.389 87.339 79.403l95.787 486.059c16.725 84.779-4.352 130.389-83.2 130.389h-538.453c-73.899 0-98.347-56.619-98.347-92.203zM263.168 814.165c0 15.403 13.397 33.195 32.725 33.195h431.659c16.128 0 30.72-15.403 26.624-34.987l-0.128 0.043-22.443-119.381c-2.347-13.013-18.731-26.411-33.28-26.411h-209.792c-23.68 0-40.619-16.597-40.619-40.619v-25.984c0-24.021 16.939-41.216 40.619-41.216h178.176c16.341 0 32.725-18.389 29.184-36.395-3.541-17.792-20.693-107.605-22.443-117.589-1.749-9.813-13.397-27.008-33.323-27.008h-144.853c-26.624 0-33.877-3.584-52.224-25.216 0 0-17.536-22.784-176.384-216.661-1.749-1.792-3.541-1.195-3.541 0.597v677.632h0.043z" />
<glyph unicode="&#xe958;" glyph-name="friends" d="M298.666 789.333c-23.564 0-42.667-19.103-42.667-42.667s19.103-42.667 42.667-42.667c23.564 0 42.667 19.102 42.667 42.667s-19.102 42.667-42.667 42.667zM170.666 746.667c0 70.692 57.308 128 128 128s128-57.308 128-128c0-70.692-57.307-128-128-128s-128 57.308-128 128zM152.994 508.343c16.003 16 37.708 24.992 60.34 24.992h170.667c22.632 0 44.335-8.992 60.339-24.992 16.004-16.004 24.994-37.709 24.994-60.343v-170.667c0-11.315-4.497-22.165-12.497-30.17l-30.17-30.17v-195.661c0-23.561-19.103-42.667-42.667-42.667s-42.667 19.106-42.667 42.667v213.333c0 11.319 4.495 22.17 12.497 30.17l30.17 30.17v152.994h-170.667v-152.994l30.17-30.17c8.001-8 12.497-18.85 12.497-30.17v-213.333c0-23.561-19.103-42.667-42.667-42.667s-42.667 19.106-42.667 42.667v195.661l-30.17 30.17c-8.001 8.004-12.497 18.854-12.497 30.17v170.667c0 22.635 8.99 44.339 24.994 60.343zM725.333 789.333c-23.565 0-42.667-19.102-42.667-42.667s19.102-42.667 42.667-42.667c23.565 0 42.667 19.102 42.667 42.667s-19.102 42.667-42.667 42.667zM597.333 746.667c0 70.692 57.306 128 128 128 70.69 0 128-57.308 128-128s-57.31-128-128-128c-70.694 0-128 57.308-128 128zM622.327 508.343c16.004 16 37.709 24.992 60.339 24.992h85.333c22.63 0 44.335-8.992 60.339-24.992 14.089-14.093 22.746-32.602 24.61-52.271l83.529-250.577c4.335-13.013 2.155-27.315-5.867-38.443-8.017-11.123-20.898-17.719-34.611-17.719h-42.667v-128c0-23.561-19.102-42.667-42.667-42.667s-42.667 19.106-42.667 42.667v170.667c0 23.565 19.102 42.667 42.667 42.667h26.138l-66.615 199.842c-1.451 4.352-2.189 8.909-2.189 13.491h-85.333c0-4.582-0.738-9.139-2.189-13.491l-66.615-199.842h26.138c23.565 0 42.667-19.102 42.667-42.667v-170.667c0-23.561-19.102-42.667-42.667-42.667s-42.667 19.106-42.667 42.667v128h-42.667c-13.713 0-26.594 6.596-34.611 17.719-8.021 11.127-10.202 25.429-5.867 38.443l83.529 250.577c1.865 19.669 10.522 38.178 24.61 52.271z" />
<glyph unicode="&#xe959;" glyph-name="gearbox" d="M938.667 763c0 61.576-50.091 111.667-111.667 111.667s-111.667-50.091-111.667-111.667c0-49.967 32.994-92.369 78.336-106.582v-175.087h-245.001v175.087c45.338 14.212 78.332 56.614 78.332 106.582 0 61.576-50.091 111.667-111.667 111.667s-111.665-50.091-111.665-111.667c0-49.967 32.997-92.369 78.334-106.582v-175.087h-251.668v175.087c45.338 14.212 78.333 56.614 78.333 106.582 0 61.576-50.092 111.667-111.667 111.667s-111.667-50.091-111.667-111.667c0-49.967 32.995-92.369 78.333-106.582v-416.836c-45.338-14.212-78.333-56.614-78.333-106.581 0-61.577 50.091-111.667 111.667-111.667s111.667 50.091 111.667 111.667c0 49.967-32.995 92.369-78.333 106.581v175.087h251.668v-175.087c-45.338-14.212-78.334-56.614-78.334-106.581 0-61.577 50.089-111.667 111.665-111.667s111.667 50.091 111.667 111.667c0 49.967-32.994 92.369-78.332 106.581v175.087h311.667v241.749c45.338 14.212 78.332 56.614 78.332 106.582zM515.332 808c24.811 0 45.001-20.189 45.001-45s-20.19-45-45.001-45c-24.811 0-45.001 20.189-45.001 45s20.19 45 45.001 45zM197 808c24.811 0 45-20.189 45-45s-20.189-45-45-45c-24.811 0-45 20.189-45 45s20.189 45 45 45zM197 88c-24.811 0-45 20.19-45 45.001s20.189 45.001 45 45.001c24.811 0 45-20.19 45-45.001s-20.189-45.001-45-45.001zM515.332 88c-24.811 0-45.001 20.19-45.001 45.001s20.19 45.001 45.001 45.001c24.811 0 45.001-20.19 45.001-45.001s-20.19-45.001-45.001-45.001zM826.999 718c-24.811 0-45.001 20.189-45.001 45s20.19 45 45.001 45c24.811 0 45.001-20.189 45.001-45s-20.19-45-45.001-45z" />
<glyph unicode="&#xe95a;" glyph-name="geo" d="M512 533.333c-47.13 0-85.334-38.204-85.334-85.333s38.205-85.333 85.334-85.333c47.13 0 85.333 38.204 85.333 85.333s-38.204 85.333-85.333 85.333zM341.332 448c0 94.256 76.41 170.666 170.668 170.666 94.255 0 170.667-76.41 170.667-170.666s-76.412-170.667-170.667-170.667c-94.257 0-170.668 76.412-170.668 170.667zM512 746.666c-164.951 0-298.668-133.717-298.668-298.666s133.718-298.667 298.668-298.667c164.949 0 298.667 133.717 298.667 298.667s-133.717 298.666-298.667 298.666zM127.998 448c0 212.077 171.923 383.999 384.002 383.999 212.075 0 384-171.922 384-383.999 0-212.079-171.925-384-384-384-212.079 0-384.002 171.921-384.002 384zM512 917.333c23.565 0 42.667-19.103 42.667-42.667v-85.333c0-23.564-19.102-42.668-42.667-42.668s-42.667 19.104-42.667 42.668v85.333c0 23.564 19.102 42.667 42.667 42.667zM512 149.333c23.565 0 42.667-19.102 42.667-42.667v-85.333c0-23.565-19.102-42.667-42.667-42.667s-42.667 19.102-42.667 42.667v85.333c0 23.565 19.102 42.667 42.667 42.667zM810.667 448c0 23.565 19.102 42.667 42.667 42.667h85.333c23.565 0 42.667-19.102 42.667-42.667s-19.102-42.667-42.667-42.667h-85.333c-23.565 0-42.667 19.102-42.667 42.667zM42.667 448c0 23.565 19.103 42.667 42.667 42.667h85.333c23.564 0 42.665-19.102 42.665-42.667s-19.101-42.667-42.665-42.667h-85.333c-23.564 0-42.667 19.102-42.667 42.667z" />
<glyph unicode="&#xe95b;" glyph-name="gift" d="M85.333 576.002c0 47.128 38.205 85.333 85.333 85.333h682.667c47.13 0 85.333-38.205 85.333-85.333v-85.335c0-47.125-38.204-85.329-85.333-85.329h-682.667c-47.128 0-85.333 38.204-85.333 85.329v85.335zM853.333 576.002h-682.667v-85.335h682.667v85.335zM512 661.335c23.565 0 42.667-19.103 42.667-42.667v-554.669c0-23.561-19.102-42.667-42.667-42.667s-42.667 19.106-42.667 42.667v554.669c0 23.564 19.102 42.667 42.667 42.667zM213.333 490.667c23.564 0 42.667-19.102 42.667-42.667v-298.667c0-11.315 4.495-22.17 12.497-30.17s18.854-12.497 30.17-12.497h426.667c11.315 0 22.17 4.497 30.17 12.497s12.497 18.854 12.497 30.17v298.667c0 23.565 19.102 42.667 42.667 42.667s42.667-19.102 42.667-42.667v-298.667c0-33.946-13.487-66.505-37.491-90.509s-56.563-37.491-90.509-37.491h-426.667c-33.948 0-66.505 13.487-90.51 37.491s-37.49 56.563-37.49 90.509v298.667c0 23.565 19.103 42.667 42.667 42.667zM404.029 746.151c-28.164 31.294-57.402 43.642-83.286 43.191l-0.743-0.007c-16.974 0-33.253-6.743-45.255-18.745s-18.745-28.281-18.745-45.255c0-16.974 6.743-33.252 18.745-45.255s28.281-18.745 45.255-18.745c23.564 0 42.667-19.102 42.667-42.667s-19.102-42.667-42.667-42.667c-39.606 0-77.589 15.733-105.594 43.739s-43.739 65.989-43.739 105.594c0 39.606 15.733 77.589 43.739 105.595 27.917 27.917 65.749 43.639 105.219 43.738 56.291 0.858 107.589-26.714 147.832-71.432 16.798-18.662 31.689-40.261 44.544-64.101 12.855 23.84 27.746 45.439 44.544 64.101 40.243 44.718 91.541 72.289 147.831 71.432 39.471-0.099 77.303-15.821 105.22-43.738 28.002-28.006 43.738-65.989 43.738-105.595s-15.735-77.589-43.738-105.594c-28.006-28.006-65.993-43.739-105.596-43.739-23.565 0-42.667 19.103-42.667 42.667s19.102 42.667 42.667 42.667c16.973 0 33.25 6.743 45.257 18.745 12.002 12.003 18.743 28.281 18.743 45.255s-6.741 33.253-18.743 45.255c-12.006 12.003-28.284 18.745-45.257 18.745l-0.742 0.007c-25.886 0.451-55.121-11.897-83.29-43.191-28.378-31.535-52.288-78.953-66.505-137.545-4.642-19.133-21.777-32.605-41.463-32.605-19.691 0-36.821 13.472-41.463 32.605-14.217 58.591-38.127 106.010-66.508 137.545z" />
</font>
</defs>
</svg>
