<svg width="225" height="177" viewBox="0 0 225 177" fill="none" xmlns="http://www.w3.org/2000/svg">
<path d="M167.411 87H153.414V64.3925C153.415 63.7582 153.676 63.1501 154.14 62.7016C154.604 62.253 155.233 62.0007 155.89 62H164.936C165.592 62.0007 166.221 62.253 166.685 62.7016C167.149 63.1501 167.41 63.7582 167.411 64.3925V87Z" fill="white"/>
<path d="M91.4261 97C105.782 97 117.421 85.3594 117.421 71C117.421 56.6406 105.782 45 91.4261 45C77.0698 45 65.4316 56.6406 65.4316 71C65.4316 85.3594 77.0698 97 91.4261 97Z" fill="#F5F4F8"/>
<path d="M160.97 58C158.632 57.9271 156.551 55.811 156.534 53.4897C156.517 51.1684 158.568 49.0231 160.905 48.917C166.107 48.6808 170.367 43.1398 169.222 38.0976C168.077 33.0553 161.834 29.863 157.032 31.8642C153.348 33.3993 149.626 28.5624 150.56 24.7072C151.493 20.852 155.026 18.2633 158.295 15.9836C161.564 13.704 165.061 11.0274 165.85 7.14053C166.639 3.25367 162.6 -1.40235 159.041 0.39937" fill="#D5D2DC"/>
<path d="M173.019 176H70.8213C70.1878 175.999 69.5804 175.749 69.1324 175.305C68.6844 174.86 68.4324 174.257 68.4316 173.628V104.372C68.4324 103.743 68.6844 103.14 69.1324 102.695C69.5804 102.251 70.1878 102.001 70.8213 102H173.019C173.653 102.001 174.26 102.251 174.708 102.695C175.156 103.14 175.408 103.743 175.409 104.372V173.628C175.408 174.257 175.156 174.86 174.708 175.305C174.26 175.749 173.653 175.999 173.019 176Z" fill="white"/>
<path d="M173.019 176H70.8213C70.1878 175.999 69.5804 175.749 69.1324 175.305C68.6844 174.86 68.4324 174.257 68.4316 173.628V104.372C68.4324 103.743 68.6844 103.14 69.1324 102.695C69.5804 102.251 70.1878 102.001 70.8213 102H173.019C173.653 102.001 174.26 102.251 174.708 102.695C175.156 103.14 175.408 103.743 175.409 104.372V173.628C175.408 174.257 175.156 174.86 174.708 175.305C174.26 175.749 173.653 175.999 173.019 176ZM70.8213 102.527C70.3286 102.528 69.8561 102.722 69.5077 103.068C69.1592 103.414 68.9632 103.883 68.9627 104.372V173.628C68.9632 174.117 69.1592 174.586 69.5077 174.932C69.8561 175.278 70.3286 175.472 70.8213 175.473H173.019C173.512 175.472 173.984 175.278 174.333 174.932C174.681 174.586 174.877 174.117 174.878 173.628V104.372C174.877 103.883 174.681 103.414 174.333 103.068C173.984 102.722 173.512 102.528 173.019 102.527H70.8213Z" fill="#454056"/>
<path d="M133.418 176H110.423V136.531C110.424 135.595 110.783 134.697 111.421 134.035C112.06 133.373 112.925 133.001 113.828 133H130.012C130.915 133.001 131.781 133.373 132.419 134.035C133.058 134.697 133.417 135.595 133.418 136.531V176Z" fill="#D5D2DC"/>
<path d="M164.413 145H144.431C143.634 144.999 142.869 144.675 142.306 144.098C141.742 143.522 141.425 142.74 141.424 141.925V125.075C141.425 124.26 141.742 123.478 142.306 122.902C142.869 122.325 143.634 122.001 144.431 122H164.413C165.21 122.001 165.974 122.325 166.537 122.902C167.101 123.478 167.418 124.26 167.419 125.075V141.925C167.418 142.74 167.101 143.522 166.537 144.098C165.974 144.675 165.21 144.999 164.413 145Z" fill="#D5D2DC"/>
<path d="M100.418 145H80.436C79.6389 144.999 78.8748 144.675 78.3112 144.098C77.7476 143.522 77.4306 142.74 77.4297 141.925V125.075C77.4306 124.26 77.7476 123.478 78.3112 122.902C78.8748 122.325 79.6389 122.001 80.436 122H100.418C101.215 122.001 101.979 122.325 102.543 122.902C103.106 123.478 103.423 124.26 103.424 125.075V141.925C103.423 142.74 103.106 143.522 102.543 144.098C101.979 144.675 101.215 144.999 100.418 145Z" fill="#FDBC31"/>
<path d="M167.411 87H153.414V64.3925C153.414 63.7582 153.675 63.1501 154.139 62.7016C154.604 62.253 155.233 62.0007 155.889 62H164.935C165.591 62.0007 166.221 62.253 166.685 62.7016C167.149 63.1501 167.41 63.7582 167.411 64.3925V87ZM153.964 86.4683H166.86V64.3925C166.86 63.8991 166.657 63.4262 166.296 63.0773C165.935 62.7284 165.446 62.5322 164.935 62.5317H155.889C155.379 62.5322 154.889 62.7284 154.528 63.0773C154.167 63.4262 153.964 63.8991 153.964 64.3925V86.4683Z" fill="#454056"/>
<path d="M60.4336 103.338V92.6386C60.4336 91.8167 60.6511 91.0094 61.0642 90.2986C61.4773 89.5877 62.0711 88.9985 62.7857 88.5907L122.313 54.6145C123.052 54.1928 123.893 53.9808 124.743 54.0014C125.594 54.022 126.423 54.2745 127.141 54.7315L180.249 88.5585C180.911 88.9799 181.455 89.5609 181.833 90.2479C182.21 90.935 182.408 91.7059 182.408 92.4894V103.338C182.408 104.574 181.916 105.76 181.04 106.634C180.165 107.509 178.977 108 177.739 108H65.1025C63.8642 108 62.6766 107.509 61.8011 106.634C60.9255 105.76 60.4336 104.574 60.4336 103.338Z" fill="#F9F8FA"/>
<path fill-rule="evenodd" clip-rule="evenodd" d="M61.1336 92.6386V103.338C61.1336 104.388 61.5515 105.396 62.2957 106.139C63.0399 106.882 64.0495 107.3 65.1025 107.3H177.739C178.792 107.3 179.801 106.882 180.546 106.139C181.29 105.396 181.708 104.388 181.708 103.338V92.4894C181.708 91.8237 181.54 91.1687 181.219 90.5848C180.899 90.001 180.436 89.5071 179.873 89.1489L126.765 55.3219C126.155 54.9334 125.45 54.7187 124.727 54.7012C124.003 54.6836 123.289 54.8639 122.66 55.2225L63.1327 89.1986C62.5252 89.5453 62.0205 90.0462 61.6694 90.6502C61.3184 91.2543 61.1336 91.9403 61.1336 92.6386ZM60.4336 92.6386V103.338C60.4336 104.574 60.9255 105.76 61.8011 106.634C62.6766 107.509 63.8642 108 65.1025 108H177.739C178.977 108 180.165 107.509 181.04 106.634C181.916 105.76 182.408 104.574 182.408 103.338V92.4894C182.408 91.7059 182.21 90.935 181.833 90.2479C181.455 89.5609 180.911 88.9799 180.249 88.5585L127.141 54.7315C126.423 54.2745 125.594 54.022 124.743 54.0014C123.893 53.9808 123.052 54.1928 122.313 54.6145L62.7857 88.5907C62.0711 88.9985 61.4773 89.5877 61.0642 90.2986C60.6511 91.0094 60.4336 91.8167 60.4336 92.6386Z" fill="#454056"/>
<path opacity="0.2" d="M177.739 103.717H65.1024C63.8642 103.717 62.6766 103.22 61.8011 102.335C60.9255 101.451 60.4336 100.251 60.4336 99V103.283C60.4336 104.534 60.9255 105.734 61.8011 106.618C62.6766 107.503 63.8642 108 65.1024 108H177.739C178.977 108 180.165 107.503 181.04 106.618C181.916 105.734 182.408 104.534 182.408 103.283V99C182.408 100.251 181.916 101.451 181.04 102.335C180.165 103.22 178.977 103.717 177.739 103.717Z" fill="#1F1B2D"/>
<path d="M202.14 133C202.075 133 202.012 132.973 201.963 132.925L195.49 126.496C195.465 126.471 195.444 126.44 195.429 126.406C195.415 126.372 195.406 126.336 195.405 126.298C195.403 126.261 195.408 126.223 195.42 126.188C195.432 126.153 195.45 126.12 195.473 126.093C195.496 126.065 195.524 126.043 195.556 126.027C195.587 126.011 195.621 126.002 195.655 126C195.69 125.999 195.724 126.004 195.757 126.017C195.789 126.03 195.819 126.05 195.844 126.075L202.317 132.505C202.357 132.543 202.384 132.594 202.396 132.65C202.408 132.706 202.404 132.765 202.385 132.818C202.366 132.872 202.332 132.918 202.289 132.95C202.245 132.983 202.193 133 202.14 133V133Z" fill="#454056"/>
<path d="M187.406 139.98C187.406 131.685 194.121 112 202.403 112C210.686 112 217.4 131.685 217.4 139.98C217.4 143.963 215.82 147.784 213.007 150.601C210.195 153.418 206.38 155 202.403 155C198.426 155 194.611 153.418 191.799 150.601C188.986 147.784 187.406 143.963 187.406 139.98Z" fill="#F5F4F8"/>
<path d="M201.903 176C201.771 176 201.643 175.972 201.55 175.922C201.456 175.873 201.403 175.805 201.403 175.735V122.265C201.403 122.195 201.456 122.127 201.55 122.078C201.643 122.028 201.771 122 201.903 122C202.036 122 202.163 122.028 202.257 122.078C202.35 122.127 202.403 122.195 202.403 122.265V175.735C202.403 175.805 202.35 175.873 202.257 175.922C202.163 175.972 202.036 176 201.903 176Z" fill="#454056"/>
<path d="M201.698 146C201.64 146 201.584 145.986 201.536 145.959C201.488 145.932 201.45 145.893 201.427 145.848C201.404 145.803 201.398 145.753 201.408 145.705C201.418 145.657 201.445 145.612 201.485 145.577L209.894 138.078C209.92 138.054 209.952 138.035 209.988 138.021C210.023 138.008 210.061 138.001 210.1 138C210.138 137.999 210.177 138.005 210.213 138.017C210.249 138.029 210.282 138.046 210.31 138.069C210.338 138.092 210.361 138.119 210.376 138.149C210.392 138.179 210.4 138.211 210.401 138.244C210.402 138.277 210.396 138.31 210.382 138.341C210.368 138.371 210.347 138.399 210.32 138.423L201.911 145.922C201.884 145.947 201.851 145.966 201.814 145.98C201.777 145.993 201.738 146 201.698 146Z" fill="#454056"/>
<path d="M191.792 175.944C191.816 175.964 191.842 175.981 191.867 176H213.041C213.456 174.295 213.603 172.589 212.983 171.107C212.1 168.995 209.487 167.677 207.409 168.584C206.917 168.805 206.488 169.149 206.163 169.584C205.351 168.11 203.895 166.999 202.214 167C200.108 167.002 198.357 168.748 197.785 170.765C196.865 169.19 195.047 168.09 193.271 168.563C190.299 169.355 189.361 174.039 191.792 175.944Z" fill="#D5D2DC"/>
<path d="M5.44531 123.343C5.44531 111.382 15.2929 83 27.4406 83C39.5883 83 49.4359 111.382 49.4359 123.343C49.4359 129.087 47.1186 134.595 42.9937 138.657C38.8687 142.718 33.2741 145 27.4406 145C21.6071 145 16.0125 142.718 11.8876 138.657C7.76267 134.595 5.44531 129.087 5.44531 123.343Z" fill="#F5F4F8"/>
<path d="M27.9403 176C27.8077 176 27.6806 175.972 27.5869 175.923C27.4931 175.874 27.4404 175.808 27.4404 175.739V98.2612C27.4404 98.192 27.4931 98.1255 27.5868 98.0765C27.6806 98.0275 27.8077 98 27.9403 98C28.0729 98 28.2 98.0275 28.2938 98.0765C28.3875 98.1255 28.4402 98.192 28.4402 98.2612V175.739C28.4402 175.808 28.3875 175.874 28.2938 175.923C28.2 175.972 28.0729 176 27.9403 176Z" fill="#454056"/>
<path d="M27.7132 132C27.6598 132 27.6076 131.985 27.563 131.957C27.5184 131.929 27.4835 131.889 27.4625 131.842C27.4414 131.795 27.4353 131.743 27.4448 131.693C27.4542 131.643 27.4789 131.597 27.5158 131.56L38.9676 120.081C39.0175 120.031 39.0862 120.002 39.1585 120C39.2309 119.998 39.3009 120.024 39.3533 120.072C39.4057 120.12 39.4361 120.185 39.4378 120.254C39.4395 120.323 39.4125 120.39 39.3626 120.44L27.9106 131.919C27.8852 131.945 27.8546 131.965 27.8206 131.979C27.7867 131.993 27.7501 132 27.7132 132Z" fill="#454056"/>
<path d="M28.1527 113C28.081 113 28.0118 112.974 27.9589 112.926L17.5358 103.494C17.4796 103.443 17.4461 103.372 17.4427 103.297C17.4393 103.222 17.4662 103.148 17.5176 103.092C17.5691 103.037 17.6407 103.004 17.7168 103C17.7929 102.997 17.8673 103.024 17.9235 103.074L28.3466 112.506C28.3894 112.545 28.4193 112.595 28.4325 112.651C28.4457 112.707 28.4415 112.765 28.4205 112.819C28.3996 112.872 28.3628 112.918 28.315 112.95C28.2672 112.983 28.2106 113 28.1527 113H28.1527Z" fill="#454056"/>
<path d="M7.27763 176.883C7.32795 176.923 7.38111 176.96 7.43208 177H50.7006C51.5485 173.401 51.8478 169.799 50.5814 166.67C48.777 162.212 43.437 159.43 39.1915 161.344C38.1857 161.81 37.3094 162.536 36.6453 163.454C34.9862 160.343 32.0101 157.997 28.5749 158C24.2712 158.003 20.6928 161.69 19.525 165.949C17.6447 162.624 13.9304 160.3 10.2999 161.3C4.22791 162.972 2.30996 172.861 7.27763 176.883Z" fill="#D5D2DC"/>
<path d="M224.999 175.733L0 176.158L0.00100174 176.687L225 176.262L224.999 175.733Z" fill="#454056"/>
<path d="M193.42 119.545C208.626 119.545 220.953 107.215 220.953 92.0059C220.953 76.7965 208.626 64.4668 193.42 64.4668C178.214 64.4668 165.887 76.7965 165.887 92.0059C165.887 107.215 178.214 119.545 193.42 119.545Z" fill="#1F1B2D"/>
<path d="M210.756 89.2875H196.14V74.668H190.701V89.2875H176.084V94.7273H190.701V109.347H196.14V94.7273H210.756V89.2875Z" fill="white"/>
</svg>
