<svg width="225" height="177" viewBox="0 0 225 177" fill="none" xmlns="http://www.w3.org/2000/svg">
<path d="M188.131 140.287C188.131 132.256 194.731 113.2 202.873 113.2C211.014 113.2 217.614 132.256 217.614 140.287C217.614 144.143 216.061 147.841 213.297 150.568C210.532 153.295 206.783 154.827 202.873 154.827C198.963 154.827 195.214 153.295 192.449 150.568C189.684 147.841 188.131 144.143 188.131 140.287Z" fill="#F5F4F8"/>
<path d="M203.208 175.64C203.119 175.64 203.034 175.621 202.971 175.588C202.908 175.555 202.873 175.511 202.873 175.464V123.446C202.873 123.399 202.908 123.355 202.971 123.322C203.034 123.289 203.119 123.271 203.208 123.271C203.296 123.271 203.382 123.289 203.445 123.322C203.507 123.355 203.543 123.399 203.543 123.446V175.464C203.543 175.511 203.507 175.555 203.445 175.588C203.382 175.621 203.296 175.64 203.208 175.64Z" fill="#454056"/>
<path d="M203.055 146.099C203.02 146.099 202.985 146.089 202.955 146.07C202.925 146.051 202.901 146.024 202.887 145.993C202.873 145.961 202.869 145.926 202.875 145.893C202.882 145.859 202.898 145.828 202.923 145.803L210.598 138.096C210.632 138.063 210.678 138.043 210.726 138.042C210.775 138.041 210.822 138.058 210.857 138.09C210.892 138.122 210.912 138.166 210.913 138.213C210.915 138.259 210.896 138.304 210.863 138.338L203.188 146.045C203.171 146.062 203.15 146.075 203.127 146.085C203.105 146.094 203.08 146.099 203.055 146.099Z" fill="#454056"/>
<path d="M203.349 133.344C203.301 133.344 203.255 133.326 203.219 133.294L196.234 126.962C196.196 126.927 196.173 126.88 196.171 126.829C196.169 126.779 196.187 126.729 196.221 126.692C196.256 126.655 196.304 126.632 196.355 126.63C196.406 126.628 196.456 126.646 196.493 126.68L203.479 133.012C203.508 133.038 203.528 133.072 203.537 133.11C203.545 133.147 203.543 133.186 203.529 133.222C203.515 133.258 203.49 133.289 203.458 133.311C203.426 133.332 203.388 133.344 203.349 133.344H203.349Z" fill="#454056"/>
<path d="M189.359 176.233C189.393 176.261 189.429 176.285 189.463 176.312H218.462C219.03 173.896 219.231 171.477 218.382 169.377C217.173 166.384 213.594 164.515 210.748 165.801C210.074 166.114 209.487 166.601 209.042 167.218C207.93 165.129 205.935 163.554 203.633 163.556C200.748 163.558 198.35 166.033 197.568 168.893C196.307 166.66 193.818 165.1 191.385 165.771C187.315 166.894 186.03 173.533 189.359 176.233Z" fill="#D5D2DC"/>
<path d="M96.4261 97.1722C110.782 97.1722 122.421 85.5109 122.421 71.1261C122.421 56.7413 110.782 45.0801 96.4261 45.0801C82.0698 45.0801 70.4316 56.7413 70.4316 71.1261C70.4316 85.5109 82.0698 97.1722 96.4261 97.1722Z" fill="#F5F4F8"/>
<path d="M165.523 58.1027C163.185 58.0296 161.103 55.9098 161.087 53.5844C161.07 51.259 163.12 49.1099 165.457 49.0036C170.66 48.767 174.92 43.2162 173.775 38.165C172.63 33.1138 166.387 29.9159 161.585 31.9206C157.901 33.4585 154.179 28.613 155.112 24.751C156.046 20.889 159.579 18.2956 162.848 16.0119C166.117 13.7282 169.614 11.0469 170.403 7.15318C171.192 3.25943 167.153 -1.40483 163.594 0.400077" fill="#D5D2DC"/>
<path d="M178.017 176.312H75.8194C75.1858 176.311 74.5784 176.06 74.1304 175.615C73.6824 175.17 73.4304 174.566 73.4297 173.936V104.556C73.4304 103.927 73.6824 103.323 74.1304 102.877C74.5784 102.432 75.1858 102.181 75.8194 102.181H178.017C178.651 102.181 179.258 102.432 179.706 102.877C180.154 103.323 180.406 103.927 180.407 104.556V173.936C180.406 174.566 180.154 175.17 179.706 175.615C179.258 176.06 178.651 176.311 178.017 176.312Z" fill="white"/>
<path d="M178.017 176.312H75.8194C75.1858 176.311 74.5784 176.06 74.1304 175.615C73.6824 175.17 73.4304 174.566 73.4297 173.936V104.556C73.4304 103.927 73.6824 103.323 74.1304 102.877C74.5784 102.432 75.1858 102.181 75.8194 102.181H178.017C178.651 102.181 179.258 102.432 179.706 102.877C180.154 103.323 180.406 103.927 180.407 104.556V173.936C180.406 174.566 180.154 175.17 179.706 175.615C179.258 176.06 178.651 176.311 178.017 176.312ZM75.8194 102.709C75.3266 102.709 74.8542 102.904 74.5057 103.25C74.1573 103.597 73.9613 104.067 73.9607 104.556V173.936C73.9613 174.426 74.1573 174.895 74.5057 175.242C74.8542 175.588 75.3266 175.783 75.8194 175.784H178.017C178.51 175.783 178.982 175.588 179.331 175.242C179.679 174.895 179.875 174.426 179.876 173.936V104.556C179.875 104.067 179.679 103.597 179.331 103.25C178.982 102.904 178.51 102.709 178.017 102.709H75.8194Z" fill="#454056"/>
<path d="M138.416 176.311H115.421V136.772C115.422 135.835 115.781 134.936 116.419 134.273C117.058 133.609 117.924 133.236 118.826 133.235H135.01C135.913 133.236 136.779 133.609 137.417 134.272C138.056 134.936 138.415 135.835 138.416 136.772V176.311Z" fill="#D5D2DC"/>
<path d="M105.416 145.257H85.434C84.637 145.256 83.8728 144.931 83.3092 144.353C82.7456 143.776 82.4286 142.993 82.4277 142.176V125.296C82.4286 124.48 82.7457 123.697 83.3093 123.119C83.8729 122.542 84.637 122.217 85.434 122.216H105.416C106.213 122.217 106.977 122.542 107.541 123.119C108.104 123.697 108.421 124.48 108.422 125.296V142.176C108.421 142.993 108.104 143.776 107.541 144.353C106.977 144.931 106.213 145.256 105.416 145.257Z" fill="#D5D2DC"/>
<path d="M169.402 145.257H149.42C148.623 145.256 147.859 144.931 147.296 144.353C146.732 143.776 146.415 142.993 146.414 142.176V125.296C146.415 124.48 146.732 123.697 147.296 123.119C147.859 122.542 148.623 122.217 149.42 122.216H169.402C170.199 122.217 170.963 122.542 171.527 123.119C172.091 123.697 172.408 124.48 172.409 125.296V142.176C172.408 142.993 172.091 143.776 171.527 144.353C170.963 144.931 170.199 145.256 169.402 145.257Z" fill="#FDBC31"/>
<path d="M172.409 87.1537H158.412V64.5061C158.412 63.8707 158.673 63.2615 159.138 62.8122C159.602 62.3629 160.231 62.1101 160.887 62.1094H169.933C170.589 62.1101 171.219 62.3629 171.683 62.8122C172.147 63.2615 172.408 63.8707 172.409 64.5061V87.1537ZM158.962 86.6211H171.859V64.5061C171.858 64.0119 171.655 63.5381 171.294 63.1886C170.933 62.8391 170.444 62.6425 169.933 62.642H160.887C160.377 62.6425 159.887 62.8391 159.526 63.1886C159.165 63.5381 158.962 64.0119 158.962 64.5061V86.6211Z" fill="#454056"/>
<path d="M65.4316 103.521V92.8027C65.4316 91.9793 65.6492 91.1707 66.0622 90.4585C66.4753 89.7464 67.0692 89.1562 67.7837 88.7476L127.311 54.7113C128.05 54.2888 128.891 54.0764 129.742 54.0971C130.592 54.1177 131.421 54.3707 132.139 54.8285L185.247 88.7154C185.909 89.1375 186.453 89.7196 186.831 90.4078C187.208 91.0961 187.406 91.8683 187.406 92.6533V103.521C187.406 104.759 186.914 105.947 186.038 106.823C185.163 107.699 183.975 108.191 182.737 108.191H70.1005C68.8622 108.191 67.6747 107.699 66.7991 106.823C65.9235 105.947 65.4316 104.759 65.4316 103.521Z" fill="#F9F8FA"/>
<path fill-rule="evenodd" clip-rule="evenodd" d="M66.1316 92.8027V103.521C66.1316 104.574 66.5498 105.584 67.2942 106.328C68.0385 107.073 69.048 107.491 70.1005 107.491H182.737C183.789 107.491 184.799 107.073 185.543 106.328C186.287 105.584 186.706 104.574 186.706 103.521V92.6533C186.706 91.9859 186.538 91.3294 186.217 90.7442C185.896 90.1591 185.433 89.6643 184.871 89.3055L131.762 55.4186C131.152 55.0294 130.448 54.8144 129.725 54.7969C129.001 54.7793 128.287 54.9599 127.659 55.319L68.1312 89.3553C67.5238 89.7026 67.0189 90.2043 66.6678 90.8097C66.3166 91.4152 66.1316 92.1027 66.1316 92.8027ZM65.4316 92.8027V103.521C65.4316 104.759 65.9235 105.947 66.7991 106.823C67.6747 107.699 68.8622 108.191 70.1005 108.191H182.737C183.975 108.191 185.163 107.699 186.038 106.823C186.914 105.947 187.406 104.759 187.406 103.521V92.6533C187.406 91.8683 187.208 91.0961 186.831 90.4078C186.453 89.7196 185.909 89.1375 185.247 88.7154L132.139 54.8285C131.421 54.3707 130.592 54.1177 129.742 54.0971C128.891 54.0764 128.05 54.2888 127.311 54.7113L67.7837 88.7476C67.0692 89.1562 66.4753 89.7464 66.0622 90.4585C65.6492 91.1707 65.4316 91.9793 65.4316 92.8027Z" fill="#454056"/>
<path opacity="0.2" d="M182.737 103.901H70.1005C68.8622 103.901 67.6747 103.403 66.7991 102.517C65.9235 101.631 65.4316 100.429 65.4316 99.1758V103.466C65.4316 104.72 65.9235 105.921 66.7991 106.808C67.6747 107.694 68.8622 108.192 70.1005 108.192H182.737C183.975 108.192 185.163 107.694 186.038 106.808C186.914 105.921 187.406 104.72 187.406 103.466V99.1758C187.406 100.429 186.914 101.631 186.038 102.517C185.163 103.403 183.975 103.901 182.737 103.901Z" fill="#1F1B2D"/>
<path d="M224.999 176.044L0 176.47L0.00100174 177L225 176.574L224.999 176.044Z" fill="#454056"/>
<path d="M32.6016 102.628L52.9646 123.974L76.0041 102.628" stroke="#666276" stroke-miterlimit="10"/>
<path d="M19.7468 91.8164H8.8867C8.11276 91.8164 7.48535 92.4451 7.48535 93.2205V175.53C7.48535 176.305 8.11276 176.934 8.8867 176.934H19.7468C20.5207 176.934 21.1481 176.305 21.1481 175.53V93.2205C21.1481 92.4451 20.5207 91.8164 19.7468 91.8164Z" fill="#BBB7C5"/>
<path d="M19.3743 93.4365H9.25585C8.86888 93.4365 8.55518 93.7508 8.55518 94.1386V173.258C8.55518 173.646 8.86888 173.96 9.25585 173.96H19.3743C19.7612 173.96 20.0749 173.646 20.0749 173.258V94.1386C20.0749 93.7508 19.7612 93.4365 19.3743 93.4365Z" fill="#EFECF3"/>
<path d="M84.5812 95.333H5.40135C4.6274 95.333 4 95.9617 4 96.7371V108.791C4 109.566 4.6274 110.195 5.40135 110.195H84.5812C85.3551 110.195 85.9825 109.566 85.9825 108.791V96.7371C85.9825 95.9617 85.3551 95.333 84.5812 95.333Z" fill="#BBB7C5"/>
<path d="M5.07324 97.65L5.07324 107.864C5.07324 108.252 5.38694 108.566 5.77391 108.566H84.2121C84.5991 108.566 84.9128 108.252 84.9128 107.864V97.65C84.9128 97.2622 84.5991 96.9479 84.2121 96.9479H5.77392C5.38694 96.9479 5.07324 97.2622 5.07324 97.65Z" fill="#EFECF3"/>
<path d="M14.4498 105.059C15.7815 105.059 16.8611 103.97 16.8611 102.627C16.8611 101.284 15.7815 100.195 14.4498 100.195C13.1181 100.195 12.0386 101.284 12.0386 102.627C12.0386 103.97 13.1181 105.059 14.4498 105.059Z" fill="#BBB7C5"/>
<path d="M14.4503 104.519C15.486 104.519 16.3255 103.672 16.3255 102.628C16.3255 101.583 15.486 100.736 14.4503 100.736C13.4147 100.736 12.5752 101.583 12.5752 102.628C12.5752 103.672 13.4147 104.519 14.4503 104.519Z" fill="#666276"/>
<path d="M79.0168 104.519C80.0524 104.519 80.8919 103.672 80.8919 102.628C80.8919 101.583 80.0524 100.736 79.0168 100.736C77.9811 100.736 77.1416 101.583 77.1416 102.628C77.1416 103.672 77.9811 104.519 79.0168 104.519Z" fill="#666276"/>
<path d="M76.1197 123.027H25.959C24.8544 123.027 23.959 123.923 23.959 125.027V157.252C23.959 158.357 24.8544 159.252 25.959 159.252H76.1197C77.2243 159.252 78.1197 158.357 78.1197 157.252V125.027C78.1197 123.923 77.2243 123.027 76.1197 123.027Z" fill="#1F1B2D"/>
<path d="M69.5826 128.321H32.6382C32.0859 128.321 31.6382 128.769 31.6382 129.321V129.839C31.6382 130.391 32.0859 130.839 32.6382 130.839H69.5826C70.1349 130.839 70.5826 130.391 70.5826 129.839V129.321C70.5826 128.769 70.1349 128.321 69.5826 128.321Z" fill="white"/>
<path d="M64.557 135.873H40.1753C39.623 135.873 39.1753 136.321 39.1753 136.873V137.391C39.1753 137.943 39.623 138.391 40.1753 138.391H64.557C65.1093 138.391 65.557 137.943 65.557 137.391V136.873C65.557 136.321 65.1093 135.873 64.557 135.873Z" fill="white"/>
<path d="M67.0698 143.426H36.4067C35.8545 143.426 35.4067 143.873 35.4067 144.426V144.943C35.4067 145.496 35.8545 145.943 36.4067 145.943H67.0698C67.6221 145.943 68.0698 145.496 68.0698 144.943V144.426C68.0698 143.873 67.6221 143.426 67.0698 143.426Z" fill="white"/>
<path d="M69.5826 150.979H32.6382C32.0859 150.979 31.6382 151.427 31.6382 151.979V152.497C31.6382 153.049 32.0859 153.497 32.6382 153.497H69.5826C70.1349 153.497 70.5826 153.049 70.5826 152.497V151.979C70.5826 151.427 70.1349 150.979 69.5826 150.979Z" fill="white"/>
</svg>
