<svg width="526" height="460" viewBox="0 0 526 460" fill="none" xmlns="http://www.w3.org/2000/svg">
<path d="M480.447 129.3H361.059C361.059 129.3 372.901 96.9668 391.119 96.9668C409.337 96.9668 415.037 119.288 415.037 119.288C415.037 119.288 427.334 107.157 437.435 107.157C447.537 107.157 456.286 123.18 456.286 123.18C456.286 123.18 470.578 114.564 480.447 129.3Z" fill="#F5F4F8"/>
<path d="M402.433 71.1352H346.637C346.637 71.1352 359.1 53.0723 368.924 53.0723C378.749 53.0723 381.654 65.1142 381.654 65.1142C381.654 65.1142 388.584 59.4924 394.96 60.5015C401.336 61.5105 402.433 71.1352 402.433 71.1352Z" fill="#F5F4F8"/>
<path d="M154.217 119.674H45.5508C45.5508 119.674 60.4314 86.4092 76.3543 84.369C92.2772 82.3287 99.8838 109.052 99.8838 109.052C99.8838 109.052 110.152 99.5933 118.224 99.5933C126.296 99.5933 132.539 112.057 132.539 112.057C132.539 112.057 148.673 103.519 154.217 119.674Z" fill="#F5F4F8"/>
<path d="M257.506 48.1095H184.09C184.09 48.1095 196.697 24.0366 210.38 23.7151C224.063 23.3935 231.249 41.9333 231.249 41.9333C231.249 41.9333 252.527 24.8239 257.506 48.1095Z" fill="#F5F4F8"/>
<path d="M208.84 406.342C111.218 406.342 32.0788 401.105 32.0788 394.644C32.0788 388.184 111.218 382.946 208.84 382.946C306.463 382.946 385.602 388.184 385.602 394.644C385.602 401.105 306.463 406.342 208.84 406.342Z" fill="#F5F4F8"/>
<path d="M28.9994 338.882L87.5045 339.122L146 339.212L263 339.371L380 339.212L438.495 339.122L497 338.882L438.495 338.632L380 338.543L263 338.383L146 338.543L87.5045 338.632L28.9994 338.882Z" fill="#1F1B2D"/>
<path d="M270.298 184.437C253.403 202.012 202.647 280.228 198.692 282.565C198.692 282.565 198.692 333.721 226.961 323.506C255.23 313.29 281.143 221.514 286.675 192.256C289.59 176.809 284.098 170.098 270.298 184.437Z" fill="#E7A793"/>
<path d="M274.603 244.909L222.798 239.018C222.798 239.018 254.931 196.39 271.537 181.172C288.852 165.315 297.34 167.542 289.311 197.578C281.243 227.794 274.603 244.909 274.603 244.909Z" fill="#FDBC31"/>
<path d="M277.041 216.691C277.611 218.12 277.974 219.623 278.12 221.154C276.312 218.657 275.187 215.731 274.854 212.667C275.779 213.892 276.516 215.248 277.041 216.691ZM247.943 217.859C249.369 217.289 250.869 216.925 252.397 216.781C249.904 218.59 246.982 219.716 243.919 220.046C245.144 219.12 246.5 218.382 247.943 217.859ZM255.662 238.01C256.272 236.601 257.079 235.287 258.059 234.105C257.829 235.622 257.386 237.098 256.741 238.489C256.151 239.906 255.349 241.226 254.364 242.403C254.588 240.885 255.025 239.406 255.662 238.01ZM286.058 173.104C286.318 172.555 286.577 172.016 286.877 171.476C287.232 171.441 287.59 171.441 287.945 171.476C287.706 172.205 287.436 172.904 287.136 173.603C286.537 175.018 285.733 176.336 284.75 177.518C284.975 175.992 285.415 174.506 286.058 173.104ZM226.355 234.355L227.353 234.754C228.766 235.363 230.087 236.166 231.278 237.141C229.755 236.915 228.273 236.475 226.874 235.833C226.475 235.653 226.085 235.463 225.696 235.254L226.355 234.355ZM266.297 193.205C267.707 193.809 269.024 194.609 270.211 195.581C268.688 195.363 267.205 194.926 265.807 194.283C264.396 193.677 263.078 192.874 261.893 191.897C263.423 192.116 264.913 192.557 266.317 193.205H266.297ZM269.772 193.295C269.831 193.335 269.887 193.378 269.941 193.424H269.762C269.762 193.424 269.792 193.325 269.792 193.295H269.772Z" fill="white"/>
<path d="M272.115 235.594C270.907 235.314 269.638 235.204 268.41 235.035L264.596 234.505C262.029 234.146 259.453 233.826 256.877 233.507C251.724 232.908 246.572 232.279 241.409 231.769C239.991 231.629 238.564 231.49 237.146 231.38C235.728 231.27 234.15 231.27 232.652 231.16C232.562 231.16 232.562 231.29 232.652 231.3C233.92 231.49 235.178 231.779 236.447 231.979C237.715 232.179 239.063 232.358 240.371 232.518C242.937 232.848 245.523 233.147 248.1 233.437C253.172 233.986 258.255 234.565 263.348 235.015L267.601 235.374C269.089 235.504 270.597 235.724 272.095 235.714C272.106 235.709 272.117 235.702 272.125 235.693C272.132 235.683 272.138 235.672 272.14 235.659C272.142 235.647 272.14 235.635 272.136 235.623C272.132 235.612 272.124 235.602 272.115 235.594Z" fill="#1F1B2D"/>
<path opacity="0.1" d="M249.47 242.054L274.594 244.91C274.594 244.91 281.234 227.795 289.312 197.578C292.717 184.837 293.147 177.098 291.19 173.613L249.47 242.054Z" fill="black"/>
<path d="M260.234 351.455H339.029C339.678 348.919 340.307 346.462 340.936 343.966C341.655 341.14 342.364 338.384 343.043 335.698C343.193 335.099 343.353 334.499 343.503 333.91C344.022 331.853 344.531 329.856 345.03 327.919C345.33 326.731 345.63 325.562 345.919 324.404C346.209 323.246 346.518 322.068 346.808 320.939C346.888 320.64 346.958 320.34 347.038 320.05L347.277 319.052L347.577 317.884C347.687 317.474 347.786 317.075 347.886 316.675C348.086 315.916 348.276 315.168 348.455 314.439C348.735 313.36 349.005 312.302 349.264 311.273C349.374 310.824 349.494 310.375 349.604 309.935C349.794 309.216 349.973 308.517 350.143 307.828C350.263 307.369 350.373 306.92 350.483 306.48C350.949 304.669 351.381 302.972 351.781 301.388C351.89 300.968 351.99 300.559 352.1 300.159C352.27 299.47 352.44 298.811 352.599 298.162C352.713 297.763 352.812 297.373 352.899 296.994C353.249 295.636 353.568 294.398 353.838 293.309C353.918 293.02 353.987 292.74 354.057 292.471C354.237 291.752 354.407 291.112 354.547 290.543C354.607 290.314 354.656 290.094 354.716 289.894L354.876 289.265C354.876 289.125 354.946 288.986 354.976 288.866L355.116 288.327C355.116 288.24 355.136 288.16 355.176 288.087L355.355 287.378H278.657C278.657 287.378 276.13 296.085 272.086 310.125C271.268 312.981 270.379 316.116 269.43 319.341C266.744 328.708 263.609 339.632 260.234 351.455Z" fill="#1F1B2D"/>
<path d="M326.129 351.454H328.126C331.042 339.385 333.868 327.293 336.604 315.177C337.269 312.228 337.935 309.279 338.601 306.33L338.78 305.501C338.784 305.472 338.777 305.443 338.76 305.419C338.744 305.396 338.72 305.378 338.692 305.371C338.664 305.364 338.634 305.367 338.608 305.38C338.582 305.393 338.562 305.414 338.551 305.441C338.551 305.531 338.501 305.621 338.471 305.711C337.586 308.879 336.703 312.051 335.825 315.227C332.45 327.269 329.218 339.345 326.129 351.454Z" fill="#1F1B2D"/>
<path d="M281.143 287.388L284.528 304.363L287.304 318.263L292.027 341.949L292.517 344.375L293.325 348.419L293.955 351.455H339.039C339.678 348.909 340.317 346.462 340.936 343.966C341.655 341.14 342.364 338.384 343.043 335.698C343.193 335.099 343.353 334.499 343.503 333.91C344.022 331.853 344.531 329.856 345.03 327.919C345.33 326.731 345.63 325.562 345.919 324.404C346.209 323.246 346.518 322.068 346.808 320.939C346.888 320.64 346.958 320.34 347.038 320.05L347.277 319.052L347.577 317.884C347.687 317.474 347.786 317.075 347.886 316.675C348.086 315.916 348.276 315.168 348.455 314.439C348.735 313.36 349.005 312.302 349.264 311.273C349.384 310.814 349.494 310.375 349.604 309.935C349.794 309.216 349.973 308.517 350.143 307.828C350.263 307.369 350.373 306.92 350.483 306.48C350.949 304.669 351.381 302.972 351.781 301.388C351.89 300.968 351.99 300.559 352.1 300.159C352.27 299.47 352.44 298.811 352.599 298.162C352.713 297.763 352.812 297.373 352.899 296.994C353.249 295.636 353.568 294.398 353.838 293.309C353.918 293.02 353.987 292.74 354.057 292.471C354.237 291.752 354.407 291.112 354.547 290.543C354.607 290.314 354.656 290.094 354.716 289.894L354.876 289.265C354.876 289.125 354.946 288.986 354.976 288.866L355.116 288.327C355.116 288.24 355.136 288.16 355.176 288.087L355.355 287.378L281.143 287.388Z" fill="#1F1B2D"/>
<path d="M281.131 287.358C281.131 287.777 281.45 292.351 282.189 299.341C282.399 301.338 282.649 303.615 282.938 306.011C283.388 309.796 283.937 313.999 284.636 318.383C285.814 326.082 287.352 334.48 289.349 342.688C290.058 345.683 290.837 348.569 291.666 351.435H390.672C389.504 336.347 388.435 322.697 387.586 311.942C386.398 296.804 385.589 287.328 385.589 287.328H295.78L281.131 287.358Z" fill="#1F1B2D"/>
<path d="M281.342 296.454C281.452 299.999 281.601 303.534 281.831 307.059C282.071 310.883 282.42 314.698 282.919 318.512C282.919 318.652 282.919 318.792 282.969 318.932C283.435 322.506 283.971 326.071 284.577 329.626C285.146 332.941 285.576 336.516 287.033 339.612C287.588 340.799 288.375 341.862 289.35 342.737C290.242 343.553 291.334 344.118 292.516 344.375C292.709 344.423 292.906 344.457 293.105 344.475H293.274C293.238 344.495 293.208 344.526 293.189 344.563C293.169 344.6 293.161 344.642 293.165 344.684C293.165 345.873 293.165 347.081 293.304 348.259C293.304 348.309 293.304 348.359 293.304 348.409C293.424 349.407 293.614 350.456 293.804 351.474H295.501V351.414C295.202 350.296 294.952 349.168 294.672 348.039C294.393 346.911 293.993 345.763 293.724 344.594C293.709 344.551 293.681 344.512 293.644 344.485C294.721 344.536 295.789 344.257 296.703 343.684C297.617 343.111 298.334 342.272 298.756 341.279C299.183 339.761 299.21 338.158 298.836 336.626C298.527 334.629 298.227 332.572 297.918 330.545C297.339 326.82 296.59 323.136 295.921 319.431L295.621 317.743C294.293 310.204 292.905 302.665 291.237 295.196C291.177 294.887 291.108 294.577 291.038 294.267C290.968 293.958 290.658 294.118 290.678 294.317C290.728 294.817 290.778 295.316 290.838 295.825C291.131 298.694 291.464 301.55 291.837 304.393C292.316 307.738 292.645 311.103 293.115 314.448C293.274 315.586 293.434 316.725 293.604 317.863C294.373 323.365 295.172 328.847 296.11 334.349C296.55 336.896 298.107 341.459 294.473 342.248C293.633 342.434 292.755 342.325 291.986 341.938C290.368 340.963 289.158 339.434 288.581 337.634C287.682 334.637 287.031 331.572 286.634 328.468C286.035 325.139 285.502 321.781 285.036 318.392C284.437 314.192 283.811 309.995 283.159 305.801C282.833 303.664 282.5 301.527 282.161 299.39L281.681 296.394C281.671 296.185 281.342 296.245 281.342 296.454Z" fill="#1F1B2D"/>
<path d="M368.956 322.776C364.833 322.733 360.731 322.18 356.744 321.128C354.907 320.659 353.089 320.07 351.282 319.481C349.491 318.987 347.815 318.145 346.349 317.004C343.573 314.608 342.285 310.843 341.077 307.488C339.765 303.71 338.701 299.851 337.891 295.935C337.891 295.745 337.572 295.815 337.562 295.995C337.466 300.424 338.028 304.842 339.229 309.106C340.228 312.731 341.566 316.765 344.492 319.301C347.417 321.837 351.741 322.916 355.686 323.395C360.108 323.91 364.579 323.849 368.986 323.215C369.044 323.211 369.099 323.185 369.137 323.141C369.176 323.097 369.195 323.039 369.191 322.981C369.187 322.923 369.16 322.868 369.116 322.83C369.072 322.791 369.014 322.772 368.956 322.776Z" fill="#1F1B2D"/>
<path d="M375.834 296.055C376.054 301.594 376.287 307.139 376.533 312.691C377.099 325.612 377.722 338.534 378.401 351.455H380.258C379.406 338.507 378.51 325.566 377.572 312.631C377.166 307.099 376.746 301.571 376.314 296.045C376.312 295.982 376.286 295.921 376.24 295.877C376.194 295.833 376.133 295.809 376.069 295.811C376.005 295.812 375.945 295.838 375.901 295.884C375.857 295.93 375.833 295.992 375.834 296.055Z" fill="#1F1B2D"/>
<path d="M264.087 328.368L398.402 318.183C398.402 318.183 371.382 211.088 318.029 171.715C304.389 161.66 289.461 168.111 282.74 175.63C265.665 194.782 263.688 327.939 264.087 328.368Z" fill="#FDBC31"/>
<path d="M311.819 176.589C312.383 178.017 312.745 179.516 312.897 181.043C311.978 179.823 311.238 178.478 310.701 177.049C310.137 175.621 309.774 174.122 309.622 172.595C310.538 173.817 311.277 175.162 311.819 176.589ZM326.398 234.365C326.972 235.792 327.332 237.297 327.466 238.829C325.667 236.328 324.546 233.404 324.211 230.341C325.128 231.572 325.864 232.927 326.398 234.365ZM374.388 259.139C374.956 260.569 375.319 262.072 375.467 263.603C373.659 261.105 372.534 258.18 372.201 255.115C373.11 256.351 373.846 257.705 374.388 259.139ZM335.654 295.636C336.234 297.059 336.598 298.56 336.733 300.09C334.934 297.589 333.813 294.665 333.478 291.602C334.393 292.835 335.126 294.194 335.654 295.636ZM277.039 216.671C277.609 218.1 277.972 219.603 278.118 221.135C276.311 218.637 275.185 215.712 274.853 212.647C275.779 213.879 276.516 215.242 277.039 216.691V216.671ZM300.945 289.316C301.526 290.738 301.892 292.239 302.033 293.769C301.115 292.55 300.379 291.205 299.846 289.775C299.278 288.349 298.915 286.849 298.768 285.321C299.683 286.541 300.416 287.886 300.945 289.316ZM349.345 213.955C349.914 215.381 350.277 216.88 350.423 218.409C348.613 215.913 347.491 212.986 347.168 209.921C348.087 211.151 348.821 212.511 349.345 213.955ZM295.682 194.783C297.106 194.208 298.607 193.844 300.136 193.704C298.915 194.617 297.57 195.35 296.142 195.881C294.715 196.459 293.211 196.822 291.678 196.96C292.901 196.045 294.25 195.311 295.682 194.783ZM280.464 242.923C281.889 242.35 283.389 241.987 284.918 241.845C283.7 242.761 282.354 243.494 280.924 244.021C279.5 244.597 278 244.964 276.47 245.11C277.69 244.204 279.036 243.481 280.464 242.963V242.923ZM276.38 300.459C277.806 299.89 279.306 299.527 280.834 299.381C279.616 300.301 278.271 301.037 276.84 301.568C275.413 302.135 273.914 302.498 272.386 302.646C273.611 301.748 274.955 301.025 276.38 300.499V300.459ZM371.992 295.726C373.417 295.156 374.917 294.793 376.445 294.648C373.953 296.457 371.03 297.583 367.967 297.913C369.199 297.009 370.554 296.286 371.992 295.766V295.726ZM337.432 258.78C338.857 258.207 340.357 257.841 341.885 257.691C340.665 258.61 339.32 259.35 337.891 259.888C336.464 260.452 334.965 260.815 333.438 260.967C334.66 260.061 336.005 259.335 337.432 258.81V258.78ZM286.056 173.074C286.196 172.775 286.336 172.485 286.486 172.196C286.975 171.826 287.484 171.467 288.034 171.117C287.786 171.954 287.486 172.775 287.135 173.574C286.535 174.988 285.731 176.307 284.748 177.488C284.976 175.972 285.416 174.497 286.056 173.104V173.074ZM325.309 204.129C325.911 202.716 326.715 201.397 327.696 200.215C327.216 203.261 325.941 206.126 324.001 208.523C324.221 207.002 324.662 205.522 325.309 204.129ZM290.65 322.288C291.252 320.877 292.052 319.559 293.026 318.373C292.805 319.892 292.368 321.372 291.728 322.767C291.159 324.08 290.424 325.315 289.541 326.442H289.382C289.612 325.005 290.039 323.608 290.65 322.288ZM303.401 252.699C304.009 251.288 304.812 249.97 305.788 248.784C305.291 251.824 304.023 254.684 302.103 257.092C302.324 255.573 302.761 254.094 303.401 252.699ZM394.888 305.762C394.948 305.971 395.008 306.181 395.078 306.381C394.948 306.521 394.828 306.67 394.709 306.81C394.749 306.467 394.809 306.127 394.888 305.792V305.762ZM354.946 279.12C355.553 277.712 356.356 276.398 357.333 275.216C356.85 278.258 355.576 281.12 353.638 283.514C353.876 282.004 354.327 280.535 354.976 279.15L354.946 279.12ZM346.379 317.565C346.985 316.153 347.788 314.835 348.765 313.65C348.271 316.695 346.998 319.56 345.071 321.968C345.306 320.457 345.756 318.988 346.409 317.605L346.379 317.565ZM279.206 271.312C280.616 271.92 281.934 272.723 283.121 273.698C281.601 273.474 280.122 273.033 278.727 272.39C277.311 271.788 275.989 270.984 274.803 270.004C276.338 270.232 277.831 270.683 279.236 271.342L279.206 271.312ZM385.153 277.143L385.662 278.521C384.585 278.002 383.578 277.347 382.666 276.574C383.523 276.686 384.367 276.887 385.182 277.173L385.153 277.143ZM316.672 310.415C318.084 311.016 319.402 311.816 320.586 312.791C319.064 312.569 317.582 312.132 316.183 311.493C314.772 310.882 313.455 310.075 312.268 309.097C313.805 309.323 315.299 309.778 316.702 310.445L316.672 310.415ZM377.913 319.322L378.602 319.652L376.255 319.831C375.275 319.336 374.356 318.726 373.519 318.014C375.05 318.248 376.539 318.698 377.943 319.352L377.913 319.322ZM354.387 237.211C355.794 237.826 357.111 238.629 358.302 239.598C355.258 239.106 352.393 237.837 349.984 235.913C351.518 236.138 353.012 236.586 354.417 237.241L354.387 237.211ZM319.957 275.456C321.369 276.065 322.687 276.872 323.871 277.852C320.825 277.363 317.959 276.09 315.554 274.158C317.087 274.387 318.58 274.834 319.987 275.486L319.957 275.456ZM301.983 222.882C303.391 223.494 304.709 224.297 305.898 225.269C302.854 224.786 299.99 223.516 297.59 221.584C299.13 221.81 300.63 222.258 302.043 222.912L301.983 222.882Z" fill="white"/>
<path d="M290.352 198.008C298.101 196.859 305.97 181.222 307.328 170.558C307.417 169.819 295.345 146.782 293.458 141.979C293.068 140.98 266.147 161.311 266.147 161.311C266.147 161.311 273.137 170.218 276.403 178.636C276.632 179.335 282.863 199.106 290.352 198.008Z" fill="#E7A793"/>
<path opacity="0.4" d="M266.108 161.311C266.108 161.311 273.098 170.218 276.373 178.626C276.433 178.796 276.833 180.034 277.492 181.801C291.331 174.812 296.973 162.33 299.25 154.092C296.634 148.849 294.197 143.926 293.418 141.979C293.029 140.991 266.108 161.311 266.108 161.311Z" fill="#1F1B2D"/>
<path d="M287.236 104.563C295.114 113.679 302.993 146.562 298.489 156.667C291.949 171.306 274.524 180.103 260.424 170.746C246.714 161.67 237.208 118.632 242.87 108.766C251.198 94.2276 275.612 91.1021 287.236 104.563Z" fill="#E7A793"/>
<path d="M266.188 131.274C267.186 131.354 268.185 131.274 269.183 131.274C270.243 131.419 271.321 131.208 272.249 130.675C272.508 130.451 272.685 130.147 272.754 129.811C272.822 129.475 272.778 129.126 272.628 128.818C272.238 128.255 271.705 127.806 271.084 127.518C270.462 127.23 269.775 127.114 269.093 127.18C267.693 127.098 266.312 127.539 265.219 128.419C264.988 128.636 264.824 128.916 264.747 129.225C264.67 129.533 264.684 129.857 264.786 130.158C264.888 130.459 265.074 130.724 265.323 130.922C265.571 131.12 265.872 131.242 266.188 131.274Z" fill="#1F1B2D"/>
<path d="M267.063 136.097C267.063 136.007 267.262 136.167 267.282 136.267C267.652 138.513 268.46 141.03 270.627 141.369C270.697 141.369 270.717 141.489 270.627 141.499C268.101 141.639 267.063 138.294 267.063 136.097Z" fill="#1F1B2D"/>
<path d="M268.601 133.361C272.146 132.362 273.863 139.542 270.598 140.45C267.333 141.359 265.635 134.189 268.601 133.361Z" fill="#1F1B2D"/>
<path d="M254.184 138.864C254.184 138.784 254.034 139.014 254.054 139.104C254.653 141.301 254.973 143.927 253.145 145.095C253.085 145.095 253.145 145.245 253.195 145.215C255.562 144.336 255.103 140.861 254.184 138.864Z" fill="#1F1B2D"/>
<path d="M251.645 137.026C248.01 137.605 249.438 144.824 252.803 144.285C256.169 143.746 254.691 136.536 251.645 137.026Z" fill="#1F1B2D"/>
<path d="M247.963 133.471C248.88 133.044 249.774 132.568 250.639 132.043C251.654 131.668 252.515 130.965 253.085 130.046C253.21 129.724 253.225 129.371 253.128 129.04C253.03 128.709 252.826 128.42 252.546 128.218C251.318 127.42 249.9 127.789 248.642 128.408C247.359 128.992 246.338 130.031 245.776 131.324C245.658 131.628 245.632 131.96 245.7 132.279C245.769 132.598 245.929 132.889 246.162 133.118C246.395 133.346 246.689 133.502 247.01 133.564C247.33 133.627 247.661 133.595 247.963 133.471Z" fill="#1F1B2D"/>
<path d="M274.495 155.319C274.095 155.968 273.736 156.807 272.947 157.067C272.114 157.246 271.253 157.246 270.421 157.067C270.404 157.065 270.387 157.069 270.372 157.077C270.358 157.086 270.346 157.099 270.34 157.115C270.333 157.13 270.331 157.147 270.335 157.164C270.339 157.18 270.348 157.195 270.361 157.206C270.781 157.566 271.291 157.804 271.835 157.897C272.38 157.991 272.94 157.935 273.456 157.736C273.881 157.512 274.23 157.166 274.458 156.742C274.685 156.319 274.782 155.837 274.734 155.359C274.734 155.229 274.555 155.219 274.495 155.319Z" fill="#1F1B2D"/>
<path d="M270.577 149.237C270.221 150.249 269.66 151.176 268.93 151.961C268.2 152.746 267.316 153.372 266.333 153.801C265.479 154.186 264.575 154.448 263.647 154.58C263.473 154.619 263.296 154.639 263.118 154.64C262.948 154.65 262.778 154.65 262.608 154.64C262.485 154.647 262.363 154.613 262.261 154.542C262.16 154.471 262.085 154.368 262.049 154.25C262.044 154.17 262.044 154.09 262.049 154.01V153.811C261.6 152.113 261.14 149.477 261.14 149.477C260.591 149.936 257.755 152.133 257.586 151.224C256.258 143.735 254.79 135.407 255.049 127.669C255.049 127.613 255.071 127.56 255.111 127.52C255.15 127.481 255.203 127.459 255.259 127.459C255.315 127.459 255.368 127.481 255.407 127.52C255.447 127.56 255.469 127.613 255.469 127.669C257.026 134.818 257.316 142.198 258.774 149.407C259.751 148.605 260.837 147.946 261.999 147.45C262.259 147.45 262.788 152.563 263.058 153.301C263.055 153.328 263.055 153.355 263.058 153.381C266.053 153.062 267.971 151.674 270.297 149.088C270.447 148.918 270.667 149.028 270.577 149.237Z" fill="#1F1B2D"/>
<path d="M264.448 153.472C265.678 154.465 267.143 155.125 268.702 155.39C269.555 155.509 270.424 155.358 271.188 154.96C272.846 154.072 272.506 152.434 271.847 151.116C271.489 150.421 271.049 149.771 270.539 149.179C269.02 151.224 266.885 152.729 264.448 153.472Z" fill="#1F1B2D"/>
<path d="M268.702 155.389C269.555 155.508 270.424 155.358 271.188 154.96C272.846 154.071 272.506 152.433 271.847 151.115C269.99 151.764 268.422 153.512 268.702 155.389Z" fill="#FF97B8"/>
<path d="M239.856 121.569C253.835 127.42 267.975 111.234 267.975 111.234C269.577 113.691 271.93 115.564 274.683 116.575C277.435 117.586 280.441 117.681 283.253 116.846C283.253 116.846 289.963 137.086 295.435 135.868C303.753 134.091 300.428 105.273 296.663 100.26C292.899 95.2471 285.509 95.2671 285.509 95.2671C285.509 95.2671 284.101 91.0632 278.13 88.1974C271.54 85.022 253.166 94.9775 253.166 94.9775C251.499 92.5858 249.292 90.6192 246.726 89.2359C246.106 88.8876 245.422 88.6688 244.715 88.5926C244.009 88.5164 243.294 88.5845 242.614 88.7927C241.935 89.0009 241.304 89.3449 240.761 89.8038C240.219 90.2627 239.775 90.8271 239.456 91.4626C240.82 92.7748 241.868 94.3795 242.522 96.1558C244.769 102.027 239.806 103.056 238.697 97.5338C238.216 95.4845 238.485 93.3304 239.456 91.4626C236.261 88.3671 232.017 88.0276 229.99 90.4641C226.265 94.9276 228.223 116.716 239.856 121.569Z" fill="#1F1B2D"/>
<path d="M274.143 147.212C275.863 146.661 277.394 145.637 278.561 144.259C279.728 142.88 280.484 141.201 280.744 139.413C281.003 137.626 280.756 135.801 280.029 134.147C279.303 132.493 278.126 131.077 276.634 130.059C275.142 129.041 273.394 128.462 271.589 128.389C269.784 128.316 267.995 128.75 266.425 129.644C264.856 130.538 263.568 131.854 262.71 133.444C261.852 135.033 261.457 136.832 261.571 138.635C261.665 140.099 262.092 141.522 262.819 142.796C263.545 144.071 264.553 145.163 265.765 145.99C266.977 146.817 268.361 147.356 269.813 147.568C271.264 147.78 272.745 147.658 274.143 147.212ZM268.631 130.087C269.278 129.877 269.949 129.747 270.628 129.698C272.756 129.547 274.862 130.213 276.516 131.562C278.169 132.91 279.246 134.839 279.526 136.954C279.806 139.069 279.269 141.212 278.024 142.945C276.778 144.677 274.919 145.869 272.824 146.278C270.73 146.686 268.559 146.28 266.754 145.142C264.949 144.004 263.646 142.221 263.111 140.155C262.576 138.09 262.849 135.898 263.875 134.027C264.901 132.156 266.602 130.747 268.631 130.087Z" fill="#FDBC31"/>
<path d="M252.862 151.245C256.317 149.947 258.114 145.254 256.856 140.351C256.32 138.006 255.059 135.888 253.251 134.3C252.521 133.564 251.613 133.03 250.614 132.75C249.616 132.471 248.562 132.455 247.556 132.704C246.55 132.954 245.625 133.46 244.873 134.174C244.121 134.888 243.567 135.785 243.266 136.777C242.42 139.03 242.297 141.491 242.916 143.816C244.194 148.969 248.358 152.394 252.203 151.435C252.428 151.392 252.648 151.328 252.862 151.245ZM247.46 134.12L247.929 133.981C248.736 133.818 249.57 133.851 250.361 134.079C251.152 134.307 251.876 134.722 252.472 135.289C254.068 136.704 255.181 138.582 255.658 140.661C256.766 145.134 255.119 149.408 251.953 150.187C248.788 150.966 245.333 147.97 244.224 143.507C243.669 141.446 243.773 139.263 244.524 137.266C244.765 136.565 245.151 135.923 245.657 135.381C246.163 134.839 246.777 134.409 247.46 134.12Z" fill="#FDBC31"/>
<path d="M262.104 139.672L262.723 138.543C261.055 137.615 257.42 136.656 255.593 139.542L256.691 140.221C258.319 137.635 261.954 139.582 262.104 139.672Z" fill="#FDBC31"/>
<path d="M304.72 133.78L305.719 132.982C305.339 132.512 301.974 128.388 299.068 128.488C296.342 128.588 279.706 133.481 278.998 133.731L279.367 134.969C284.14 133.551 297.001 129.846 299.108 129.776C301.046 129.706 303.812 132.642 304.72 133.78Z" fill="#FDBC31"/>
<path d="M291.872 133.99C291.872 133.99 294.558 121.129 300.11 121.678C305.662 122.227 306.6 138.773 302.157 142.997C301.626 143.578 300.983 144.045 300.267 144.371C299.551 144.697 298.777 144.874 297.991 144.893C297.204 144.912 296.422 144.771 295.691 144.48C294.961 144.188 294.297 143.752 293.739 143.197L291.872 133.99Z" fill="#E7A793"/>
<path d="M300.255 126.431C300.335 126.381 300.405 126.49 300.345 126.56C297.279 129.636 296.81 133.9 296.96 138.034C297.479 136.196 298.657 134.798 301.054 135.328C301.174 135.328 301.144 135.537 301.054 135.567C300.314 135.636 299.615 135.933 299.053 136.418C298.491 136.903 298.094 137.552 297.918 138.273C297.626 139.477 297.462 140.709 297.429 141.948C297.429 142.357 296.73 142.437 296.69 141.948C296.695 141.915 296.695 141.881 296.69 141.848C294.553 137.235 295.392 129.067 300.255 126.431Z" fill="#1F1B2D"/>
<path d="M223.406 224.259C220.879 217.609 162.304 229.651 164.641 239.846C173.219 277.192 197.124 310.564 203.165 318.193C211.094 328.178 226.871 325.961 232.622 319.91C240.96 311.133 225.902 230.849 223.406 224.259Z" fill="#E7A793"/>
<path d="M227.529 242.593C228.831 246.172 229.863 249.844 230.615 253.577C231.464 257.272 232.203 260.986 232.802 264.721C233.986 272.276 234.653 279.902 234.799 287.548C234.909 291.822 234.799 296.085 234.799 300.359C234.799 300.459 234.639 300.449 234.639 300.359C234.639 296.575 234.409 292.76 234.1 288.986C233.79 285.211 233.411 281.367 232.922 277.582C231.973 270.143 230.924 262.714 229.576 255.335C229.204 253.264 228.814 251.201 228.408 249.144C227.979 247.007 227.489 244.88 227.21 242.713C227.21 242.553 227.459 242.413 227.529 242.593Z" fill="#1F1B2D"/>
<path d="M237.539 119.002C237.924 124.088 238.685 129.137 239.816 134.11C240.005 134.959 240.215 135.828 240.425 136.687C241.264 140.102 242.262 143.537 243.421 146.842C243.687 147.641 243.966 148.43 244.259 149.208C247.804 158.785 252.487 167.023 257.76 170.518C259.099 171.415 260.52 172.184 262.004 172.814C269.562 168.406 275.874 162.147 280.346 154.627C284.818 147.107 287.302 138.572 287.566 129.827L289.164 129.387C288.914 128.998 288.655 128.598 288.405 128.179C288.156 127.76 287.846 127.23 287.576 126.731C287.176 113.875 281.983 101.633 273.018 92.4109C260.466 89.0358 245.438 93.8588 239.117 104.873C237.579 107.599 237.11 112.731 237.539 119.002Z" fill="#E7A793"/>
<path d="M263.847 128.708C264.908 128.763 265.971 128.763 267.032 128.708C268.26 128.708 269.239 128.798 270.287 128.069C270.57 127.83 270.763 127.503 270.835 127.14C270.908 126.778 270.856 126.401 270.687 126.072C269.918 124.714 268.42 124.365 266.942 124.335C265.459 124.247 263.997 124.713 262.838 125.643C262.581 125.87 262.397 126.168 262.307 126.5C262.218 126.831 262.227 127.181 262.335 127.507C262.442 127.833 262.642 128.121 262.911 128.334C263.18 128.548 263.505 128.678 263.847 128.708Z" fill="#1F1B2D"/>
<path d="M264.775 133.871C264.775 133.781 264.984 133.951 265.004 134.041C265.394 136.427 266.253 139.094 268.549 139.453C268.619 139.453 268.639 139.583 268.549 139.593C265.873 139.693 264.775 136.148 264.775 133.871Z" fill="#1F1B2D"/>
<path d="M266.405 130.925C270.159 129.877 271.977 137.466 268.502 138.434C265.027 139.403 263.259 131.804 266.405 130.925Z" fill="#1F1B2D"/>
<path d="M251.129 136.747C251.129 136.668 250.97 136.907 251 137.007C251.639 139.334 251.998 142.11 250.001 143.398C249.941 143.398 250.001 143.558 250.051 143.528C252.587 142.539 252.108 138.864 251.129 136.747Z" fill="#1F1B2D"/>
<path d="M248.44 134.8C244.595 135.419 246.113 143.068 249.678 142.499C253.243 141.929 251.665 134.28 248.44 134.8Z" fill="#1F1B2D"/>
<path d="M244.545 131.035C245.544 130.605 246.413 130.036 247.371 129.527C248.442 129.134 249.354 128.401 249.967 127.44C250.098 127.101 250.114 126.728 250.011 126.379C249.908 126.031 249.692 125.726 249.398 125.513C248.09 124.664 246.592 125.053 245.264 125.712C243.918 126.335 242.851 127.434 242.269 128.798C242.155 129.114 242.135 129.456 242.21 129.783C242.285 130.11 242.452 130.409 242.691 130.645C242.931 130.88 243.233 131.042 243.561 131.111C243.89 131.18 244.231 131.154 244.545 131.035Z" fill="#1F1B2D"/>
<path d="M272.644 154.182C272.215 154.861 271.835 155.75 270.997 156.029C270.119 156.224 269.209 156.224 268.331 156.029C268.313 156.029 268.296 156.033 268.281 156.042C268.266 156.052 268.254 156.065 268.246 156.081C268.239 156.097 268.236 156.115 268.239 156.132C268.241 156.15 268.249 156.166 268.261 156.179C268.707 156.56 269.248 156.814 269.826 156.912C270.405 157.011 270.999 156.951 271.546 156.738C271.994 156.499 272.362 156.133 272.602 155.685C272.842 155.237 272.944 154.728 272.894 154.222C272.904 154.082 272.714 154.082 272.644 154.182Z" fill="#1F1B2D"/>
<path d="M268.491 147.73C268.119 148.803 267.528 149.787 266.756 150.621C265.985 151.454 265.049 152.119 264.008 152.573C263.103 152.981 262.145 153.257 261.162 153.392C260.975 153.434 260.784 153.458 260.593 153.462C260.416 153.473 260.24 153.473 260.063 153.462C259.932 153.47 259.802 153.434 259.693 153.36C259.585 153.286 259.504 153.178 259.464 153.052C259.454 152.973 259.454 152.892 259.464 152.813V152.603C258.985 150.806 258.466 148.01 258.466 148.01C257.886 148.499 254.881 150.826 254.711 149.867C253.303 141.879 251.715 133.101 252.015 124.903C252.015 124.845 252.038 124.789 252.079 124.748C252.121 124.707 252.176 124.684 252.235 124.684C252.293 124.684 252.349 124.707 252.39 124.748C252.431 124.789 252.454 124.845 252.454 124.903C254.112 132.472 254.451 140.291 255.959 147.87C257.028 147.043 258.208 146.371 259.464 145.873C259.734 145.873 260.303 151.285 260.583 152.074C260.578 152.1 260.578 152.127 260.583 152.154C263.708 151.814 265.785 150.356 268.241 147.6C268.361 147.401 268.591 147.51 268.491 147.73Z" fill="#1F1B2D"/>
<path d="M262.002 152.224C263.306 153.266 264.857 153.954 266.505 154.221C267.407 154.351 268.327 154.19 269.132 153.762C270.899 152.823 270.53 151.086 269.831 149.698C269.454 148.96 268.991 148.27 268.453 147.641C266.847 149.818 264.587 151.425 262.002 152.224Z" fill="#1F1B2D"/>
<path d="M266.517 154.252C267.419 154.381 268.339 154.221 269.143 153.793C270.911 152.854 270.541 151.117 269.842 149.729C267.885 150.418 266.218 152.255 266.517 154.252Z" fill="#FF97B8"/>
<path d="M235.957 118.433C236.486 118.653 237.015 118.843 237.534 119.003C251.833 123.436 265.743 107.479 265.743 107.479C267.432 110.089 269.92 112.083 272.836 113.163C275.751 114.243 278.938 114.351 281.92 113.471C283.47 118.04 285.37 122.483 287.602 126.761C287.333 118.27 284.972 109.977 280.729 102.617C276.485 95.2575 270.491 89.0592 263.277 84.5725C258.722 86.1708 254.29 88.0998 250.016 90.3442C248.246 87.8112 245.907 85.7284 243.186 84.263C242.531 83.8937 241.807 83.6612 241.059 83.5796C240.311 83.4981 239.554 83.5692 238.834 83.7885C238.115 84.0079 237.447 84.371 236.872 84.8559C236.296 85.3408 235.825 85.9374 235.487 86.6096C236.928 88.0105 238.037 89.7165 238.733 91.6023C241.109 97.8133 235.857 98.9017 234.688 93.0602C234.172 90.8871 234.456 88.6008 235.487 86.6196C232.102 83.3543 227.609 82.9948 225.502 85.621C221.567 90.2343 223.624 113.291 235.957 118.433Z" fill="#1F1B2D"/>
<g opacity="0.3">
<path opacity="0.3" d="M211.906 184.357C222.388 186.665 233.318 185.814 243.315 181.91C253.312 178.006 261.927 171.225 268.071 162.425C274.214 153.625 277.61 143.201 277.829 132.471C278.047 121.74 275.079 111.186 269.3 102.143C263.52 93.1 255.188 85.9738 245.359 81.6659C235.529 77.3579 224.642 76.0616 214.076 77.941C203.509 79.8204 193.737 84.791 185.996 92.2242C178.254 99.6575 172.891 109.219 170.584 119.701C169.051 126.66 168.904 133.852 170.151 140.868C171.398 147.883 174.015 154.584 177.852 160.589C181.689 166.593 186.672 171.782 192.515 175.86C198.358 179.938 204.947 182.826 211.906 184.357Z" fill="white"/>
<path opacity="0.3" d="M271.168 157.415C264.294 169.962 252.746 179.289 239.034 183.369C225.321 187.449 210.553 185.951 197.938 179.202L271.168 157.415Z" fill="#F5F4F8"/>
<path opacity="0.3" d="M269.609 102.68L169.312 132.525C169.225 128.215 169.648 123.911 170.574 119.701C171.623 114.872 173.34 110.212 175.676 105.857L249.716 83.8174C257.851 88.3 264.701 94.7944 269.609 102.68Z" fill="#F5F4F8"/>
<path opacity="0.3" d="M277.436 137.7L181.904 166.104C179.628 163.371 177.623 160.422 175.918 157.299L277.647 127.022C277.94 130.58 277.87 134.157 277.436 137.7Z" fill="#F5F4F8"/>
<path opacity="0.3" d="M273.082 109.244L169.986 139.931C169.881 139.278 169.786 138.626 169.713 137.974L272.261 107.466C272.546 108.044 272.83 108.634 273.082 109.244Z" fill="#F5F4F8"/>
<path opacity="0.3" d="M232.547 77.8626L186.785 91.4754C187.974 90.3708 189.226 89.3714 190.52 88.3194L227.687 77.2734C229.316 77.3863 230.938 77.583 232.547 77.8626Z" fill="#F5F4F8"/>
</g>
<path d="M217.966 242.266L204.742 239.354L217.549 181.203L230.772 184.116L217.966 242.266Z" fill="#F5F4F8"/>
<path d="M180.201 115.987C182.636 104.927 188.296 94.8387 196.465 86.9962C204.634 79.1536 214.945 73.9096 226.095 71.9272C237.244 69.9448 248.731 71.313 259.103 75.8589C269.474 80.4047 278.265 87.9241 284.364 97.466C290.462 107.008 293.594 118.144 293.363 129.466C293.133 140.788 289.55 151.787 283.068 161.073C276.586 170.358 267.497 177.514 256.948 181.633C246.4 185.753 234.867 186.652 223.808 184.218C208.98 180.948 196.057 171.924 187.88 159.129C179.703 146.335 176.941 130.817 180.201 115.987ZM225.056 178.596C235.004 180.789 245.38 179.982 254.87 176.279C264.36 172.575 272.539 166.139 278.371 157.787C284.204 149.435 287.429 139.54 287.638 129.355C287.847 119.17 285.031 109.151 279.546 100.566C274.06 91.9818 266.153 85.2166 256.822 81.1265C247.492 77.0363 237.158 75.805 227.128 77.5881C217.098 79.3713 207.822 84.0889 200.473 91.1442C193.124 98.1996 188.033 107.276 185.843 117.225C184.387 123.829 184.247 130.656 185.43 137.314C186.614 143.973 189.097 150.333 192.738 156.032C196.379 161.731 201.108 166.657 206.653 170.528C212.198 174.4 218.451 177.141 225.056 178.596Z" fill="#666276"/>
<path d="M212.506 283.183L192.505 278.78L203.848 227.225L223.859 231.628L212.506 283.183Z" fill="#454056"/>
<path d="M203.777 121.549C203.798 121.49 203.815 121.43 203.827 121.369C204.067 120.51 203.567 122.198 203.747 121.639C203.927 121.079 204.187 120.291 204.436 119.641C205.31 117.325 206.379 115.087 207.632 112.951C207.801 112.652 207.991 112.352 208.161 112.052C208.221 111.953 207.721 112.751 208.161 112.122L208.51 111.583C208.97 110.894 209.439 110.215 209.928 109.586C211.01 108.125 212.187 106.737 213.453 105.432L214.372 104.513C214.791 104.104 213.882 104.963 214.462 104.434L215.041 103.904C215.79 103.255 216.559 102.626 217.357 102.027C218.156 101.428 219.105 100.769 220.014 100.2C220.433 99.9401 220.852 99.6904 221.282 99.4508C222.021 99.0214 220.962 99.6006 221.511 99.321L222.3 98.9215C224.686 97.7478 227.181 96.8113 229.749 96.1256H229.879L230.159 96.0657L231.307 95.8161C232.056 95.6663 232.795 95.5365 233.554 95.4266C235.14 95.1997 236.736 95.053 238.337 94.9873C238.781 94.9368 239.212 94.7992 239.603 94.5825C239.994 94.3657 240.339 94.074 240.618 93.724C241.181 93.017 241.44 92.1155 241.338 91.2177C241.236 90.32 240.781 89.4994 240.074 88.9367C239.367 88.374 238.466 88.1151 237.568 88.2171C227.365 88.5327 217.609 92.4729 210.048 99.331C205.025 104.035 201.098 109.786 198.545 116.176C197.96 117.603 197.473 119.068 197.087 120.56C196.949 121.452 197.17 122.363 197.701 123.093C198.233 123.822 199.031 124.312 199.923 124.454C200.812 124.574 201.713 124.346 202.439 123.818C203.164 123.29 203.658 122.502 203.817 121.619L203.777 121.549Z" fill="white"/>
<path d="M202.375 131.583C202.274 132.24 201.98 132.852 201.53 133.341C201.081 133.83 200.496 134.175 199.851 134.332C199.205 134.489 198.528 134.451 197.904 134.222C197.28 133.993 196.738 133.584 196.347 133.047C195.956 132.51 195.733 131.869 195.706 131.205C195.68 130.542 195.851 129.885 196.198 129.318C196.546 128.752 197.053 128.301 197.657 128.024C198.26 127.746 198.933 127.654 199.589 127.759C200.464 127.899 201.249 128.38 201.771 129.096C202.293 129.813 202.51 130.707 202.375 131.583Z" fill="white"/>
<path d="M168.578 251.52C168.578 251.52 154.279 228.014 172.083 205.586C179.412 196.36 196.707 179.814 231.796 182.12C240.124 182.67 251.598 189.35 237.678 193.394C227.792 196.27 220.652 195.102 215.2 197.818C215.2 197.818 228.791 208.053 227.912 216.371C227.522 220.085 227.233 228.203 225.086 235.932C225.086 235.932 222.27 237.929 219.983 237.59C219.983 237.59 213.822 255.364 191.665 260.826L168.578 251.52Z" fill="#E7A793"/>
<path d="M179.599 202.571C185.331 200.285 197.573 195.651 208.907 195.332C221.498 194.982 245.853 197.708 246.003 207.005C246.123 213.825 236.736 213.595 236.736 213.595C236.736 213.595 246.562 216.841 245.314 223.022C244.185 228.654 236.936 228.014 236.936 228.014C236.936 228.014 242.558 231.01 240.421 236.223C237.855 242.493 226.501 235.224 218.453 239.298C216.595 240.257 179.599 202.571 179.599 202.571Z" fill="#E7A793"/>
<path d="M207.08 208.692C212.822 207.434 226.612 207.914 236.617 213.376C236.847 213.496 236.877 213.735 236.617 213.665C227.003 210.861 217.085 209.232 207.08 208.812C206.99 208.812 206.99 208.762 207.08 208.692Z" fill="#1F1B2D"/>
<path d="M207.78 221.394C212.853 220.815 227.042 221.943 236.988 227.825C237.218 227.954 237.228 228.194 236.988 228.114C227.526 224.816 217.721 222.602 207.76 221.514C207.745 221.511 207.73 221.502 207.721 221.489C207.712 221.476 207.708 221.46 207.711 221.444C207.713 221.428 207.722 221.414 207.735 221.404C207.748 221.395 207.765 221.391 207.78 221.394Z" fill="#1F1B2D"/>
<path d="M187.339 262.355C192.422 261.148 197.328 259.292 201.937 256.833C206.578 254.321 210.686 250.93 214.03 246.847C215.028 245.599 216.027 244.301 216.896 242.973C217.764 241.645 218.723 240.137 219.751 238.819C219.831 238.719 220.021 238.819 219.961 238.909C218.804 241.68 217.38 244.333 215.707 246.827C214.208 249.16 212.416 251.291 210.375 253.168C206.346 256.753 201.571 259.4 196.395 260.917C193.456 261.735 190.448 262.28 187.408 262.544C187.259 262.584 187.199 262.385 187.339 262.355Z" fill="#1F1B2D"/>
<path d="M333.095 187.133C358.817 221.673 401.745 311.692 408.056 324.933C412.34 333.92 365.378 357.585 363.391 351.055C360.835 342.687 318.846 232.227 312.964 191.956C309.749 169.878 324.198 175.18 333.095 187.133Z" fill="#E7A793"/>
<path d="M362.126 346.562C363.214 354.7 368.746 371.096 372.86 373.603C376.974 376.109 398.593 375.6 409.487 375.6C420.381 375.6 422.468 372.554 422.338 368.81C422.208 365.065 399.302 364.346 399.302 364.346C399.302 364.346 429.837 373.054 437.516 374.521C445.195 375.989 462.879 380.413 465.476 374.052C466.624 371.176 461.781 368.271 461.781 368.271C461.781 368.271 469.2 370.437 470.389 366.753C471.727 362.549 465.825 360.242 465.825 360.242C465.825 360.242 470.468 361.171 470.578 357.746C470.778 350.057 441.74 346.302 441.74 346.302C441.74 346.302 463.968 357.127 464.707 350.876C465.705 342.238 420.131 332.762 415.388 328.998C411.937 326.121 408.709 322.986 405.732 319.621L362.126 346.562Z" fill="#E7A793"/>
<path d="M422.178 370.667C422.255 370.137 422.205 369.596 422.031 369.089C421.858 368.582 421.566 368.123 421.18 367.751C420.397 367.034 419.499 366.454 418.524 366.034C416.509 365.178 414.42 364.509 412.283 364.037C407.989 362.948 403.585 362.18 399.202 361.041C403.72 360.973 408.23 361.477 412.622 362.539C414.867 363.054 417.028 363.881 419.043 364.995C420.086 365.569 421 366.351 421.729 367.292C422.087 367.769 422.317 368.33 422.395 368.921C422.474 369.512 422.399 370.113 422.178 370.667Z" fill="#1F1B2D"/>
<path d="M461.711 368.231C458.566 367.462 455.47 366.584 452.384 365.685C449.299 364.786 446.223 363.848 443.148 362.919L433.951 360.043C430.886 359.045 427.82 358.126 424.725 357.197C427.938 357.551 431.124 358.121 434.261 358.905C437.416 359.624 440.512 360.522 443.597 361.461C446.683 362.4 449.738 363.458 452.754 364.577C455.77 365.695 458.815 366.873 461.711 368.231Z" fill="#1F1B2D"/>
<path d="M432.136 349.558C435.098 349.743 438.042 350.151 440.943 350.776C443.854 351.355 446.731 352.095 449.56 352.993C452.397 353.872 455.18 354.912 457.898 356.108C460.626 357.274 463.266 358.635 465.797 360.182C462.991 359.184 460.255 358.135 457.469 357.187C454.683 356.238 451.907 355.299 449.101 354.441C446.295 353.582 443.489 352.733 440.663 351.904C437.837 351.075 435.002 350.356 432.136 349.558Z" fill="#1F1B2D"/>
<path d="M436.629 342.289C441.4 342.673 446.1 343.68 450.609 345.285C455.162 346.793 459.496 348.895 463.5 351.536C458.987 349.928 454.593 348.23 450.109 346.733C445.626 345.235 441.182 343.757 436.629 342.289Z" fill="#1F1B2D"/>
<path d="M322.161 246.337L374.285 244.899C374.285 244.899 345.876 199.684 330.658 183.099C314.772 165.824 306.124 167.311 311.546 197.917C317.008 228.732 322.161 246.337 322.161 246.337Z" fill="#FDBC31"/>
<path d="M354.418 237.241C355.824 237.855 357.141 238.658 358.332 239.627C355.288 239.136 352.423 237.866 350.014 235.942C351.537 236.161 353.02 236.598 354.418 237.241ZM325.31 204.129C325.912 202.715 326.716 201.397 327.697 200.214C327.216 203.26 325.942 206.126 324.002 208.522C324.222 207.002 324.662 205.522 325.31 204.129ZM349.345 213.954C349.914 215.38 350.278 216.88 350.424 218.408C348.614 215.913 347.491 212.986 347.168 209.92C348.088 211.151 348.821 212.51 349.345 213.954ZM326.378 234.365C326.953 235.792 327.313 237.296 327.447 238.828C325.648 236.327 324.527 233.403 324.192 230.341C325.115 231.57 325.859 232.925 326.398 234.365H326.378ZM311.101 175.001C311.35 175.52 311.58 176.049 311.8 176.589C312.363 178.016 312.726 179.515 312.878 181.042C311.959 179.823 311.219 178.478 310.681 177.048C310.631 176.918 310.591 176.798 310.551 176.669C310.694 176.098 310.884 175.54 311.121 175.001H311.101Z" fill="white"/>
<path d="M325.429 237.271C326.667 237.091 327.936 237.091 329.174 237.031L333.018 236.822C335.601 236.695 338.194 236.592 340.797 236.512C345.989 236.352 351.172 236.172 356.354 236.103C357.782 236.103 359.21 236.103 360.638 236.103C362.066 236.103 363.634 236.252 365.132 236.262C365.221 236.262 365.211 236.402 365.132 236.402C363.853 236.482 362.575 236.672 361.287 236.752C359.999 236.831 358.661 236.911 357.343 236.961C354.747 237.061 352.15 237.151 349.554 237.211C344.452 237.331 339.339 237.471 334.236 237.481H329.903C328.415 237.481 326.907 237.56 325.409 237.431C325.369 237.401 325.349 237.281 325.429 237.271Z" fill="#1F1B2D"/>
<path d="M312.058 212.436C312.058 212.337 312.178 212.277 312.228 212.377C313.195 214.157 314.022 216.01 314.704 217.918C314.524 217.01 314.315 216.101 314.145 215.182C313.576 212.247 313.057 209.291 312.477 206.355C312.483 206.338 312.495 206.322 312.51 206.312C312.525 206.301 312.544 206.295 312.562 206.295C312.581 206.295 312.599 206.301 312.614 206.312C312.63 206.322 312.641 206.338 312.647 206.355C313.995 211.408 315.563 216.411 316.761 221.503C317.959 226.596 319.168 231.688 320.286 236.801C320.895 239.627 321.444 243.152 322.063 245.968C323.571 246.148 325.508 245.968 327.136 246.177C327.276 246.177 327.236 246.427 327.136 246.427C325.419 246.477 323.372 246.866 321.564 246.757C321.334 246.757 316.961 228.593 315.143 219.896C314.025 217.419 312.987 214.943 312.058 212.436Z" fill="#1F1B2D"/>
<path d="M274.985 184.198C275.714 186.584 276.543 188.941 277.492 191.248C278.284 193.326 279.256 195.331 280.397 197.239C282.554 200.644 285.87 203.46 290.073 203.45C294.068 203.45 297.722 201.133 300.279 198.178C303.075 194.952 304.932 190.908 306.599 187.014C307.598 184.607 308.597 182.151 309.395 179.665C309.805 178.406 310.234 177.148 310.594 175.87C310.953 174.592 311.263 173.304 311.702 172.056C311.702 171.956 311.922 171.966 311.892 172.056C311.153 174.931 309.006 184.038 308.147 186.355C306.569 190.599 304.792 194.982 301.946 198.557C299.25 201.932 295.585 204.489 291.202 204.908C286.818 205.327 283.064 203.021 280.647 199.546C279.226 197.357 278.117 194.981 277.352 192.486C276.423 189.75 275.644 186.944 274.935 184.138C274.895 184.178 274.985 184.168 274.985 184.198Z" fill="#1F1B2D"/>
<path d="M87.8442 392.486H165.589L169.059 324.141H87.8442V392.486Z" fill="#EFECF3"/>
<path d="M87.8477 324.14L59.9197 289.176L37.6944 324.14L41.1637 392.485H87.8477V324.14Z" fill="#D5D2DC"/>
<path d="M141.926 278.074H58.9332L28.9996 326.905H38.6377L58.9332 293.101L82.3402 330.938H175.914L141.926 278.074Z" fill="#BBB7C5"/>
<path d="M132.308 293.524H150.153L159.672 304.93H139.073L132.308 293.524Z" fill="#D5D2DC"/>
<path d="M145.827 302.978V316.866H155.758V302.978L150.792 296.766L145.827 302.978Z" fill="#EFECF3"/>
<path d="M145.824 302.967H138.018L145.824 316.866V302.967Z" fill="#D5D2DC"/>
<path d="M148.223 303.193H153.871V312.723H148.223V303.193Z" fill="white"/>
<path d="M151.354 303.855H153.176V306.924H151.354V303.855Z" fill="#F5F4F8"/>
<path d="M148.925 303.855H150.746V306.924H148.925V303.855Z" fill="#F5F4F8"/>
<path d="M151.354 307.478H153.176V312.02H151.354V307.478Z" fill="#F5F4F8"/>
<path d="M148.925 307.478H150.746V312.02H148.925V307.478Z" fill="#F5F4F8"/>
<path d="M88.6158 293.524H106.461L115.395 304.93H95.4243L88.6158 293.524Z" fill="#D5D2DC"/>
<path d="M102.136 302.978V316.866H112.066V302.978L107.101 296.766L102.136 302.978Z" fill="#EFECF3"/>
<path d="M102.137 302.967H94.3199L102.137 316.866V302.967Z" fill="#D5D2DC"/>
<path d="M104.531 303.193H110.18V312.723H104.531V303.193Z" fill="white"/>
<path d="M107.663 303.855H109.484V306.924H107.663V303.855Z" fill="#F5F4F8"/>
<path d="M105.225 303.855H107.047V306.924H105.225V303.855Z" fill="#F5F4F8"/>
<path d="M107.663 307.478H109.484V312.02H107.663V307.478Z" fill="#F5F4F8"/>
<path d="M105.225 307.478H107.047V312.02H105.225V307.478Z" fill="#F5F4F8"/>
<path d="M73.8191 276.102H83.75V289.177H73.8191V276.102Z" fill="#EFECF3"/>
<path d="M73.8164 276.102H66.0104V278.205L73.8164 289.177V276.102Z" fill="#D5D2DC"/>
<path d="M73.8196 271.656H84.8672V276.101H73.8196V271.656Z" fill="#D5D2DC"/>
<path d="M65.1539 271.656H73.8164V276.101H65.1539V271.656Z" fill="#BBB7C5"/>
<path d="M145.077 336.533H157.371V357.295H145.077V336.533Z" fill="#F9F8FA"/>
<path d="M151.898 337.975H155.855V344.664H151.898V337.975Z" fill="#F5F4F8"/>
<path d="M146.594 337.975H150.551V344.664H146.594V337.975Z" fill="#F5F4F8"/>
<path d="M151.898 345.867H155.855V355.776H151.898V345.867Z" fill="#F5F4F8"/>
<path d="M146.594 345.867H150.551V355.776H146.594V345.867Z" fill="#F5F4F8"/>
<path d="M99.4166 336.533H111.711V357.295H99.4166V336.533Z" fill="white"/>
<path d="M106.234 337.975H110.191V344.664H106.234V337.975Z" fill="#F5F4F8"/>
<path d="M100.933 337.975H104.891V344.664H100.933V337.975Z" fill="#F5F4F8"/>
<path d="M106.234 345.867H110.191V355.776H106.234V345.867Z" fill="#F5F4F8"/>
<path d="M100.933 345.867H104.891V355.776H100.933V345.867Z" fill="#F5F4F8"/>
<path d="M145.077 365.381H157.371V386.143H145.077V365.381Z" fill="#F9F8FA"/>
<path d="M151.898 366.824H155.855V373.513H151.898V366.824Z" fill="#F5F4F8"/>
<path d="M146.594 366.824H150.551V373.513H146.594V366.824Z" fill="#F5F4F8"/>
<path d="M151.898 374.716H155.855V384.625H151.898V374.716Z" fill="#F5F4F8"/>
<path d="M146.594 374.716H150.551V384.625H146.594V374.716Z" fill="#F5F4F8"/>
<path d="M99.4166 365.381H111.711V386.143H99.4166V365.381Z" fill="white"/>
<path d="M106.234 366.824H110.191V373.513H106.234V366.824Z" fill="#F5F4F8"/>
<path d="M100.933 366.824H104.891V373.513H100.933V366.824Z" fill="#F5F4F8"/>
<path d="M106.234 374.716H110.191V384.625H106.234V374.716Z" fill="#F5F4F8"/>
<path d="M100.933 374.716H104.891V384.625H100.933V374.716Z" fill="#F5F4F8"/>
<path d="M122.311 336.533H134.605V357.295H122.311V336.533Z" fill="#F9F8FA"/>
<path d="M129.133 337.975H133.09V344.664H129.133V337.975Z" fill="#F5F4F8"/>
<path d="M123.816 337.975H127.773V344.664H123.816V337.975Z" fill="#F5F4F8"/>
<path d="M129.133 345.867H133.09V355.776H129.133V345.867Z" fill="#F5F4F8"/>
<path d="M123.816 345.867H127.773V355.776H123.816V345.867Z" fill="#F5F4F8"/>
<path d="M122.307 365.523H134.602V386.285H122.307V365.523Z" fill="#F9F8FA"/>
<path d="M129.133 366.953H133.09V373.642H129.133V366.953Z" fill="#F5F4F8"/>
<path d="M123.816 366.953H127.773V373.642H123.816V366.953Z" fill="#F5F4F8"/>
<path d="M129.133 374.857H133.09V384.767H129.133V374.857Z" fill="#F5F4F8"/>
<path d="M123.816 374.857H127.773V384.767H123.816V374.857Z" fill="#F5F4F8"/>
<path d="M65.7513 357.294H53.457V336.532H65.7513V357.294Z" fill="white"/>
<path d="M54.9725 337.975H58.9297V344.664H54.9725V337.975Z" fill="#F5F4F8"/>
<path d="M60.285 337.975H64.2422V344.664H60.285V337.975Z" fill="#F5F4F8"/>
<path d="M54.9725 345.867H58.9297V355.776H54.9725V345.867Z" fill="#F5F4F8"/>
<path d="M60.285 345.867H64.2422V355.776H60.285V345.867Z" fill="#F5F4F8"/>
<path d="M65.7513 325.204H53.457V307.63H65.7513V325.204Z" fill="white"/>
<path d="M54.9725 309.061H58.9297V315.75H54.9725V309.061Z" fill="#F5F4F8"/>
<path d="M60.285 309.061H64.2422V315.75H60.285V309.061Z" fill="#F5F4F8"/>
<path d="M54.9725 317.029H58.9297V323.719H54.9725V317.029Z" fill="#F5F4F8"/>
<path d="M60.285 317.029H64.2422V323.719H60.285V317.029Z" fill="#F5F4F8"/>
<path d="M67.4969 392.612L52.5898 392.683L52.4623 365.611L67.3693 365.541L67.4969 392.612Z" fill="white"/>
<path d="M61.5473 367.416L61.5664 371.471L58.3573 371.486L58.3382 367.431L61.5473 367.416Z" fill="#F5F4F8"/>
<path d="M65.7387 367.394L65.7578 371.449L62.5487 371.464L62.5296 367.41L65.7387 367.394Z" fill="#F5F4F8"/>
<path d="M63.4048 386.193L56.6289 386.225L56.6243 385.249L63.4002 385.217L63.4048 386.193Z" fill="#F5F4F8"/>
<path d="M59.5352 365.35V369.404H56.326V365.35H59.5352Z" fill="#F5F4F8"/>
<path d="M61.5551 372.536L61.5742 376.591L58.3652 376.606L58.346 372.551L61.5551 372.536Z" fill="#F5F4F8"/>
<path d="M65.7817 372.504L65.8008 376.559L62.5917 376.574L62.5726 372.519L65.7817 372.504Z" fill="#F5F4F8"/>
<path d="M57.352 372.559L57.3711 376.613L54.162 376.628L54.1429 372.574L57.352 372.559Z" fill="#F5F4F8"/>
<path d="M61.5785 377.666L61.5977 381.721L58.3886 381.736L58.3694 377.681L61.5785 377.666Z" fill="#F5F4F8"/>
<path d="M65.7934 377.645L65.8125 381.7L62.6034 381.715L62.5843 377.661L65.7934 377.645Z" fill="#F5F4F8"/>
<path d="M57.3754 377.687L57.3945 381.742L54.1855 381.757L54.1664 377.703L57.3754 377.687Z" fill="#F5F4F8"/>
<path d="M301.814 392.67H370.875L373.965 359.202H301.814V392.67Z" fill="#EFECF3"/>
<path d="M301.836 359.158L277.03 328.107L257.277 359.158L260.367 392.626H301.836V359.158Z" fill="#D5D2DC"/>
<path d="M350.267 318.285H275.254L247.466 365.24H255.045L276.273 329.897L296.666 365.24H379.777L350.267 318.285Z" fill="#BBB7C5"/>
<path d="M352.49 371.626H363.418V387.238H352.49V371.626Z" fill="white"/>
<path d="M358.562 372.905H362.074V378.846H358.562V372.905Z" fill="#EFECF3"/>
<path d="M353.847 372.905H357.359V378.846H353.847V372.905Z" fill="#EFECF3"/>
<path d="M358.562 379.975H362.074V385.916H358.562V379.975Z" fill="#EFECF3"/>
<path d="M353.847 379.975H357.359V385.916H353.847V379.975Z" fill="#EFECF3"/>
<path d="M312.349 371.626H323.277V387.238H312.349V371.626Z" fill="white"/>
<path d="M318.425 372.905H321.938V378.846H318.425V372.905Z" fill="#EFECF3"/>
<path d="M313.706 372.905H317.219V378.846H313.706V372.905Z" fill="#EFECF3"/>
<path d="M318.425 379.975H321.938V385.916H318.425V379.975Z" fill="#EFECF3"/>
<path d="M313.706 379.975H317.219V385.916H313.706V379.975Z" fill="#EFECF3"/>
<path d="M332.357 370.792H344.402V392.67H332.357V370.792Z" fill="white"/>
<path d="M337.085 372.299H339.676V375.573H337.085V372.299Z" fill="#EFECF3"/>
<path d="M333.678 372.299H336.27V375.573H333.678V372.299Z" fill="#EFECF3"/>
<path d="M335.642 386.663H341.117V387.455H335.642V386.663Z" fill="#EFECF3"/>
<path d="M340.491 372.299H343.082V375.573H340.491V372.299Z" fill="#EFECF3"/>
<path d="M337.085 376.441H339.676V379.716H337.085V376.441Z" fill="#EFECF3"/>
<path d="M333.678 376.441H336.27V379.716H333.678V376.441Z" fill="#EFECF3"/>
<path d="M340.491 376.441H343.082V379.716H340.491V376.441Z" fill="#EFECF3"/>
<path d="M337.085 380.582H339.676V383.856H337.085V380.582Z" fill="#EFECF3"/>
<path d="M333.678 380.582H336.27V383.856H333.678V380.582Z" fill="#EFECF3"/>
<path d="M340.491 380.582H343.082V383.856H340.491V380.582Z" fill="#EFECF3"/>
<path d="M334.398 316.41H343.223V328.022H334.398V316.41Z" fill="#EFECF3"/>
<path d="M334.395 316.41H327.456V318.275L334.395 328.022V316.41Z" fill="#D5D2DC"/>
<path d="M334.395 312.453H344.207V316.4H334.395V312.453Z" fill="#D5D2DC"/>
<path d="M326.697 312.453H334.395V316.4H326.697V312.453Z" fill="#BBB7C5"/>
<path d="M274.52 392.683H252.121L249.985 369.602H274.52V392.683Z" fill="#D5D2DC"/>
<path d="M274.513 369.6L285.582 364.602L285.333 392.681H274.513V369.6Z" fill="#EFECF3"/>
<path d="M257.368 375.572H266.789V392.67H257.368V375.572Z" fill="#F9F8FA"/>
<path d="M261.063 376.744H263.09V379.303H261.063V376.744Z" fill="#EFECF3"/>
<path d="M258.406 376.744H260.434V379.303H258.406V376.744Z" fill="#EFECF3"/>
<path d="M259.932 386.826H264.215V387.444H259.932V386.826Z" fill="#EFECF3"/>
<path d="M263.719 376.744H265.746V379.303H263.719V376.744Z" fill="#EFECF3"/>
<path d="M287.277 363.451H254.731L244.215 371.452H275.46L287.277 363.451Z" fill="#9691A4"/>
<path d="M275.46 371.452H287.277V363.451L275.46 371.452Z" fill="#D5D2DC"/>
<path d="M282.457 351.753C282.457 352.858 282.129 353.938 281.515 354.856C280.901 355.775 280.029 356.491 279.008 356.913C277.987 357.335 276.864 357.445 275.78 357.229C274.697 357.012 273.702 356.48 272.922 355.698C272.141 354.916 271.61 353.92 271.396 352.836C271.182 351.752 271.294 350.629 271.718 349.609C272.143 348.589 272.86 347.718 273.78 347.106C274.699 346.493 275.78 346.168 276.884 346.17C278.363 346.173 279.781 346.762 280.826 347.809C281.87 348.856 282.457 350.274 282.457 351.753Z" fill="#F9F8FA"/>
<path d="M281.203 351.754C281.203 352.904 280.746 354.007 279.933 354.82C279.12 355.633 278.017 356.09 276.866 356.09C276.5 356.093 276.136 356.045 275.782 355.949C274.772 355.675 273.896 355.045 273.314 354.175C272.732 353.306 272.484 352.255 272.616 351.217C272.749 350.179 273.251 349.223 274.033 348.527C274.814 347.831 275.82 347.44 276.866 347.428C277.233 347.426 277.597 347.474 277.951 347.569C278.455 347.691 278.93 347.912 279.349 348.219C279.919 348.617 280.384 349.145 280.707 349.76C281.03 350.375 281.2 351.059 281.203 351.754Z" fill="#D5D2DC"/>
<path d="M277.481 356.85H276.277V346.572H277.481V356.85Z" fill="#F9F8FA"/>
<path d="M271.73 352.307V351.104H282.008V352.307H271.73Z" fill="#F9F8FA"/>
<path d="M242.599 392.681H277.498L279.883 366.867H242.599V392.681Z" fill="#EFECF3"/>
<path d="M242.598 366.867L223.462 342.907L208.23 366.867L210.604 392.681H242.598V366.867Z" fill="#BBB7C5"/>
<path d="M240.288 370.023H287.645L258.838 333.801H223.267L201.887 370.023H207.319L223.267 345.206L240.288 370.023Z" fill="#9691A4"/>
<path d="M192.501 301.764H202.367V314.752H192.501V301.764Z" fill="#D5D2DC"/>
<path d="M184.737 301.764H192.5V314.752H184.737V301.764Z" fill="#9691A4"/>
<path d="M192.501 297.34H203.473V301.752H192.501V297.34Z" fill="#9691A4"/>
<path d="M183.892 297.34H192.5V301.752H183.892V297.34Z" fill="#666276"/>
<path d="M157.826 392.649H235.073L238.531 355.213H157.826V392.649Z" fill="#D5D2DC"/>
<path d="M157.832 355.212L130.088 320.465L107.993 355.212L111.452 392.648H157.832V355.212Z" fill="#BBB7C5"/>
<path d="M130.422 322.666L107.611 357.945H99.6426L129.739 309.439H211.907L253.539 361.967H153.178L130.422 322.666Z" fill="#666276"/>
<path d="M137.297 360.47H125.078V343.004H137.297V360.47Z" fill="white"/>
<path d="M126.58 344.425H130.516V351.071H126.58V344.425Z" fill="#FDBC31"/>
<path d="M131.854 344.425H135.789V351.071H131.854V344.425Z" fill="#FDBC31"/>
<path d="M126.58 352.339H130.516V358.985H126.58V352.339Z" fill="#FDBC31"/>
<path d="M131.854 352.339H135.789V358.985H131.854V352.339Z" fill="#FDBC31"/>
<path d="M214.516 369.101H226.734V386.566H214.516V369.101Z" fill="white"/>
<path d="M221.291 370.531H225.227V377.177H221.291V370.531Z" fill="#FDBC31"/>
<path d="M216.018 370.531H219.953V377.177H216.018V370.531Z" fill="#FDBC31"/>
<path d="M221.291 378.446H225.227V385.092H221.291V378.446Z" fill="#FDBC31"/>
<path d="M216.018 378.446H219.953V385.092H216.018V378.446Z" fill="#FDBC31"/>
<path d="M192.067 369.101H204.285V386.566H192.067V369.101Z" fill="white"/>
<path d="M198.854 370.531H202.789V377.177H198.854V370.531Z" fill="#FDBC31"/>
<path d="M193.576 370.531H197.512V377.177H193.576V370.531Z" fill="#FDBC31"/>
<path d="M198.854 378.446H202.789V385.092H198.854V378.446Z" fill="#FDBC31"/>
<path d="M193.576 378.446H197.512V385.092H193.576V378.446Z" fill="#FDBC31"/>
<path d="M169.621 369.101H181.84V386.566H169.621V369.101Z" fill="white"/>
<path d="M176.4 370.531H180.336V377.177H176.4V370.531Z" fill="#FDBC31"/>
<path d="M171.131 370.531H175.066V377.177H171.131V370.531Z" fill="#FDBC31"/>
<path d="M176.4 378.446H180.336V385.092H176.4V378.446Z" fill="#FDBC31"/>
<path d="M171.131 378.446H175.066V385.092H171.131V378.446Z" fill="#FDBC31"/>
<path d="M137.925 392.638H124.449V368.168H137.925V392.638Z" fill="white"/>
<path d="M129.727 369.859H132.633V373.524H129.727V369.859Z" fill="#FDBC31"/>
<path d="M133.528 369.859H136.434V373.524H133.528V369.859Z" fill="#FDBC31"/>
<path d="M134.247 386.814H128.121V385.925H134.247V386.814Z" fill="#FDBC31"/>
<path d="M125.93 369.859H128.836V373.524H125.93V369.859Z" fill="#FDBC31"/>
<path d="M129.727 374.489H132.633V378.154H129.727V374.489Z" fill="#FDBC31"/>
<path d="M133.528 374.489H136.434V378.154H133.528V374.489Z" fill="#FDBC31"/>
<path d="M125.93 374.489H128.836V378.154H125.93V374.489Z" fill="#FDBC31"/>
<path d="M129.727 379.118H132.633V382.783H129.727V379.118Z" fill="#FDBC31"/>
<path d="M133.528 379.119H136.434V382.784H133.528V379.119Z" fill="#FDBC31"/>
<path d="M125.93 379.119H128.836V382.784H125.93V379.119Z" fill="#FDBC31"/>
<path d="M180.099 322.015H197.835L206.953 333.398H186.874L180.099 322.015Z" fill="#9691A4"/>
<path d="M193.533 331.405V345.207H203.41V331.405L198.466 325.236L193.533 331.405Z" fill="#D5D2DC"/>
<path d="M193.531 331.404H185.769L193.531 345.206V331.404Z" fill="#BBB7C5"/>
<path d="M195.926 331.621H201.531V341.086H195.926V331.621Z" fill="white"/>
<path d="M199.025 332.271H200.836V335.318H199.025V332.271Z" fill="#FDBC31"/>
<path d="M196.607 332.271H198.418V335.318H196.607V332.271Z" fill="#FDBC31"/>
<path d="M199.025 335.883H200.836V340.404H199.025V335.883Z" fill="#FDBC31"/>
<path d="M196.607 335.883H198.418V340.404H196.607V335.883Z" fill="#FDBC31"/>
<path d="M79.3084 181.346C74.8612 185.127 71.5526 190.071 69.7518 195.624C67.9511 201.177 67.7292 207.121 69.1109 212.793C70.4926 218.465 73.4236 223.641 77.5765 227.743C81.7294 231.846 86.9409 234.714 92.6291 236.026L99.619 250.336L106.399 236.126C111.469 235.04 116.188 232.706 120.129 229.336C123.28 226.655 125.872 223.38 127.758 219.697C129.643 216.014 130.784 211.996 131.117 207.872C131.788 199.544 129.123 191.289 123.709 184.926C118.294 178.562 110.574 174.609 102.245 173.938C93.9165 173.267 85.6624 175.931 79.2984 181.346H79.3084Z" fill="white"/>
<path d="M79.3085 181.346C74.8621 185.129 71.548 190.067 69.7324 195.615C69.2776 196.995 68.9107 198.403 68.634 199.829C68.3949 201.263 68.2448 202.71 68.1846 204.163C68.0487 207.075 68.321 209.993 68.9934 212.83C69.6544 215.674 70.7063 218.413 72.1189 220.968C72.8333 222.242 73.6375 223.463 74.5254 224.623C75.3831 225.806 76.3312 226.921 77.3613 227.958C81.5254 232.152 86.7791 235.099 92.5293 236.466L92.2197 236.226L99.1297 250.575L99.629 251.624L100.128 250.575L106.958 236.396L106.539 236.725C112.489 235.436 117.946 232.468 122.263 228.175C126.58 223.882 129.577 218.441 130.899 212.498C132.222 206.555 131.814 200.357 129.725 194.639C127.636 188.92 123.953 183.919 119.111 180.227C115.27 177.349 110.835 175.363 106.13 174.416C101.426 173.464 96.5676 173.593 91.9212 174.793C87.2749 175.994 82.962 178.234 79.3085 181.346ZM79.3085 181.346C82.9372 178.248 87.2288 176.025 91.8525 174.847C96.4761 173.67 101.308 173.57 105.977 174.555C110.645 175.54 115.025 177.584 118.779 180.529C122.533 183.474 125.56 187.241 127.628 191.541C129.69 195.792 130.756 200.457 130.744 205.181C130.686 209.883 129.609 214.516 127.588 218.762C125.54 222.986 122.559 226.69 118.871 229.596C115.176 232.487 110.88 234.514 106.299 235.527L106 235.597L105.88 235.867L99.1397 250.096H100.138L93.0385 235.837L92.9487 235.637H92.739C87.0941 234.401 81.9065 231.614 77.7607 227.589C76.7309 226.584 75.7796 225.503 74.9149 224.353C74.0212 223.225 73.2103 222.034 72.4884 220.789C71.0407 218.291 69.9516 215.602 69.2531 212.8C68.529 209.998 68.2195 207.105 68.3344 204.213C68.3862 202.768 68.5228 201.328 68.7438 199.899C69.0139 198.477 69.3707 197.073 69.8122 195.695C71.5915 190.127 74.8784 185.16 79.3085 181.346Z" fill="#454056"/>
<path d="M108.376 197.343C108.027 196.987 107.638 196.672 107.217 196.404C106.66 196.043 106.076 195.726 105.47 195.455C104.003 194.79 102.432 194.385 100.827 194.257V203.244L101.655 203.414C103.086 203.755 104.496 204.175 105.879 204.672C107.019 205.073 108.093 205.641 109.065 206.36C109.91 207.01 110.594 207.848 111.062 208.806C111.562 209.916 111.805 211.124 111.771 212.341C111.811 213.692 111.53 215.033 110.952 216.255C110.418 217.327 109.638 218.258 108.675 218.971C107.656 219.714 106.509 220.263 105.29 220.589C103.943 220.96 102.554 221.158 101.156 221.178V225.731H98.9095V221.088C96.8642 220.965 94.8469 220.551 92.9181 219.86C91.0601 219.192 89.3207 218.231 87.7656 217.014L89.9724 212.86C90.3901 213.289 90.8558 213.667 91.3604 213.988C92.0366 214.429 92.7441 214.82 93.4773 215.157C94.3402 215.555 95.2314 215.889 96.1435 216.155C97.1224 216.445 98.1248 216.649 99.1391 216.764V207.778C98.9694 207.728 98.7796 207.668 98.5999 207.628C98.4171 207.59 98.237 207.54 98.0607 207.478C96.7062 207.128 95.3727 206.701 94.0665 206.2C93.0382 205.817 92.08 205.267 91.2306 204.572C90.4995 203.969 89.9155 203.208 89.5231 202.345C89.1022 201.366 88.9011 200.306 88.9339 199.24C88.9064 197.947 89.1585 196.662 89.6729 195.475C90.1526 194.391 90.8611 193.424 91.7499 192.64C92.6684 191.826 93.7321 191.192 94.8853 190.772C96.1701 190.304 97.515 190.022 98.8795 189.933V185.55H101.126V189.933C102.91 190.024 104.667 190.405 106.329 191.062C107.821 191.644 109.233 192.412 110.533 193.348L108.376 197.343ZM94.0765 198.461C94.041 198.988 94.1397 199.515 94.3632 199.994C94.5867 200.472 94.9278 200.886 95.3546 201.197C96.5457 201.946 97.856 202.487 99.229 202.795V194.257C97.8259 194.223 96.4515 194.659 95.3247 195.495C94.9093 195.866 94.5817 196.324 94.3658 196.837C94.1499 197.35 94.051 197.905 94.0765 198.461ZM106.628 212.85C106.655 212.279 106.528 211.711 106.261 211.205C105.994 210.7 105.597 210.275 105.11 209.974C103.785 209.186 102.352 208.594 100.857 208.217V216.794C102.347 216.867 103.827 216.521 105.13 215.796C105.617 215.48 106.011 215.041 106.274 214.524C106.537 214.007 106.659 213.429 106.628 212.85Z" fill="#FDBC31"/>
</svg>
