<svg width="144" height="56" viewBox="0 0 144 56" fill="none" xmlns="http://www.w3.org/2000/svg">
<path d="M47.7703 5.90625H55.3807V7.18482H52.3842V14.3923H50.7418V7.18482H47.7578L47.7703 5.90625ZM55.0547 8.24841H56.4589V9.43646H56.484C56.5342 9.26674 56.6219 9.10833 56.7473 8.94993C56.8727 8.79152 57.0231 8.64443 57.2112 8.51996C57.3867 8.38419 57.5873 8.28235 57.813 8.20315C58.0261 8.12395 58.2518 8.07869 58.4775 8.07869C58.653 8.07869 58.7784 8.09 58.8411 8.09C58.9038 8.10132 58.979 8.11263 59.0417 8.11263V9.41383C58.9414 9.3912 58.8285 9.37989 58.7157 9.36857C58.6029 9.35726 58.5026 9.34594 58.3897 9.34594C58.139 9.34594 57.9008 9.3912 57.6751 9.48172C57.4494 9.57224 57.2613 9.70801 57.0858 9.87774C56.9228 10.0588 56.7849 10.2738 56.6846 10.534C56.5843 10.7942 56.5342 11.0997 56.5342 11.4392V14.3584H55.0296L55.0547 8.24841ZM65.9374 14.3923H64.4579V13.5324H64.4329C64.2448 13.8492 63.969 14.0868 63.6054 14.2792C63.2418 14.4715 62.8657 14.5621 62.4895 14.5621C61.5994 14.5621 60.9474 14.3697 60.5462 13.9624C60.145 13.5664 59.9444 12.9554 59.9444 12.152V8.24841H61.4489V12.0162C61.4489 12.5593 61.5618 12.944 61.8 13.159C62.0256 13.3853 62.3516 13.4985 62.7654 13.4985C63.0788 13.4985 63.3421 13.4532 63.5552 13.3627C63.7684 13.2722 63.9439 13.159 64.0693 13.0119C64.2072 12.8648 64.295 12.6838 64.3576 12.4801C64.4203 12.2765 64.4454 12.0502 64.4454 11.8126V8.24841H65.9499V14.3923H65.9374ZM68.4951 12.4236C68.5452 12.8196 68.7082 13.0911 68.9966 13.2609C69.2849 13.4193 69.636 13.4985 70.0372 13.4985C70.1751 13.4985 70.3381 13.4872 70.5136 13.4645C70.6892 13.4419 70.8647 13.408 71.0151 13.3514C71.1781 13.2948 71.3035 13.2156 71.4038 13.1025C71.5041 12.9893 71.5543 12.8535 71.5417 12.6838C71.5292 12.5141 71.4665 12.367 71.3286 12.2538C71.1907 12.1407 71.0277 12.0615 70.8271 11.9823C70.6265 11.9144 70.3883 11.8578 70.125 11.8126C69.8617 11.7673 69.5984 11.7107 69.3226 11.6542C69.0467 11.5976 68.7709 11.5297 68.5076 11.4505C68.2443 11.3713 68.0186 11.2695 67.8055 11.1224C67.6049 10.9866 67.4294 10.8169 67.3165 10.6019C67.1912 10.3869 67.1285 10.138 67.1285 9.82116C67.1285 9.48172 67.2162 9.21017 67.4043 8.98387C67.5798 8.75757 67.818 8.57654 68.0939 8.44076C68.3697 8.30498 68.6831 8.20315 69.0217 8.14658C69.3602 8.09 69.6861 8.06737 69.987 8.06737C70.3381 8.06737 70.6766 8.10132 70.9901 8.16921C71.3035 8.2371 71.6044 8.33893 71.8552 8.49733C72.1184 8.64443 72.3316 8.84809 72.4946 9.0857C72.6701 9.32331 72.7704 9.6175 72.8206 9.95694H71.2533C71.1781 9.62881 71.0151 9.41383 70.7644 9.30069C70.5011 9.18754 70.2127 9.13096 69.8742 9.13096C69.7739 9.13096 69.636 9.14228 69.4981 9.15359C69.3476 9.17622 69.2223 9.19885 69.0843 9.24411C68.959 9.28937 68.8461 9.35726 68.7584 9.43646C68.6706 9.51566 68.6204 9.62881 68.6204 9.76459C68.6204 9.93431 68.6831 10.0588 68.8085 10.1606C68.9339 10.2624 69.0969 10.3416 69.31 10.4208C69.5106 10.4887 69.7488 10.5453 70.0121 10.5906C70.2754 10.6358 70.5512 10.6924 70.8271 10.749C71.1029 10.8056 71.3662 10.8734 71.6295 10.9526C71.8928 11.0318 72.131 11.1337 72.3316 11.2808C72.5322 11.4166 72.7077 11.5863 72.8331 11.7899C72.9585 11.9936 73.0212 12.2538 73.0212 12.548C73.0212 12.9101 72.9334 13.2156 72.7453 13.4758C72.5573 13.7248 72.319 13.9397 72.0307 14.0982C71.7423 14.2566 71.4038 14.3697 71.0527 14.4489C70.6892 14.5168 70.3381 14.5621 69.987 14.5621C69.5608 14.5621 69.1596 14.5168 68.796 14.4263C68.4324 14.3358 68.1064 14.2 67.8431 14.0303C67.5798 13.8492 67.3667 13.6342 67.2162 13.3627C67.0658 13.1025 66.978 12.7856 66.9655 12.4123H68.4825V12.4236H68.4951ZM73.4474 8.24841H74.5884V6.39278H76.0929V8.23709H77.4469V9.24411H76.0929V12.5254C76.0929 12.6725 76.1054 12.7856 76.118 12.8988C76.1305 13.0006 76.1681 13.0911 76.2057 13.159C76.2559 13.2269 76.3311 13.2835 76.4189 13.3174C76.5192 13.3514 76.6445 13.374 76.8201 13.374C76.9204 13.374 77.0332 13.374 77.1335 13.3627C77.2338 13.3514 77.3466 13.3401 77.4469 13.3174V14.3697C77.284 14.3923 77.121 14.4037 76.958 14.415C76.795 14.4376 76.6445 14.4376 76.469 14.4376C76.0678 14.4376 75.7544 14.4037 75.5161 14.3358C75.2779 14.2679 75.0899 14.166 74.952 14.0416C74.814 13.9058 74.7263 13.7474 74.6761 13.555C74.626 13.3627 74.6009 13.1251 74.5884 12.8762V9.25542H73.4474V8.22578V8.24841ZM78.5001 8.24841H79.9169V9.0857H79.9419C80.1551 8.72363 80.4434 8.4747 80.8196 8.3163C81.1957 8.15789 81.5969 8.07869 82.0483 8.07869C82.5874 8.07869 83.0513 8.15789 83.4525 8.33893C83.8537 8.50865 84.1797 8.73494 84.4429 9.04044C84.7062 9.33463 84.9068 9.68539 85.0322 10.0814C85.1576 10.4774 85.2328 10.9074 85.2328 11.3487C85.2328 11.7673 85.1701 12.1633 85.0573 12.548C84.9319 12.9327 84.7564 13.2835 84.5182 13.5777C84.28 13.8719 83.9791 14.1095 83.6029 14.2905C83.2268 14.4715 82.8005 14.5621 82.299 14.5621C82.0859 14.5621 81.8602 14.5394 81.6471 14.5055C81.4339 14.4715 81.2208 14.415 81.0202 14.3358C80.8196 14.2566 80.6315 14.1547 80.4685 14.0303C80.293 13.9058 80.1551 13.7587 80.0422 13.6003H80.0172V16.6666H78.5126V8.24841H78.5001ZM83.7534 11.326C83.7534 11.0545 83.7158 10.7829 83.628 10.5227C83.5528 10.2624 83.4274 10.0361 83.2644 9.83248C83.1014 9.62881 82.9008 9.47041 82.6751 9.34594C82.4369 9.22148 82.1611 9.16491 81.8602 9.16491C81.2333 9.16491 80.7569 9.35726 80.4309 9.75328C80.1175 10.1493 79.9545 10.6811 79.9545 11.3373C79.9545 11.6542 79.9921 11.937 80.0798 12.1973C80.1676 12.4575 80.2804 12.6838 80.456 12.8762C80.619 13.0685 80.8196 13.2156 81.0578 13.3287C81.296 13.4419 81.5593 13.4985 81.8727 13.4985C82.2238 13.4985 82.4996 13.4306 82.7378 13.3061C82.976 13.1817 83.1641 13.0119 83.3271 12.8196C83.4775 12.6159 83.5904 12.3896 83.6531 12.1294C83.7158 11.8578 83.7534 11.5976 83.7534 11.326ZM86.3988 5.90625H87.9033V7.18482H86.3988V5.90625ZM86.3988 8.24841H87.9033V14.3923H86.3988V8.24841ZM89.2449 5.90625H90.7494V14.3923H89.2449V5.90625ZM95.3382 14.5621C94.799 14.5621 94.3101 14.4829 93.8838 14.3131C93.4575 14.1434 93.1065 13.9284 92.8056 13.6456C92.5172 13.3627 92.2915 13.0119 92.1411 12.6159C91.9906 12.2199 91.9028 11.7786 91.9028 11.3147C91.9028 10.8508 91.9781 10.4208 92.1411 10.0248C92.2915 9.62881 92.5172 9.28937 92.8056 8.99518C93.0939 8.71232 93.4575 8.48602 93.8838 8.32761C94.3101 8.16921 94.799 8.07869 95.3382 8.07869C95.8773 8.07869 96.3662 8.15789 96.7925 8.32761C97.2188 8.48602 97.5699 8.71232 97.8708 8.99518C98.1591 9.27805 98.3848 9.62881 98.5353 10.0248C98.6857 10.4208 98.7735 10.8508 98.7735 11.3147C98.7735 11.7899 98.6982 12.2199 98.5353 12.6159C98.3723 13.0119 98.1591 13.3514 97.8708 13.6456C97.5824 13.9284 97.2188 14.1547 96.7925 14.3131C96.3662 14.4715 95.8898 14.5621 95.3382 14.5621ZM95.3382 13.4872C95.6641 13.4872 95.965 13.4193 96.2033 13.2948C96.454 13.1703 96.6421 13.0006 96.8051 12.797C96.968 12.5933 97.0809 12.3557 97.1561 12.1068C97.2313 11.8465 97.269 11.5863 97.269 11.3147C97.269 11.0545 97.2313 10.7942 97.1561 10.534C97.0809 10.2738 96.968 10.0475 96.8051 9.84379C96.6421 9.64013 96.4415 9.48172 96.2033 9.35726C95.9525 9.2328 95.6641 9.16491 95.3382 9.16491C95.0122 9.16491 94.7113 9.2328 94.4731 9.35726C94.2223 9.48172 94.0342 9.65144 93.8713 9.84379C93.7083 10.0475 93.5954 10.2738 93.5202 10.534C93.445 10.7942 93.4074 11.0545 93.4074 11.3147C93.4074 11.5863 93.445 11.8465 93.5202 12.1068C93.5954 12.367 93.7083 12.5933 93.8713 12.797C94.0342 13.0006 94.2348 13.1703 94.4731 13.2948C94.7238 13.4306 95.0122 13.4872 95.3382 13.4872ZM99.2248 8.24841H100.366V6.39278H101.87V8.23709H103.224V9.24411H101.87V12.5254C101.87 12.6725 101.883 12.7856 101.895 12.8988C101.908 13.0006 101.945 13.0911 101.983 13.159C102.033 13.2269 102.108 13.2835 102.196 13.3174C102.297 13.3514 102.422 13.374 102.597 13.374C102.698 13.374 102.811 13.374 102.911 13.3627C103.011 13.3514 103.124 13.3401 103.224 13.3174V14.3697C103.061 14.3923 102.898 14.4037 102.735 14.415C102.572 14.4376 102.422 14.4376 102.246 14.4376C101.845 14.4376 101.532 14.4037 101.294 14.3358C101.055 14.2679 100.867 14.166 100.729 14.0416C100.591 13.9058 100.504 13.7474 100.454 13.555C100.403 13.3627 100.378 13.1251 100.366 12.8762V9.25542H99.2248V8.22578V8.24841Z" fill="black"/>
<path d="M46.0166 5.90632H39.1334L37.0146 0L34.8832 5.90632L28 5.895L33.5667 9.54968L31.4353 15.456L37.002 11.8013L42.5687 15.456L40.4499 9.54968L46.0166 5.90632Z" fill="#00B67A"/>
<path d="M40.9274 10.884L40.4509 9.54883L37.0156 11.8005L40.9274 10.884Z" fill="#005128"/>
<g clip-path="url(#clip0_6262_33598)">
<path d="M0 28.0078H27V55.9929H0V28.0078ZM29.25 28.0078H56.25V55.9929H29.25V28.0078ZM58.5 28.0078H85.5V55.9929H58.5V28.0078ZM87.75 28.0078H114.75V55.9929H87.75V28.0078ZM117 28.0078H144V55.9929H117V28.0078Z" fill="#00B67A"/>
<path d="M13.5008 46.8688L17.607 45.7902L19.3227 51.2706L13.5008 46.8688ZM22.9508 39.785H15.7227L13.5008 32.7305L11.2789 39.785H4.05078L9.90078 44.1577L7.67891 51.2123L13.5289 46.8396L17.1289 44.1577L22.9508 39.785ZM42.7508 46.8688L46.857 45.7902L48.5727 51.2706L42.7508 46.8688ZM52.2008 39.785H44.9727L42.7508 32.7305L40.5289 39.785H33.3008L39.1508 44.1577L36.9289 51.2123L42.7789 46.8396L46.3789 44.1577L52.2008 39.785ZM72.0008 46.8688L76.107 45.7902L77.8227 51.2706L72.0008 46.8688ZM81.4508 39.785H74.2226L72.0008 32.7305L69.7789 39.785H62.5508L68.4008 44.1577L66.1789 51.2123L72.0289 46.8396L75.6289 44.1577L81.4508 39.785ZM101.251 46.8688L105.357 45.7902L107.073 51.2706L101.251 46.8688ZM110.701 39.785H103.473L101.251 32.7305L99.0289 39.785H91.8008L97.6508 44.1577L95.4289 51.2123L101.279 46.8396L104.879 44.1577L110.701 39.785ZM130.501 46.8688L134.607 45.7902L136.323 51.2706L130.501 46.8688ZM139.951 39.785H132.723L130.501 32.7305L128.279 39.785H121.051L126.901 44.1577L124.679 51.2123L130.529 46.8396L134.129 44.1577L139.951 39.785Z" fill="white"/>
</g>
<defs>
<clipPath id="clip0_6262_33598">
<rect width="144" height="28" fill="white" transform="translate(0 28)"/>
</clipPath>
</defs>
</svg>
