<svg width="116" height="32" viewBox="0 0 116 32" fill="none" xmlns="http://www.w3.org/2000/svg">
<path d="M42.0128 24.3956C41.8064 24.1892 41.7031 23.9139 41.7031 23.6042V8.2236C41.7031 7.91393 41.8064 7.63866 42.0128 7.3978C42.2193 7.15694 42.4945 7.05371 42.8042 7.05371H52.5763C52.8859 7.05371 53.1268 7.15694 53.3332 7.36339C53.5397 7.56984 53.6429 7.8107 53.6429 8.12038C53.6429 8.43006 53.5397 8.67092 53.3332 8.87737C53.1268 9.08382 52.8859 9.18704 52.5763 9.18704H43.9741V14.7268H51.6816C51.9913 14.7268 52.2322 14.8301 52.4386 15.0365C52.6451 15.243 52.7483 15.4838 52.7483 15.7935C52.7483 16.1032 52.6451 16.344 52.4386 16.5505C52.2322 16.7569 51.9913 16.8602 51.6816 16.8602H43.9741V23.5698C43.9741 23.8795 43.8709 24.1548 43.63 24.3612C43.3891 24.5677 43.1483 24.6709 42.8042 24.6709C42.4601 24.6709 42.2193 24.6021 42.0128 24.3956Z" fill="#1F1B2D"/>
<path d="M56.3614 8.80905C56.1205 8.56819 55.9829 8.25852 55.9829 7.91443V7.8112C55.9829 7.46712 56.1205 7.15744 56.3614 6.91658C56.6023 6.67572 56.9119 6.53809 57.256 6.53809H57.3937C57.7377 6.53809 58.0474 6.67572 58.2883 6.91658C58.5291 7.15744 58.6668 7.46712 58.6668 7.8112V7.91443C58.6668 8.25852 58.5291 8.56819 58.2883 8.80905C58.0474 9.04991 57.7377 9.18755 57.3937 9.18755H57.256C56.9119 9.18755 56.6367 9.04991 56.3614 8.80905ZM56.5334 24.3962C56.327 24.1897 56.2238 23.9144 56.2238 23.6048V12.8349C56.2238 12.5252 56.327 12.2499 56.5334 12.0091C56.7399 11.7682 57.0152 11.665 57.3248 11.665C57.6689 11.665 57.9442 11.7682 58.1507 11.9746C58.3571 12.1811 58.4603 12.4564 58.4603 12.8005V23.5703C58.4603 23.88 58.3571 24.1553 58.1162 24.3617C57.8754 24.5682 57.6345 24.6714 57.2904 24.6714C57.0152 24.7058 56.7399 24.6026 56.5334 24.3962Z" fill="#1F1B2D"/>
<path d="M62.7613 24.3959C62.5549 24.1895 62.4517 23.9142 62.4517 23.6045V12.8346C62.4517 12.525 62.5549 12.2497 62.7613 12.0088C62.9678 11.768 63.2431 11.6648 63.5527 11.6648C63.8624 11.6648 64.1377 11.768 64.3785 12.0088C64.6194 12.2497 64.7226 12.4906 64.7226 12.8346V13.8669C65.342 13.1787 66.0302 12.5938 66.7871 12.1809C67.5097 11.768 68.4043 11.5615 69.4022 11.5615C70.3312 11.5615 71.1226 11.768 71.8108 12.2153C72.499 12.6626 73.0151 13.2475 73.3592 14.0045C73.7033 14.7615 73.9097 15.5873 73.9097 16.482V23.6045C73.9097 23.9142 73.8065 24.1895 73.5656 24.3959C73.3248 24.6024 73.0839 24.7056 72.7398 24.7056C72.4301 24.7056 72.1549 24.6024 71.9484 24.3959C71.742 24.1895 71.6387 23.9142 71.6387 23.6045V16.7228C71.6387 14.6927 70.7097 13.6604 68.8861 13.6604C68.0603 13.6604 67.3033 13.8669 66.6495 14.3142C65.9957 14.7615 65.3764 15.3465 64.7914 16.0691V23.6045C64.7914 23.9142 64.6882 24.1895 64.4474 24.3959C64.2065 24.6024 63.9656 24.7056 63.6215 24.7056C63.2431 24.7056 63.0022 24.6024 62.7613 24.3959Z" fill="#1F1B2D"/>
<path d="M80.0687 24.0516C79.1396 23.5355 78.3827 22.7441 77.7977 21.7463C77.2128 20.7484 76.9375 19.5441 76.9375 18.2022C76.9375 16.8603 77.2128 15.656 77.7977 14.6581C78.3827 13.6603 79.1396 12.8689 80.0687 12.3527C80.9977 11.8366 81.9956 11.5613 83.0278 11.5613C84.6794 11.5613 86.0902 12.1807 87.3289 13.4538V7.29466C87.3289 6.95058 87.4321 6.67531 87.673 6.46886C87.9138 6.26241 88.1547 6.15918 88.4988 6.15918C88.8085 6.15918 89.0837 6.26241 89.2902 6.50327C89.4966 6.74413 89.5999 6.98499 89.5999 7.32907V23.6043C89.5999 23.914 89.4966 24.1893 89.2902 24.3957C89.0837 24.6022 88.8085 24.7054 88.4988 24.7054C88.1891 24.7054 87.9138 24.6022 87.673 24.3957C87.4321 24.1893 87.3289 23.914 87.3289 23.6043V22.9506C86.1246 24.2237 84.6794 24.843 83.0278 24.843C81.9612 24.843 80.9977 24.5678 80.0687 24.0516ZM85.5052 22.1936C86.1934 21.8495 86.7784 21.4022 87.2945 20.8172V15.5527C86.7784 14.9678 86.1934 14.5205 85.5052 14.1764C84.8171 13.8323 84.0945 13.6603 83.3375 13.6603C82.0988 13.6603 81.1009 14.0387 80.3439 14.8301C79.587 15.6215 79.2085 16.7226 79.2085 18.1678C79.2085 19.6129 79.587 20.714 80.3439 21.5054C81.1009 22.2968 82.0988 22.6753 83.3375 22.6753C84.0945 22.7097 84.8171 22.5377 85.5052 22.1936Z" fill="#1F1B2D"/>
<path d="M94.4856 23.0884C93.3501 21.9185 92.7651 20.3013 92.7651 18.2024C92.7651 17.0325 92.9716 15.9314 93.4189 14.9336C93.8662 13.9357 94.52 13.1099 95.4146 12.4906C96.3092 11.8712 97.4447 11.5615 98.7522 11.5615C99.9909 11.5615 101.058 11.8368 101.952 12.4217C102.847 13.0067 103.535 13.7637 104.017 14.7271C104.498 15.6906 104.705 16.7228 104.705 17.8583C104.705 18.168 104.602 18.4432 104.395 18.6497C104.189 18.8561 103.914 18.9594 103.569 18.9594H95.0705C95.2081 20.1293 95.6555 21.0239 96.378 21.6777C97.1006 22.3314 98.1329 22.6411 99.4748 22.6411C100.163 22.6411 100.782 22.5723 101.333 22.4346C101.849 22.297 102.365 22.125 102.881 21.8497C103.019 21.7809 103.157 21.7465 103.329 21.7465C103.604 21.7465 103.845 21.8497 104.017 22.0217C104.223 22.1938 104.326 22.4346 104.326 22.7099C104.326 23.0884 104.12 23.3981 103.673 23.6389C103.019 24.0174 102.365 24.2927 101.746 24.4647C101.126 24.6368 100.301 24.74 99.3028 24.74C97.2038 24.8432 95.621 24.2583 94.4856 23.0884ZM102.468 17.1357C102.434 16.3099 102.193 15.6217 101.815 15.0712C101.436 14.5207 100.989 14.1078 100.438 13.8669C99.8877 13.5916 99.3372 13.4884 98.7522 13.4884C98.1673 13.4884 97.6167 13.626 97.0662 13.8669C96.5157 14.1422 96.0684 14.5207 95.6899 15.0712C95.3114 15.6217 95.1049 16.3099 95.0705 17.1357H102.468Z" fill="#1F1B2D"/>
<path d="M108.077 24.3962C107.871 24.1897 107.768 23.9144 107.768 23.6048V12.8349C107.768 12.5252 107.871 12.2499 108.077 12.0091C108.284 11.7682 108.559 11.665 108.869 11.665C109.178 11.665 109.454 11.7682 109.694 12.0091C109.935 12.2499 110.039 12.4908 110.039 12.8349V13.9015C111.208 12.3187 112.516 11.5273 113.961 11.5273H114.099C114.408 11.5273 114.684 11.6306 114.89 11.837C115.097 12.0435 115.2 12.3187 115.2 12.6284C115.2 12.9381 115.097 13.2134 114.89 13.4198C114.684 13.6263 114.408 13.7295 114.064 13.7295H113.892C113.101 13.7295 112.344 13.9359 111.69 14.3144C111.036 14.6929 110.451 15.2435 110.004 15.9316V23.5704C110.004 23.88 109.901 24.1553 109.66 24.3618C109.419 24.5682 109.178 24.6714 108.834 24.6714C108.559 24.7058 108.284 24.6026 108.077 24.3962Z" fill="#1F1B2D"/>
<path d="M16 32C24.8366 32 32 24.8366 32 16C32 7.16344 24.8366 0 16 0C7.16344 0 0 7.16344 0 16C0 24.8366 7.16344 32 16 32Z" fill="#FD5631"/>
<path opacity="0.55" d="M31.6561 19.3038L21.9873 9.63494C18.8217 6.46934 13.6948 6.46934 10.5292 9.63494L10.4948 9.66934C7.32921 12.8349 7.32921 17.9618 10.4948 21.1274L20.6797 31.3124C26.1851 29.6263 30.4518 25.0156 31.6561 19.3038Z" fill="#BE1E2D"/>
<path d="M26.3915 22.1933L23.2259 19.0277C23.8109 17.8922 24.1894 16.5503 24.1894 15.2083C24.1894 10.7352 20.5765 7.08789 16.0689 7.08789C11.5614 7.08789 7.98291 10.7352 7.98291 15.2427C7.98291 19.7503 11.5958 23.3632 16.1033 23.3632C17.4453 23.3632 18.7872 22.9847 19.9227 22.3997L23.0883 25.5653C24.0517 26.5288 25.4625 26.5288 26.4259 25.5653C27.2517 24.6019 27.2517 23.1567 26.3915 22.1933ZM16.1033 21.4363C12.6625 21.4363 9.90979 18.6836 9.90979 15.2427C9.90979 11.8019 12.6625 9.04918 16.1033 9.04918C19.5442 9.04918 22.2969 11.8019 22.2969 15.2427C22.2969 18.6836 19.5442 21.4363 16.1033 21.4363Z" fill="white"/>
</svg>
