<svg width="344" height="404" viewBox="0 0 344 404" fill="none" xmlns="http://www.w3.org/2000/svg">
<path d="M237.912 86.2278L29.4431 108.152L57.417 373.58L265.886 351.655L237.912 86.2278Z" fill="#EFECF3"/>
<path d="M245.861 91.9087L39.4722 122.832L75.9187 365.575L282.308 334.652L245.861 91.9087Z" fill="#F5F4F8"/>
<path d="M327.041 113.829C327.041 113.829 318.843 108.431 308.912 127.941C298.981 147.451 295.181 158.691 295.181 158.691C295.181 158.691 292.549 162.737 289.738 160.107C286.927 157.478 283.071 149.847 278.292 151.206C273.334 152.622 271.698 158.149 272.621 166.274C273.545 174.398 274.986 192.266 275.108 193.884C275.229 195.502 274.298 197.809 272.111 196.312C269.924 194.815 257.197 180.67 250.846 187.095C244.496 193.52 250.846 215.708 251.503 218.152C252.159 220.596 251.673 221.632 250.506 222.198C249.34 222.765 245.524 217.651 241.749 213.783C237.975 209.914 232.912 206.087 229.558 210.093C226.204 214.098 225.135 230.76 240.996 257.836L249.178 269.918L263.759 269.108C294.93 265.475 307.6 254.591 308.782 249.493C309.965 244.395 303.865 242.679 298.495 241.992C293.124 241.304 286.708 241.369 286.489 240.082C286.271 238.795 286.822 237.784 289.163 236.845C291.504 235.906 313.068 227.596 314.372 218.662C315.676 209.728 296.737 208.142 294.193 207.26C291.65 206.378 292.978 204.282 294.315 203.417C295.651 202.551 310.816 192.897 317.879 188.77C324.943 184.643 328.37 180.006 326.523 175.199C324.733 170.563 316.348 172.06 312.517 171.428C308.685 170.797 310.37 166.233 310.37 166.233C310.37 166.233 317.102 156.442 326.701 136.746C336.3 117.049 326.823 113.74 326.823 113.74" fill="#F5F4F8"/>
<path opacity="0.1" d="M318.099 131.289C318.099 131.289 318.042 131.435 317.913 131.71L317.346 132.932L315.11 137.649C313.166 141.696 310.306 147.562 306.75 154.78C299.638 169.209 289.682 189.043 278.551 210.94C267.421 232.837 257.409 252.695 250.199 267.091L241.71 284.157L239.458 288.794L238.842 290C238.704 290.267 238.623 290.396 238.623 290.396C238.623 290.396 238.68 290.251 238.802 289.975L239.377 288.754L241.612 284.084C243.557 280.038 246.408 274.172 249.964 266.953C257.077 252.517 267.065 232.651 278.171 210.737C289.277 188.824 299.305 168.998 306.523 154.594C310.095 147.4 313.004 141.582 315.004 137.528C316.001 135.529 316.779 133.968 317.321 132.891L317.929 131.694C318.034 131.427 318.099 131.289 318.099 131.289Z" fill="black"/>
<path opacity="0.1" d="M283.253 162.081C283.417 162.394 283.542 162.725 283.626 163.068C283.837 163.707 284.112 164.686 284.436 165.811C285.1 168.142 285.927 171.379 286.777 174.963C287.628 178.548 288.349 181.712 288.924 184.164C289.191 185.265 289.41 186.195 289.588 186.948C289.692 187.283 289.762 187.627 289.799 187.976C289.635 187.662 289.507 187.331 289.418 186.988C289.207 186.349 288.932 185.41 288.608 184.245C287.968 181.907 287.182 178.662 286.332 175.069C285.481 171.476 284.712 168.336 284.12 165.892C283.853 164.792 283.626 163.861 283.44 163.117C283.346 162.778 283.284 162.431 283.253 162.081Z" fill="black"/>
<path opacity="0.1" d="M291.142 188.235C291.142 188.114 297.711 186.115 305.893 183.76C314.075 181.406 320.742 179.609 320.774 179.714C320.806 179.82 314.204 181.843 306.023 184.189C297.841 186.536 291.174 188.357 291.142 188.235Z" fill="black"/>
<path opacity="0.1" d="M272.565 221.102C272.922 221.046 273.283 221.03 273.643 221.054H276.567C279.038 221.054 282.448 221.054 286.207 220.908C289.966 220.762 293.376 220.528 295.831 220.334L298.747 220.107C299.105 220.063 299.466 220.063 299.824 220.107C299.48 220.207 299.128 220.274 298.771 220.309C298.083 220.414 297.094 220.544 295.863 220.682C293.433 220.965 289.998 221.256 286.223 221.394C282.448 221.531 279.038 221.499 276.559 221.394C275.328 221.345 274.331 221.297 273.635 221.24C273.274 221.232 272.916 221.186 272.565 221.102Z" fill="black"/>
<path opacity="0.1" d="M260.225 199.015C260.445 199.263 260.635 199.534 260.792 199.825C261.173 200.448 261.643 201.225 262.202 202.131C263.376 204.089 264.332 207.447 266.706 209.818C268.439 212.837 269.995 215.58 271.096 217.579C271.599 218.509 272.028 219.31 272.384 219.95C272.561 220.233 272.7 220.537 272.798 220.856C272.578 220.609 272.388 220.337 272.23 220.047C271.842 219.426 271.372 218.658 270.821 217.741C269.646 215.79 268.051 213.071 266.317 210.053C264.583 207.035 263.028 204.291 261.926 202.301L260.638 199.962C260.459 199.667 260.32 199.348 260.225 199.015Z" fill="black"/>
<path opacity="0.1" d="M240.14 225.952C240.413 226.278 240.655 226.631 240.861 227.004L242.675 229.949C244.198 232.45 246.264 235.921 248.532 239.765C250.8 243.609 252.817 247.105 254.267 249.638C254.948 250.859 255.523 251.871 255.96 252.664C256.182 253.024 256.372 253.403 256.527 253.797C256.255 253.472 256.014 253.122 255.806 252.753L253.992 249.799C252.469 247.307 250.403 243.835 248.143 239.992C245.883 236.148 243.85 232.652 242.4 230.111C241.719 228.897 241.152 227.878 240.707 227.093C240.485 226.73 240.295 226.348 240.14 225.952Z" fill="black"/>
<path opacity="0.1" d="M256.322 253.02C256.773 252.952 257.228 252.92 257.683 252.922L261.393 252.809C264.52 252.696 268.846 252.534 273.609 252.227C278.372 251.919 282.69 251.531 285.809 251.223L289.503 250.867C289.953 250.8 290.408 250.773 290.863 250.786C290.424 250.901 289.978 250.985 289.527 251.037C288.66 251.175 287.396 251.353 285.841 251.539C282.73 251.927 278.421 252.348 273.641 252.672C268.862 252.995 264.536 253.1 261.393 253.125C259.83 253.125 258.558 253.125 257.683 253.125C257.227 253.134 256.771 253.099 256.322 253.02Z" fill="black"/>
<path d="M14.1933 246.957C15.6363 246.225 17.2124 245.792 18.8272 245.684C20.4419 245.575 22.062 245.794 23.5901 246.326C26.6507 247.408 29.422 249.177 31.6907 251.497C36.1785 255.834 38.9813 262.446 40.6015 268.49C33.7969 269.85 26.7574 265.95 23.3147 263.748C17.8629 260.269 10.1268 250.68 14.2014 246.974" fill="#FD5631"/>
<path d="M52.4219 269.896C50.8063 269.094 49.4313 267.88 48.4357 266.376C47.4401 264.873 46.8591 263.134 46.7514 261.335C46.6721 259.531 46.9528 257.729 47.5773 256.034C48.2017 254.339 49.1573 252.785 50.3886 251.463C51.5065 250.225 52.9889 249.092 54.6495 249.173C55.427 249.259 56.1675 249.551 56.7952 250.017C57.4229 250.483 57.9152 251.108 58.2219 251.827C58.8124 253.28 59.0053 254.863 58.7809 256.415C58.2705 261.732 56.8043 266.781 52.4624 269.896" fill="#FD5631"/>
<path d="M63.4133 286.806C63.0865 286.528 62.788 286.219 62.5223 285.883L60.1731 283.285C58.2451 281.068 55.4261 277.969 53.6115 273.761C52.0044 270.197 51.3727 266.271 51.7808 262.384C51.912 261.217 52.184 260.07 52.5908 258.969C52.7025 258.668 52.8295 258.374 52.9716 258.087C53.0607 257.892 53.1174 257.787 53.1336 257.795C52.6246 259.299 52.2691 260.849 52.0724 262.424C51.7687 266.255 52.4432 270.1 54.0328 273.599C55.7987 277.726 58.5448 280.834 60.4161 283.099C61.3639 284.232 62.1415 285.147 62.6519 285.794C62.9372 286.106 63.1922 286.445 63.4133 286.806Z" fill="#1F1B2D"/>
<path d="M20.7415 253.74C20.912 253.822 21.0747 253.919 21.2275 254.031L22.5479 254.929C23.6982 255.738 25.3426 256.879 27.3597 258.328C31.41 261.233 36.9266 265.319 42.9211 269.972C48.9155 274.625 54.262 278.963 58.0774 282.151C59.981 283.769 61.5121 285.048 62.5652 285.962L63.764 287.022C64.0395 287.273 64.1772 287.403 64.161 287.419C64 287.325 63.8481 287.217 63.7073 287.095L62.4517 286.1L57.8749 282.402C53.9542 279.262 48.6239 274.981 42.6132 270.361C36.6025 265.74 31.1265 261.589 27.141 258.619L22.4183 255.107L21.1384 254.136C20.9912 254.02 20.858 253.887 20.7415 253.74Z" fill="#1F1B2D"/>
<path d="M49.9036 279.365C46.5366 277.573 42.7909 276.608 38.9764 276.549C35.1619 276.489 31.3881 277.338 27.967 279.025C26.2416 279.899 24.4189 281.372 24.5728 283.297C24.7267 285.223 26.7762 286.397 28.6232 286.947C32.5301 288.016 36.6664 287.904 40.5099 286.627C44.3535 285.349 47.7322 282.963 50.2195 279.769" fill="#FD5631"/>
<path d="M33.1533 281.947C33.4852 281.716 33.841 281.521 34.2145 281.365C34.6337 281.141 35.0666 280.944 35.5106 280.774C36.0865 280.525 36.6761 280.309 37.2766 280.127C37.9964 279.881 38.7293 279.676 39.4718 279.512C40.3245 279.313 41.1871 279.159 42.0559 279.05C44.0533 278.827 46.0693 278.827 48.0666 279.05C50.062 279.298 52.022 279.776 53.9072 280.475C54.7373 280.783 55.5487 281.14 56.3374 281.543C57.0208 281.886 57.686 282.264 58.3302 282.676C58.9377 283.024 59.4157 283.436 59.8693 283.752C60.2548 284.028 60.6228 284.328 60.971 284.65C61.2874 284.892 61.5803 285.163 61.8459 285.459C61.773 285.54 60.5174 284.351 58.1601 282.918C57.5179 282.528 56.8554 282.171 56.1754 281.85C55.401 281.467 54.6059 281.126 53.7938 280.831C51.9355 280.167 50.0093 279.711 48.0504 279.471C46.0849 279.261 44.1025 279.261 42.137 279.471C41.2797 279.568 40.428 279.708 39.5852 279.892C38.7752 280.03 38.0623 280.256 37.3981 280.434C34.7248 281.227 33.1938 282.036 33.1533 281.947Z" fill="#1F1B2D"/>
<path d="M260.192 311.103C254.522 307.462 252.48 302.793 251.589 296.117C251.168 292.767 251.469 289.367 252.474 286.144C253.479 282.92 255.163 279.95 257.413 277.432C261.188 273.272 266.486 270.432 269.232 265.528C272.149 260.301 271.776 253.39 275.94 249.061C278.807 246.107 283.125 245.185 286.657 243.081C289.549 241.365 291.882 238.881 294.498 236.785C297.115 234.689 300.258 232.909 303.611 233.03C308.674 233.216 312.798 238.015 313.227 243.056C313.656 248.098 311.032 253.034 307.297 256.457C304.592 258.933 301.214 260.883 299.504 264.136C296.264 270.23 300.209 278.387 296.734 284.367C294.199 288.712 288.155 290.978 287.499 295.971C287.256 297.808 287.848 299.645 287.904 301.498C288.083 307.284 282.849 312.147 277.187 313.393C271.525 314.639 265.644 313.078 260.176 311.127" fill="#EFECF3"/>
<path opacity="0.2" d="M293.463 253.776C293.299 254.021 293.112 254.249 292.904 254.456L291.194 256.293C290.441 257.102 289.518 258.049 288.521 259.23C287.525 260.412 286.294 261.658 285.111 263.228C283.928 264.798 282.535 266.392 281.223 268.269C280.566 269.208 279.829 270.131 279.165 271.158L277.099 274.298C274.12 279.013 271.499 283.944 269.258 289.05C267.078 294.182 265.304 299.477 263.952 304.886C263.377 307.395 262.818 309.741 262.494 312.04C262.17 314.338 261.846 316.401 261.627 318.335C261.408 320.269 261.335 322.025 261.206 323.571C261.076 325.116 261.068 326.444 261.052 327.536C261.036 328.628 261.011 329.397 260.995 330.045C261.002 330.338 260.978 330.631 260.922 330.919C260.868 330.631 260.846 330.337 260.857 330.045C260.857 329.397 260.817 328.564 260.785 327.528C260.752 326.492 260.728 325.1 260.785 323.555C260.841 322.009 260.866 320.229 261.1 318.287C261.335 316.345 261.481 314.241 261.911 311.943C262.34 309.644 262.721 307.265 263.312 304.741C264.647 299.284 266.421 293.945 268.618 288.775C270.875 283.634 273.532 278.677 276.565 273.95L278.663 270.81C279.343 269.791 280.088 268.86 280.761 267.929C282.105 266.06 283.491 264.426 284.738 262.92C285.986 261.415 287.168 260.129 288.23 258.971C289.291 257.814 290.214 256.868 291 256.107C291.786 255.346 292.337 254.804 292.806 254.359C293.005 254.143 293.225 253.948 293.463 253.776Z" fill="black"/>
<path d="M265.249 106.213H56.5515V351.671H265.249V106.213Z" fill="white"/>
<path d="M265.256 351.671C265.256 350.052 265.175 252.469 265.061 106.212L265.256 106.399H56.5748L56.7854 106.188C56.7854 196.82 56.7854 281.229 56.7854 351.646L56.6072 351.468L265.313 351.646L56.6072 351.824H56.3804V351.646C56.3804 281.245 56.3804 196.812 56.3804 106.188V105.978H56.6153H265.296H265.483V106.172C265.329 252.469 265.256 350.044 265.256 351.671Z" fill="#1F1B2D"/>
<path d="M157.504 219.617C157.504 219.617 157.504 219.455 157.504 219.164C157.504 218.873 157.504 218.419 157.504 217.853C157.504 216.688 157.504 214.988 157.504 212.787C157.504 208.377 157.455 201.968 157.423 193.908L157.56 194.038L75.6706 194.119L75.8813 193.908C75.8813 202.81 75.8813 211.468 75.8813 219.617L75.6788 219.415L134.206 219.504L151.347 219.56H155.956H157.155H157.568H157.179H155.94H151.379L134.287 219.625L75.6139 219.714H75.4033V193.698H75.6139L157.504 193.771H157.641V193.908C157.641 202.001 157.585 208.474 157.568 212.868C157.568 215.053 157.568 216.744 157.568 217.902C157.568 218.46 157.568 218.889 157.568 219.188C157.568 219.488 157.504 219.617 157.504 219.617Z" fill="#1F1B2D"/>
<path d="M248.15 254.437C248.15 254.437 248.15 253.862 248.15 252.745C248.15 251.629 248.15 249.978 248.15 247.801C248.15 243.456 248.15 237.039 248.093 228.728L248.199 228.833L75.6544 228.938L75.8651 228.728V254.437L75.6544 254.234L198.412 254.323L234.865 254.38H244.723H247.283H248.166C248.166 254.38 247.883 254.38 247.316 254.38H244.78H234.97L198.517 254.445L75.6139 254.534H75.4033V228.518H75.622L248.166 228.623H248.271V228.728C248.271 237.071 248.223 243.504 248.207 247.866C248.207 250.024 248.207 251.664 248.207 252.786C248.166 253.886 248.15 254.437 248.15 254.437Z" fill="#1F1B2D"/>
<path d="M248.15 289.022C248.15 289.022 248.15 288.439 248.15 287.33C248.15 286.222 248.15 284.555 248.15 282.386C248.15 278.033 248.15 271.624 248.093 263.313L248.199 263.41L75.6544 263.523L75.8651 263.313V289.022L75.6544 288.811L198.412 288.9L234.865 288.965H244.723H247.283H248.166H247.316H244.78H234.97L198.517 289.022L75.6139 289.119H75.4033V263.078H75.622L248.166 263.192H248.271V263.297C248.271 271.632 248.223 278.065 248.207 282.427C248.207 284.585 248.207 286.224 248.207 287.347C248.166 288.471 248.15 289.022 248.15 289.022Z" fill="#1F1B2D"/>
<path d="M248.148 219.616C248.148 219.616 248.148 219.454 248.148 219.163C248.148 218.871 248.148 218.418 248.148 217.852C248.148 216.686 248.148 214.987 248.148 212.786C248.148 208.376 248.148 201.967 248.075 193.907L248.213 194.037L166.323 194.118L166.534 193.907V219.616L166.323 219.414L224.859 219.503L242 219.559H246.609H247.808H248.221H247.832H246.585H242.024L224.932 219.624L166.25 219.713H166.048V219.511C166.048 211.362 166.048 202.711 166.048 193.802V193.592H166.267L248.156 193.664H248.294V193.802C248.294 201.894 248.237 208.368 248.213 212.762C248.213 214.947 248.213 216.638 248.213 217.795C248.213 218.353 248.213 218.782 248.213 219.082C248.213 219.381 248.148 219.616 248.148 219.616Z" fill="#1F1B2D"/>
<path d="M92.7637 210.483C92.557 210.51 92.3486 210.524 92.14 210.524L90.2931 210.58C88.6729 210.629 86.3561 210.693 83.5695 210.726H83.3103L83.3913 210.483C83.6267 209.66 84.0735 208.912 84.6874 208.314C85.3798 207.692 86.2434 207.292 87.1662 207.165L87.1176 207.562C86.5987 207.335 86.1518 206.971 85.8248 206.509C85.4979 206.047 85.3035 205.504 85.2625 204.94C85.2065 204.306 85.3427 203.67 85.6533 203.114C85.9639 202.559 86.4346 202.109 87.0042 201.824C87.5478 201.576 88.1575 201.51 88.7418 201.637C89.3261 201.764 89.8534 202.077 90.2444 202.529C90.5919 202.927 90.8364 203.405 90.9564 203.92C91.0764 204.435 91.0684 204.971 90.933 205.482C90.8219 205.926 90.6099 206.339 90.3135 206.689C90.0171 207.038 89.6443 207.315 89.2238 207.497V207.214C89.9458 207.32 90.6319 207.598 91.2246 208.023C91.6597 208.349 92.0281 208.756 92.3101 209.221C92.5643 209.607 92.7328 210.043 92.8043 210.499C92.8043 210.499 92.7394 210.378 92.6503 210.184C92.5141 209.88 92.3543 209.588 92.1724 209.31C91.835 208.809 91.3917 208.389 90.8738 208.079C90.3558 207.768 89.776 207.575 89.1752 207.513L88.6324 207.449L89.1428 207.23C89.5126 207.058 89.8382 206.803 90.0951 206.486C90.3519 206.17 90.5332 205.798 90.6252 205.401C90.7399 204.948 90.7423 204.474 90.6322 204.02C90.5221 203.566 90.3028 203.146 89.9933 202.796C89.6508 202.418 89.1981 202.158 88.6995 202.052C88.2008 201.946 87.6814 202 87.2148 202.205C86.7244 202.455 86.3202 202.846 86.0545 203.328C85.7889 203.81 85.6738 204.36 85.7243 204.908C85.7594 205.4 85.929 205.873 86.2147 206.275C86.5004 206.677 86.8911 206.994 87.3444 207.19L88.033 207.465L87.2958 207.586C86.4514 207.697 85.6604 208.061 85.0276 208.63C84.4554 209.174 84.034 209.857 83.8044 210.613L83.6262 210.378C86.3237 210.378 88.5919 210.378 90.2201 210.435H92.1157C92.3325 210.436 92.549 210.453 92.7637 210.483Z" fill="#FD5631"/>
<path d="M188.764 210.479C188.56 210.507 188.355 210.52 188.149 210.519L186.294 210.576C184.673 210.625 182.365 210.689 179.57 210.722H179.319L179.392 210.479C179.627 209.656 180.074 208.908 180.688 208.31C181.378 207.682 182.242 207.276 183.167 207.145L183.118 207.541C182.6 207.314 182.154 206.95 181.829 206.488C181.503 206.026 181.31 205.483 181.271 204.92C181.211 204.286 181.344 203.649 181.654 203.093C181.963 202.537 182.434 202.088 183.005 201.804C183.549 201.557 184.158 201.492 184.742 201.618C185.326 201.745 185.853 202.057 186.245 202.508C186.591 202.908 186.834 203.386 186.953 203.901C187.071 204.415 187.062 204.951 186.925 205.462C186.814 205.906 186.602 206.319 186.306 206.668C186.01 207.018 185.637 207.294 185.216 207.477V207.194C185.938 207.3 186.624 207.577 187.217 208.003C187.654 208.327 188.023 208.734 188.303 209.2C188.557 209.586 188.725 210.022 188.797 210.479C188.797 210.479 188.732 210.358 188.643 210.163C188.513 209.857 188.353 209.564 188.165 209.289C187.829 208.789 187.387 208.369 186.871 208.058C186.354 207.748 185.775 207.555 185.176 207.493L184.633 207.428L185.135 207.21C185.505 207.036 185.831 206.782 186.089 206.465C186.347 206.149 186.531 205.778 186.626 205.381C186.739 204.927 186.739 204.453 186.628 203.999C186.516 203.545 186.296 203.125 185.986 202.775C185.649 202.392 185.197 202.128 184.698 202.022C184.199 201.915 183.679 201.972 183.215 202.184C182.723 202.432 182.316 202.823 182.049 203.305C181.782 203.787 181.666 204.339 181.717 204.887C181.752 205.379 181.921 205.852 182.207 206.255C182.493 206.657 182.884 206.973 183.337 207.169L184.025 207.444L183.288 207.566C182.444 207.676 181.653 208.04 181.02 208.61C180.45 209.154 180.031 209.838 179.805 210.592L179.627 210.358C182.324 210.358 184.592 210.358 186.213 210.414H188.116C188.333 210.421 188.55 210.443 188.764 210.479Z" fill="#FD5631"/>
<path d="M91.2171 273.939C91.1784 273.766 91.154 273.59 91.1442 273.413C91.1492 272.985 91.049 272.563 90.8525 272.183C90.6981 271.911 90.4836 271.678 90.2253 271.501C89.967 271.324 89.6717 271.209 89.362 271.163C88.9881 271.114 88.6076 271.171 88.2649 271.328C87.9221 271.486 87.6312 271.737 87.426 272.054C87.2474 272.324 87.1414 272.636 87.1181 272.96C87.1181 273.3 87.1181 273.623 87.1181 273.947L86.9237 273.745C88.368 273.737 89.8117 273.802 91.2495 273.939C89.8132 274.097 88.3684 274.165 86.9237 274.141H86.7212V273.939C86.7212 273.615 86.7212 273.3 86.7212 272.928C86.7432 272.535 86.869 272.155 87.0857 271.827C87.3326 271.443 87.6866 271.14 88.104 270.954C88.5215 270.769 88.9841 270.709 89.4349 270.783C89.798 270.842 90.1415 270.987 90.4363 271.207C90.7311 271.427 90.9683 271.714 91.128 272.045C91.3364 272.487 91.4015 272.982 91.3143 273.462C91.2819 273.81 91.2171 273.963 91.2171 273.939Z" fill="#FD5631"/>
<path d="M89.8126 279.199C89.6606 278.893 89.5306 278.576 89.4238 278.252V278.163L89.5129 278.098C89.6418 277.997 89.7295 277.853 89.7593 277.692C89.7891 277.531 89.7591 277.365 89.6749 277.224C89.6326 277.136 89.5702 277.06 89.4928 277C89.4154 276.941 89.3251 276.901 89.2292 276.882C89.1333 276.864 89.0345 276.869 88.9406 276.896C88.8468 276.922 88.7606 276.971 88.689 277.037C88.6174 277.103 88.5623 277.186 88.5283 277.277C88.4942 277.368 88.4821 277.466 88.4929 277.563C88.5037 277.66 88.5371 277.753 88.5904 277.835C88.6438 277.917 88.7156 277.985 88.8 278.034L88.9296 278.106L88.8891 278.244L88.6461 279.207L88.4922 279.013C88.9434 279.034 89.3926 279.085 89.8369 279.166C89.4 279.291 88.9462 279.345 88.4922 279.328H88.2978V279.118C88.3626 278.794 88.4193 278.47 88.476 278.139L88.5651 278.349C88.4362 278.271 88.3263 278.164 88.2434 278.038C88.1605 277.912 88.1067 277.769 88.0858 277.62C88.0649 277.471 88.0774 277.318 88.1224 277.174C88.1675 277.03 88.244 276.898 88.3464 276.787C88.4587 276.663 88.6008 276.568 88.7594 276.513C88.918 276.458 89.0881 276.444 89.2537 276.472C89.4058 276.496 89.5505 276.555 89.6767 276.643C89.803 276.731 89.9076 276.847 89.9827 276.982C90.1049 277.201 90.1368 277.46 90.0718 277.703C90.0069 277.946 89.85 278.155 89.6344 278.284L89.6992 278.131C89.8033 278.476 89.8418 278.839 89.8126 279.199Z" fill="#FD5631"/>
<path d="M91.8189 273.948C91.9366 273.925 92.0577 273.925 92.1754 273.948C92.4693 274.036 92.732 274.207 92.9328 274.439C93.1336 274.671 93.2642 274.955 93.3095 275.259C93.3095 275.542 93.3095 275.817 93.3095 276.133C93.3095 276.772 93.3095 277.476 93.3095 278.253C93.3095 278.649 93.3095 279.062 93.3095 279.483C93.3403 279.944 93.324 280.408 93.2609 280.866C93.1899 281.123 93.06 281.36 92.8814 281.558C92.7028 281.756 92.4805 281.91 92.2321 282.007C91.9751 282.11 91.6983 282.155 91.422 282.137H90.6119H87.3717H86.513C86.2641 282.149 86.0155 282.108 85.7836 282.017C85.5517 281.926 85.3419 281.787 85.168 281.608C84.9941 281.43 84.8601 281.217 84.775 280.983C84.6899 280.749 84.6555 280.5 84.6742 280.251C84.6742 279.005 84.6742 277.824 84.6742 276.61V275.744C84.6491 275.435 84.6877 275.124 84.7876 274.83C84.8971 274.539 85.0826 274.283 85.3248 274.088C85.5669 273.893 85.857 273.766 86.1647 273.721L86.0027 273.907C86.0027 273.519 86.0027 273.171 86.0027 272.774C86.0402 272.394 86.1531 272.026 86.3348 271.69C86.7168 271.045 87.3312 270.57 88.0521 270.363C88.5955 270.167 89.1855 270.139 89.7449 270.283C90.3043 270.428 90.807 270.737 91.1871 271.172C91.4334 271.444 91.6226 271.762 91.7437 272.108C91.8647 272.454 91.9151 272.821 91.8918 273.187C91.8844 273.442 91.86 273.696 91.8189 273.948C91.7789 273.699 91.7626 273.447 91.7703 273.195C91.7665 272.499 91.4971 271.83 91.017 271.326C90.7305 271.025 90.3764 270.796 89.9839 270.658C89.5914 270.52 89.1717 270.477 88.7595 270.534C88.3473 270.59 87.9543 270.743 87.613 270.981C87.2717 271.218 86.9919 271.533 86.7965 271.9C86.6405 272.197 86.5442 272.522 86.513 272.855C86.513 273.187 86.513 273.592 86.513 273.964V274.126H86.351C86.1133 274.163 85.8898 274.263 85.7034 274.416C85.5169 274.568 85.3742 274.766 85.2898 274.992C85.211 275.254 85.1835 275.528 85.2088 275.801V276.667C85.2088 277.84 85.2088 279.094 85.2088 280.308C85.1861 280.568 85.239 280.83 85.3611 281.061C85.4832 281.292 85.6694 281.483 85.8974 281.611C86.122 281.729 86.3729 281.787 86.6264 281.781H90.7416C91.2235 281.826 91.7096 281.799 92.1835 281.7C92.379 281.623 92.5541 281.502 92.6947 281.346C92.8353 281.19 92.9376 281.004 92.9935 280.802C93.0527 280.376 93.0744 279.945 93.0583 279.515C93.0583 279.094 93.0583 278.706 93.0583 278.285C93.0583 277.476 93.0583 276.804 93.0583 276.165C93.0583 275.857 93.0583 275.55 93.0583 275.307C93.0375 275.08 92.9625 274.861 92.8396 274.668C92.5945 274.316 92.2332 274.061 91.8189 273.948Z" fill="#FD5631"/>
<path d="M95.3653 247.03C95.3413 246.823 95.3278 246.615 95.3248 246.407C95.3248 245.97 95.3248 245.404 95.2681 244.716C95.2276 243.227 95.179 241.179 95.1142 238.711L95.2843 238.881L82.9389 239.043L83.1171 238.8V239.885C83.1171 240.249 83.1171 240.613 83.1171 240.977C83.1171 241.697 83.1171 242.409 83.1171 243.105C83.1171 244.489 83.1171 245.832 83.1171 247.095L82.9227 246.909C86.5194 246.909 89.5814 246.909 91.7605 246.909H94.3203C94.6368 246.901 94.9534 246.914 95.2681 246.949C94.9836 246.988 94.6965 247.004 94.4094 246.998L91.8901 247.079C89.7191 247.135 86.6085 247.208 82.9227 247.257H82.7363V247.062C82.7363 245.792 82.7363 244.457 82.6877 243.065C82.6877 242.369 82.6877 241.657 82.6877 240.937C82.6877 240.581 82.6877 240.216 82.6877 239.852V238.76L82.8984 238.541L95.2438 238.46H95.4139V238.63C95.4139 241.139 95.4139 243.219 95.4139 244.74C95.4139 245.412 95.4139 245.962 95.4139 246.358C95.4281 246.583 95.4117 246.809 95.3653 247.03Z" fill="#FD5631"/>
<path d="M95.2663 238.714C94.7483 239.247 94.1754 239.724 93.5571 240.138C92.4716 240.947 90.9568 242.104 89.2637 243.326H88.9802L88.8992 243.269L88.7372 243.156L88.4213 242.938L87.8056 242.509L86.6472 241.7L84.695 240.292C84.0744 239.883 83.494 239.417 82.9614 238.9C83.6314 239.221 84.2689 239.606 84.8651 240.049L86.866 241.384L88.0405 242.193L88.6643 242.622L88.9802 242.841L89.1341 242.946L89.2151 243.002H89.2556H89.0288C90.7219 241.781 92.2691 240.688 93.4032 239.911C93.9868 239.457 94.6104 239.056 95.2663 238.714Z" fill="#FD5631"/>
<path d="M83.2588 247.144C83.7678 246.155 84.4021 245.236 85.1462 244.409C85.7819 243.491 86.5303 242.656 87.3739 241.925C86.8647 242.918 86.2274 243.84 85.4784 244.668C84.8454 245.583 84.0997 246.415 83.2588 247.144Z" fill="#FD5631"/>
<path d="M91.4006 241.925C92.218 242.638 92.9395 243.454 93.5473 244.352C94.2668 245.165 94.8768 246.068 95.3618 247.039C94.5438 246.326 93.8222 245.51 93.2152 244.611C92.4944 243.799 91.8842 242.896 91.4006 241.925Z" fill="#FD5631"/>
<path d="M245.996 302.317H77.7693C76.5792 302.317 75.6145 303.281 75.6145 304.469V326.44C75.6145 327.628 76.5792 328.592 77.7693 328.592H245.996C247.186 328.592 248.151 327.628 248.151 326.44V304.469C248.151 303.281 247.186 302.317 245.996 302.317Z" fill="#FD5631"/>
<g opacity="0.3">
<path opacity="0.3" d="M245.996 302.317H77.7693C76.5792 302.317 75.6145 303.281 75.6145 304.469V326.44C75.6145 327.628 76.5792 328.592 77.7693 328.592H245.996C247.186 328.592 248.151 327.628 248.151 326.44V304.469C248.151 303.281 247.186 302.317 245.996 302.317Z" fill="black"/>
</g>
<path d="M245.996 298.66H77.7693C76.5792 298.66 75.6145 299.624 75.6145 300.812V322.783C75.6145 323.971 76.5792 324.935 77.7693 324.935H245.996C247.186 324.935 248.15 323.971 248.15 322.783V300.812C248.15 299.624 247.186 298.66 245.996 298.66Z" fill="#FD5631"/>
<path d="M147.312 312.363C147.307 311.984 147.38 311.608 147.526 311.257C147.672 310.907 147.889 310.59 148.162 310.327C148.435 310.063 148.759 309.858 149.114 309.724C149.47 309.59 149.849 309.53 150.228 309.547C150.619 309.532 151.009 309.601 151.371 309.748C151.733 309.896 152.059 310.12 152.326 310.405L151.816 310.899C151.523 310.589 151.144 310.374 150.727 310.282C150.311 310.189 149.876 310.224 149.48 310.382C149.083 310.539 148.743 310.812 148.504 311.164C148.264 311.517 148.136 311.933 148.136 312.359C148.136 312.786 148.264 313.202 148.504 313.555C148.743 313.907 149.083 314.18 149.48 314.337C149.876 314.495 150.311 314.529 150.727 314.437C151.144 314.345 151.523 314.13 151.816 313.82L152.326 314.314C152.058 314.601 151.731 314.826 151.368 314.976C151.004 315.125 150.613 315.195 150.22 315.18C149.841 315.196 149.463 315.135 149.109 315.001C148.754 314.866 148.431 314.661 148.159 314.397C147.887 314.134 147.671 313.817 147.525 313.468C147.38 313.118 147.307 312.742 147.312 312.363Z" fill="white"/>
<path d="M157.13 315.111L155.939 313.42H155.599H154.23V315.095H153.419V309.592H155.574C157 309.592 157.867 310.312 157.867 311.51C157.885 311.892 157.777 312.27 157.559 312.584C157.34 312.899 157.024 313.133 156.66 313.25L157.964 315.095L157.13 315.111ZM157.13 311.526C157.13 310.717 156.603 310.296 155.599 310.296H154.254V312.772H155.599C156.579 312.772 157.105 312.311 157.105 311.526H157.13Z" fill="white"/>
<path d="M163.165 314.43V315.11H159.164V309.607H163.052V310.295H159.949V311.986H162.72V312.65H159.949V314.43H163.165Z" fill="white"/>
<path d="M167.955 313.734H165.022L164.415 315.11H163.604L166.1 309.607H166.91L169.413 315.11H168.603L167.955 313.734ZM167.679 313.111L166.488 310.408L165.298 313.111H167.679Z" fill="white"/>
<path d="M171.014 310.295H169.126V309.607H173.687V310.295H171.792V315.11H170.982L171.014 310.295Z" fill="white"/>
<path d="M178.54 314.43V315.11H174.538V309.607H178.427V310.295H175.324V311.986H178.086V312.65H175.324V314.43H178.54Z" fill="white"/>
<path d="M137.143 147.798C159.398 125.567 159.398 89.5218 137.143 67.29C114.887 45.0582 78.8044 45.0582 56.5491 67.29C34.2939 89.5218 34.2939 125.567 56.5491 147.798C78.8044 170.03 114.887 170.03 137.143 147.798Z" fill="#EFECF3"/>
<path d="M129.495 30.5983C128.499 31.8474 127.891 33.3611 127.747 34.9519C127.603 36.5427 127.929 38.1408 128.685 39.5482C129.398 40.8268 130.484 41.9759 130.646 43.4243C130.913 45.7792 128.629 47.8993 129.026 50.246C129.277 51.8644 130.646 52.973 131.391 54.4054C131.852 55.3369 132.037 56.38 131.927 57.413C131.817 58.4461 131.414 59.4264 130.767 60.2398C129.73 61.5021 128.102 62.3033 127.43 63.8003C126.928 64.9008 127.049 66.2279 126.62 67.3366C126.237 68.2045 125.636 68.9588 124.875 69.526C124.114 70.0933 123.22 70.4541 122.278 70.5734C120.384 70.8007 118.464 70.6939 116.607 70.2578L117.02 68.2105C116.669 68.7542 116.19 69.2042 115.626 69.5214C115.061 69.8387 114.428 70.0137 113.78 70.0312C112.483 70.0571 111.191 69.8656 109.957 69.4648C109.187 65.9933 108.434 62.3275 109.519 58.945C110.508 55.9024 112.84 53.5233 114.785 50.9824C116.943 48.1613 118.671 45.0361 119.912 41.7088C120.803 39.3216 121.443 36.8535 122.691 34.5878C123.938 32.322 125.931 30.3637 128.426 29.8862" fill="#1F1B2D"/>
<path d="M166.558 78.4186L155.282 79.2278L155.169 76.3308C155.018 74.8953 155.361 73.4513 156.141 72.2362C156.265 72.0223 156.356 71.7902 156.408 71.5483C156.489 70.6906 155.225 66.3856 154.788 64.8076C154.237 62.914 155.314 61.9106 155.736 62.6875C156.497 64.1036 158.514 70.1808 159.146 70.7796C159.778 71.3784 159.413 68.1982 159.413 68.1982C158.425 61.506 157.996 60.535 159.187 60.2841C160.556 59.9928 162.062 69.9542 162.062 69.9542C162.062 69.9542 161.86 68.5623 162.929 68.2791C163.998 67.9959 164.492 69.3635 164.492 69.3635C164.355 68.6594 165.367 68.5543 165.367 68.5543C167.895 68.9022 166.582 78.5076 166.582 78.5076L155.306 79.3168L149.903 116.986L144.136 108.157L129.084 118.887L142.653 135.072C143.832 136.473 145.315 137.587 146.99 138.328C148.664 139.07 150.486 139.42 152.317 139.352C155.31 139.244 158.155 138.021 160.292 135.925C162.429 133.829 163.705 131.011 163.869 128.023L166.558 78.4186Z" fill="#EB996E"/>
<path d="M157.737 78.5209C157.688 78.4643 158.287 77.9383 159.089 76.9511C159.555 76.3733 159.977 75.7621 160.353 75.1223C160.578 74.7444 160.783 74.3555 160.969 73.957C161.196 73.5846 161.33 73.1624 161.358 72.727C161.354 72.6259 161.322 72.5279 161.265 72.4447C161.207 72.3614 161.127 72.2965 161.034 72.2577C160.812 72.2205 160.584 72.2574 160.386 72.3628C159.943 72.571 159.522 72.8231 159.13 73.1154C158.496 73.5941 157.948 74.177 157.51 74.839L157.38 75.0251L157.283 74.8309C157.051 74.4137 156.75 74.0388 156.392 73.7223C156.392 73.7223 157.008 73.868 157.534 74.7419H157.307C157.722 74.0184 158.272 73.3811 158.927 72.8646C159.336 72.5473 159.779 72.2759 160.248 72.0553C160.536 71.9031 160.869 71.8572 161.187 71.9259C161.359 71.9862 161.509 72.0947 161.619 72.2383C161.73 72.3819 161.797 72.5544 161.811 72.7351C161.797 73.2557 161.646 73.7634 161.374 74.2078C161.177 74.6106 160.958 75.0023 160.718 75.3812C160.318 76.0308 159.859 76.6429 159.349 77.21C158.886 77.7317 158.342 78.1745 157.737 78.5209Z" fill="#D1734A"/>
<path d="M162.2 70.4849C162.269 71.1737 162.269 71.8676 162.2 72.5565C162.2 73.2362 162.127 73.9888 162.079 74.7899C162.046 75.2155 162.046 75.6429 162.079 76.0684C162.079 76.465 162.459 76.8048 162.743 76.643C163.026 76.4811 163.188 75.9956 163.31 75.5667C163.431 75.1379 163.529 74.709 163.618 74.2963C163.796 73.4871 163.926 72.7264 164.047 72.1033C164.127 71.4153 164.287 70.739 164.525 70.0884C164.524 70.7804 164.462 71.4709 164.339 72.1519C164.258 72.783 164.161 73.5356 163.998 74.3772C163.926 74.7899 163.828 75.2269 163.707 75.68C163.668 75.9465 163.577 76.2026 163.437 76.4333C163.298 76.6639 163.115 76.8645 162.897 77.0233C162.749 77.0909 162.584 77.1123 162.423 77.0849C162.263 77.0575 162.115 76.9824 161.998 76.8696C161.791 76.6741 161.664 76.4088 161.641 76.1251C161.616 75.6714 161.632 75.2163 161.69 74.7656C161.771 73.9672 161.844 73.2227 161.908 72.5322C161.934 71.8415 162.032 71.1554 162.2 70.4849Z" fill="#D1734A"/>
<path d="M164.128 73.3585C164.192 73.3585 164.03 73.8278 164.079 74.5561C164.094 74.9578 164.214 75.3485 164.427 75.689C164.565 75.8266 164.662 75.8347 164.792 75.689C164.938 75.4692 165.062 75.2362 165.164 74.9931C165.679 73.7163 166.082 72.3979 166.371 71.0522C166.498 72.4742 166.217 73.9027 165.561 75.1711C165.445 75.4542 165.301 75.7252 165.132 75.9804C165.072 76.0571 164.996 76.1195 164.91 76.1629C164.823 76.2064 164.727 76.2297 164.63 76.2312C164.537 76.2277 164.447 76.2042 164.364 76.1622C164.282 76.1203 164.209 76.061 164.152 75.9884C163.99 75.7729 163.887 75.5192 163.852 75.2521C163.81 75.0389 163.791 74.8219 163.795 74.6047C163.771 73.7631 164.055 73.3342 164.128 73.3585Z" fill="#D1734A"/>
<path d="M116.64 144.171L117.693 160.55C85.6225 172.825 61.7985 152.458 61.7985 152.458L66.5941 137.803L67.4042 112.215L61.2476 119.037L58.3395 116.609L43.6692 104.406L40.5181 101.777L55.7716 85.6975C75.0593 64.9574 90.0698 71.2935 90.0698 71.2935L112.622 73.4055C112.622 73.4055 128.224 75.6147 135.774 89.2742C141.922 100.393 148.613 112.167 148.613 112.167L129.285 125.923L123.137 114.643L116.64 144.171Z" fill="#666276"/>
<path d="M39.8608 107.328C39.8608 108.291 39.8608 109.246 39.9175 110.217C40.0506 114.016 40.5662 117.793 41.4567 121.489V121.594C41.5701 122.056 41.6997 122.509 41.8293 122.962C42.3315 124.742 42.9958 126.312 43.6276 128.036C43.7087 128.254 43.7897 128.465 43.8788 128.683C45.9201 128.149 51.3395 123.019 57.9577 116.326L43.2712 104.091C41.3838 106.146 40.4927 107.085 39.8608 107.328Z" fill="#EB996E"/>
<path d="M110.573 75.534C111.383 69.9505 112.299 64.0918 112.299 64.0918C112.299 64.0918 119.662 63.8895 122.449 54.713C125.106 45.9573 126.499 25.0877 126.499 25.0877C121.673 22.3333 116.119 21.1191 110.582 21.6079C105.045 22.0968 99.7902 24.2654 95.5224 27.8229L89.8519 73.2601C89.1958 78.5281 93.2137 83.2944 98.876 83.9579C104.587 84.6215 109.852 80.8506 110.573 75.534Z" fill="#EB996E"/>
<path d="M121.592 40.8629C121.551 41.1772 121.39 41.4634 121.142 41.6612C120.894 41.859 120.579 41.9528 120.263 41.9229C120.108 41.9138 119.956 41.8736 119.816 41.8048C119.676 41.7359 119.552 41.6399 119.45 41.5222C119.348 41.4045 119.271 41.2677 119.223 41.1197C119.174 40.9717 119.157 40.8156 119.17 40.6606C119.212 40.3477 119.374 40.0635 119.622 39.8674C119.87 39.6713 120.184 39.5785 120.498 39.6086C120.653 39.6178 120.804 39.6577 120.944 39.726C121.083 39.7943 121.207 39.8897 121.309 40.0065C121.41 40.1232 121.488 40.2591 121.537 40.4062C121.585 40.5532 121.604 40.7085 121.592 40.8629Z" fill="#1F1B2D"/>
<path d="M123.727 39.7854C123.557 39.9229 122.739 39.1218 121.443 38.9762C120.147 38.8305 119.102 39.3241 119.012 39.1461C118.923 38.9681 119.142 38.7981 119.596 38.5554C120.211 38.2461 120.907 38.1331 121.589 38.2317C122.264 38.324 122.894 38.6271 123.387 39.0975C123.719 39.4212 123.808 39.7368 123.727 39.7854Z" fill="#1F1B2D"/>
<path d="M108.288 39.2646C108.247 39.5783 108.086 39.8638 107.838 40.0603C107.589 40.2568 107.274 40.3488 106.959 40.3166C106.804 40.3085 106.652 40.2693 106.513 40.2013C106.373 40.1334 106.248 40.0381 106.146 39.921C106.044 39.804 105.967 39.6677 105.919 39.5202C105.871 39.3727 105.853 39.217 105.866 39.0623C105.906 38.748 106.068 38.4618 106.316 38.264C106.563 38.0662 106.878 37.9724 107.194 38.0023C107.349 38.0125 107.501 38.0534 107.64 38.1226C107.779 38.1918 107.903 38.2878 108.005 38.4053C108.107 38.5227 108.184 38.6591 108.233 38.8066C108.281 38.9542 108.3 39.1098 108.288 39.2646Z" fill="#1F1B2D"/>
<path d="M110.137 38.3935C109.967 38.5311 109.148 37.7299 107.852 37.5843C106.556 37.4386 105.511 37.9241 105.422 37.7461C105.333 37.5681 105.552 37.4063 106.005 37.1635C106.621 36.8547 107.316 36.7417 107.998 36.8398C108.676 36.9261 109.307 37.23 109.796 37.7057C110.12 38.0293 110.218 38.3368 110.137 38.3935Z" fill="#1F1B2D"/>
<path d="M113.904 48.4338C114.576 48.3558 115.259 48.3363 115.938 48.3759C116.251 48.3759 116.556 48.3759 116.639 48.2284C116.705 48.0079 116.676 47.779 116.556 47.5698C116.365 47.0429 116.167 46.4423 115.961 45.8417C115.146 43.3865 114.605 41.3791 114.75 41.3528C114.895 41.3265 115.672 43.3075 116.479 45.7626C116.678 46.3685 116.86 46.9428 117.036 47.496C117.181 47.7735 117.181 48.0773 117.036 48.3548C116.975 48.4263 116.893 48.4875 116.794 48.534C116.695 48.5805 116.582 48.6111 116.464 48.6235C116.285 48.6394 116.103 48.6394 115.923 48.6235C115.241 48.6178 114.563 48.5541 113.904 48.4338Z" fill="#1F1B2D"/>
<path d="M112.279 64.0931C107.835 63.5584 103.628 61.7988 100.128 59.0112C100.128 59.0112 102.291 65.8733 111.81 66.2941L112.279 64.0931Z" fill="#D1734A"/>
<path d="M116.757 22.1913C117.365 23.6722 116.409 25.4282 115.056 26.2374C113.629 26.9762 112.066 27.4168 110.463 27.5321C108.858 27.6581 107.323 28.2423 106.04 29.2153C103.837 31.214 104.42 34.0705 102.193 36.6681C101.674 37.398 100.962 37.9684 100.136 38.3145C99.3095 38.6606 98.4029 38.7687 97.5184 38.6264C95.7363 38.3755 93.4276 38.7882 92.5284 40.8436C91.6292 42.899 92.7147 44.4123 93.7111 46.2977C94.7075 48.1832 94.4402 50.1172 93.8731 52.1807C93.4681 53.6696 92.1882 54.8349 91.9047 56.3562C91.451 58.7839 93.5248 61.4866 92.1234 63.4773C90.722 65.468 87.1658 64.5859 85.6024 66.439C85.0353 67.0945 84.7113 68.0574 83.8769 68.3164C83.3581 68.3893 82.8296 68.2928 82.3702 68.0413L75.0796 64.9582C75.2659 64.2056 75.4603 63.4449 75.6547 62.6924C75.1159 63.2445 74.4532 63.6605 73.7214 63.9059C72.9897 64.1513 72.2099 64.2191 71.4467 64.1036C70.6835 63.9881 69.9588 63.6928 69.3326 63.2419C68.7064 62.791 68.1967 62.1977 67.8457 61.5109C69.3732 60.6247 70.7877 59.5568 72.0581 58.3307C73.3122 57.0827 74.0743 55.4251 74.2047 53.6616C74.2776 51.5252 73.1192 49.3646 73.7673 47.3335C74.6989 44.4284 78.6277 43.7002 80.3612 41.2078C81.9814 38.8773 81.4386 35.4947 83.1155 33.1885C85.0677 30.5181 89.1909 30.3967 91.4267 27.9529C92.9416 26.3345 93.2899 23.9068 94.3916 21.9404C95.8184 19.629 98.0476 17.9235 100.653 17.1499C103.242 16.3953 105.939 16.0808 108.633 16.2193C110.654 16.1243 112.668 16.5272 114.497 17.3927C116.255 18.3718 117.584 20.3787 117.171 22.3531" fill="#1F1B2D"/>
<path d="M97.5223 38.6482C96.547 38.2939 95.4923 38.2183 94.4764 38.4297C93.9687 38.5342 93.4868 38.7381 93.0586 39.0298C92.6303 39.3215 92.2642 39.6951 91.9814 40.1291C91.4629 41.0363 91.3067 42.1057 91.544 43.1231C91.7872 44.1324 92.252 45.0749 92.9049 45.8826C93.3232 46.4882 93.8781 46.9872 94.525 47.3391C94.8536 47.5162 95.221 47.6089 95.5943 47.6089C95.9676 47.6089 96.3351 47.5162 96.6636 47.3391" fill="#EB996E"/>
<path d="M96.128 44.6545C96.2415 44.7111 95.7149 45.2614 94.8319 44.881C94.3713 44.6548 94.0147 44.261 93.8355 43.7805C93.6318 43.224 93.5409 42.6326 93.5682 42.0407C93.5791 41.4107 93.8146 40.8053 94.2325 40.3333C94.4091 40.1325 94.6294 39.9748 94.8766 39.8724C95.1238 39.77 95.3912 39.7256 95.6582 39.7425C96.606 39.8477 96.8085 40.5518 96.7032 40.5518C96.5979 40.5518 96.2982 40.2362 95.6582 40.2928C95.2615 40.3878 94.9116 40.6207 94.6712 40.9499C94.4307 41.279 94.3154 41.6829 94.3459 42.0893C94.3459 43.1412 94.5808 44.1366 95.0992 44.4522C95.6177 44.7677 96.0794 44.5897 96.128 44.6545Z" fill="#D1734A"/>
<path d="M116.793 22.7385C116.424 23.7505 116.416 24.8587 116.77 25.876C117.124 26.8933 117.819 27.7573 118.737 28.3221C119.79 28.929 121.086 29.1313 121.977 29.9405C122.807 30.8397 123.289 32.0042 123.338 33.2259C123.38 34.4347 123.607 35.6299 124.011 36.7702C124.232 37.3328 124.629 37.8094 125.142 38.1299C125.656 38.4503 126.259 38.5978 126.862 38.5505L128.895 32.5542C129.64 30.3532 130.394 27.9984 129.859 25.7245C129.098 22.4876 125.89 20.3675 122.682 19.4855C121.212 18.9639 119.606 18.9783 118.146 19.5259C116.752 20.1814 115.805 21.9535 116.526 23.3292" fill="#1F1B2D"/>
<path d="M110.662 35.1706C110.581 35.2677 110.297 35.1706 109.852 35.033C109.254 34.8953 108.642 34.8247 108.029 34.8226C107.413 34.8159 106.799 34.881 106.198 35.0169C105.737 35.1221 105.453 35.2434 105.388 35.1544C105.323 35.0654 105.493 34.7498 105.988 34.4666C106.625 34.1419 107.33 33.9727 108.045 33.9727C108.76 33.9727 109.466 34.1419 110.103 34.4666C110.524 34.7741 110.702 35.0978 110.662 35.1706Z" fill="#1F1B2D"/>
<path d="M122.452 36.7678C122.411 36.9944 121.569 37.0672 120.556 36.9216C119.544 36.7759 118.758 36.5008 118.758 36.2337C118.758 35.9667 119.641 35.9424 120.654 36.0881C121.666 36.2337 122.484 36.5412 122.452 36.7678Z" fill="#1F1B2D"/>
<path d="M94.1031 47.0803C94.1031 47.0803 94.1841 47.137 94.3056 47.2826C94.4801 47.4953 94.6271 47.7292 94.7431 47.9785C95.1623 48.9062 95.2866 49.9398 95.0995 50.9403C94.8366 52.3964 94.3473 53.8026 93.6495 55.1077C93.2625 55.8544 93.137 56.7091 93.2931 57.5353C93.5787 58.4029 93.9705 59.2318 94.4596 60.0034C94.9496 60.8139 95.1639 61.7611 95.0704 62.7033C94.977 63.6455 94.5808 64.5323 93.9411 65.231C93.3954 65.8537 92.6716 66.2943 91.8673 66.4933C91.1876 66.6342 90.4959 66.7101 89.8017 66.7199C88.8271 66.6932 87.8645 66.9399 87.0231 67.432C86.7345 67.6424 86.4804 67.8963 86.2698 68.1846C86.2698 68.1846 86.2698 68.0794 86.3751 67.9175C86.5159 67.678 86.7032 67.4689 86.9259 67.3025C87.7595 66.7361 88.7449 66.4343 89.7531 66.4367C90.4266 66.4073 91.0962 66.3179 91.7539 66.1696C92.4923 65.9751 93.1536 65.5601 93.6495 64.9801C94.1929 64.3479 94.5417 63.5723 94.654 62.7467C94.7427 61.8557 94.544 60.9598 94.0869 60.1896C93.5865 59.3828 93.1918 58.5152 92.9123 57.6082C92.7517 56.7083 92.8942 55.7806 93.3174 54.9701C93.6657 54.1609 94.0464 53.5217 94.2813 52.8338C94.5224 52.2041 94.7068 51.5542 94.8322 50.8917C95.0334 49.9409 94.9575 48.9523 94.6135 48.0433C94.3299 47.404 94.0707 47.1046 94.1031 47.0803Z" fill="#1F1B2D"/>
<path d="M131.724 68.865C131.562 68.9394 131.384 68.9728 131.206 68.9621C130.948 68.9462 130.696 68.8786 130.465 68.7632C130.234 68.6478 130.029 68.487 129.861 68.2904C129.583 67.988 129.378 67.6255 129.263 67.2311C129.148 66.8367 129.125 66.4211 129.197 66.0165C129.45 64.9717 129.995 64.0202 130.769 63.2733C131.694 62.4311 132.51 61.477 133.199 60.433C133.528 59.8403 133.688 59.1683 133.66 58.4909C133.613 57.7689 133.443 57.0602 133.158 56.395C132.43 54.9558 131.781 53.4782 131.214 51.9686C130.962 51.1127 130.962 50.2026 131.214 49.3468C131.534 48.5199 131.939 47.7281 132.421 46.9839C132.882 46.2882 133.067 45.4456 132.94 44.621C132.721 43.8366 132.289 43.128 131.692 42.5737C131.133 41.9748 130.517 41.4165 129.999 40.7772C129.477 40.15 129.1 39.4148 128.897 38.6247C128.581 37.1717 128.603 35.6656 128.962 34.2226C129.246 32.8793 129.634 31.6655 129.877 30.5407C130.388 28.7702 130.297 26.8807 129.618 25.1675C129.336 24.5671 128.952 24.0197 128.484 23.5491C128.484 23.5491 128.484 23.5491 128.598 23.6219C128.702 23.6962 128.8 23.7802 128.889 23.8728C129.259 24.2465 129.555 24.6855 129.764 25.1675C130.112 25.8914 130.324 26.6732 130.388 27.4738C130.461 28.5293 130.379 29.5897 130.145 30.6216C129.91 31.7626 129.545 32.9845 129.278 34.3116C128.957 35.7042 128.957 37.1512 129.278 38.5438C129.459 39.2781 129.806 39.9616 130.291 40.5425C130.785 41.1494 131.392 41.6916 131.976 42.3066C132.624 42.9051 133.098 43.6688 133.345 44.5158C133.486 45.4363 133.287 46.3769 132.786 47.1619C132.31 47.8803 131.908 48.6448 131.587 49.4439C131.354 50.2363 131.354 51.079 131.587 51.8715C132.141 53.3656 132.774 54.8296 133.482 56.2574C133.782 56.9664 133.954 57.7223 133.993 58.4909C134.017 59.2317 133.838 59.9651 133.474 60.611C132.759 61.6709 131.913 62.6361 130.955 63.4837C130.204 64.1812 129.665 65.0758 129.4 66.0651C129.32 66.4375 129.329 66.8235 129.426 67.1918C129.523 67.5601 129.705 67.9004 129.958 68.1852C130.26 68.5691 130.698 68.8214 131.182 68.8892C131.546 68.865 131.724 68.8164 131.724 68.865Z" fill="#1F1B2D"/>
<path d="M163.512 79.7744C162.985 79.0913 162.396 78.4575 161.754 77.8808C161.03 77.4145 160.269 77.0085 159.478 76.667C159.938 76.6392 160.399 76.7028 160.834 76.8542C161.269 77.0056 161.67 77.2418 162.013 77.5491C162.401 77.799 162.734 78.1252 162.992 78.5078C163.249 78.8904 163.426 79.3213 163.512 79.7744Z" fill="#D1734A"/>
<path d="M151.43 124.121C150.848 122.968 150.451 121.731 150.255 120.455C149.929 119.202 149.811 117.903 149.907 116.611C150.23 117.848 150.484 119.101 150.669 120.366C150.997 121.601 151.251 122.855 151.43 124.121Z" fill="#D1734A"/>
<path d="M99.7743 115.046C101.195 114.573 102.446 113.695 103.373 112.52C104.3 111.346 104.862 109.926 104.991 108.435C105.429 104.219 102.561 100.473 98.6807 100.06C94.8005 99.6471 91.2281 102.746 90.7907 106.962C90.6106 108.461 90.8774 109.979 91.5576 111.326C92.2378 112.674 93.3011 113.79 94.6142 114.537C88.5387 114.852 85.5981 118.583 84.1643 121.917C86.4107 125.076 89.7204 127.322 93.4882 128.245L97.8625 128.698C101.793 128.563 105.538 126.997 108.393 124.296C107.672 120.743 105.558 116.527 99.7743 115.046Z" fill="white"/>
<g opacity="0.3">
<path opacity="0.3" d="M67.4679 112.214L71.0646 108.508C71.0646 108.508 69.5093 135.293 68.4481 138.514C67.3869 141.734 61.8298 152.456 61.8298 152.456L66.6254 137.802L67.4679 112.214Z" fill="black"/>
</g>
<path d="M75.4306 103.969C75.5116 104.05 72.3524 107.473 68.3669 111.617C64.3814 115.76 61.0763 119.061 60.9872 118.98C60.8981 118.899 64.0735 115.476 68.0591 111.325C72.0446 107.174 75.3496 103.889 75.4306 103.969Z" fill="#1F1B2D"/>
<path d="M125.712 101.875C125.727 102.146 125.713 102.417 125.671 102.684C125.623 103.219 125.534 103.995 125.404 104.958C125.145 106.868 124.707 109.506 124.108 112.387C123.509 115.268 122.852 117.865 122.326 119.726C122.059 120.657 121.832 121.402 121.662 121.919C121.598 122.202 121.494 122.475 121.354 122.729C121.375 122.455 121.424 122.184 121.5 121.919C121.653 121.304 121.824 120.568 122.034 119.702C122.488 117.825 123.095 115.235 123.695 112.355C124.294 109.474 124.772 106.86 125.112 104.958C125.266 104.084 125.396 103.34 125.509 102.709C125.537 102.423 125.605 102.142 125.712 101.875Z" fill="#1F1B2D"/>
<path d="M109.576 49.0203C109.787 49.0203 109.576 50.4445 110.662 51.6017C111.747 52.7589 113.254 52.8236 113.238 53.0178C113.222 53.212 112.865 53.2444 112.225 53.1716C111.399 53.0724 110.635 52.6822 110.071 52.071C109.531 51.4857 109.241 50.7138 109.26 49.9185C109.277 49.3197 109.479 48.996 109.576 49.0203Z" fill="#1F1B2D"/>
<path d="M91.6014 28.0589C92.5286 26.9134 93.1252 25.5368 93.3269 24.0775C93.3323 23.0336 92.9571 22.0234 92.2714 21.2356C91.5856 20.4478 90.6362 19.9364 89.6006 19.7968C88.5545 19.7234 87.5151 20.0136 86.6588 20.6183C85.8025 21.223 85.1818 22.105 84.9022 23.1146C84.682 24.1394 84.7997 25.2079 85.2377 26.1603C85.6758 27.1127 86.4106 27.898 87.3324 28.3987C88.2736 28.8609 89.334 29.0242 90.3709 28.8665C91.4078 28.7088 92.3715 28.2378 93.1325 27.5167" fill="#1F1B2D"/>
<path d="M93.4563 23.8557C93.5666 24.9119 93.2776 25.9712 92.6462 26.8255C92.1263 27.7535 91.2763 28.4525 90.2646 28.7838C91.0127 28.1236 91.6912 27.3888 92.2898 26.5908C92.7714 25.7214 93.1622 24.8049 93.4563 23.8557Z" fill="#666276"/>
<path d="M119.517 176.414C130.876 176.414 140.085 167.215 140.085 155.868C140.085 144.521 130.876 135.322 119.517 135.322C108.158 135.322 98.9497 144.521 98.9497 155.868C98.9497 167.215 108.158 176.414 119.517 176.414Z" fill="#FD5631"/>
<g opacity="0.3">
<path opacity="0.3" d="M119.517 176.414C130.876 176.414 140.085 167.215 140.085 155.868C140.085 144.521 130.876 135.322 119.517 135.322C108.158 135.322 98.9497 144.521 98.9497 155.868C98.9497 167.215 108.158 176.414 119.517 176.414Z" fill="black"/>
</g>
<path d="M119.517 172.604C130.876 172.604 140.085 163.405 140.085 152.058C140.085 140.711 130.876 131.512 119.517 131.512C108.158 131.512 98.9495 140.711 98.9495 152.058C98.9495 163.405 108.158 172.604 119.517 172.604Z" fill="#FD5631"/>
<path d="M119.518 164.21C118.935 164.21 118.457 158.764 118.457 152.072C118.457 145.38 118.935 139.934 119.518 139.934C120.101 139.934 120.571 145.38 120.571 152.072C120.571 158.764 120.093 164.21 119.518 164.21Z" fill="white"/>
<path d="M131.717 152.058C131.717 152.64 126.273 153.11 119.566 153.11C112.858 153.11 107.415 152.64 107.415 152.058C107.415 151.475 112.858 151.006 119.566 151.006C126.273 151.006 131.717 151.475 131.717 152.058Z" fill="white"/>
</svg>
