<svg width="344" height="292" viewBox="0 0 344 292" fill="none" xmlns="http://www.w3.org/2000/svg">
<path d="M319 195.396H206.213V130.108H319V195.396ZM206.902 194.708H318.312V130.797H206.902V194.708Z" fill="#D5D2DC"/>
<path d="M295.731 164.919H221.318V167.101H295.731V164.919Z" fill="#F5F4F8"/>
<path d="M300.858 173.058H221.318V175.44H300.858V173.058Z" fill="#F5F4F8"/>
<path d="M300.858 181.289H221.318V183.67H300.858V181.289Z" fill="#F5F4F8"/>
<path d="M247.324 153.102H221.318V158.768H247.324V153.102Z" fill="#F5F4F8"/>
<path d="M318.653 130.454H206.576V140.849H318.653V130.454Z" fill="#D5D2DC"/>
<path d="M307.675 139.296C307.53 139.158 308.975 137.416 310.895 135.406C312.815 133.396 314.501 131.875 314.639 132.005C314.777 132.136 313.338 133.885 311.418 135.902C309.498 137.919 307.812 139.433 307.675 139.296Z" fill="white"/>
<path d="M314.656 139.292C314.518 139.43 312.839 137.915 310.912 135.898C308.985 133.881 307.547 132.14 307.691 132.002C307.836 131.864 309.508 133.379 311.435 135.403C313.362 137.427 314.786 139.155 314.656 139.292Z" fill="white"/>
<path d="M180.215 1.16357H68.1372V65.77H180.215V1.16357Z" fill="#F9F8FA"/>
<path d="M157.297 35.6416H82.8838V37.8238H157.297V35.6416Z" fill="#EFECF3"/>
<path d="M162.424 43.7764H82.8838V46.1582H162.424V43.7764Z" fill="#EFECF3"/>
<path d="M162.424 52.0107H82.8838V54.3926H162.424V52.0107Z" fill="#EFECF3"/>
<path d="M108.89 23.8159H82.8838V29.4815H108.89V23.8159Z" fill="#EFECF3"/>
<path d="M180.215 1.16357H68.1372V11.5584H180.215V1.16357Z" fill="#D5D2DC"/>
<path d="M171.213 9.9577C171.069 9.82691 172.514 8.07837 174.434 6.06824C176.354 4.05811 178.04 2.53675 178.178 2.67443C178.315 2.81211 176.877 4.55376 174.957 6.56389C173.037 8.57402 171.351 10.0816 171.213 9.9577Z" fill="white"/>
<path d="M178.178 9.95773C178.04 10.0954 176.361 8.58093 174.434 6.56392C172.507 4.54691 171.069 2.81214 171.213 2.67446C171.358 2.53678 173.03 4.05126 174.957 6.06827C176.884 8.08528 178.322 9.82694 178.178 9.95773Z" fill="white"/>
<path d="M137.766 121.184H25.0005V55.8889H137.766V121.184ZM25.6887 120.495H137.078V56.5773H25.6887V120.495Z" fill="#D5D2DC"/>
<path d="M114.506 90.7039H40.0923V92.8861H114.506V90.7039Z" fill="#F5F4F8"/>
<path d="M119.632 98.8386H40.0923V101.22H119.632V98.8386Z" fill="#F5F4F8"/>
<path d="M119.632 107.073H40.0923V109.455H119.632V107.073Z" fill="#F5F4F8"/>
<path d="M66.0987 78.8867H40.0923V84.5523H66.0987V78.8867Z" fill="#F5F4F8"/>
<path d="M137.421 56.23H25.3438V66.6248H137.421V56.23Z" fill="#D5D2DC"/>
<path d="M267.906 136.138H135.568V254.653H267.906V136.138Z" fill="#F9F8FA"/>
<path d="M142.227 98.8054H38.5591V206.547H142.227V98.8054Z" fill="#F5F4F8"/>
<path d="M142.227 98.8054H38.5591V110.543H142.227V98.8054Z" fill="#D5D2DC"/>
<path d="M47.1172 104.556C47.0983 104.981 46.9549 105.392 46.7048 105.737C46.4547 106.082 46.1088 106.345 45.7102 106.495C45.3115 106.645 44.8776 106.675 44.4623 106.58C44.047 106.486 43.6686 106.272 43.374 105.964C43.0794 105.656 42.8817 105.269 42.8053 104.849C42.7289 104.43 42.7772 103.998 42.9443 103.606C43.1113 103.214 43.3897 102.88 43.745 102.645C44.1002 102.41 44.5166 102.284 44.9426 102.284C45.5315 102.298 46.0909 102.545 46.4983 102.971C46.9058 103.397 47.1283 103.966 47.1172 104.556Z" fill="white"/>
<path d="M55.9482 104.556C55.9306 104.983 55.7877 105.396 55.5373 105.743C55.2869 106.09 54.94 106.356 54.5397 106.507C54.1395 106.659 53.7036 106.689 53.2863 106.594C52.869 106.5 52.4887 106.285 52.1928 105.975C51.8969 105.666 51.6984 105.277 51.622 104.856C51.5456 104.435 51.5947 104 51.7631 103.607C51.9316 103.214 52.212 102.878 52.5695 102.643C52.9269 102.408 53.3456 102.283 53.7735 102.284C54.3625 102.298 54.9218 102.545 55.3293 102.971C55.7367 103.397 55.9592 103.966 55.9482 104.556Z" fill="white"/>
<path d="M64.7802 104.556C64.7626 104.983 64.6198 105.396 64.3693 105.743C64.1189 106.09 63.772 106.356 63.3717 106.507C62.9715 106.659 62.5356 106.689 62.1183 106.594C61.701 106.5 61.3208 106.285 61.0248 105.975C60.7289 105.666 60.5304 105.277 60.454 104.856C60.3776 104.435 60.4267 104 60.5952 103.607C60.7636 103.214 61.044 102.878 61.4015 102.643C61.7589 102.408 62.1777 102.283 62.6055 102.284C63.1945 102.298 63.7538 102.545 64.1613 102.971C64.5688 103.397 64.7913 103.966 64.7802 104.556Z" fill="white"/>
<path d="M304.198 24.7273H171.86V156.666H304.198V24.7273Z" fill="#F5F4F8"/>
<path d="M304.198 24.7273H171.86V40.1819H304.198V24.7273Z" fill="#D5D2DC"/>
<path d="M183.129 32.299C183.105 32.8608 182.916 33.4032 182.587 33.8587C182.257 34.3142 181.801 34.6627 181.275 34.8611C180.749 35.0595 180.176 35.099 179.628 34.9746C179.079 34.8503 178.58 34.5676 178.191 34.1616C177.802 33.7556 177.54 33.2443 177.439 32.6911C177.338 32.1379 177.402 31.5672 177.622 31.0498C177.843 30.5325 178.21 30.0912 178.679 29.7809C179.148 29.4707 179.697 29.305 180.26 29.3044C181.037 29.3225 181.775 29.6477 182.313 30.209C182.85 30.7702 183.144 31.5217 183.129 32.299Z" fill="white"/>
<path d="M193.918 30.2735C194.299 30.6879 194.55 31.2055 194.64 31.7618C194.73 32.318 194.653 32.8883 194.421 33.4016C194.189 33.9148 193.811 34.3484 193.334 34.6483C192.857 34.9482 192.303 35.101 191.74 35.0879C191.177 35.0747 190.63 34.8962 190.168 34.5744C189.705 34.2526 189.348 33.8018 189.14 33.2783C188.932 32.7547 188.882 32.1815 188.998 31.6301C189.113 31.0786 189.388 30.5733 189.789 30.1771C190.35 29.6432 191.099 29.3536 191.873 29.3716C192.647 29.3897 193.382 29.714 193.918 30.2735Z" fill="white"/>
<path d="M206.379 32.299C206.355 32.8608 206.166 33.4032 205.836 33.8587C205.506 34.3142 205.05 34.6627 204.524 34.8611C203.998 35.0595 203.425 35.099 202.877 34.9746C202.329 34.8503 201.829 34.5676 201.44 34.1616C201.051 33.7556 200.79 33.2443 200.689 32.6911C200.588 32.1379 200.651 31.5672 200.872 31.0498C201.092 30.5325 201.46 30.0912 201.928 29.7809C202.397 29.4707 202.947 29.305 203.509 29.3044C204.286 29.3225 205.024 29.6477 205.562 30.209C206.1 30.7702 206.394 31.5217 206.379 32.299Z" fill="white"/>
<path d="M275.606 289.658C275.606 289.754 227.818 289.837 168.889 289.837C109.96 289.837 62.1519 289.754 62.1519 289.658C62.1519 289.561 109.932 289.479 168.889 289.479C227.846 289.479 275.606 289.568 275.606 289.658Z" fill="#1F1B2D"/>
<path d="M229.047 205.383C218.414 197.955 216.006 184.166 216.426 171.768C216.494 169.703 216.267 167.514 217.251 165.703C218.236 163.893 220.534 162.647 222.385 163.514C223.92 164.237 224.587 166.027 225.448 167.507C226.595 169.478 228.278 171.085 230.299 172.14C231.614 172.828 233.245 173.241 234.545 172.525C236.335 171.541 236.541 169.083 236.527 167.018C236.527 163.177 236.504 159.34 236.459 155.508C236.335 153.45 236.544 151.386 237.078 149.395C237.718 147.44 239.143 145.63 241.09 145.079C243.038 144.528 245.467 145.664 245.907 147.674C245.983 148.526 246.004 149.381 245.969 150.235C246.024 151.096 246.424 152.039 247.229 152.3C248.034 152.562 248.873 151.963 249.493 151.357C251.612 149.292 253.058 146.6 254.4 143.943C255.741 141.286 257.056 138.553 258.983 136.288C260.91 134.023 263.573 132.226 266.553 132.054C269.533 131.882 272.636 133.713 273.38 136.605C274.123 139.496 272.437 142.449 270.627 144.797C267.896 148.281 264.676 151.353 261.068 153.918C260.364 154.303 259.802 154.904 259.465 155.632C259.017 157.009 260.318 158.386 261.674 158.819C263.208 159.329 264.874 159.17 266.491 159.363C268.108 159.556 269.829 160.258 270.441 161.773C271.281 163.879 269.519 166.082 267.792 167.528C264.323 170.419 260.385 172.694 256.148 174.253C254.634 174.804 253.044 175.293 251.819 176.353C250.594 177.413 249.864 179.265 250.601 180.717C251.337 182.17 253.23 182.631 254.819 182.335C256.409 182.039 257.82 181.186 259.334 180.614C262.162 179.547 265.81 179.74 267.592 182.184C268.144 183.026 268.494 183.984 268.613 184.984C268.733 185.983 268.619 186.997 268.28 187.946C267.591 189.833 266.531 191.563 265.163 193.033C260.655 198.42 254.799 202.513 248.192 204.894C241.634 207.166 235.557 207.785 229.04 205.397" fill="#FD5631"/>
<path d="M270.352 133.758C270.352 133.758 270.29 133.827 270.152 133.951L269.54 134.494C269.003 134.976 268.212 135.678 267.214 136.608C264.384 139.236 261.757 142.073 259.355 145.096C257.82 147.003 256.23 149.164 254.537 151.512C252.844 153.859 251.096 156.392 249.362 159.084C247.513 161.922 245.82 164.859 244.29 167.882C243.492 169.458 242.79 171.104 242.067 172.783L239.934 177.912C237.122 184.372 234.673 190.984 232.598 197.717C230.927 203.226 229.775 208.88 229.157 214.604C228.757 218.466 228.692 222.357 228.964 226.231C229.075 227.607 229.178 228.661 229.274 229.377C229.315 229.721 229.343 229.996 229.37 230.196V230.478C229.341 230.389 229.32 230.296 229.309 230.203C229.274 230.003 229.233 229.735 229.178 229.39C229.054 228.702 228.923 227.614 228.799 226.238C228.467 222.356 228.49 218.453 228.868 214.576C229.447 208.828 230.574 203.148 232.233 197.614C234.291 190.862 236.733 184.233 239.549 177.76L241.737 172.652C242.46 170.98 243.169 169.321 243.974 167.737C245.514 164.706 247.221 161.762 249.087 158.919C250.849 156.165 252.624 153.673 254.296 151.346C255.969 149.02 257.586 146.844 259.114 144.944C261.541 141.929 264.203 139.112 267.076 136.518C268.095 135.603 268.907 134.914 269.457 134.453L270.097 133.937C270.176 133.868 270.261 133.808 270.352 133.758Z" fill="#1F1B2D"/>
<path d="M244.064 167.717C243.967 167.434 243.9 167.141 243.865 166.843C243.755 166.272 243.631 165.466 243.486 164.42C243.19 162.355 242.888 159.525 242.564 156.393C242.241 153.261 241.876 150.425 241.573 148.38C241.415 147.361 241.277 146.542 241.181 145.971C241.106 145.678 241.066 145.378 241.064 145.076C241.182 145.352 241.268 145.641 241.319 145.936C241.47 146.501 241.642 147.313 241.835 148.339C242.227 150.404 242.612 153.213 242.936 156.352C243.259 159.491 243.535 162.245 243.748 164.386C243.851 165.349 243.941 166.169 244.009 166.823C244.063 167.118 244.081 167.418 244.064 167.717Z" fill="#1F1B2D"/>
<path d="M270.547 162.778C270.212 162.851 269.871 162.892 269.528 162.901C268.84 162.963 267.863 163.046 266.652 163.184C264.229 163.445 260.899 163.927 257.244 164.616C253.59 165.304 250.308 166.082 247.947 166.681C246.77 166.984 245.821 167.259 245.194 167.445C244.86 167.564 244.514 167.647 244.162 167.693C244.48 167.533 244.812 167.401 245.153 167.3C245.8 167.073 246.736 166.757 247.906 166.419C250.252 165.731 253.535 164.912 257.203 164.209C260.31 163.615 263.446 163.179 266.597 162.901C267.815 162.798 268.799 162.757 269.487 162.743C269.841 162.719 270.196 162.731 270.547 162.778Z" fill="#1F1B2D"/>
<path d="M232.568 197.131C232.495 197.031 232.435 196.922 232.389 196.807L231.935 195.85C231.543 195.017 231.013 193.785 230.38 192.277C229.1 189.248 227.469 185.008 225.735 180.299C224 175.59 222.404 171.35 221.193 168.287C220.601 166.8 220.112 165.581 219.747 164.672L219.362 163.688C219.309 163.575 219.272 163.454 219.252 163.33C219.325 163.43 219.385 163.538 219.431 163.654L219.885 164.611C220.27 165.443 220.807 166.676 221.44 168.183C222.72 171.212 224.351 175.453 226.086 180.161C227.82 184.87 229.416 189.111 230.628 192.174C231.219 193.661 231.708 194.879 232.066 195.788C232.224 196.181 232.355 196.477 232.458 196.773C232.512 196.886 232.549 197.007 232.568 197.131Z" fill="#1F1B2D"/>
<path d="M267.722 185.791C267.612 185.854 267.494 185.903 267.371 185.936L266.353 186.28L262.588 187.498C259.409 188.531 255.018 190.004 250.201 191.629C245.384 193.253 240.973 194.699 237.773 195.663C236.176 196.151 234.875 196.523 233.974 196.771L232.935 197.04C232.814 197.078 232.689 197.103 232.563 197.115C232.673 197.052 232.791 197.003 232.914 196.971L233.932 196.626L237.697 195.408C240.876 194.375 245.267 192.902 250.084 191.278C254.901 189.653 259.306 188.207 262.506 187.244C264.109 186.755 265.403 186.383 266.311 186.135L267.351 185.867C267.471 185.828 267.596 185.803 267.722 185.791Z" fill="#1F1B2D"/>
<path d="M253.382 18.8052L249.837 20.0719L248.316 15.4389C245.522 6.89589 236.617 2.35933 228.435 5.24372C220.252 8.12812 215.896 17.4973 218.69 26.0403L220.211 30.6732L216.653 31.9468C215.297 32.4732 214.195 33.5023 213.577 34.8202C212.959 36.1382 212.873 37.6436 213.336 39.0235L223.198 69.1686C223.403 69.8517 223.742 70.4867 224.197 71.0358C224.652 71.5849 225.213 72.037 225.846 72.3652C226.479 72.6933 227.171 72.8908 227.882 72.946C228.593 73.0012 229.307 72.9129 229.983 72.6863L266.712 59.5448C268.086 59.0193 269.204 57.981 269.829 56.6484C270.454 55.3157 270.538 53.7925 270.063 52.3992L260.195 22.2541C259.985 21.5729 259.639 20.941 259.18 20.3961C258.72 19.8512 258.156 19.4045 257.52 19.0826C256.884 18.7607 256.19 18.5703 255.479 18.5226C254.768 18.475 254.055 18.5711 253.382 18.8052ZM225.386 23.624C224.633 21.4027 224.768 18.9759 225.764 16.8521C226.759 14.7283 228.538 13.0723 230.727 12.231C231.807 11.8611 232.952 11.7127 234.091 11.7948C235.231 11.8769 236.342 12.1877 237.358 12.7088C238.375 13.2298 239.277 13.9504 240.009 14.8275C240.741 15.7046 241.289 16.7203 241.62 17.8139L243.134 22.4469L226.9 28.257L225.386 23.624ZM246.032 50.3753L248.55 58.0716C248.597 58.2259 248.582 58.3921 248.509 58.5357C248.436 58.6793 248.31 58.7892 248.158 58.8426L244.628 60.1024C244.487 60.1413 244.337 60.1244 244.209 60.0551C244.081 59.9858 243.984 59.8695 243.94 59.7306L241.4 52.0687C240 51.9924 238.657 51.49 237.55 50.6288C236.443 49.7676 235.625 48.5887 235.207 47.2499C234.608 45.48 234.717 43.5471 235.511 41.8559C236.305 40.1646 237.723 38.8463 239.466 38.1768C240.327 37.8825 241.239 37.7647 242.146 37.8302C243.054 37.8958 243.939 38.1435 244.749 38.5584C245.559 38.9734 246.277 39.5473 246.86 40.2457C247.443 40.9442 247.88 41.7529 248.144 42.6239C248.587 43.9838 248.624 45.4435 248.25 46.8239C247.876 48.2044 247.107 49.4457 246.039 50.3959L246.032 50.3753Z" fill="#FD5631"/>
<path d="M249.679 19.9915C249.679 20.0878 243.107 22.5592 234.931 25.4987C226.755 28.4381 220.087 30.7994 220.052 30.7305C220.018 30.6617 226.625 28.1697 234.807 25.2233C242.989 22.277 249.644 19.902 249.679 19.9915Z" fill="#1F1B2D"/>
<path d="M257.484 21.2581C257.515 21.3178 257.54 21.38 257.56 21.4439C257.615 21.5816 257.677 21.7606 257.76 21.9809C257.938 22.4834 258.186 23.1787 258.496 24.0461L261.139 31.7424C262.24 35.0054 263.554 38.8742 265.013 43.1698C265.701 45.3245 266.513 47.5687 267.27 49.9299C267.675 51.1467 267.85 52.4283 267.786 53.7093C267.728 54.3754 267.539 55.0235 267.229 55.6161C266.898 56.2068 266.457 56.7281 265.928 57.1513C264.865 57.9276 263.685 58.5295 262.432 58.9342L258.888 60.2078L252.178 62.6103L240.816 66.6581L233.143 69.3566L231.079 70.045L230.528 70.224C230.469 70.2502 230.406 70.2664 230.342 70.2722C230.342 70.2722 230.397 70.2722 230.514 70.1896L231.051 69.9762L233.116 69.1983L240.748 66.3896L252.089 62.2592L258.785 59.836L262.329 58.5556C263.546 58.1673 264.692 57.5837 265.722 56.8277C266.213 56.435 266.625 55.9512 266.933 55.4027C267.224 54.8546 267.4 54.2524 267.449 53.6335C267.513 52.3994 267.344 51.1642 266.954 49.9919C266.21 47.6513 265.426 45.3865 264.717 43.2318C263.286 38.9293 261.964 35.0467 260.918 31.7837C259.872 28.5207 258.991 25.8979 258.386 24.053C258.097 23.1512 257.877 22.449 257.698 21.9396L257.532 21.3889C257.512 21.3471 257.496 21.3033 257.484 21.2581Z" fill="#1F1B2D"/>
<path d="M238.104 11.7652C238.104 11.7652 237.739 11.5862 237.065 11.3108C236.104 10.9414 235.087 10.7366 234.057 10.7051C232.532 10.6527 231.013 10.9396 229.612 11.5449C227.907 12.2987 226.45 13.5179 225.407 15.0626C224.357 16.6029 223.794 18.4232 223.79 20.2876C223.804 21.8156 224.036 23.3339 224.478 24.7966C224.836 26.0495 225.207 27.0477 225.455 27.743C225.601 28.0961 225.721 28.4597 225.813 28.8306C225.618 28.5004 225.454 28.1524 225.324 27.7912C225.042 27.1028 224.636 26.1252 224.237 24.8655C223.747 23.3874 223.48 21.8444 223.446 20.2876C223.427 18.3528 224.004 16.4591 225.097 14.863C226.177 13.2619 227.694 12.0049 229.467 11.242C230.913 10.6333 232.478 10.3649 234.044 10.4572C235.095 10.5108 236.128 10.7558 237.092 11.1801C237.35 11.299 237.599 11.437 237.836 11.5931C237.933 11.6361 238.024 11.6942 238.104 11.7652Z" fill="#1F1B2D"/>
<path d="M238.423 38.6978C238.533 38.6312 238.648 38.5736 238.767 38.5257C239.112 38.3702 239.469 38.2435 239.834 38.1471C240.414 37.9758 241.013 37.8741 241.617 37.8442C242.438 37.8 243.26 37.9241 244.032 38.209C245.794 38.8286 247.411 40.6253 248.209 43.0278C248.592 44.3171 248.592 45.6899 248.209 46.9792C247.785 48.3786 247.024 49.6526 245.993 50.6897L246.035 50.5038C246.95 53.0165 247.948 55.7426 248.98 58.5857L249.042 58.7578L248.87 58.8197L247.294 59.3429L243.853 60.4925L243.681 60.5476L243.626 60.3755C242.683 57.5255 241.651 54.8683 240.873 52.2593L241.025 52.3763C239.679 52.2645 238.397 51.7594 237.336 50.9238C236.377 50.1845 235.59 49.2448 235.031 48.1702C234.526 47.2172 234.275 46.1504 234.301 45.0724C234.333 43.9705 234.608 42.8894 235.107 41.9064C235.605 40.9233 236.315 40.0627 237.185 39.3862C237.543 39.0954 237.945 38.8631 238.375 38.6978C237.986 38.9285 237.61 39.1789 237.247 39.4481C236.291 40.2569 235.559 41.2974 235.12 42.4702C234.744 43.3546 234.567 44.3113 234.604 45.2718C234.641 46.2323 234.89 47.1727 235.333 48.0256C235.883 49.0594 236.651 49.9614 237.584 50.6691C238.596 51.4633 239.819 51.9421 241.1 52.0459H241.217L241.252 52.1491C242.009 54.71 243.048 57.3878 244.005 60.2516L243.777 60.1414L247.218 58.9918L248.787 58.4617L248.677 58.6958C247.652 55.8527 246.661 53.1198 245.753 50.6071V50.5038L245.835 50.4212C246.836 49.4271 247.582 48.2062 248.01 46.8622C248.375 45.6289 248.375 44.3162 248.01 43.0829C247.26 40.7699 245.711 39.0144 244.032 38.3949C243.289 38.1082 242.495 37.9747 241.699 38.0025C241.105 38.0161 240.514 38.0969 239.937 38.2434C238.912 38.4981 238.43 38.7322 238.423 38.6978Z" fill="#1F1B2D"/>
<path d="M217.146 237.468L148.404 237.151C144.434 237.129 140.635 235.532 137.841 232.711C135.048 229.889 133.488 226.074 133.505 222.103L134.234 49.7203C134.242 47.7529 134.638 45.8063 135.398 43.992C136.159 42.1776 137.27 40.531 138.667 39.1462C140.064 37.7614 141.72 36.6656 143.541 35.9215C145.361 35.1774 147.311 34.7996 149.278 34.8095L218.013 35.1262C221.983 35.1462 225.783 36.7416 228.578 39.5618C231.372 42.3821 232.934 46.1966 232.919 50.1677L232.19 222.543C232.182 224.511 231.786 226.459 231.026 228.274C230.265 230.089 229.155 231.736 227.758 233.122C226.361 234.508 224.705 235.605 222.884 236.351C221.063 237.096 219.114 237.476 217.146 237.468Z" fill="#666276"/>
<path d="M217.914 41.0528H204.591C204.156 41.0609 203.727 41.1546 203.328 41.3285C202.93 41.5023 202.57 41.7531 202.268 42.0663C201.966 42.3796 201.729 42.7492 201.57 43.1541C201.412 43.5589 201.334 43.9912 201.342 44.426V46.8423C201.351 47.2768 201.273 47.7087 201.114 48.1132C200.955 48.5177 200.718 48.8868 200.416 49.1995C200.115 49.5122 199.754 49.7623 199.356 49.9354C198.957 50.1086 198.529 50.2014 198.094 50.2086L172.122 50.0915C171.243 50.0681 170.41 49.6968 169.805 49.0592C169.2 48.4216 168.872 47.5698 168.895 46.6908V44.2746C168.917 43.3968 168.59 42.546 167.987 41.9086C167.383 41.2712 166.551 40.8991 165.674 40.8739H160.987L149.323 40.8188C146.548 40.8023 143.88 41.8861 141.903 43.8331C139.926 45.7801 138.8 48.4315 138.773 51.2067L138.085 219.466C138.078 220.842 138.343 222.207 138.864 223.481C139.385 224.756 140.152 225.915 141.12 226.893C142.089 227.871 143.241 228.649 144.51 229.182C145.779 229.714 147.141 229.992 148.517 229.998L217.115 230.315C218.493 230.321 219.858 230.056 221.133 229.535C222.408 229.013 223.567 228.246 224.546 227.276C225.524 226.306 226.302 225.153 226.835 223.883C227.368 222.612 227.645 221.249 227.652 219.872L228.34 51.6129C228.356 48.8298 227.267 46.1541 225.312 44.1738C223.357 42.1936 220.696 41.071 217.914 41.0528Z" fill="white"/>
<path d="M165.494 100.397L147.794 100.317L147.779 103.566L165.479 103.646L165.494 100.397Z" fill="#FD5631"/>
<path opacity="0.1" d="M165.494 100.397L147.794 100.317L147.779 103.566L165.479 103.646L165.494 100.397Z" fill="black"/>
<path d="M217.376 120.344C217.515 120.33 217.652 120.297 217.782 120.247C217.973 120.173 218.138 120.046 218.26 119.882C218.382 119.717 218.455 119.522 218.47 119.318C218.47 118.224 218.47 116.626 218.47 114.575C218.47 113.549 218.47 112.4 218.47 111.133C218.47 110.823 218.47 110.5 218.47 110.176C218.515 109.862 218.447 109.543 218.278 109.274C218.183 109.146 218.06 109.041 217.918 108.968C217.776 108.895 217.619 108.856 217.459 108.854H216.385H206.441L148.881 108.641C148.734 108.639 148.588 108.672 148.457 108.738C148.325 108.803 148.211 108.9 148.124 109.02C147.958 109.289 147.895 109.609 147.946 109.921C147.946 110.61 147.946 111.298 147.946 111.987C147.946 113.363 147.946 114.74 147.946 116.117C147.946 116.805 147.946 117.494 147.946 118.182C147.917 118.503 147.917 118.825 147.946 119.146C147.982 119.283 148.049 119.411 148.142 119.518C148.235 119.626 148.351 119.71 148.482 119.766C148.618 119.82 148.763 119.845 148.909 119.841H152.412L167.696 119.924L193.572 120.082L211.017 120.22L215.759 120.275H216.991C217.273 120.275 217.411 120.275 217.411 120.275H216.991H215.759H211.017H193.572L167.696 120.192L152.412 120.13H148.909C148.716 120.138 148.524 120.105 148.345 120.034C148.163 119.957 148.002 119.839 147.874 119.69C147.745 119.541 147.652 119.364 147.601 119.174C147.562 118.993 147.548 118.807 147.56 118.623V118.113C147.56 117.425 147.56 116.737 147.56 116.048C147.56 114.671 147.56 113.295 147.56 111.918C147.56 111.229 147.56 110.541 147.56 109.853C147.547 109.669 147.547 109.485 147.56 109.302C147.586 109.099 147.664 108.907 147.787 108.744C147.906 108.578 148.063 108.443 148.245 108.351C148.427 108.259 148.629 108.212 148.833 108.214L206.393 108.531L216.337 108.6H217.411C217.6 108.6 217.786 108.646 217.954 108.733C218.122 108.821 218.266 108.947 218.374 109.102C218.568 109.402 218.646 109.761 218.594 110.114C218.594 110.438 218.594 110.761 218.594 111.071C218.594 112.324 218.594 113.474 218.594 114.513C218.594 116.578 218.546 118.162 218.532 119.263C218.516 119.475 218.439 119.677 218.311 119.847C218.183 120.016 218.009 120.146 217.81 120.22C217.68 120.301 217.529 120.344 217.376 120.344Z" fill="#D5D2DC"/>
<path d="M185.48 112.096H153.107V115.132H185.48V112.096Z" fill="#FD5631"/>
<path opacity="0.2" d="M185.48 112.096H153.107V115.132H185.48V112.096Z" fill="white"/>
<path d="M165.371 130.04L147.671 129.959L147.657 133.209L165.357 133.289L165.371 130.04Z" fill="#FD5631"/>
<path opacity="0.1" d="M165.371 130.04L147.671 129.959L147.657 133.209L165.357 133.289L165.371 130.04Z" fill="black"/>
<path d="M216.931 149.994C217.07 149.977 217.207 149.952 217.343 149.918C217.536 149.857 217.713 149.755 217.862 149.62C218.012 149.485 218.13 149.319 218.211 149.134C218.319 148.856 218.361 148.556 218.334 148.259C218.334 147.929 218.334 147.571 218.334 147.172C218.334 146.373 218.334 145.464 218.334 144.418V140.047C218.367 139.73 218.297 139.412 218.135 139.138C217.965 138.857 217.698 138.649 217.385 138.553C217.042 138.492 216.693 138.473 216.346 138.498H206.443L149.083 138.284C148.774 138.285 148.476 138.398 148.245 138.602C148.013 138.806 147.863 139.087 147.823 139.393C147.823 140.047 147.823 140.77 147.823 141.458C147.823 142.835 147.823 144.212 147.823 145.588C147.823 146.277 147.823 146.965 147.823 147.654C147.798 147.975 147.811 148.299 147.865 148.617C147.95 148.896 148.127 149.139 148.367 149.306C148.621 149.467 148.92 149.544 149.22 149.526H150.177H152.166L167.395 149.602L193.181 149.76L210.565 149.898L215.293 149.953H216.524H216.937H216.524H215.293H210.565H193.181L167.381 149.925L152.152 149.87H149.158C148.786 149.892 148.417 149.793 148.105 149.588C147.792 149.371 147.564 149.052 147.458 148.686C147.397 148.336 147.378 147.98 147.403 147.626C147.403 146.938 147.403 146.249 147.403 145.561C147.403 144.184 147.403 142.807 147.403 141.43C147.403 140.742 147.403 140.054 147.403 139.365C147.454 138.972 147.646 138.61 147.943 138.347C148.241 138.085 148.624 137.94 149.021 137.94L206.381 138.257L216.284 138.333C216.652 138.31 217.023 138.335 217.385 138.408C217.742 138.525 218.044 138.77 218.231 139.097C218.409 139.4 218.486 139.752 218.451 140.102C218.451 140.425 218.451 140.742 218.451 141.059C218.451 142.305 218.451 143.447 218.451 144.501C218.451 145.554 218.451 146.442 218.451 147.254C218.451 147.647 218.451 148.011 218.451 148.349C218.476 148.657 218.427 148.966 218.307 149.251C218.218 149.441 218.088 149.609 217.928 149.744C217.768 149.88 217.58 149.979 217.378 150.035C217.227 150.048 217.076 150.034 216.931 149.994Z" fill="#D5D2DC"/>
<path d="M165.236 160.968L147.536 160.888L147.521 164.137L165.221 164.217L165.236 160.968Z" fill="#FD5631"/>
<path opacity="0.1" d="M165.236 160.968L147.536 160.888L147.521 164.137L165.221 164.217L165.236 160.968Z" fill="black"/>
<path d="M216.79 180.904C216.929 180.888 217.067 180.862 217.202 180.828C217.394 180.768 217.57 180.667 217.72 180.533C217.869 180.399 217.988 180.234 218.07 180.05C218.177 179.772 218.22 179.473 218.193 179.176C218.193 178.839 218.193 178.488 218.193 178.082C218.193 177.29 218.193 176.374 218.193 175.328V170.957C218.226 170.64 218.156 170.322 217.994 170.048C217.82 169.773 217.554 169.568 217.244 169.47C216.901 169.406 216.552 169.385 216.205 169.408H206.302L148.942 169.194C148.633 169.195 148.335 169.308 148.104 169.512C147.872 169.716 147.722 169.997 147.682 170.303C147.682 170.991 147.682 171.68 147.682 172.368C147.682 173.745 147.682 175.122 147.682 176.498C147.682 177.187 147.682 177.875 147.682 178.564C147.657 178.883 147.67 179.204 147.723 179.52C147.806 179.801 147.984 180.045 148.226 180.209C148.478 180.374 148.778 180.451 149.079 180.429H152.073L167.302 180.512L193.089 180.67L210.472 180.808L215.2 180.863H216.432C216.707 180.863 216.845 180.863 216.845 180.863C216.845 180.863 216.707 180.863 216.432 180.863H215.2H210.472H193.089L167.302 180.787L152.073 180.725H149.079C148.707 180.75 148.336 180.651 148.026 180.443C147.713 180.226 147.485 179.907 147.379 179.541C147.318 179.191 147.299 178.835 147.324 178.481C147.324 177.793 147.324 177.104 147.324 176.416C147.324 175.039 147.324 173.662 147.324 172.285C147.324 171.597 147.324 170.909 147.324 170.186C147.373 169.793 147.563 169.431 147.86 169.169C148.157 168.906 148.539 168.761 148.935 168.761L206.295 169.077L216.198 169.153C216.566 169.131 216.937 169.156 217.299 169.229C217.656 169.346 217.958 169.591 218.145 169.917C218.323 170.22 218.4 170.572 218.365 170.922C218.365 171.246 218.365 171.569 218.365 171.879C218.365 173.125 218.365 174.268 218.365 175.321C218.365 176.374 218.365 177.262 218.365 178.075C218.365 178.467 218.365 178.832 218.365 179.169C218.392 179.477 218.342 179.787 218.221 180.071C218.132 180.261 218.002 180.43 217.842 180.565C217.682 180.7 217.494 180.8 217.292 180.856C217.131 180.911 216.958 180.928 216.79 180.904Z" fill="#D5D2DC"/>
<path d="M184.789 142.602L152.417 142.455L152.403 145.491L184.775 145.638L184.789 142.602Z" fill="#FD5631"/>
<path opacity="0.2" d="M184.789 142.602L152.417 142.455L152.403 145.491L184.775 145.638L184.789 142.602Z" fill="white"/>
<path d="M155.342 175.288C155.321 175.565 155.22 175.83 155.051 176.05C154.882 176.27 154.651 176.435 154.389 176.526C154.126 176.616 153.843 176.627 153.574 176.558C153.306 176.489 153.063 176.342 152.877 176.136C152.691 175.93 152.569 175.674 152.527 175.4C152.485 175.125 152.524 174.844 152.64 174.592C152.756 174.34 152.943 174.127 153.179 173.981C153.414 173.834 153.688 173.76 153.965 173.767C154.349 173.788 154.708 173.96 154.966 174.245C155.224 174.53 155.359 174.905 155.342 175.288Z" fill="#FD5631"/>
<path d="M159.73 175.312C159.743 175.506 159.717 175.701 159.652 175.885C159.587 176.068 159.485 176.236 159.352 176.378C159.22 176.521 159.059 176.634 158.881 176.712C158.703 176.789 158.51 176.829 158.316 176.829C158.121 176.829 157.929 176.789 157.75 176.712C157.572 176.634 157.412 176.521 157.279 176.378C157.146 176.236 157.044 176.068 156.979 175.885C156.914 175.701 156.888 175.506 156.901 175.312C156.888 175.118 156.914 174.923 156.979 174.74C157.044 174.557 157.146 174.389 157.279 174.246C157.412 174.104 157.572 173.991 157.75 173.913C157.929 173.835 158.121 173.795 158.316 173.795C158.51 173.795 158.703 173.835 158.881 173.913C159.059 173.991 159.22 174.104 159.352 174.246C159.485 174.389 159.587 174.557 159.652 174.74C159.717 174.923 159.743 175.118 159.73 175.312Z" fill="#FD5631"/>
<path d="M164.12 175.33C164.099 175.607 163.998 175.871 163.829 176.091C163.659 176.311 163.429 176.477 163.167 176.567C162.904 176.657 162.621 176.669 162.352 176.599C162.083 176.53 161.841 176.383 161.655 176.178C161.468 175.972 161.347 175.716 161.305 175.441C161.262 175.167 161.302 174.886 161.418 174.634C161.534 174.381 161.721 174.169 161.957 174.022C162.192 173.875 162.466 173.801 162.743 173.808C163.126 173.831 163.484 174.004 163.742 174.288C163.999 174.573 164.135 174.946 164.12 175.33Z" fill="#FD5631"/>
<path d="M168.505 175.346C168.485 175.623 168.384 175.888 168.215 176.108C168.045 176.328 167.815 176.493 167.552 176.584C167.29 176.674 167.007 176.685 166.738 176.616C166.469 176.547 166.227 176.4 166.04 176.194C165.854 175.988 165.732 175.732 165.69 175.458C165.648 175.183 165.687 174.903 165.803 174.65C165.919 174.398 166.107 174.185 166.342 174.039C166.578 173.892 166.852 173.818 167.129 173.825C167.512 173.848 167.87 174.02 168.128 174.305C168.385 174.589 168.52 174.963 168.505 175.346Z" fill="#FD5631"/>
<path d="M172.887 175.365C172.868 175.642 172.768 175.908 172.599 176.128C172.431 176.349 172.201 176.516 171.939 176.607C171.676 176.698 171.393 176.711 171.123 176.642C170.854 176.574 170.611 176.427 170.424 176.222C170.237 176.016 170.115 175.76 170.072 175.485C170.029 175.211 170.068 174.929 170.184 174.677C170.3 174.424 170.487 174.211 170.723 174.064C170.959 173.917 171.233 173.843 171.511 173.85C171.892 173.873 172.25 174.044 172.507 174.327C172.764 174.61 172.9 174.983 172.887 175.365Z" fill="#FD5631"/>
<path d="M177.277 175.389C177.258 175.665 177.159 175.929 176.992 176.15C176.825 176.37 176.597 176.537 176.337 176.629C176.076 176.722 175.794 176.736 175.526 176.67C175.257 176.604 175.014 176.462 174.825 176.259C174.637 176.057 174.512 175.804 174.465 175.532C174.419 175.259 174.453 174.979 174.563 174.725C174.674 174.472 174.856 174.256 175.088 174.105C175.319 173.954 175.59 173.874 175.866 173.875C176.254 173.889 176.62 174.056 176.884 174.34C177.149 174.624 177.29 175.001 177.277 175.389Z" fill="#FD5631"/>
<path d="M181.661 175.408C181.674 175.602 181.648 175.797 181.583 175.98C181.518 176.164 181.416 176.332 181.283 176.474C181.15 176.616 180.99 176.73 180.812 176.807C180.633 176.885 180.441 176.925 180.246 176.925C180.052 176.925 179.859 176.885 179.681 176.807C179.503 176.73 179.342 176.616 179.21 176.474C179.077 176.332 178.975 176.164 178.91 175.98C178.845 175.797 178.819 175.602 178.832 175.408C178.819 175.214 178.845 175.019 178.91 174.836C178.975 174.652 179.077 174.484 179.21 174.342C179.342 174.2 179.503 174.086 179.681 174.009C179.859 173.931 180.052 173.891 180.246 173.891C180.441 173.891 180.633 173.931 180.812 174.009C180.99 174.086 181.15 174.2 181.283 174.342C181.416 174.484 181.518 174.652 181.583 174.836C181.648 175.019 181.674 175.214 181.661 175.408Z" fill="#FD5631"/>
<path d="M186.044 175.422C186.026 175.698 185.927 175.962 185.76 176.183C185.593 176.403 185.365 176.57 185.104 176.662C184.844 176.755 184.562 176.769 184.293 176.703C184.025 176.638 183.781 176.495 183.593 176.293C183.404 176.09 183.279 175.837 183.233 175.565C183.186 175.292 183.22 175.012 183.331 174.758C183.441 174.505 183.624 174.289 183.855 174.138C184.087 173.987 184.357 173.907 184.634 173.908C185.021 173.922 185.387 174.09 185.652 174.373C185.916 174.657 186.057 175.034 186.044 175.422Z" fill="#FD5631"/>
<path d="M190.43 175.448C190.411 175.725 190.311 175.991 190.142 176.212C189.974 176.433 189.744 176.599 189.482 176.69C189.219 176.782 188.936 176.794 188.666 176.725C188.397 176.657 188.154 176.511 187.967 176.305C187.78 176.099 187.658 175.843 187.615 175.568C187.572 175.294 187.611 175.013 187.727 174.76C187.843 174.507 188.03 174.294 188.266 174.147C188.502 174 188.776 173.926 189.054 173.933C189.435 173.956 189.793 174.128 190.05 174.411C190.307 174.694 190.443 175.066 190.43 175.448Z" fill="#FD5631"/>
<g opacity="0.2">
<path opacity="0.2" d="M157.701 165.406C157.681 165.683 157.58 165.948 157.41 166.168C157.241 166.388 157.011 166.553 156.748 166.643C156.486 166.733 156.203 166.745 155.934 166.675C155.665 166.606 155.422 166.46 155.236 166.254C155.05 166.048 154.928 165.792 154.886 165.517C154.844 165.243 154.883 164.962 154.999 164.71C155.115 164.458 155.303 164.245 155.538 164.098C155.774 163.951 156.047 163.877 156.325 163.885C156.708 163.906 157.068 164.078 157.325 164.362C157.583 164.647 157.718 165.022 157.701 165.406Z" fill="white"/>
<path opacity="0.2" d="M162.083 165.426C162.096 165.62 162.07 165.815 162.005 165.999C161.94 166.182 161.838 166.35 161.705 166.492C161.573 166.635 161.412 166.748 161.234 166.826C161.056 166.903 160.863 166.943 160.669 166.943C160.474 166.943 160.282 166.903 160.103 166.826C159.925 166.748 159.765 166.635 159.632 166.492C159.499 166.35 159.397 166.182 159.332 165.999C159.267 165.815 159.241 165.62 159.254 165.426C159.241 165.232 159.267 165.037 159.332 164.854C159.397 164.671 159.499 164.503 159.632 164.36C159.765 164.218 159.925 164.105 160.103 164.027C160.282 163.949 160.474 163.909 160.669 163.909C160.863 163.909 161.056 163.949 161.234 164.027C161.412 164.105 161.573 164.218 161.705 164.36C161.838 164.503 161.94 164.671 162.005 164.854C162.07 165.037 162.096 165.232 162.083 165.426Z" fill="white"/>
<path opacity="0.2" d="M166.475 165.448C166.454 165.725 166.353 165.99 166.184 166.21C166.014 166.43 165.784 166.595 165.522 166.685C165.259 166.775 164.976 166.787 164.707 166.717C164.438 166.648 164.196 166.502 164.01 166.296C163.823 166.09 163.702 165.834 163.659 165.559C163.617 165.285 163.657 165.004 163.773 164.752C163.889 164.5 164.076 164.287 164.312 164.14C164.547 163.993 164.821 163.919 165.098 163.927C165.481 163.95 165.839 164.122 166.097 164.406C166.354 164.691 166.49 165.065 166.475 165.448Z" fill="white"/>
<path opacity="0.2" d="M170.858 165.469C170.838 165.746 170.737 166.01 170.568 166.23C170.398 166.45 170.168 166.616 169.905 166.706C169.643 166.796 169.36 166.807 169.091 166.738C168.822 166.669 168.58 166.522 168.393 166.316C168.207 166.111 168.085 165.855 168.043 165.58C168.001 165.306 168.04 165.025 168.156 164.773C168.272 164.52 168.46 164.308 168.695 164.161C168.931 164.014 169.205 163.94 169.482 163.947C169.865 163.97 170.223 164.143 170.481 164.427C170.738 164.711 170.873 165.085 170.858 165.469Z" fill="white"/>
<path opacity="0.2" d="M175.245 165.483C175.226 165.76 175.126 166.026 174.957 166.247C174.788 166.468 174.558 166.634 174.296 166.725C174.034 166.817 173.75 166.829 173.481 166.76C173.211 166.692 172.968 166.545 172.781 166.34C172.594 166.134 172.472 165.878 172.429 165.603C172.387 165.329 172.426 165.048 172.542 164.795C172.657 164.542 172.845 164.329 173.081 164.182C173.317 164.035 173.59 163.961 173.868 163.968C174.25 163.991 174.607 164.163 174.864 164.446C175.121 164.728 175.258 165.101 175.245 165.483Z" fill="white"/>
<path opacity="0.2" d="M179.632 165.499C179.614 165.775 179.515 166.039 179.348 166.259C179.18 166.48 178.953 166.646 178.692 166.739C178.432 166.831 178.15 166.846 177.881 166.78C177.613 166.714 177.369 166.571 177.181 166.369C176.992 166.167 176.867 165.914 176.821 165.641C176.774 165.369 176.808 165.089 176.919 164.835C177.029 164.582 177.212 164.366 177.443 164.215C177.675 164.064 177.945 163.984 178.222 163.984C178.609 163.999 178.975 164.166 179.24 164.45C179.504 164.734 179.645 165.111 179.632 165.499Z" fill="white"/>
<path opacity="0.2" d="M184.02 165.526C184.033 165.72 184.007 165.915 183.942 166.098C183.877 166.282 183.775 166.45 183.642 166.592C183.51 166.734 183.349 166.848 183.171 166.925C182.993 167.003 182.8 167.043 182.606 167.043C182.411 167.043 182.219 167.003 182.04 166.925C181.862 166.848 181.702 166.734 181.569 166.592C181.436 166.45 181.334 166.282 181.269 166.098C181.204 165.915 181.178 165.72 181.191 165.526C181.178 165.332 181.204 165.137 181.269 164.954C181.334 164.771 181.436 164.602 181.569 164.46C181.702 164.318 181.862 164.204 182.04 164.127C182.219 164.049 182.411 164.009 182.606 164.009C182.8 164.009 182.993 164.049 183.171 164.127C183.349 164.204 183.51 164.318 183.642 164.46C183.775 164.602 183.877 164.771 183.942 164.954C184.007 165.137 184.033 165.332 184.02 165.526Z" fill="white"/>
<path opacity="0.2" d="M188.401 165.545C188.383 165.82 188.284 166.085 188.117 166.305C187.949 166.525 187.722 166.692 187.461 166.785C187.201 166.877 186.919 166.891 186.65 166.826C186.382 166.76 186.138 166.617 185.95 166.415C185.761 166.213 185.636 165.96 185.59 165.687C185.543 165.414 185.577 165.134 185.688 164.881C185.798 164.627 185.981 164.412 186.212 164.261C186.444 164.109 186.714 164.029 186.991 164.03C187.378 164.044 187.744 164.212 188.009 164.496C188.273 164.78 188.414 165.157 188.401 165.545Z" fill="white"/>
<path opacity="0.2" d="M192.783 165.566C192.764 165.843 192.664 166.109 192.496 166.33C192.327 166.551 192.097 166.717 191.835 166.808C191.572 166.9 191.289 166.912 191.019 166.843C190.75 166.775 190.507 166.628 190.32 166.423C190.133 166.217 190.011 165.961 189.968 165.686C189.925 165.412 189.964 165.131 190.08 164.878C190.196 164.625 190.383 164.412 190.619 164.265C190.855 164.118 191.129 164.044 191.407 164.051C191.788 164.074 192.146 164.246 192.403 164.529C192.66 164.811 192.796 165.184 192.783 165.566Z" fill="white"/>
</g>
<path d="M186.559 66.1868C187.037 65.9762 187.442 65.6296 187.725 65.1902C188.008 64.7508 188.155 64.2379 188.148 63.7154C188.166 63.3758 188.115 63.0361 187.997 62.717C187.879 62.3979 187.698 62.1061 187.464 61.8593C187.23 61.6126 186.948 61.4161 186.636 61.2819C186.323 61.1476 185.987 61.0784 185.647 61.0784C185.307 61.0784 184.97 61.1476 184.658 61.2819C184.346 61.4161 184.064 61.6126 183.83 61.8593C183.596 62.1061 183.414 62.3979 183.297 62.717C183.179 63.0361 183.128 63.3758 183.145 63.7154C183.135 64.2432 183.281 64.7622 183.565 65.2069C183.849 65.6517 184.259 66.0022 184.742 66.2143C180.888 66.7926 181.06 70.9781 181.06 70.9781L190.172 71.0194C190.172 71.0194 190.385 66.7582 186.559 66.1868Z" fill="#FD5631"/>
<path opacity="0.1" d="M186.559 66.1868C187.037 65.9762 187.442 65.6296 187.725 65.1902C188.008 64.7508 188.155 64.2379 188.148 63.7154C188.166 63.3758 188.115 63.0361 187.997 62.717C187.879 62.3979 187.698 62.1061 187.464 61.8593C187.23 61.6126 186.948 61.4161 186.636 61.2819C186.323 61.1476 185.987 61.0784 185.647 61.0784C185.307 61.0784 184.97 61.1476 184.658 61.2819C184.346 61.4161 184.064 61.6126 183.83 61.8593C183.596 62.1061 183.414 62.3979 183.297 62.717C183.179 63.0361 183.128 63.3758 183.145 63.7154C183.135 64.2432 183.281 64.7622 183.565 65.2069C183.849 65.6517 184.259 66.0022 184.742 66.2143C180.888 66.7926 181.06 70.9781 181.06 70.9781L190.172 71.0194C190.172 71.0194 190.385 66.7582 186.559 66.1868Z" fill="black"/>
<path d="M201.365 73.7172L168.89 73.5698L168.873 77.4524L201.348 77.5998L201.365 73.7172Z" fill="#FD5631"/>
<path opacity="0.2" d="M201.365 73.7172L168.89 73.5698L168.873 77.4524L201.348 77.5998L201.365 73.7172Z" fill="white"/>
<path d="M99.0625 43.7347H98.739L97.8031 43.8035C97.2966 43.834 96.7929 43.9007 96.296 44.0032C95.9741 44.0484 95.6548 44.1104 95.3394 44.189L94.2727 44.485C92.4572 45.0422 90.7442 45.8908 89.2008 46.9977C87.1616 48.4783 85.4589 50.3739 84.2046 52.56C83.4674 53.8201 82.8807 55.1625 82.4566 56.5596C82.011 58.078 81.7544 59.6456 81.6927 61.2269C81.6517 62.0576 81.6655 62.8901 81.734 63.7189C81.734 64.1389 81.851 64.5588 81.9061 64.9856C81.9524 65.4158 82.0329 65.8417 82.1469 66.2591C82.7658 69.0215 84.0214 71.601 85.8136 73.7918C87.6059 75.9827 89.8852 77.7242 92.4697 78.8775C94.3402 79.6849 96.3451 80.1355 98.3812 80.2061C100.484 80.3218 102.589 80.02 104.575 79.3181L105.18 79.0909H105.263L105.332 79.1322L114.01 83.538L113.755 83.7583C112.826 80.8808 111.931 78.0927 111.064 75.4149V75.3116L111.14 75.2359C113.245 73.1149 114.808 70.5173 115.696 67.6635C116.5 65.0544 116.735 62.303 116.384 59.5954C116.072 57.1891 115.299 54.8657 114.106 52.7527C113.078 50.9376 111.752 49.3086 110.184 47.9339C108.889 46.8458 107.457 45.9338 105.924 45.2216C104.763 44.7211 103.555 44.3405 102.318 44.0858L100.941 43.8586L99.9433 43.7829L99.3377 43.7416H99.1313C99.1999 43.7339 99.2691 43.7339 99.3377 43.7416H99.9502L100.948 43.7829L102.324 43.9825C103.577 44.2186 104.802 44.5854 105.979 45.0771C107.538 45.7808 108.997 46.6907 110.314 47.7825C111.912 49.151 113.266 50.7803 114.319 52.6013C115.546 54.7369 116.343 57.0918 116.666 59.5335C117.046 62.2829 116.828 65.0819 116.026 67.7392C115.133 70.6524 113.546 73.3052 111.402 75.4699L111.443 75.2909C112.31 77.9688 113.212 80.7568 114.147 83.6275L114.278 84.0474L113.886 83.8478L105.208 79.4489H105.359L104.74 79.6761C102.716 80.3885 100.572 80.6972 98.4293 80.5847C96.3494 80.5055 94.3026 80.0386 92.394 79.2079C88.7533 77.6482 85.7243 74.9375 83.771 71.491C82.8722 69.8993 82.2158 68.1823 81.8235 66.3968C81.7161 65.9686 81.6356 65.534 81.5826 65.0957C81.5276 64.662 81.4381 64.2352 81.4175 63.8084C81.2312 61.359 81.49 58.8961 82.1813 56.5389C82.616 55.1226 83.219 53.7636 83.9775 52.4911C85.2617 50.2852 86.9999 48.3775 89.0769 46.8944C90.6457 45.7847 92.3875 44.9427 94.2314 44.4024L95.3119 44.1271C95.6299 44.0533 95.9514 43.9958 96.2753 43.955C96.7774 43.862 97.2858 43.8067 97.7962 43.7897L98.739 43.7553C98.8462 43.7409 98.9543 43.734 99.0625 43.7347Z" fill="#FD5631"/>
<path d="M102.982 59.7897H101.709L98.9565 55.9209V53.3807C98.9565 53.3807 96.9883 53.2568 97.2223 56.5818C97.4563 59.9067 97.2223 59.06 97.2223 59.06C97.2223 59.06 93.045 59.06 92.7009 59.4386C92.3569 59.8173 92.3362 63.8513 92.288 66.1023C92.2617 66.645 92.4173 67.1809 92.7303 67.6249C93.0432 68.0689 93.4956 68.3956 94.0154 68.553C94.1611 68.5934 94.3115 68.6143 94.4627 68.615C95.5087 68.615 100.828 67.7683 100.828 67.7683H103.024L102.982 59.7897Z" fill="#FD5631"/>
<path d="M106.627 59.1099L105.843 67.8112H103.668V59.2889L106.627 59.1099Z" fill="#FD5631"/>
<path d="M88.9401 286.356V280.471L78.3902 280.395L78.3008 289.296L78.9546 289.344C81.8656 289.53 93.7642 289.805 95.7187 289.199C97.8933 288.525 88.9401 286.356 88.9401 286.356Z" fill="#FD5631"/>
<path d="M95.9672 288.65C95.9672 288.747 92.017 288.829 87.1516 288.829C82.2861 288.829 78.3359 288.747 78.3359 288.65C78.3359 288.554 82.2861 288.471 87.1516 288.471C92.017 288.471 95.9672 288.554 95.9672 288.65Z" fill="#1F1B2D"/>
<path d="M89.1287 287.563C89.0392 287.514 89.1287 287.205 89.342 286.874C89.5554 286.544 89.8444 286.406 89.9132 286.475C89.9821 286.544 89.8375 286.805 89.6311 287.087C89.4246 287.37 89.2182 287.611 89.1287 287.563Z" fill="#1F1B2D"/>
<path d="M89.8016 287.95C89.7052 287.95 89.7534 287.565 89.9599 287.2C90.1663 286.835 90.4416 286.615 90.5173 286.67C90.593 286.725 90.4691 287.035 90.2764 287.358C90.0837 287.682 89.891 287.985 89.8016 287.95Z" fill="#1F1B2D"/>
<path d="M81.5168 288.623C81.4756 288.623 81.3173 288.499 81.0902 288.238C80.813 287.901 80.5041 287.592 80.168 287.315C79.8375 287.051 79.4437 286.878 79.0256 286.813C78.7022 286.771 78.4957 286.813 78.4751 286.771C78.4544 286.73 78.654 286.585 79.0325 286.558C79.532 286.547 80.0193 286.713 80.4089 287.026C80.7739 287.324 81.0817 287.685 81.3173 288.093C81.4756 288.396 81.5581 288.596 81.5168 288.623Z" fill="#1F1B2D"/>
<path d="M89.1627 286.451C89.2109 286.534 89.0319 286.74 88.7291 286.85C88.4263 286.961 88.1579 286.919 88.1442 286.85C88.1304 286.782 88.3438 286.637 88.6053 286.541C88.8668 286.444 89.1077 286.368 89.1627 286.451Z" fill="#1F1B2D"/>
<path d="M88.9959 285.885C88.9959 285.988 88.7206 286.071 88.3628 286.078C88.0049 286.085 87.7227 286.002 87.7296 285.906C87.7365 285.809 88.0187 285.72 88.3628 285.713C88.7068 285.706 88.9821 285.789 88.9959 285.885Z" fill="#1F1B2D"/>
<path d="M114.919 286.356V280.471L104.369 280.395L104.28 289.206L104.934 289.255C107.845 289.44 119.75 289.805 121.698 289.199C123.872 288.525 114.919 286.356 114.919 286.356Z" fill="#FD5631"/>
<path d="M121.948 288.667C121.948 288.763 118.005 288.846 113.132 288.846C108.26 288.846 104.324 288.763 104.324 288.667C104.324 288.571 108.267 288.488 113.132 288.488C117.998 288.488 121.948 288.571 121.948 288.667Z" fill="#1F1B2D"/>
<path d="M115.107 287.563C115.025 287.514 115.107 287.205 115.321 286.874C115.534 286.544 115.823 286.406 115.892 286.475C115.961 286.544 115.816 286.805 115.61 287.087C115.403 287.37 115.197 287.611 115.107 287.563Z" fill="#1F1B2D"/>
<path d="M115.782 287.95C115.692 287.95 115.734 287.565 115.947 287.2C116.16 286.835 116.429 286.615 116.504 286.67C116.58 286.725 116.449 287.035 116.257 287.358C116.064 287.682 115.878 287.985 115.782 287.95Z" fill="#1F1B2D"/>
<path d="M107.496 288.623C107.455 288.623 107.303 288.499 107.069 288.238C106.792 287.901 106.483 287.592 106.147 287.315C105.816 287.051 105.423 286.878 105.005 286.813C104.688 286.771 104.475 286.813 104.454 286.771C104.433 286.73 104.633 286.585 105.012 286.558C105.511 286.547 105.998 286.713 106.388 287.026C106.755 287.322 107.063 287.684 107.296 288.093C107.455 288.396 107.537 288.596 107.496 288.623Z" fill="#1F1B2D"/>
<path d="M115.142 286.451C115.19 286.534 115.011 286.74 114.708 286.85C114.405 286.961 114.137 286.919 114.123 286.85C114.109 286.782 114.323 286.637 114.584 286.541C114.846 286.444 115.087 286.368 115.142 286.451Z" fill="#1F1B2D"/>
<path d="M114.989 285.885C114.989 285.988 114.714 286.071 114.356 286.078C113.998 286.085 113.723 286.002 113.73 285.906C113.737 285.809 114.012 285.72 114.356 285.713C114.7 285.706 114.989 285.789 114.989 285.885Z" fill="#1F1B2D"/>
<path d="M153.789 111.572C153.514 111.289 152.833 111.427 152.833 111.427C152.901 111.031 152.901 110.626 152.833 110.229C152.709 109.844 151.842 109.919 151.842 109.919C151.802 109.595 151.802 109.267 151.842 108.942C151.849 108.87 151.833 108.798 151.797 108.735C151.762 108.672 151.707 108.622 151.642 108.591C151.232 108.424 150.791 108.344 150.348 108.357C149.818 107.978 151.966 104.97 152.764 104.006C153.562 103.042 153.418 102.292 152.709 102.292C152.22 102.292 149.715 105.183 148.944 106.154C148.174 107.125 146.13 109.823 146.061 107.668C145.992 105.514 145.125 103.889 144.581 103.614C144.038 103.338 143.46 103.985 143.755 104.584C144.015 105.265 144.178 105.979 144.237 106.705C144.312 107.283 144.286 107.87 144.162 108.439C143.933 109.499 143.623 110.54 143.232 111.551H143.177C143.177 111.551 128.161 125.959 127.074 126.985C126.104 127.907 106.587 125.89 102.671 125.477C101.34 125.283 99.9967 125.19 98.652 125.202C96.9521 125.278 96.6494 125.519 94.9564 125.539C90.681 125.587 86.4156 125.962 82.1975 126.661C80.2876 126.986 78.5035 127.829 77.0399 129.099C75.5763 130.369 74.4895 132.017 73.898 133.862C69.9547 146.184 61.0221 175.352 59.4462 191.736C58.2553 193.896 57.1802 196.118 56.2255 198.393C55.1175 201.408 55.3859 201.511 55.7575 201.58C56.7623 201.766 57.9047 196.355 58.3313 197.663C58.758 198.971 56.1636 204.113 57.2165 204.265C58.5928 204.457 59.687 198.757 59.8178 198.303C59.9486 197.849 60.6299 197.993 60.506 198.42C60.3064 199.026 58.3726 205.449 59.7215 205.655C60.4647 205.765 60.5473 204.409 60.5473 204.409C60.5473 204.409 61.9236 198.262 62.5499 198.386C63.1761 198.51 62.5086 202.138 62.192 203.349C61.8755 204.561 62.3159 205.173 62.9628 204.877C63.4032 204.671 64.4562 200.988 64.7452 199.79C65.0342 198.592 65.7568 195.274 66.7272 197.195C67.6975 199.115 69.1702 200.231 69.7758 200.258C69.9123 200.242 70.0409 200.186 70.1451 200.097C70.2494 200.007 70.3245 199.889 70.3607 199.756C70.397 199.624 70.3928 199.483 70.3487 199.353C70.3045 199.223 70.2224 199.109 70.113 199.026C69.5921 198.517 69.1451 197.938 68.7848 197.305C68.4638 196.812 68.2309 196.267 68.0966 195.694C67.8193 194.552 67.6579 193.385 67.6149 192.211L67.5048 191.522C69.0463 183.888 73.4851 161.481 79.8921 147.169L82.521 152.58L83.6633 156.586L76.6576 173.886L106.539 173.493L102.079 156.325L107.495 138.426C113.352 138.557 128.388 138.777 130.893 137.641C134.045 136.265 150.348 115.668 150.348 115.668C151.411 114.842 152.429 113.959 153.397 113.024C153.397 113.024 154.388 112.191 153.789 111.572Z" fill="#FFBE9D"/>
<path d="M75.3428 161.102C76.2099 158.142 80.6625 143.506 80.6625 143.506C80.6625 143.506 82.8509 155.436 82.2728 156.875C81.7411 158.107 81.1129 159.295 80.3941 160.427C75.3428 168.117 76.0035 171.965 76.0035 171.965L106.524 171.035C106.593 166.767 104.068 156.841 103.545 155.257C103.022 153.674 104.763 148.49 104.763 148.49C104.763 148.49 108.204 144.986 108.08 143.183C108.014 141.563 107.814 139.951 107.481 138.364L126.062 139.052L125.477 126.455L98.7892 123.784C97.8602 126.406 89.4574 125.119 89.4574 125.119C80.3872 125.422 79.8229 127.088 76.0516 130.021C72.2804 132.953 66.0386 158.121 66.0386 158.121L75.3428 161.102Z" fill="#FD5631"/>
<path d="M93.3875 158.124C92.8586 158.219 92.3199 158.247 91.784 158.207C90.7862 158.207 89.4167 158.138 87.9095 157.987C86.4024 157.835 85.0398 157.622 84.0695 157.429C83.5345 157.36 83.0098 157.226 82.5073 157.03C83.0454 157.03 83.5822 157.081 84.1108 157.181C85.088 157.305 86.4437 157.477 87.944 157.629C89.4442 157.78 90.8068 157.883 91.7909 157.952C92.3273 157.959 92.8619 158.017 93.3875 158.124Z" fill="#1F1B2D"/>
<path d="M95.4798 155.528C94.9507 155.787 94.3912 155.979 93.8144 156.099C91.0687 156.821 88.2361 157.157 85.3979 157.097C84.8106 157.117 84.2232 157.061 83.6499 156.932C84.2295 156.859 84.8138 156.829 85.3979 156.843C86.4783 156.808 87.9648 156.733 89.6027 156.54C91.2406 156.347 92.6995 156.072 93.7318 155.851C94.3051 155.698 94.8896 155.59 95.4798 155.528Z" fill="#1F1B2D"/>
<path d="M105.747 143.948C105.733 144.473 105.661 144.994 105.533 145.504C105.354 146.46 105.079 147.768 104.728 149.2C104.377 150.632 104.04 151.954 103.737 152.849C103.615 153.361 103.435 153.858 103.2 154.329C103.239 153.806 103.335 153.288 103.489 152.787C103.751 151.713 104.047 150.474 104.377 149.118C104.707 147.761 105.024 146.522 105.285 145.448C105.379 144.932 105.533 144.428 105.747 143.948Z" fill="#1F1B2D"/>
<path d="M75.6656 159.35C74.0735 159.104 72.5023 158.738 70.9653 158.255C69.3948 157.888 67.8536 157.404 66.3545 156.809C67.9458 157.059 69.5167 157.425 71.0548 157.904C72.6257 158.27 74.1669 158.753 75.6656 159.35Z" fill="#1F1B2D"/>
<path d="M107.812 138.214C107.552 138.258 107.287 138.258 107.027 138.214C106.308 138.14 105.602 137.971 104.928 137.711C103.802 137.288 102.777 136.634 101.919 135.791C101.061 134.948 100.389 133.935 99.9456 132.817C99.4555 131.587 99.2463 130.262 99.3331 128.941C99.3638 127.851 99.6896 126.79 100.276 125.871C100.688 125.252 101.304 124.796 102.017 124.583C102.207 124.531 102.404 124.505 102.602 124.508C102.74 124.508 102.808 124.508 102.808 124.508C102.808 124.508 102.519 124.508 102.058 124.694C101.404 124.935 100.85 125.388 100.482 125.981C99.5464 127.454 99.2849 130.146 100.283 132.658C100.747 133.843 101.474 134.907 102.409 135.77C103.175 136.476 104.058 137.044 105.017 137.45C105.918 137.806 106.855 138.062 107.812 138.214Z" fill="#1F1B2D"/>
<path d="M123.854 138.805C123.682 136.694 123.627 134.575 123.689 132.458C123.635 130.343 123.699 128.226 123.881 126.118C124.054 128.227 124.109 130.343 124.047 132.458C124.104 134.576 124.04 136.695 123.854 138.805Z" fill="#1F1B2D"/>
<path d="M98.6124 124.555C98.6881 123.02 98.8464 121.285 98.8464 121.285C98.8464 121.285 102.645 120.865 102.872 116.941C103.099 113.018 102.872 103.965 102.872 103.965L95.9904 100.44L88.3516 106.45L89.5284 126.07L96.5341 126.517C97.0696 126.532 97.5891 126.334 97.9787 125.966C98.3683 125.598 98.5962 125.091 98.6124 124.555Z" fill="#FFBE9D"/>
<path d="M99.2901 113.835C99.2901 113.835 99.2901 113.91 99.2282 114C99.177 114.065 99.1108 114.116 99.0352 114.15C98.9597 114.183 98.8771 114.198 98.7946 114.193C98.3542 114.193 97.9275 113.683 97.7761 113.091C97.7042 112.804 97.7042 112.504 97.7761 112.217C97.7903 112.092 97.8354 111.972 97.9075 111.868C97.9796 111.765 98.0764 111.681 98.189 111.625C98.2816 111.587 98.3855 111.587 98.4781 111.625C98.5467 111.659 98.6023 111.715 98.6364 111.783C98.6845 111.9 98.6364 111.976 98.6364 111.969C98.6364 111.962 98.6364 111.9 98.5675 111.831C98.5316 111.782 98.4787 111.748 98.419 111.735C98.3593 111.722 98.297 111.732 98.2441 111.763C98.1597 111.814 98.0895 111.885 98.0402 111.971C97.9909 112.056 97.964 112.153 97.9619 112.251C97.904 112.507 97.904 112.773 97.9619 113.029C98.0996 113.566 98.4712 114 98.8015 114.041C98.8661 114.05 98.9319 114.045 98.9946 114.027C99.0574 114.01 99.1158 113.979 99.1663 113.938C99.2488 113.883 99.2764 113.828 99.2901 113.835Z" fill="#EB996E"/>
<path d="M105.231 101.845C104.701 100.042 102.781 99.1466 101.033 98.651C98.3694 97.8937 95.4928 97.5633 92.8915 98.5202C90.2901 99.4771 87.1658 101.157 87.1658 104.027C85.6311 103.903 84.7503 105.246 84.1447 106.912C83.7575 107.927 83.5255 108.994 83.4565 110.078C83.2638 113.837 82.2109 119.028 79.7747 121.781C78.3983 123.316 76.4921 124.377 75.7075 126.29C75.0194 127.949 75.3772 129.918 74.7372 131.598C74.166 133.078 72.9066 134.131 71.9845 135.418C71.045 136.879 70.4921 138.554 70.3777 140.287C70.2634 142.02 70.5913 143.753 71.3307 145.325C72.0754 146.855 73.1239 148.219 74.4124 149.331C75.7008 150.444 77.2022 151.282 78.825 151.795C82.0395 152.774 85.4674 152.807 88.7004 151.892C91.1268 151.312 93.3902 150.189 95.3207 148.608C97.2961 146.995 98.6528 144.747 99.1608 142.247C99.6494 139.439 98.8649 136.582 98.2799 133.787C96.4494 124.955 96.9724 124.494 99.2847 116.295C99.3397 116.15 99.3673 115.999 99.4086 115.854C99.4498 115.71 99.4705 115.641 99.498 115.531C99.5637 115.206 99.5983 114.877 99.6012 114.546C99.2635 114.672 98.8969 114.698 98.5446 114.623C98.1923 114.547 97.8689 114.372 97.6124 114.119C97.3553 113.849 97.1761 113.515 97.0937 113.151C97.0113 112.788 97.0288 112.409 97.1444 112.054C97.3068 111.666 97.5487 111.317 97.8546 111.029C98.1605 110.741 98.5234 110.52 98.9199 110.381C99.6838 110.065 100.503 109.899 101.253 109.548C102.843 108.791 103.944 107.222 104.694 105.576C105.311 104.436 105.501 103.113 105.231 101.845Z" fill="#1F1B2D"/>
<path d="M99.5699 114.022C99.7154 114.237 99.8354 114.468 99.9278 114.71C100.134 115.144 100.41 115.757 100.712 116.466L100.767 116.597H100.623L99.9347 116.659C99.4598 116.659 99.0607 116.748 98.5927 116.741C98.552 116.732 98.5142 116.713 98.4829 116.685C98.4517 116.657 98.4279 116.622 98.4138 116.583C98.3933 116.52 98.3933 116.453 98.4138 116.39C98.4297 116.297 98.4504 116.205 98.4757 116.115L98.5996 115.626C98.6619 115.3 98.7588 114.981 98.8887 114.676C98.8758 115.008 98.8274 115.338 98.7441 115.66L98.6478 116.149C98.6134 116.314 98.5514 116.569 98.6478 116.548C98.9919 116.548 99.4805 116.473 99.9347 116.445L100.623 116.383L100.533 116.535C100.237 115.846 99.9897 115.199 99.8452 114.752C99.7184 114.523 99.6257 114.277 99.5699 114.022Z" fill="#FD5631"/>
<path d="M76.0039 171.965L106.525 171.036L119.807 222.9L117.364 282.391H101.226L103.201 224.167L91.3985 188.06L93.2153 284.698L76.9054 284.939L75.1918 194.104C75.1161 191.578 74.2903 185.885 74.6 183.379L76.0039 171.965Z" fill="#1F1B2D"/>
<path d="M95.4609 188.796C94.9613 188.827 94.4598 188.797 93.9675 188.706C93.0454 188.596 91.786 188.403 90.4027 188.128C89.0195 187.853 87.7808 187.536 86.8861 187.281C86.4079 187.176 85.9453 187.009 85.5098 186.786C85.5098 186.682 87.7532 187.219 90.506 187.777C93.2587 188.334 95.4746 188.692 95.4609 188.796Z" fill="#666276"/>
<path d="M117.198 279.126C117.198 279.222 113.544 279.305 109.036 279.305C104.529 279.305 100.868 279.222 100.868 279.126C100.868 279.029 104.522 278.947 109.036 278.947C113.551 278.947 117.198 279.022 117.198 279.126Z" fill="#666276"/>
<path d="M93.07 282.188C93.07 282.292 89.519 282.367 85.1422 282.367C80.7653 282.367 77.2212 282.292 77.2212 282.188C77.2212 282.085 80.7722 282.009 85.1422 282.009C89.5121 282.009 93.07 282.092 93.07 282.188Z" fill="#666276"/>
<path d="M90.9652 281.938C90.8689 281.938 90.4422 260.825 90.0086 234.782C89.5751 208.74 89.3205 187.613 89.4099 187.613C89.4994 187.613 89.9398 208.72 90.3665 234.776C90.7932 260.832 91.0684 281.938 90.9652 281.938Z" fill="#666276"/>
<path d="M115.032 279.127C115.025 279.033 115.025 278.939 115.032 278.845V278.019C115.032 277.275 115.087 276.208 115.129 274.852C115.225 272.098 115.363 268.099 115.535 263.197C115.906 253.339 116.429 239.75 117.001 224.75C117.001 224.606 117.001 224.468 117.001 224.344V224.392C113.388 209.936 110.119 196.815 107.745 187.322L104.992 176.094C104.675 174.779 104.434 173.753 104.262 173.038C104.18 172.7 104.125 172.439 104.076 172.239C104.05 172.149 104.034 172.057 104.028 171.964C104.064 172.05 104.092 172.14 104.111 172.232C104.166 172.425 104.235 172.686 104.331 173.017C104.517 173.705 104.785 174.752 105.129 176.06C105.818 178.717 106.788 182.544 107.999 187.26C110.394 196.746 113.697 209.833 117.358 224.31V224.358C117.358 224.482 117.358 224.626 117.358 224.764C116.746 239.764 116.189 253.346 115.782 263.204C115.569 268.113 115.39 272.085 115.266 274.852C115.198 276.229 115.142 277.275 115.108 278.019C115.108 278.37 115.067 278.645 115.06 278.845C115.061 278.939 115.052 279.034 115.032 279.127Z" fill="#666276"/>
<path d="M109.766 223.135C108.607 223.517 107.412 223.782 106.201 223.927C104.714 224.182 103.448 224.361 102.877 224.388V224.251C103.063 224.306 103.159 224.34 103.159 224.368C103.159 224.395 103.042 224.368 102.849 224.368H102.437L102.849 224.244C103.386 224.085 104.652 223.824 106.139 223.555C107.331 223.297 108.546 223.156 109.766 223.135Z" fill="#666276"/>
<path d="M109.485 225.113C108.412 225.163 107.336 225.114 106.271 224.969C105.196 224.947 104.125 224.829 103.071 224.618C105.222 224.442 107.387 224.61 109.485 225.113Z" fill="#666276"/>
<path opacity="0.2" d="M75.875 173.06C76.2365 173.524 76.6917 173.907 77.2111 174.183C77.7305 174.46 78.3023 174.623 78.8892 174.664C80.1185 174.809 81.3618 174.786 82.5848 174.595C90.4645 173.721 98.8121 172.915 106.527 171.036C96.5411 171.593 85.9913 171.408 76.0058 171.965L75.9025 172.819" fill="black"/>
<g opacity="0.2">
<path opacity="0.2" d="M86.1631 187.139L91.7924 208.989L91.4002 188.061L86.1631 187.139Z" fill="black"/>
</g>
</svg>
