<svg width="20" height="20" viewBox="0 0 20 20" fill="none" xmlns="http://www.w3.org/2000/svg">
<path d="M18.5021 3.44531H1.49785C0.670586 3.44531 0 4.1159 0 4.94316V15.0509C0 15.8782 0.670586 16.5488 1.49785 16.5488H18.5021C19.3294 16.5488 20 15.8782 20 15.0509V4.94316C20 4.1159 19.3294 3.44531 18.5021 3.44531Z" fill="#F5F5F5"/>
<path d="M0.0820312 4.45328H19.9172C19.7143 3.86668 19.1574 3.44531 18.5018 3.44531H1.4975C0.841875 3.44531 0.285039 3.86668 0.0820312 4.45328Z" fill="#FF4B55"/>
<path d="M20 7.47656H0V8.48449H20V7.47656Z" fill="#FF4B55"/>
<path d="M20 5.46094H0V6.46887H20V5.46094Z" fill="#FF4B55"/>
<path d="M0 10.1592C0 10.3496 0.154414 10.504 0.344844 10.504H20V9.49609H0V10.1592Z" fill="#FF4B55"/>
<path d="M20 13.5273H0V14.5353H20V13.5273Z" fill="#FF4B55"/>
<path d="M19.9173 15.5391H0.0820312C0.285039 16.1257 0.841914 16.547 1.4975 16.547H18.5018C19.1574 16.547 19.7143 16.1257 19.9173 15.5391Z" fill="#FF4B55"/>
<path d="M20 11.5078H0V12.5157H20V11.5078Z" fill="#FF4B55"/>
<path d="M0.344844 10.5059H8.96555C9.15598 10.5059 9.31039 10.3515 9.31039 10.1611V3.79504C9.31039 3.60457 9.15598 3.4502 8.96555 3.4502H1.49785C0.670586 3.45023 0 4.12082 0 4.94809V10.1611C0 10.3516 0.154414 10.5059 0.344844 10.5059Z" fill="#41479B"/>
<path d="M0.968216 4.23708L1.04454 4.46598L1.28583 4.46782C1.31708 4.46809 1.33001 4.50793 1.3049 4.52649L1.11079 4.66981L1.18361 4.89985C1.19306 4.92961 1.15911 4.9543 1.13368 4.9361L0.937396 4.79583L0.741107 4.93614C0.715678 4.95434 0.681811 4.92965 0.691186 4.89989L0.763998 4.66985L0.569897 4.52653C0.54478 4.50793 0.557709 4.46809 0.588959 4.46786L0.830248 4.46602L0.906576 4.23711C0.916419 4.20743 0.958294 4.20743 0.968216 4.23708Z" fill="#F5F5F5"/>
<path d="M0.968216 5.43334L1.04454 5.66224L1.28583 5.66408C1.31708 5.66435 1.33001 5.70416 1.3049 5.72275L1.11079 5.86611L1.18361 6.09615C1.19306 6.12592 1.15911 6.15061 1.13368 6.13241L0.937396 5.99213L0.741107 6.13244C0.715678 6.15061 0.681811 6.12596 0.691186 6.09619L0.763998 5.86615L0.569897 5.72279C0.54478 5.7042 0.557709 5.66439 0.588959 5.66412L0.830248 5.66228L0.906576 5.43337C0.916419 5.40373 0.958294 5.40373 0.968216 5.43334Z" fill="#F5F5F5"/>
<path d="M0.968216 6.63258L1.04454 6.86149L1.28583 6.86333C1.31708 6.8636 1.33001 6.9034 1.3049 6.922L1.11079 7.06536L1.18361 7.2954C1.19306 7.32516 1.15911 7.34985 1.13368 7.33165L0.937396 7.19137L0.741107 7.33169C0.715678 7.34985 0.681811 7.32524 0.691186 7.29544L0.763998 7.0654L0.569897 6.92204C0.54478 6.90344 0.557709 6.86364 0.588959 6.86336L0.830248 6.86153L0.906576 6.63262C0.916419 6.60293 0.958294 6.60293 0.968216 6.63258Z" fill="#F5F5F5"/>
<path d="M0.968216 7.8279L1.04454 8.0568L1.28583 8.05863C1.31708 8.05891 1.33001 8.09875 1.3049 8.11731L1.11079 8.26066L1.18361 8.4907C1.19306 8.52047 1.15911 8.54515 1.13368 8.52695L0.937396 8.38668L0.741107 8.52699C0.715678 8.54515 0.681811 8.5205 0.691186 8.49074L0.763998 8.2607L0.569897 8.11735C0.54478 8.09883 0.557709 8.05895 0.588959 8.05867L0.830248 8.05684L0.906576 7.82793C0.916419 7.79825 0.958294 7.79825 0.968216 7.8279Z" fill="#F5F5F5"/>
<path d="M0.968216 9.02611L1.04454 9.25501L1.28583 9.25685C1.31708 9.25712 1.33001 9.29693 1.3049 9.31552L1.11079 9.45888L1.18361 9.68892C1.19306 9.71869 1.15911 9.74337 1.13368 9.72517L0.937396 9.5849L0.741107 9.72521C0.715678 9.74337 0.681811 9.71873 0.691186 9.68896L0.763998 9.45892L0.569897 9.31556C0.54478 9.29697 0.557709 9.25716 0.588959 9.25689L0.830248 9.25505L0.906576 9.02615C0.916419 8.9965 0.958294 8.9965 0.968216 9.02611Z" fill="#F5F5F5"/>
<path d="M1.89742 4.82299L1.97374 5.0519L2.21503 5.05373C2.24628 5.05401 2.25921 5.09385 2.23409 5.1124L2.03999 5.25577L2.11281 5.48581C2.12226 5.51557 2.08831 5.54026 2.06288 5.52206L1.8666 5.38174L1.67031 5.52206C1.64488 5.54022 1.61101 5.51557 1.62038 5.48581L1.6932 5.25577L1.4991 5.1124C1.47398 5.09381 1.48691 5.05401 1.51816 5.05373L1.75945 5.0519L1.83578 4.82299C1.84562 4.79338 1.88753 4.79338 1.89742 4.82299Z" fill="#F5F5F5"/>
<path d="M1.89742 6.02224L1.97374 6.25114L2.21503 6.25298C2.24628 6.25325 2.25921 6.2931 2.23409 6.31165L2.03999 6.45501L2.11281 6.68505C2.12226 6.71481 2.08831 6.7395 2.06288 6.7213L1.8666 6.58099L1.67031 6.7213C1.64488 6.73946 1.61101 6.71485 1.62038 6.68505L1.6932 6.45501L1.4991 6.31165C1.47398 6.29314 1.48691 6.25325 1.51816 6.25298L1.75945 6.25114L1.83578 6.02224C1.84562 5.99259 1.88753 5.99259 1.89742 6.02224Z" fill="#F5F5F5"/>
<path d="M1.89742 7.21755L1.97374 7.44646L2.21503 7.44829C2.24628 7.44857 2.25921 7.48837 2.23409 7.50696L2.03999 7.65032L2.11281 7.88037C2.12226 7.91013 2.08831 7.93482 2.06288 7.91661L1.8666 7.7763L1.67031 7.91661C1.64488 7.93478 1.61101 7.91013 1.62038 7.88037L1.6932 7.65032L1.4991 7.50696C1.47398 7.48837 1.48691 7.44857 1.51816 7.44829L1.75945 7.44646L1.83578 7.21755C1.84562 7.1879 1.88753 7.1879 1.89742 7.21755Z" fill="#F5F5F5"/>
<path d="M1.89742 8.41674L1.97374 8.64564L2.21503 8.64748C2.24628 8.64775 2.25921 8.68756 2.23409 8.70615L2.03999 8.84951L2.11281 9.07955C2.12226 9.10931 2.08831 9.134 2.06288 9.1158L1.8666 8.97549L1.67031 9.1158C1.64488 9.134 1.61101 9.10931 1.62038 9.07955L1.6932 8.84951L1.4991 8.70615C1.47398 8.68756 1.48691 8.64775 1.51816 8.64748L1.75945 8.64564L1.83578 8.41674C1.84562 8.38713 1.88753 8.38713 1.89742 8.41674Z" fill="#F5F5F5"/>
<path d="M2.8271 4.23708L2.90343 4.46599L3.14472 4.46782C3.17597 4.4681 3.1889 4.50794 3.16378 4.52649L2.96968 4.66982L3.04249 4.89986C3.05195 4.92962 3.018 4.95431 2.99257 4.93611L2.79628 4.79579L2.59999 4.93611C2.57456 4.95431 2.5407 4.92962 2.55007 4.89986L2.62288 4.66982L2.42878 4.52649C2.40367 4.5079 2.4166 4.46806 2.44785 4.46782L2.68913 4.46599L2.76546 4.23708C2.77531 4.20743 2.81722 4.20743 2.8271 4.23708Z" fill="#F5F5F5"/>
<path d="M2.8271 5.43334L2.90343 5.66225L3.14472 5.66408C3.17597 5.66436 3.1889 5.70416 3.16378 5.72275L2.96968 5.86611L3.04249 6.09615C3.05195 6.12592 3.018 6.1506 2.99257 6.1324L2.79628 5.99209L2.59999 6.1324C2.57456 6.15057 2.5407 6.12592 2.55007 6.09615L2.62288 5.86611L2.42878 5.72275C2.40367 5.70416 2.4166 5.66436 2.44785 5.66408L2.68913 5.66225L2.76546 5.43334C2.77531 5.40373 2.81722 5.40373 2.8271 5.43334Z" fill="#F5F5F5"/>
<path d="M2.8271 6.63259L2.90343 6.86149L3.14472 6.86333C3.17597 6.8636 3.1889 6.90341 3.16378 6.922L2.96968 7.06536L3.04249 7.2954C3.05195 7.32517 3.018 7.34985 2.99257 7.33165L2.79628 7.19134L2.59999 7.33165C2.57456 7.34981 2.5407 7.32521 2.55007 7.2954L2.62288 7.06536L2.42878 6.922C2.40367 6.90341 2.4166 6.8636 2.44785 6.86333L2.68913 6.86149L2.76546 6.63259C2.77531 6.60294 2.81722 6.60294 2.8271 6.63259Z" fill="#F5F5F5"/>
<path d="M2.8271 7.8279L2.90343 8.05681L3.14472 8.05864C3.17597 8.05892 3.1889 8.09876 3.16378 8.11732L2.96968 8.26068L3.04249 8.49072C3.05195 8.52048 3.018 8.54517 2.99257 8.52697L2.79628 8.38665L2.59999 8.52697C2.57456 8.54513 2.5407 8.52048 2.55007 8.49072L2.62288 8.26068L2.42878 8.11732C2.40367 8.0988 2.4166 8.05892 2.44785 8.05864L2.68913 8.05681L2.76546 7.8279C2.77531 7.79825 2.81722 7.79825 2.8271 7.8279Z" fill="#F5F5F5"/>
<path d="M2.82759 9.02611L2.90392 9.25502L3.14521 9.25685C3.17646 9.25713 3.18939 9.29693 3.16427 9.31553L2.97017 9.45889L3.04298 9.68892C3.05243 9.71869 3.01849 9.74338 2.99306 9.72517L2.79677 9.58486L2.60048 9.72517C2.57505 9.74334 2.54119 9.71869 2.55056 9.68892L2.62337 9.45889L2.42927 9.31553C2.40415 9.29693 2.41708 9.25713 2.44833 9.25685L2.68962 9.25502L2.76595 9.02611C2.77579 8.9965 2.81771 8.9965 2.82759 9.02611Z" fill="#F5F5F5"/>
<path d="M3.75679 4.82299L3.83312 5.0519L4.07441 5.05373C4.10566 5.05401 4.11859 5.09385 4.09347 5.1124L3.89937 5.25577L3.97218 5.48581C3.98164 5.51557 3.94769 5.54026 3.92226 5.52206L3.72597 5.38174L3.52968 5.52206C3.50425 5.54022 3.47039 5.51557 3.47976 5.48581L3.55257 5.25577L3.35847 5.1124C3.33335 5.09381 3.34628 5.05401 3.37753 5.05373L3.61882 5.0519L3.69515 4.82299C3.70496 4.79338 3.74691 4.79338 3.75679 4.82299Z" fill="#F5F5F5"/>
<path d="M3.75679 6.02224L3.83312 6.25114L4.07441 6.25298C4.10566 6.25325 4.11859 6.2931 4.09347 6.31165L3.89937 6.45501L3.97218 6.68505C3.98164 6.71481 3.94769 6.7395 3.92226 6.7213L3.72597 6.58099L3.52968 6.7213C3.50425 6.73946 3.47039 6.71485 3.47976 6.68505L3.55257 6.45501L3.35847 6.31165C3.33335 6.29314 3.34628 6.25325 3.37753 6.25298L3.61882 6.25114L3.69515 6.02224C3.70496 5.99259 3.74691 5.99259 3.75679 6.02224Z" fill="#F5F5F5"/>
<path d="M3.75679 7.21755L3.83312 7.44646L4.07441 7.44829C4.10566 7.44857 4.11859 7.48837 4.09347 7.50696L3.89937 7.65032L3.97218 7.88037C3.98164 7.91013 3.94769 7.93482 3.92226 7.91661L3.72597 7.7763L3.52968 7.91661C3.50425 7.93478 3.47039 7.91013 3.47976 7.88037L3.55257 7.65032L3.35847 7.50696C3.33335 7.48837 3.34628 7.44857 3.37753 7.44829L3.61882 7.44646L3.69515 7.21755C3.70496 7.1879 3.74691 7.1879 3.75679 7.21755Z" fill="#F5F5F5"/>
<path d="M3.75679 8.41674L3.83312 8.64564L4.07441 8.64748C4.10566 8.64775 4.11859 8.68756 4.09347 8.70615L3.89937 8.84951L3.97218 9.07955C3.98164 9.10931 3.94769 9.134 3.92226 9.1158L3.72597 8.97549L3.52968 9.1158C3.50425 9.134 3.47039 9.10931 3.47976 9.07955L3.55257 8.84951L3.35847 8.70615C3.33335 8.68756 3.34628 8.64775 3.37753 8.64748L3.61882 8.64564L3.69515 8.41674C3.70496 8.38713 3.74691 8.38713 3.75679 8.41674Z" fill="#F5F5F5"/>
<path d="M4.68603 4.23708L4.76236 4.46598L5.00365 4.46782C5.0349 4.46809 5.04783 4.50793 5.02271 4.52649L4.82861 4.66981L4.90142 4.89985C4.91087 4.92961 4.87693 4.9543 4.8515 4.9361L4.65517 4.79583L4.45888 4.93614C4.43345 4.95434 4.39958 4.92965 4.40896 4.89989L4.48177 4.66985L4.28767 4.52653C4.26255 4.50793 4.27548 4.46809 4.30673 4.46786L4.54802 4.46602L4.62435 4.23711C4.63423 4.20743 4.67615 4.20743 4.68603 4.23708Z" fill="#F5F5F5"/>
<path d="M4.68603 5.43334L4.76236 5.66225L5.00365 5.66408C5.0349 5.66436 5.04783 5.70416 5.02271 5.72275L4.82861 5.86611L4.90142 6.09615C4.91087 6.12592 4.87693 6.1506 4.8515 6.1324L4.65517 5.99209L4.45888 6.1324C4.43345 6.15057 4.39958 6.12592 4.40896 6.09615L4.48177 5.86611L4.28767 5.72275C4.26255 5.70416 4.27548 5.66436 4.30673 5.66408L4.54802 5.66225L4.62435 5.43334C4.63423 5.40373 4.67615 5.40373 4.68603 5.43334Z" fill="#F5F5F5"/>
<path d="M4.68603 6.63259L4.76236 6.8615L5.00365 6.86334C5.0349 6.86361 5.04783 6.90341 5.02271 6.92201L4.82861 7.06537L4.90142 7.29541C4.91087 7.32517 4.87693 7.34986 4.8515 7.33166L4.65517 7.1913L4.45888 7.33162C4.43345 7.34978 4.39958 7.32513 4.40896 7.29537L4.48177 7.06533L4.28767 6.92197C4.26255 6.90337 4.27548 6.86357 4.30673 6.8633L4.54802 6.86146L4.62435 6.63255C4.63423 6.60294 4.67615 6.60294 4.68603 6.63259Z" fill="#F5F5F5"/>
<path d="M4.68603 7.8279L4.76236 8.05681L5.00365 8.05864C5.0349 8.05892 5.04783 8.09876 5.02271 8.11732L4.82861 8.26068L4.90142 8.49072C4.91087 8.52048 4.87693 8.54517 4.8515 8.52697L4.65517 8.38665L4.45888 8.52697C4.43345 8.54513 4.39958 8.52048 4.40896 8.49072L4.48177 8.26068L4.28767 8.11732C4.26255 8.0988 4.27548 8.05892 4.30673 8.05864L4.54802 8.05681L4.62435 7.8279C4.63423 7.79825 4.67615 7.79825 4.68603 7.8279Z" fill="#F5F5F5"/>
<path d="M4.68701 9.02611L4.76334 9.25502L5.00463 9.25685C5.03588 9.25713 5.0488 9.29693 5.02369 9.31553L4.82959 9.45889L4.9024 9.68892C4.91185 9.71869 4.87791 9.74338 4.85248 9.72517L4.65615 9.58486L4.45986 9.72517C4.43443 9.74334 4.40056 9.71869 4.40994 9.68892L4.48275 9.45889L4.28865 9.31553C4.26353 9.29693 4.27646 9.25713 4.30771 9.25685L4.549 9.25502L4.62533 9.02611C4.63521 8.9965 4.67712 8.9965 4.68701 9.02611Z" fill="#F5F5F5"/>
<path d="M5.61567 4.82299L5.692 5.0519L5.93329 5.05373C5.96454 5.05401 5.97747 5.09385 5.95235 5.1124L5.75825 5.25577L5.83106 5.48581C5.84052 5.51557 5.80657 5.54026 5.78114 5.52206L5.58485 5.38174L5.38857 5.52206C5.36314 5.54022 5.32927 5.51557 5.33865 5.48581L5.41146 5.25577L5.21736 5.1124C5.19224 5.09381 5.20517 5.05401 5.23642 5.05373L5.47771 5.0519L5.55403 4.82299C5.56392 4.79338 5.60579 4.79338 5.61567 4.82299Z" fill="#F5F5F5"/>
<path d="M5.61567 6.02224L5.692 6.25114L5.93329 6.25298C5.96454 6.25325 5.97747 6.2931 5.95235 6.31165L5.75825 6.45501L5.83106 6.68505C5.84052 6.71481 5.80657 6.7395 5.78114 6.7213L5.58485 6.58099L5.38857 6.7213C5.36314 6.73946 5.32927 6.71485 5.33865 6.68505L5.41146 6.45501L5.21736 6.31165C5.19224 6.29314 5.20517 6.25325 5.23642 6.25298L5.47771 6.25114L5.55403 6.02224C5.56392 5.99259 5.60579 5.99259 5.61567 6.02224Z" fill="#F5F5F5"/>
<path d="M5.61567 7.21755L5.692 7.44646L5.93329 7.44829C5.96454 7.44857 5.97747 7.48837 5.95235 7.50696L5.75825 7.65032L5.83106 7.88037C5.84052 7.91013 5.80657 7.93482 5.78114 7.91661L5.58485 7.7763L5.38857 7.91661C5.36314 7.93478 5.32927 7.91013 5.33865 7.88037L5.41146 7.65032L5.21736 7.50696C5.19224 7.48837 5.20517 7.44857 5.23642 7.44829L5.47771 7.44646L5.55403 7.21755C5.56392 7.1879 5.60579 7.1879 5.61567 7.21755Z" fill="#F5F5F5"/>
<path d="M5.61567 8.41674L5.692 8.64564L5.93329 8.64748C5.96454 8.64775 5.97747 8.68756 5.95235 8.70615L5.75825 8.84951L5.83106 9.07955C5.84052 9.10931 5.80657 9.134 5.78114 9.1158L5.58485 8.97549L5.38857 9.1158C5.36314 9.134 5.32927 9.10931 5.33865 9.07955L5.41146 8.84951L5.21736 8.70615C5.19224 8.68756 5.20517 8.64775 5.23642 8.64748L5.47771 8.64564L5.55403 8.41674C5.56392 8.38713 5.60579 8.38713 5.61567 8.41674Z" fill="#F5F5F5"/>
<path d="M6.54487 4.23708L6.6212 4.46599L6.86249 4.46782C6.89374 4.4681 6.90667 4.50794 6.88155 4.52649L6.68745 4.66982L6.76026 4.89986C6.76972 4.92962 6.73577 4.95431 6.71034 4.93611L6.51405 4.79579L6.31777 4.93611C6.29234 4.95431 6.25847 4.92962 6.26784 4.89986L6.34066 4.66982L6.14656 4.52649C6.12144 4.5079 6.13437 4.46806 6.16562 4.46782L6.40691 4.46599L6.48323 4.23708C6.49304 4.20743 6.53499 4.20743 6.54487 4.23708Z" fill="#F5F5F5"/>
<path d="M6.54487 5.43334L6.6212 5.66225L6.86249 5.66408C6.89374 5.66436 6.90667 5.70416 6.88155 5.72275L6.68745 5.86611L6.76026 6.09615C6.76972 6.12592 6.73577 6.1506 6.71034 6.1324L6.51405 5.99209L6.31777 6.1324C6.29234 6.15057 6.25847 6.12592 6.26784 6.09615L6.34066 5.86611L6.14656 5.72275C6.12144 5.70416 6.13437 5.66436 6.16562 5.66408L6.40691 5.66225L6.48323 5.43334C6.49304 5.40373 6.53499 5.40373 6.54487 5.43334Z" fill="#F5F5F5"/>
<path d="M6.54487 6.63259L6.6212 6.86149L6.86249 6.86333C6.89374 6.8636 6.90667 6.90341 6.88155 6.922L6.68745 7.06536L6.76026 7.2954C6.76972 7.32517 6.73577 7.34985 6.71034 7.33165L6.51405 7.19134L6.31777 7.33165C6.29234 7.34981 6.25847 7.32521 6.26784 7.2954L6.34066 7.06536L6.14656 6.922C6.12144 6.90341 6.13437 6.8636 6.16562 6.86333L6.40691 6.86149L6.48323 6.63259C6.49304 6.60294 6.53499 6.60294 6.54487 6.63259Z" fill="#F5F5F5"/>
<path d="M6.54487 7.8279L6.6212 8.05681L6.86249 8.05864C6.89374 8.05892 6.90667 8.09876 6.88155 8.11732L6.68745 8.26068L6.76026 8.49072C6.76972 8.52048 6.73577 8.54517 6.71034 8.52697L6.51405 8.38665L6.31777 8.52697C6.29234 8.54513 6.25847 8.52048 6.26784 8.49072L6.34066 8.26068L6.14656 8.11732C6.12144 8.0988 6.13437 8.05892 6.16562 8.05864L6.40691 8.05681L6.48323 7.8279C6.49304 7.79825 6.53499 7.79825 6.54487 7.8279Z" fill="#F5F5F5"/>
<path d="M6.54438 9.02611L6.62071 9.25502L6.862 9.25685C6.89325 9.25713 6.90618 9.29693 6.88106 9.31553L6.68696 9.45889L6.75977 9.68892C6.76923 9.71869 6.73528 9.74338 6.70985 9.72517L6.51356 9.58486L6.31728 9.72517C6.29185 9.74334 6.25798 9.71869 6.26736 9.68892L6.34017 9.45889L6.14607 9.31553C6.12095 9.29693 6.13388 9.25713 6.16513 9.25685L6.40642 9.25502L6.48274 9.02611C6.49255 8.9965 6.5345 8.9965 6.54438 9.02611Z" fill="#F5F5F5"/>
<path d="M7.47456 4.82299L7.55089 5.0519L7.79218 5.05373C7.82343 5.05401 7.83636 5.09385 7.81124 5.1124L7.61714 5.25577L7.68995 5.48581C7.69941 5.51557 7.66546 5.54026 7.64003 5.52206L7.44374 5.38174L7.24745 5.52206C7.22202 5.54022 7.18816 5.51557 7.19753 5.48581L7.27034 5.25577L7.07624 5.1124C7.05113 5.09381 7.06406 5.05401 7.09531 5.05373L7.33659 5.0519L7.41292 4.82299C7.42277 4.79338 7.46468 4.79338 7.47456 4.82299Z" fill="#F5F5F5"/>
<path d="M7.47456 6.02224L7.55089 6.25114L7.79218 6.25298C7.82343 6.25325 7.83636 6.2931 7.81124 6.31165L7.61714 6.45501L7.68995 6.68505C7.69941 6.71481 7.66546 6.7395 7.64003 6.7213L7.44374 6.58099L7.24745 6.7213C7.22202 6.73946 7.18816 6.71485 7.19753 6.68505L7.27034 6.45501L7.07624 6.31165C7.05113 6.29314 7.06406 6.25325 7.09531 6.25298L7.33659 6.25114L7.41292 6.02224C7.42277 5.99259 7.46468 5.99259 7.47456 6.02224Z" fill="#F5F5F5"/>
<path d="M7.47456 7.21755L7.55089 7.44646L7.79218 7.44829C7.82343 7.44857 7.83636 7.48837 7.81124 7.50696L7.61714 7.65032L7.68995 7.88037C7.69941 7.91013 7.66546 7.93482 7.64003 7.91661L7.44374 7.7763L7.24745 7.91661C7.22202 7.93478 7.18816 7.91013 7.19753 7.88037L7.27034 7.65032L7.07624 7.50696C7.05113 7.48837 7.06406 7.44857 7.09531 7.44829L7.33659 7.44646L7.41292 7.21755C7.42277 7.1879 7.46468 7.1879 7.47456 7.21755Z" fill="#F5F5F5"/>
<path d="M7.47456 8.41674L7.55089 8.64564L7.79218 8.64748C7.82343 8.64775 7.83636 8.68756 7.81124 8.70615L7.61714 8.84951L7.68995 9.07955C7.69941 9.10931 7.66546 9.134 7.64003 9.1158L7.44374 8.97549L7.24745 9.1158C7.22202 9.134 7.18816 9.10931 7.19753 9.07955L7.27034 8.84951L7.07624 8.70615C7.05113 8.68756 7.06406 8.64775 7.09531 8.64748L7.33659 8.64564L7.41292 8.41674C7.42277 8.38713 7.46468 8.38713 7.47456 8.41674Z" fill="#F5F5F5"/>
<path d="M8.40377 4.23708L8.48009 4.46599L8.72138 4.46782C8.75263 4.4681 8.76556 4.50794 8.74045 4.52649L8.54634 4.66982L8.61916 4.89986C8.62861 4.92962 8.59466 4.95431 8.56923 4.93611L8.37294 4.79579L8.17666 4.93611C8.15123 4.95431 8.11736 4.92962 8.12673 4.89986L8.19955 4.66982L8.00544 4.52649C7.98033 4.5079 7.99326 4.46806 8.02451 4.46782L8.2658 4.46599L8.34212 4.23708C8.35197 4.20743 8.39384 4.20743 8.40377 4.23708Z" fill="#F5F5F5"/>
<path d="M8.40377 5.43334L8.48009 5.66225L8.72138 5.66408C8.75263 5.66436 8.76556 5.70416 8.74045 5.72275L8.54634 5.86611L8.61916 6.09615C8.62861 6.12592 8.59466 6.1506 8.56923 6.1324L8.37294 5.99209L8.17666 6.1324C8.15123 6.15057 8.11736 6.12592 8.12673 6.09615L8.19955 5.86611L8.00544 5.72275C7.98033 5.70416 7.99326 5.66436 8.02451 5.66408L8.2658 5.66225L8.34212 5.43334C8.35197 5.40373 8.39384 5.40373 8.40377 5.43334Z" fill="#F5F5F5"/>
<path d="M8.40377 6.63259L8.48009 6.86149L8.72138 6.86333C8.75263 6.8636 8.76556 6.90341 8.74045 6.922L8.54634 7.06536L8.61916 7.2954C8.62861 7.32517 8.59466 7.34985 8.56923 7.33165L8.37294 7.19134L8.17666 7.33165C8.15123 7.34981 8.11736 7.32521 8.12673 7.2954L8.19955 7.06536L8.00544 6.922C7.98033 6.90341 7.99326 6.8636 8.02451 6.86333L8.2658 6.86149L8.34212 6.63259C8.35197 6.60294 8.39384 6.60294 8.40377 6.63259Z" fill="#F5F5F5"/>
<path d="M8.40377 7.8279L8.48009 8.05681L8.72138 8.05864C8.75263 8.05892 8.76556 8.09876 8.74045 8.11732L8.54634 8.26068L8.61916 8.49072C8.62861 8.52048 8.59466 8.54517 8.56923 8.52697L8.37294 8.38665L8.17666 8.52697C8.15123 8.54513 8.11736 8.52048 8.12673 8.49072L8.19955 8.26068L8.00544 8.11732C7.98033 8.0988 7.99326 8.05892 8.02451 8.05864L8.2658 8.05681L8.34212 7.8279C8.35197 7.79825 8.39384 7.79825 8.40377 7.8279Z" fill="#F5F5F5"/>
<path d="M8.40377 9.02611L8.48009 9.25502L8.72138 9.25685C8.75263 9.25713 8.76556 9.29693 8.74045 9.31553L8.54634 9.45889L8.61916 9.68892C8.62861 9.71869 8.59466 9.74338 8.56923 9.72517L8.37294 9.58486L8.17666 9.72517C8.15123 9.74334 8.11736 9.71869 8.12673 9.68892L8.19955 9.45889L8.00544 9.31553C7.98033 9.29693 7.99326 9.25713 8.02451 9.25685L8.2658 9.25502L8.34212 9.02611C8.35197 8.9965 8.39384 8.9965 8.40377 9.02611Z" fill="#F5F5F5"/>
</svg>
