<svg width="40" height="40" viewBox="0 0 40 40" fill="none" xmlns="http://www.w3.org/2000/svg">
<g clip-path="url(#clip0_8682_11346)">
<circle cx="20" cy="20" r="20" fill="#F5F4F8"/>
<path d="M20.0495 26.548C24.6667 26.548 28.4097 21.3732 28.4097 14.9899C28.4097 8.6065 24.6667 3.43176 20.0495 3.43176C15.4323 3.43176 11.6893 8.6065 11.6893 14.9899C11.6893 21.3732 15.4323 26.548 20.0495 26.548Z" fill="#D5D2DC"/>
<path d="M19.9171 25.7871C12.9171 25.7871 6.6801 27.4761 2.5 30.0924C6.38152 35.5899 11.4245 40 19.9171 40C28.4097 40 33.6185 35.6231 37.5 30.2249C33.3531 27.5092 27.0166 25.7871 19.9171 25.7871Z" fill="#D5D2DC"/>
<path d="M21.3102 31.3499H18.7556C16.9974 31.3499 15.5708 29.9258 15.5708 28.1706V20.9178C15.5708 19.1625 16.9974 17.7385 18.7556 17.7385H21.3102C23.0684 17.7385 24.495 19.1625 24.495 20.9178V28.1706C24.495 29.9258 23.0684 31.3499 21.3102 31.3499Z" fill="#D5D2DC"/>
<path d="M12.9839 15.652C13.2493 17.5066 12.8181 19.0963 12.055 19.2288C11.292 19.3612 10.4626 17.9703 10.2304 16.1157C9.99815 14.2611 10.4294 12.6383 11.1593 12.5059C11.9223 12.3734 12.7517 13.7975 12.9839 15.652Z" fill="#D5D2DC"/>
<path d="M27.0833 15.6521C26.8179 17.5067 27.2492 19.0964 28.0122 19.2289C28.7752 19.3613 29.6046 17.9704 29.8368 16.1158C30.1022 14.2612 29.671 12.6715 28.9079 12.5391C28.1449 12.4066 27.3155 13.7975 27.0833 15.6521Z" fill="#D5D2DC"/>
<path d="M11.9886 14.5267C11.7232 12.6721 11.4246 10.8175 11.1592 8.96289C11.0597 8.30054 10.9602 7.57195 11.1924 6.94271C11.4246 6.31347 12.1545 5.8167 12.7848 6.04853C12.5194 4.75693 13.9459 3.79652 15.2066 3.3991C17.2967 2.67051 19.5194 2.30622 21.709 2.60428C23.8985 2.90234 26.0218 3.86275 27.5147 5.48553C27.9791 6.01541 28.3772 6.57841 28.6094 7.24077C29.0407 8.49924 28.7753 9.89019 28.4767 11.2149C28.2445 12.2416 28.0455 13.3013 27.8132 14.328C27.7469 14.5598 27.7137 14.8247 27.5478 14.9903C27.2824 15.2884 26.8512 15.2884 26.453 15.2884C22.3061 15.2884 18.1592 15.3215 14.0123 15.3215C13.2493 15.3215 12.2208 15.1228 12.1213 14.3611" fill="#D5D2DC"/>
</g>
<defs>
<clipPath id="clip0_8682_11346">
<rect width="40" height="40" fill="white"/>
</clipPath>
</defs>
</svg>
