<svg width="48" height="48" viewBox="0 0 48 48" fill="none" xmlns="http://www.w3.org/2000/svg">
<path d="M39.9759 40.4155L34.3086 13.8869C34.2109 13.4472 33.9178 13.0563 33.5269 12.8609L20.5313 6.21656L19.6031 2.01498C19.4077 1.18443 18.626 0.647018 17.7954 0.842441C16.9649 1.03786 16.4275 1.81955 16.6229 2.6501L17.5023 6.85168L8.36629 18.1862C8.07316 18.5282 7.97544 19.0167 8.07316 19.4564L13.6916 45.985C13.887 46.8156 14.6687 47.353 15.4992 47.1576L38.8033 42.2231C39.585 42.0277 40.1224 41.246 39.9759 40.4155ZM16.3786 43.8842L11.1999 19.5541L18.3817 10.7113L19.0168 13.6426C19.2122 14.4732 19.9939 15.0106 20.8245 14.8151C21.655 14.6197 22.1924 13.838 21.997 13.0075L21.3619 10.0762L31.5239 15.2548L36.7025 39.5849L16.3786 43.8842Z" fill="#FD5631"/>
<path d="M24.3421 26.7362L22.2901 27.1759C21.4107 27.3714 20.5802 26.7851 20.4336 25.9057C20.2871 25.0751 20.8733 24.2934 21.7039 24.1469L23.7558 23.7072C24.4398 23.5606 25.1238 23.9026 25.4658 24.4889C25.5635 24.7331 25.8077 24.8309 26.052 24.782L28.0062 24.3423C28.2994 24.2934 28.4948 23.9515 28.3971 23.6583C27.6643 21.6552 25.6612 20.4339 23.5604 20.6293L23.1695 18.6751C23.1207 18.3819 22.8275 18.1865 22.5344 18.2842L20.5802 18.6751C20.2871 18.7239 20.0916 19.017 20.1893 19.3102L20.5802 21.2644C18.3328 21.9972 16.916 24.2934 17.4534 26.6385C18.0397 29.1302 20.5313 30.6447 22.9741 30.1073L24.9772 29.6676C25.8077 29.4721 26.6383 29.9607 26.8337 30.7912C27.078 31.6706 26.5406 32.5012 25.6612 32.6966L23.5604 33.1363C22.8764 33.2829 22.1924 32.9409 21.8504 32.3546C21.7527 32.1592 21.5084 32.0126 21.2642 32.0615L19.3099 32.5012C18.968 32.55 18.8214 32.892 18.9191 33.1852C19.6519 35.1882 21.655 36.4096 23.7558 36.2142L24.1466 38.1196C24.1955 38.4127 24.4886 38.6081 24.7818 38.5104L26.736 38.1196C27.0291 38.0707 27.2246 37.7776 27.1268 37.4845L26.736 35.5791C28.9834 34.8463 30.4002 32.55 29.8628 30.205C29.3253 27.7133 26.8337 26.1988 24.3421 26.7362Z" fill="#FD5631"/>
</svg>
