<svg width="38" height="46" viewBox="0 0 38 46" fill="none" xmlns="http://www.w3.org/2000/svg">
<path d="M8.58463 20.4557C8.58463 26.2157 13.2406 30.8717 19.0006 30.8717C24.7606 30.8717 29.4166 26.2157 29.4166 20.4557C29.4166 14.6957 24.7606 9.9917 19.0006 9.9917C13.2406 9.9917 8.58463 14.6957 8.58463 20.4557ZM26.6806 20.4557C26.6806 24.6797 23.2246 28.1357 19.0006 28.1357C14.7766 28.1357 11.3206 24.6797 11.3206 20.4557C11.3206 16.2317 14.7766 12.7757 19.0006 12.7757C23.2246 12.7757 26.6806 16.1837 26.6806 20.4557Z" fill="#FD5631"/>
<path d="M16.456 19.4959C15.928 18.9679 15.064 18.9679 14.536 19.4959C14.008 20.0239 14.008 20.8879 14.536 21.4159L16.888 23.7679C17.128 24.0079 17.512 24.1519 17.848 24.1519C18.184 24.1519 18.568 24.0079 18.808 23.7679L23.32 19.2559C23.848 18.7279 23.848 17.8639 23.32 17.3359C22.792 16.8079 21.928 16.8079 21.4 17.3359L17.848 20.8879L16.456 19.4959Z" fill="#FD5631"/>
<path d="M37.0004 9.51178C24.5684 4.56778 19.9604 0.583781 19.9124 0.535781C19.3844 0.0557812 18.6164 0.0557812 18.0884 0.535781C18.0404 0.583781 13.4804 4.51978 1.00041 9.51178C0.472414 9.70378 0.136414 10.2318 0.136414 10.7598C0.136414 35.3358 17.5604 45.2238 18.3284 45.6078C18.5204 45.7038 18.7604 45.7998 19.0004 45.7998C19.2404 45.7998 19.4324 45.7518 19.6724 45.6078C20.3924 45.2238 37.8644 35.3358 37.8644 10.7598C37.8644 10.2318 37.5284 9.70378 37.0004 9.51178ZM19.0004 42.8238C15.9284 40.8078 3.30441 31.3518 2.87241 11.7198C12.3284 7.87978 17.1284 4.66378 19.0004 3.31978C20.8724 4.71178 25.6724 7.87978 35.1284 11.7198C34.7444 31.3518 22.0724 40.8078 19.0004 42.8238Z" fill="#FD5631"/>
</svg>
