<svg width="48" height="48" viewBox="0 0 48 48" fill="none" xmlns="http://www.w3.org/2000/svg">
<g clip-path="url(#clip0_6169_36061)">
<path fill-rule="evenodd" clip-rule="evenodd" d="M5.4929 32.863C4.16321 32.6388 2.92597 32.0067 1.95998 31.0407C0.735001 29.8157 0.046814 28.1543 0.046814 26.4219V22.4412C0.046814 20.7088 0.735001 19.0474 1.95998 17.8224C3.18506 16.5974 4.84653 15.9091 6.57893 15.9091H7.01364C7.70866 7.13662 15.0483 0.233887 24 0.233887C32.9519 0.233887 40.2914 7.13662 40.9864 15.9091H41.4212C43.1536 15.9091 44.8151 16.5974 46.0401 17.8224C47.2651 19.0474 47.9532 20.7088 47.9532 22.4412V26.4219C47.9532 28.1543 47.2651 29.8157 46.0401 31.0407C44.8151 32.2658 43.1536 32.954 41.4212 32.954H39.4936C38.6942 32.954 38.0462 32.3059 38.0462 31.5065V17.2742C38.0462 9.51669 31.7575 3.22804 24 3.22804C16.2426 3.22804 9.954 9.51669 9.954 17.2742V31.5065C9.954 32.3058 9.30585 32.954 8.50651 32.954H8.50632C8.71938 34.9628 9.6135 36.8493 11.055 38.2908C12.7185 39.9543 14.9748 40.8889 17.3275 40.8889H17.5264C17.7742 40.0498 18.2286 39.2775 18.8584 38.6477C19.8498 37.6564 21.1944 37.0994 22.5965 37.0994H25.4035C28.3232 37.0994 30.6901 39.4663 30.6901 42.3859C30.6901 45.3056 28.3232 47.6725 25.4035 47.6725H22.5965C20.1969 47.6725 18.1706 46.0736 17.525 43.883H17.3275C14.1807 43.883 11.1629 42.6329 8.93785 40.4079C6.91278 38.3828 5.69538 35.7012 5.4929 32.863ZM27.6959 42.3859C27.6959 41.1199 26.6696 40.0935 25.4035 40.0935H22.5965C21.9885 40.0935 21.4055 40.335 20.9756 40.765C20.5456 41.1949 20.3041 41.7779 20.3041 42.3859C20.3041 43.652 21.3305 44.6783 22.5965 44.6783H25.4035C26.6696 44.6783 27.6959 43.652 27.6959 42.3859ZM6.95984 18.9033H6.57893C5.64054 18.9033 4.74071 19.276 4.07722 19.9395C3.41374 20.603 3.04097 21.5029 3.04097 22.4412V26.4219C3.04097 27.3602 3.41374 28.2601 4.07722 28.9236C4.74071 29.5871 5.64054 29.9598 6.57893 29.9598H6.95984V18.9033ZM41.0403 18.9033V29.9598H41.4212C42.3595 29.9598 43.2593 29.5871 43.9228 28.9236C44.5863 28.2601 44.9591 27.3602 44.9591 26.4219V22.4412C44.9591 21.5029 44.5863 20.603 43.9228 19.9395C43.2593 19.276 42.3595 18.9033 41.4212 18.9033H41.0403Z" fill="#FD5631"/>
</g>
<defs>
<clipPath id="clip0_6169_36061">
<rect width="48" height="48" fill="white"/>
</clipPath>
</defs>
</svg>
